M48
; DRILL file {KiCad (5.1.5)-3} date 15/02/2020 17:21:35
; FORMAT={-:-/ absolute / inch / decimal}
; #@! TF.CreationDate,2020-02-15T17:21:35+00:00
; #@! TF.GenerationSoftware,Kicad,Pcbnew,(5.1.5)-3
; #@! TF.FileFunction,Plated,1,2,PTH
FMAT,2
INCH
T1C0.0157
T2C0.0315
T3C0.0362
T4C0.0394
T5C0.0400
T6C0.0433
T7C0.0472
T8C0.0917
%
G90
G05
T1
X4.55Y-3.95
X4.75Y-4.15
X4.8Y-3.725
X4.825Y-3.325
X4.9Y-3.95
X4.95Y-3.8
X4.95Y-4.025
X5.05Y-4.025
X5.1Y-3.675
X5.15Y-3.625
X5.475Y-2.925
X5.55Y-3.4
X5.55Y-3.525
X5.6Y-4.025
X5.825Y-3.115
X5.85Y-2.95
X5.9Y-3.575
X5.925Y-3.5
X6.025Y-3.3
X6.075Y-3.575
X6.125Y-3.275
X6.15Y-3.425
X6.175Y-2.875
X6.25Y-3.8
X6.275Y-3.65
X6.3Y-3.075
X6.3Y-3.275
X6.325Y-3.325
X6.325Y-3.65
X6.375Y-3.65
X6.375Y-3.75
X6.425Y-4.05
X6.475Y-2.9
X6.475Y-3.4
X6.475Y-3.475
X6.5Y-3.9
X6.5Y-4.15
X6.55Y-3.525
X6.6Y-3.575
X6.6Y-3.625
X6.65Y-4.1
X6.825Y-3.45
X6.85Y-2.88
X6.925Y-3.5
X6.95Y-4.175
X7.0Y-3.4
X7.025Y-3.45
X7.025Y-3.5
X7.125Y-3.625
X7.225Y-3.925
X7.25Y-4.175
X7.575Y-4.0
T2
X5.925Y-4.4
X6.025Y-4.6
X6.125Y-4.4
X4.325Y-4.6
X4.425Y-4.4
X4.525Y-4.6
X5.975Y-4.1
X6.1671Y-4.1
T3
X5.05Y-3.0713
X5.05Y-3.15
X5.1484Y-3.0713
X5.1484Y-3.15
T4
X4.4Y-3.675
X4.5Y-3.675
X4.6Y-3.675
X6.7Y-2.85
X6.7Y-2.95
X6.7Y-3.05
X6.7Y-3.15
X6.7Y-3.25
X6.7Y-3.35
X6.7Y-3.45
X5.05Y-4.25
X5.05Y-4.5492
T5
X5.55Y-4.275
X5.55Y-4.375
X5.55Y-4.475
X5.65Y-4.275
X5.65Y-4.375
X5.65Y-4.475
X6.45Y-4.45
X6.45Y-4.55
X6.55Y-4.45
X6.55Y-4.55
X6.65Y-4.45
X6.65Y-4.55
X6.75Y-4.45
X6.75Y-4.55
X6.85Y-4.45
X6.85Y-4.55
X6.95Y-4.45
X6.95Y-4.55
X7.05Y-4.45
X7.05Y-4.55
X7.15Y-4.45
X7.15Y-4.55
X7.25Y-4.45
X7.25Y-4.55
X7.35Y-4.45
X7.35Y-4.55
T6
X5.4691Y-3.6728
X5.4691Y-3.85
X5.725Y-3.6728
X5.725Y-3.85
T7
X7.375Y-3.1
X7.375Y-3.2
X7.375Y-3.3
X7.375Y-3.4
X7.725Y-3.1
X7.725Y-3.2
X7.725Y-3.3
X7.725Y-3.4
X7.375Y-3.6
X7.375Y-3.7
X7.375Y-3.8
X7.375Y-3.9
X4.1Y-3.075
X4.1Y-3.175
X7.725Y-4.1
X7.725Y-4.2
X7.725Y-4.3
X7.725Y-4.4
X7.725Y-3.6
X7.725Y-3.7
X7.725Y-3.8
X7.725Y-3.9
X4.1Y-3.375
X4.1Y-3.475
X4.1Y-3.575
X4.1Y-3.675
X4.1Y-3.775
X4.1Y-3.875
X4.1Y-3.975
X4.1Y-4.075
T8
X4.8622Y-2.9646
X5.3362Y-2.9646
T2
G00X4.311Y-2.9386
M15
G01X4.311Y-3.0252
M16
G05
G00X4.5433Y-2.8717
M15
G01X4.4567Y-2.8717
M16
G05
G00X4.5512Y-3.1
M15
G01X4.4488Y-3.1
M16
G05
T0
M30
