%TF.GenerationSoftware,KiCad,Pcbnew,(5.1.5)-3*%
%TF.CreationDate,2020-02-15T17:24:23+00:00*%
%TF.ProjectId,Feedback-Box,46656564-6261-4636-9b2d-426f782e6b69,8A*%
%TF.SameCoordinates,Original*%
%TF.FileFunction,Soldermask,Bot*%
%TF.FilePolarity,Negative*%
%FSLAX46Y46*%
G04 Gerber Fmt 4.6, Leading zero omitted, Abs format (unit mm)*
G04 Created by KiCad (PCBNEW (5.1.5)-3) date 2020-02-15 17:24:23*
%MOMM*%
%LPD*%
G04 APERTURE LIST*
%ADD10C,0.160000*%
%ADD11C,0.100000*%
G04 APERTURE END LIST*
D10*
X135612142Y-86669523D02*
X135659761Y-86621904D01*
X135707380Y-86479047D01*
X135707380Y-86383809D01*
X135659761Y-86240952D01*
X135564523Y-86145714D01*
X135469285Y-86098095D01*
X135278809Y-86050476D01*
X135135952Y-86050476D01*
X134945476Y-86098095D01*
X134850238Y-86145714D01*
X134755000Y-86240952D01*
X134707380Y-86383809D01*
X134707380Y-86479047D01*
X134755000Y-86621904D01*
X134802619Y-86669523D01*
X134707380Y-89138095D02*
X134707380Y-88661904D01*
X135183571Y-88614285D01*
X135135952Y-88661904D01*
X135088333Y-88757142D01*
X135088333Y-88995238D01*
X135135952Y-89090476D01*
X135183571Y-89138095D01*
X135278809Y-89185714D01*
X135516904Y-89185714D01*
X135612142Y-89138095D01*
X135659761Y-89090476D01*
X135707380Y-88995238D01*
X135707380Y-88757142D01*
X135659761Y-88661904D01*
X135612142Y-88614285D01*
D11*
G36*
X197700664Y-116366365D02*
G01*
X197835734Y-116393232D01*
X198045203Y-116479997D01*
X198233720Y-116605960D01*
X198394040Y-116766280D01*
X198494038Y-116915938D01*
X198520004Y-116954799D01*
X198606768Y-117164267D01*
X198640030Y-117331483D01*
X198651000Y-117386636D01*
X198651000Y-117613364D01*
X198606768Y-117835734D01*
X198520003Y-118045203D01*
X198394040Y-118233720D01*
X198233720Y-118394040D01*
X198045203Y-118520003D01*
X197835734Y-118606768D01*
X197724549Y-118628884D01*
X197613365Y-118651000D01*
X197386635Y-118651000D01*
X197275451Y-118628884D01*
X197164266Y-118606768D01*
X196954797Y-118520003D01*
X196766280Y-118394040D01*
X196605960Y-118233720D01*
X196479997Y-118045203D01*
X196393232Y-117835734D01*
X196349000Y-117613364D01*
X196349000Y-117386636D01*
X196359971Y-117331483D01*
X196393232Y-117164267D01*
X196479996Y-116954799D01*
X196505962Y-116915938D01*
X196605960Y-116766280D01*
X196766280Y-116605960D01*
X196954797Y-116479997D01*
X197164266Y-116393232D01*
X197299336Y-116366365D01*
X197386635Y-116349000D01*
X197613365Y-116349000D01*
X197700664Y-116366365D01*
G37*
G36*
X102700664Y-116366365D02*
G01*
X102835734Y-116393232D01*
X103045203Y-116479997D01*
X103233720Y-116605960D01*
X103394040Y-116766280D01*
X103494038Y-116915938D01*
X103520004Y-116954799D01*
X103606768Y-117164267D01*
X103640030Y-117331483D01*
X103651000Y-117386636D01*
X103651000Y-117613364D01*
X103606768Y-117835734D01*
X103520003Y-118045203D01*
X103394040Y-118233720D01*
X103233720Y-118394040D01*
X103045203Y-118520003D01*
X102835734Y-118606768D01*
X102724549Y-118628884D01*
X102613365Y-118651000D01*
X102386635Y-118651000D01*
X102275451Y-118628884D01*
X102164266Y-118606768D01*
X101954797Y-118520003D01*
X101766280Y-118394040D01*
X101605960Y-118233720D01*
X101479997Y-118045203D01*
X101393232Y-117835734D01*
X101349000Y-117613364D01*
X101349000Y-117386636D01*
X101359971Y-117331483D01*
X101393232Y-117164267D01*
X101479996Y-116954799D01*
X101505962Y-116915938D01*
X101605960Y-116766280D01*
X101766280Y-116605960D01*
X101954797Y-116479997D01*
X102164266Y-116393232D01*
X102299336Y-116366365D01*
X102386635Y-116349000D01*
X102613365Y-116349000D01*
X102700664Y-116366365D01*
G37*
G36*
X115060589Y-116078876D02*
G01*
X115159893Y-116098629D01*
X115300206Y-116156748D01*
X115426484Y-116241125D01*
X115533875Y-116348516D01*
X115618252Y-116474794D01*
X115676371Y-116615107D01*
X115706000Y-116764063D01*
X115706000Y-116915937D01*
X115676371Y-117064893D01*
X115618252Y-117205206D01*
X115533875Y-117331484D01*
X115426484Y-117438875D01*
X115300206Y-117523252D01*
X115159893Y-117581371D01*
X115060589Y-117601124D01*
X115010938Y-117611000D01*
X114859062Y-117611000D01*
X114809411Y-117601124D01*
X114710107Y-117581371D01*
X114569794Y-117523252D01*
X114443516Y-117438875D01*
X114336125Y-117331484D01*
X114251748Y-117205206D01*
X114193629Y-117064893D01*
X114164000Y-116915937D01*
X114164000Y-116764063D01*
X114193629Y-116615107D01*
X114251748Y-116474794D01*
X114336125Y-116348516D01*
X114443516Y-116241125D01*
X114569794Y-116156748D01*
X114710107Y-116098629D01*
X114809411Y-116078876D01*
X114859062Y-116069000D01*
X115010938Y-116069000D01*
X115060589Y-116078876D01*
G37*
G36*
X109980589Y-116078876D02*
G01*
X110079893Y-116098629D01*
X110220206Y-116156748D01*
X110346484Y-116241125D01*
X110453875Y-116348516D01*
X110538252Y-116474794D01*
X110596371Y-116615107D01*
X110626000Y-116764063D01*
X110626000Y-116915937D01*
X110596371Y-117064893D01*
X110538252Y-117205206D01*
X110453875Y-117331484D01*
X110346484Y-117438875D01*
X110220206Y-117523252D01*
X110079893Y-117581371D01*
X109980589Y-117601124D01*
X109930938Y-117611000D01*
X109779062Y-117611000D01*
X109729411Y-117601124D01*
X109630107Y-117581371D01*
X109489794Y-117523252D01*
X109363516Y-117438875D01*
X109256125Y-117331484D01*
X109171748Y-117205206D01*
X109113629Y-117064893D01*
X109084000Y-116915937D01*
X109084000Y-116764063D01*
X109113629Y-116615107D01*
X109171748Y-116474794D01*
X109256125Y-116348516D01*
X109363516Y-116241125D01*
X109489794Y-116156748D01*
X109630107Y-116098629D01*
X109729411Y-116078876D01*
X109779062Y-116069000D01*
X109930938Y-116069000D01*
X109980589Y-116078876D01*
G37*
G36*
X153160589Y-116078876D02*
G01*
X153259893Y-116098629D01*
X153400206Y-116156748D01*
X153526484Y-116241125D01*
X153633875Y-116348516D01*
X153718252Y-116474794D01*
X153776371Y-116615107D01*
X153806000Y-116764063D01*
X153806000Y-116915937D01*
X153776371Y-117064893D01*
X153718252Y-117205206D01*
X153633875Y-117331484D01*
X153526484Y-117438875D01*
X153400206Y-117523252D01*
X153259893Y-117581371D01*
X153160589Y-117601124D01*
X153110938Y-117611000D01*
X152959062Y-117611000D01*
X152909411Y-117601124D01*
X152810107Y-117581371D01*
X152669794Y-117523252D01*
X152543516Y-117438875D01*
X152436125Y-117331484D01*
X152351748Y-117205206D01*
X152293629Y-117064893D01*
X152264000Y-116915937D01*
X152264000Y-116764063D01*
X152293629Y-116615107D01*
X152351748Y-116474794D01*
X152436125Y-116348516D01*
X152543516Y-116241125D01*
X152669794Y-116156748D01*
X152810107Y-116098629D01*
X152909411Y-116078876D01*
X152959062Y-116069000D01*
X153110938Y-116069000D01*
X153160589Y-116078876D01*
G37*
G36*
X128576564Y-114539389D02*
G01*
X128767833Y-114618615D01*
X128767835Y-114618616D01*
X128822886Y-114655400D01*
X128939973Y-114733635D01*
X129086365Y-114880027D01*
X129201385Y-115052167D01*
X129280611Y-115243436D01*
X129321000Y-115446484D01*
X129321000Y-115653516D01*
X129280611Y-115856564D01*
X129219862Y-116003225D01*
X129201384Y-116047835D01*
X129086365Y-116219973D01*
X128939973Y-116366365D01*
X128767835Y-116481384D01*
X128767834Y-116481385D01*
X128767833Y-116481385D01*
X128576564Y-116560611D01*
X128373516Y-116601000D01*
X128166484Y-116601000D01*
X127963436Y-116560611D01*
X127772167Y-116481385D01*
X127772166Y-116481385D01*
X127772165Y-116481384D01*
X127600027Y-116366365D01*
X127453635Y-116219973D01*
X127338616Y-116047835D01*
X127320138Y-116003225D01*
X127259389Y-115856564D01*
X127219000Y-115653516D01*
X127219000Y-115446484D01*
X127259389Y-115243436D01*
X127338615Y-115052167D01*
X127453635Y-114880027D01*
X127600027Y-114733635D01*
X127717114Y-114655400D01*
X127772165Y-114618616D01*
X127772167Y-114618615D01*
X127963436Y-114539389D01*
X128166484Y-114499000D01*
X128373516Y-114499000D01*
X128576564Y-114539389D01*
G37*
G36*
X169176778Y-114690547D02*
G01*
X169343224Y-114759491D01*
X169493022Y-114859583D01*
X169620417Y-114986978D01*
X169720509Y-115136776D01*
X169789453Y-115303222D01*
X169824600Y-115479918D01*
X169824600Y-115660082D01*
X169789453Y-115836778D01*
X169720509Y-116003224D01*
X169620417Y-116153022D01*
X169493022Y-116280417D01*
X169343224Y-116380509D01*
X169176778Y-116449453D01*
X169000082Y-116484600D01*
X168819918Y-116484600D01*
X168643222Y-116449453D01*
X168476776Y-116380509D01*
X168326978Y-116280417D01*
X168199583Y-116153022D01*
X168099491Y-116003224D01*
X168030547Y-115836778D01*
X167995400Y-115660082D01*
X167995400Y-115479918D01*
X168030547Y-115303222D01*
X168099491Y-115136776D01*
X168199583Y-114986978D01*
X168326978Y-114859583D01*
X168476776Y-114759491D01*
X168643222Y-114690547D01*
X168819918Y-114655400D01*
X169000082Y-114655400D01*
X169176778Y-114690547D01*
G37*
G36*
X164744600Y-116484600D02*
G01*
X162915400Y-116484600D01*
X162915400Y-114655400D01*
X164744600Y-114655400D01*
X164744600Y-116484600D01*
G37*
G36*
X171716778Y-114690547D02*
G01*
X171883224Y-114759491D01*
X172033022Y-114859583D01*
X172160417Y-114986978D01*
X172260509Y-115136776D01*
X172329453Y-115303222D01*
X172364600Y-115479918D01*
X172364600Y-115660082D01*
X172329453Y-115836778D01*
X172260509Y-116003224D01*
X172160417Y-116153022D01*
X172033022Y-116280417D01*
X171883224Y-116380509D01*
X171716778Y-116449453D01*
X171540082Y-116484600D01*
X171359918Y-116484600D01*
X171183222Y-116449453D01*
X171016776Y-116380509D01*
X170866978Y-116280417D01*
X170739583Y-116153022D01*
X170639491Y-116003224D01*
X170570547Y-115836778D01*
X170535400Y-115660082D01*
X170535400Y-115479918D01*
X170570547Y-115303222D01*
X170639491Y-115136776D01*
X170739583Y-114986978D01*
X170866978Y-114859583D01*
X171016776Y-114759491D01*
X171183222Y-114690547D01*
X171359918Y-114655400D01*
X171540082Y-114655400D01*
X171716778Y-114690547D01*
G37*
G36*
X174256778Y-114690547D02*
G01*
X174423224Y-114759491D01*
X174573022Y-114859583D01*
X174700417Y-114986978D01*
X174800509Y-115136776D01*
X174869453Y-115303222D01*
X174904600Y-115479918D01*
X174904600Y-115660082D01*
X174869453Y-115836778D01*
X174800509Y-116003224D01*
X174700417Y-116153022D01*
X174573022Y-116280417D01*
X174423224Y-116380509D01*
X174256778Y-116449453D01*
X174080082Y-116484600D01*
X173899918Y-116484600D01*
X173723222Y-116449453D01*
X173556776Y-116380509D01*
X173406978Y-116280417D01*
X173279583Y-116153022D01*
X173179491Y-116003224D01*
X173110547Y-115836778D01*
X173075400Y-115660082D01*
X173075400Y-115479918D01*
X173110547Y-115303222D01*
X173179491Y-115136776D01*
X173279583Y-114986978D01*
X173406978Y-114859583D01*
X173556776Y-114759491D01*
X173723222Y-114690547D01*
X173899918Y-114655400D01*
X174080082Y-114655400D01*
X174256778Y-114690547D01*
G37*
G36*
X176796778Y-114690547D02*
G01*
X176963224Y-114759491D01*
X177113022Y-114859583D01*
X177240417Y-114986978D01*
X177340509Y-115136776D01*
X177409453Y-115303222D01*
X177444600Y-115479918D01*
X177444600Y-115660082D01*
X177409453Y-115836778D01*
X177340509Y-116003224D01*
X177240417Y-116153022D01*
X177113022Y-116280417D01*
X176963224Y-116380509D01*
X176796778Y-116449453D01*
X176620082Y-116484600D01*
X176439918Y-116484600D01*
X176263222Y-116449453D01*
X176096776Y-116380509D01*
X175946978Y-116280417D01*
X175819583Y-116153022D01*
X175719491Y-116003224D01*
X175650547Y-115836778D01*
X175615400Y-115660082D01*
X175615400Y-115479918D01*
X175650547Y-115303222D01*
X175719491Y-115136776D01*
X175819583Y-114986978D01*
X175946978Y-114859583D01*
X176096776Y-114759491D01*
X176263222Y-114690547D01*
X176439918Y-114655400D01*
X176620082Y-114655400D01*
X176796778Y-114690547D01*
G37*
G36*
X179336778Y-114690547D02*
G01*
X179503224Y-114759491D01*
X179653022Y-114859583D01*
X179780417Y-114986978D01*
X179880509Y-115136776D01*
X179949453Y-115303222D01*
X179984600Y-115479918D01*
X179984600Y-115660082D01*
X179949453Y-115836778D01*
X179880509Y-116003224D01*
X179780417Y-116153022D01*
X179653022Y-116280417D01*
X179503224Y-116380509D01*
X179336778Y-116449453D01*
X179160082Y-116484600D01*
X178979918Y-116484600D01*
X178803222Y-116449453D01*
X178636776Y-116380509D01*
X178486978Y-116280417D01*
X178359583Y-116153022D01*
X178259491Y-116003224D01*
X178190547Y-115836778D01*
X178155400Y-115660082D01*
X178155400Y-115479918D01*
X178190547Y-115303222D01*
X178259491Y-115136776D01*
X178359583Y-114986978D01*
X178486978Y-114859583D01*
X178636776Y-114759491D01*
X178803222Y-114690547D01*
X178979918Y-114655400D01*
X179160082Y-114655400D01*
X179336778Y-114690547D01*
G37*
G36*
X181876778Y-114690547D02*
G01*
X182043224Y-114759491D01*
X182193022Y-114859583D01*
X182320417Y-114986978D01*
X182420509Y-115136776D01*
X182489453Y-115303222D01*
X182524600Y-115479918D01*
X182524600Y-115660082D01*
X182489453Y-115836778D01*
X182420509Y-116003224D01*
X182320417Y-116153022D01*
X182193022Y-116280417D01*
X182043224Y-116380509D01*
X181876778Y-116449453D01*
X181700082Y-116484600D01*
X181519918Y-116484600D01*
X181343222Y-116449453D01*
X181176776Y-116380509D01*
X181026978Y-116280417D01*
X180899583Y-116153022D01*
X180799491Y-116003224D01*
X180730547Y-115836778D01*
X180695400Y-115660082D01*
X180695400Y-115479918D01*
X180730547Y-115303222D01*
X180799491Y-115136776D01*
X180899583Y-114986978D01*
X181026978Y-114859583D01*
X181176776Y-114759491D01*
X181343222Y-114690547D01*
X181519918Y-114655400D01*
X181700082Y-114655400D01*
X181876778Y-114690547D01*
G37*
G36*
X184416778Y-114690547D02*
G01*
X184583224Y-114759491D01*
X184733022Y-114859583D01*
X184860417Y-114986978D01*
X184960509Y-115136776D01*
X185029453Y-115303222D01*
X185064600Y-115479918D01*
X185064600Y-115660082D01*
X185029453Y-115836778D01*
X184960509Y-116003224D01*
X184860417Y-116153022D01*
X184733022Y-116280417D01*
X184583224Y-116380509D01*
X184416778Y-116449453D01*
X184240082Y-116484600D01*
X184059918Y-116484600D01*
X183883222Y-116449453D01*
X183716776Y-116380509D01*
X183566978Y-116280417D01*
X183439583Y-116153022D01*
X183339491Y-116003224D01*
X183270547Y-115836778D01*
X183235400Y-115660082D01*
X183235400Y-115479918D01*
X183270547Y-115303222D01*
X183339491Y-115136776D01*
X183439583Y-114986978D01*
X183566978Y-114859583D01*
X183716776Y-114759491D01*
X183883222Y-114690547D01*
X184059918Y-114655400D01*
X184240082Y-114655400D01*
X184416778Y-114690547D01*
G37*
G36*
X186956778Y-114690547D02*
G01*
X187123224Y-114759491D01*
X187273022Y-114859583D01*
X187400417Y-114986978D01*
X187500509Y-115136776D01*
X187569453Y-115303222D01*
X187604600Y-115479918D01*
X187604600Y-115660082D01*
X187569453Y-115836778D01*
X187500509Y-116003224D01*
X187400417Y-116153022D01*
X187273022Y-116280417D01*
X187123224Y-116380509D01*
X186956778Y-116449453D01*
X186780082Y-116484600D01*
X186599918Y-116484600D01*
X186423222Y-116449453D01*
X186256776Y-116380509D01*
X186106978Y-116280417D01*
X185979583Y-116153022D01*
X185879491Y-116003224D01*
X185810547Y-115836778D01*
X185775400Y-115660082D01*
X185775400Y-115479918D01*
X185810547Y-115303222D01*
X185879491Y-115136776D01*
X185979583Y-114986978D01*
X186106978Y-114859583D01*
X186256776Y-114759491D01*
X186423222Y-114690547D01*
X186599918Y-114655400D01*
X186780082Y-114655400D01*
X186956778Y-114690547D01*
G37*
G36*
X166636778Y-114690547D02*
G01*
X166803224Y-114759491D01*
X166953022Y-114859583D01*
X167080417Y-114986978D01*
X167180509Y-115136776D01*
X167249453Y-115303222D01*
X167284600Y-115479918D01*
X167284600Y-115660082D01*
X167249453Y-115836778D01*
X167180509Y-116003224D01*
X167080417Y-116153022D01*
X166953022Y-116280417D01*
X166803224Y-116380509D01*
X166636778Y-116449453D01*
X166460082Y-116484600D01*
X166279918Y-116484600D01*
X166103222Y-116449453D01*
X165936776Y-116380509D01*
X165786978Y-116280417D01*
X165659583Y-116153022D01*
X165559491Y-116003224D01*
X165490547Y-115836778D01*
X165455400Y-115660082D01*
X165455400Y-115479918D01*
X165490547Y-115303222D01*
X165559491Y-115136776D01*
X165659583Y-114986978D01*
X165786978Y-114859583D01*
X165936776Y-114759491D01*
X166103222Y-114690547D01*
X166279918Y-114655400D01*
X166460082Y-114655400D01*
X166636778Y-114690547D01*
G37*
G36*
X161654499Y-114208445D02*
G01*
X161691995Y-114219820D01*
X161726554Y-114238292D01*
X161756847Y-114263153D01*
X161781708Y-114293446D01*
X161800180Y-114328005D01*
X161811555Y-114365501D01*
X161816000Y-114410638D01*
X161816000Y-115149362D01*
X161811555Y-115194499D01*
X161800180Y-115231995D01*
X161781708Y-115266554D01*
X161756847Y-115296847D01*
X161726554Y-115321708D01*
X161691995Y-115340180D01*
X161654499Y-115351555D01*
X161609362Y-115356000D01*
X160970638Y-115356000D01*
X160925501Y-115351555D01*
X160888005Y-115340180D01*
X160853446Y-115321708D01*
X160823153Y-115296847D01*
X160798292Y-115266554D01*
X160779820Y-115231995D01*
X160768445Y-115194499D01*
X160764000Y-115149362D01*
X160764000Y-114410638D01*
X160768445Y-114365501D01*
X160779820Y-114328005D01*
X160798292Y-114293446D01*
X160823153Y-114263153D01*
X160853446Y-114238292D01*
X160888005Y-114219820D01*
X160925501Y-114208445D01*
X160970638Y-114204000D01*
X161609362Y-114204000D01*
X161654499Y-114208445D01*
G37*
G36*
X143776778Y-112785547D02*
G01*
X143943224Y-112854491D01*
X144093022Y-112954583D01*
X144220417Y-113081978D01*
X144320509Y-113231776D01*
X144389453Y-113398222D01*
X144424600Y-113574918D01*
X144424600Y-113755082D01*
X144389453Y-113931778D01*
X144320509Y-114098224D01*
X144220417Y-114248022D01*
X144093022Y-114375417D01*
X143943224Y-114475509D01*
X143776778Y-114544453D01*
X143600082Y-114579600D01*
X143419918Y-114579600D01*
X143243222Y-114544453D01*
X143076776Y-114475509D01*
X142926978Y-114375417D01*
X142799583Y-114248022D01*
X142699491Y-114098224D01*
X142630547Y-113931778D01*
X142595400Y-113755082D01*
X142595400Y-113574918D01*
X142630547Y-113398222D01*
X142699491Y-113231776D01*
X142799583Y-113081978D01*
X142926978Y-112954583D01*
X143076776Y-112854491D01*
X143243222Y-112785547D01*
X143419918Y-112750400D01*
X143600082Y-112750400D01*
X143776778Y-112785547D01*
G37*
G36*
X141236778Y-112785547D02*
G01*
X141403224Y-112854491D01*
X141553022Y-112954583D01*
X141680417Y-113081978D01*
X141780509Y-113231776D01*
X141849453Y-113398222D01*
X141884600Y-113574918D01*
X141884600Y-113755082D01*
X141849453Y-113931778D01*
X141780509Y-114098224D01*
X141680417Y-114248022D01*
X141553022Y-114375417D01*
X141403224Y-114475509D01*
X141236778Y-114544453D01*
X141060082Y-114579600D01*
X140879918Y-114579600D01*
X140703222Y-114544453D01*
X140536776Y-114475509D01*
X140386978Y-114375417D01*
X140259583Y-114248022D01*
X140159491Y-114098224D01*
X140090547Y-113931778D01*
X140055400Y-113755082D01*
X140055400Y-113574918D01*
X140090547Y-113398222D01*
X140159491Y-113231776D01*
X140259583Y-113081978D01*
X140386978Y-112954583D01*
X140536776Y-112854491D01*
X140703222Y-112785547D01*
X140879918Y-112750400D01*
X141060082Y-112750400D01*
X141236778Y-112785547D01*
G37*
G36*
X174256778Y-112150547D02*
G01*
X174423224Y-112219491D01*
X174573022Y-112319583D01*
X174700417Y-112446978D01*
X174800509Y-112596776D01*
X174869453Y-112763222D01*
X174904600Y-112939918D01*
X174904600Y-113120082D01*
X174869453Y-113296778D01*
X174800509Y-113463224D01*
X174700417Y-113613022D01*
X174573022Y-113740417D01*
X174423224Y-113840509D01*
X174256778Y-113909453D01*
X174080082Y-113944600D01*
X173899918Y-113944600D01*
X173723222Y-113909453D01*
X173556776Y-113840509D01*
X173406978Y-113740417D01*
X173279583Y-113613022D01*
X173179491Y-113463224D01*
X173110547Y-113296778D01*
X173075400Y-113120082D01*
X173075400Y-112939918D01*
X173110547Y-112763222D01*
X173179491Y-112596776D01*
X173279583Y-112446978D01*
X173406978Y-112319583D01*
X173556776Y-112219491D01*
X173723222Y-112150547D01*
X173899918Y-112115400D01*
X174080082Y-112115400D01*
X174256778Y-112150547D01*
G37*
G36*
X186956778Y-112150547D02*
G01*
X187123224Y-112219491D01*
X187273022Y-112319583D01*
X187400417Y-112446978D01*
X187500509Y-112596776D01*
X187569453Y-112763222D01*
X187604600Y-112939918D01*
X187604600Y-113120082D01*
X187569453Y-113296778D01*
X187500509Y-113463224D01*
X187400417Y-113613022D01*
X187273022Y-113740417D01*
X187123224Y-113840509D01*
X186956778Y-113909453D01*
X186780082Y-113944600D01*
X186599918Y-113944600D01*
X186423222Y-113909453D01*
X186256776Y-113840509D01*
X186106978Y-113740417D01*
X185979583Y-113613022D01*
X185879491Y-113463224D01*
X185810547Y-113296778D01*
X185775400Y-113120082D01*
X185775400Y-112939918D01*
X185810547Y-112763222D01*
X185879491Y-112596776D01*
X185979583Y-112446978D01*
X186106978Y-112319583D01*
X186256776Y-112219491D01*
X186423222Y-112150547D01*
X186599918Y-112115400D01*
X186780082Y-112115400D01*
X186956778Y-112150547D01*
G37*
G36*
X164096778Y-112150547D02*
G01*
X164263224Y-112219491D01*
X164413022Y-112319583D01*
X164540417Y-112446978D01*
X164640509Y-112596776D01*
X164709453Y-112763222D01*
X164744600Y-112939918D01*
X164744600Y-113120082D01*
X164709453Y-113296778D01*
X164640509Y-113463224D01*
X164540417Y-113613022D01*
X164413022Y-113740417D01*
X164263224Y-113840509D01*
X164096778Y-113909453D01*
X163920082Y-113944600D01*
X163739918Y-113944600D01*
X163563222Y-113909453D01*
X163396776Y-113840509D01*
X163246978Y-113740417D01*
X163119583Y-113613022D01*
X163019491Y-113463224D01*
X162950547Y-113296778D01*
X162915400Y-113120082D01*
X162915400Y-112939918D01*
X162950547Y-112763222D01*
X163019491Y-112596776D01*
X163119583Y-112446978D01*
X163246978Y-112319583D01*
X163396776Y-112219491D01*
X163563222Y-112150547D01*
X163739918Y-112115400D01*
X163920082Y-112115400D01*
X164096778Y-112150547D01*
G37*
G36*
X184416778Y-112150547D02*
G01*
X184583224Y-112219491D01*
X184733022Y-112319583D01*
X184860417Y-112446978D01*
X184960509Y-112596776D01*
X185029453Y-112763222D01*
X185064600Y-112939918D01*
X185064600Y-113120082D01*
X185029453Y-113296778D01*
X184960509Y-113463224D01*
X184860417Y-113613022D01*
X184733022Y-113740417D01*
X184583224Y-113840509D01*
X184416778Y-113909453D01*
X184240082Y-113944600D01*
X184059918Y-113944600D01*
X183883222Y-113909453D01*
X183716776Y-113840509D01*
X183566978Y-113740417D01*
X183439583Y-113613022D01*
X183339491Y-113463224D01*
X183270547Y-113296778D01*
X183235400Y-113120082D01*
X183235400Y-112939918D01*
X183270547Y-112763222D01*
X183339491Y-112596776D01*
X183439583Y-112446978D01*
X183566978Y-112319583D01*
X183716776Y-112219491D01*
X183883222Y-112150547D01*
X184059918Y-112115400D01*
X184240082Y-112115400D01*
X184416778Y-112150547D01*
G37*
G36*
X166636778Y-112150547D02*
G01*
X166803224Y-112219491D01*
X166953022Y-112319583D01*
X167080417Y-112446978D01*
X167180509Y-112596776D01*
X167249453Y-112763222D01*
X167284600Y-112939918D01*
X167284600Y-113120082D01*
X167249453Y-113296778D01*
X167180509Y-113463224D01*
X167080417Y-113613022D01*
X166953022Y-113740417D01*
X166803224Y-113840509D01*
X166636778Y-113909453D01*
X166460082Y-113944600D01*
X166279918Y-113944600D01*
X166103222Y-113909453D01*
X165936776Y-113840509D01*
X165786978Y-113740417D01*
X165659583Y-113613022D01*
X165559491Y-113463224D01*
X165490547Y-113296778D01*
X165455400Y-113120082D01*
X165455400Y-112939918D01*
X165490547Y-112763222D01*
X165559491Y-112596776D01*
X165659583Y-112446978D01*
X165786978Y-112319583D01*
X165936776Y-112219491D01*
X166103222Y-112150547D01*
X166279918Y-112115400D01*
X166460082Y-112115400D01*
X166636778Y-112150547D01*
G37*
G36*
X181876778Y-112150547D02*
G01*
X182043224Y-112219491D01*
X182193022Y-112319583D01*
X182320417Y-112446978D01*
X182420509Y-112596776D01*
X182489453Y-112763222D01*
X182524600Y-112939918D01*
X182524600Y-113120082D01*
X182489453Y-113296778D01*
X182420509Y-113463224D01*
X182320417Y-113613022D01*
X182193022Y-113740417D01*
X182043224Y-113840509D01*
X181876778Y-113909453D01*
X181700082Y-113944600D01*
X181519918Y-113944600D01*
X181343222Y-113909453D01*
X181176776Y-113840509D01*
X181026978Y-113740417D01*
X180899583Y-113613022D01*
X180799491Y-113463224D01*
X180730547Y-113296778D01*
X180695400Y-113120082D01*
X180695400Y-112939918D01*
X180730547Y-112763222D01*
X180799491Y-112596776D01*
X180899583Y-112446978D01*
X181026978Y-112319583D01*
X181176776Y-112219491D01*
X181343222Y-112150547D01*
X181519918Y-112115400D01*
X181700082Y-112115400D01*
X181876778Y-112150547D01*
G37*
G36*
X169176778Y-112150547D02*
G01*
X169343224Y-112219491D01*
X169493022Y-112319583D01*
X169620417Y-112446978D01*
X169720509Y-112596776D01*
X169789453Y-112763222D01*
X169824600Y-112939918D01*
X169824600Y-113120082D01*
X169789453Y-113296778D01*
X169720509Y-113463224D01*
X169620417Y-113613022D01*
X169493022Y-113740417D01*
X169343224Y-113840509D01*
X169176778Y-113909453D01*
X169000082Y-113944600D01*
X168819918Y-113944600D01*
X168643222Y-113909453D01*
X168476776Y-113840509D01*
X168326978Y-113740417D01*
X168199583Y-113613022D01*
X168099491Y-113463224D01*
X168030547Y-113296778D01*
X167995400Y-113120082D01*
X167995400Y-112939918D01*
X168030547Y-112763222D01*
X168099491Y-112596776D01*
X168199583Y-112446978D01*
X168326978Y-112319583D01*
X168476776Y-112219491D01*
X168643222Y-112150547D01*
X168819918Y-112115400D01*
X169000082Y-112115400D01*
X169176778Y-112150547D01*
G37*
G36*
X179336778Y-112150547D02*
G01*
X179503224Y-112219491D01*
X179653022Y-112319583D01*
X179780417Y-112446978D01*
X179880509Y-112596776D01*
X179949453Y-112763222D01*
X179984600Y-112939918D01*
X179984600Y-113120082D01*
X179949453Y-113296778D01*
X179880509Y-113463224D01*
X179780417Y-113613022D01*
X179653022Y-113740417D01*
X179503224Y-113840509D01*
X179336778Y-113909453D01*
X179160082Y-113944600D01*
X178979918Y-113944600D01*
X178803222Y-113909453D01*
X178636776Y-113840509D01*
X178486978Y-113740417D01*
X178359583Y-113613022D01*
X178259491Y-113463224D01*
X178190547Y-113296778D01*
X178155400Y-113120082D01*
X178155400Y-112939918D01*
X178190547Y-112763222D01*
X178259491Y-112596776D01*
X178359583Y-112446978D01*
X178486978Y-112319583D01*
X178636776Y-112219491D01*
X178803222Y-112150547D01*
X178979918Y-112115400D01*
X179160082Y-112115400D01*
X179336778Y-112150547D01*
G37*
G36*
X171716778Y-112150547D02*
G01*
X171883224Y-112219491D01*
X172033022Y-112319583D01*
X172160417Y-112446978D01*
X172260509Y-112596776D01*
X172329453Y-112763222D01*
X172364600Y-112939918D01*
X172364600Y-113120082D01*
X172329453Y-113296778D01*
X172260509Y-113463224D01*
X172160417Y-113613022D01*
X172033022Y-113740417D01*
X171883224Y-113840509D01*
X171716778Y-113909453D01*
X171540082Y-113944600D01*
X171359918Y-113944600D01*
X171183222Y-113909453D01*
X171016776Y-113840509D01*
X170866978Y-113740417D01*
X170739583Y-113613022D01*
X170639491Y-113463224D01*
X170570547Y-113296778D01*
X170535400Y-113120082D01*
X170535400Y-112939918D01*
X170570547Y-112763222D01*
X170639491Y-112596776D01*
X170739583Y-112446978D01*
X170866978Y-112319583D01*
X171016776Y-112219491D01*
X171183222Y-112150547D01*
X171359918Y-112115400D01*
X171540082Y-112115400D01*
X171716778Y-112150547D01*
G37*
G36*
X176796778Y-112150547D02*
G01*
X176963224Y-112219491D01*
X177113022Y-112319583D01*
X177240417Y-112446978D01*
X177340509Y-112596776D01*
X177409453Y-112763222D01*
X177444600Y-112939918D01*
X177444600Y-113120082D01*
X177409453Y-113296778D01*
X177340509Y-113463224D01*
X177240417Y-113613022D01*
X177113022Y-113740417D01*
X176963224Y-113840509D01*
X176796778Y-113909453D01*
X176620082Y-113944600D01*
X176439918Y-113944600D01*
X176263222Y-113909453D01*
X176096776Y-113840509D01*
X175946978Y-113740417D01*
X175819583Y-113613022D01*
X175719491Y-113463224D01*
X175650547Y-113296778D01*
X175615400Y-113120082D01*
X175615400Y-112939918D01*
X175650547Y-112763222D01*
X175719491Y-112596776D01*
X175819583Y-112446978D01*
X175946978Y-112319583D01*
X176096776Y-112219491D01*
X176263222Y-112150547D01*
X176439918Y-112115400D01*
X176620082Y-112115400D01*
X176796778Y-112150547D01*
G37*
G36*
X161654499Y-112458445D02*
G01*
X161691995Y-112469820D01*
X161726554Y-112488292D01*
X161756847Y-112513153D01*
X161781708Y-112543446D01*
X161800180Y-112578005D01*
X161811555Y-112615501D01*
X161816000Y-112660638D01*
X161816000Y-113399362D01*
X161811555Y-113444499D01*
X161800180Y-113481995D01*
X161781708Y-113516554D01*
X161756847Y-113546847D01*
X161726554Y-113571708D01*
X161691995Y-113590180D01*
X161654499Y-113601555D01*
X161609362Y-113606000D01*
X160970638Y-113606000D01*
X160925501Y-113601555D01*
X160888005Y-113590180D01*
X160853446Y-113571708D01*
X160823153Y-113546847D01*
X160798292Y-113516554D01*
X160779820Y-113481995D01*
X160768445Y-113444499D01*
X160764000Y-113399362D01*
X160764000Y-112660638D01*
X160768445Y-112615501D01*
X160779820Y-112578005D01*
X160798292Y-112543446D01*
X160823153Y-112513153D01*
X160853446Y-112488292D01*
X160888005Y-112469820D01*
X160925501Y-112458445D01*
X160970638Y-112454000D01*
X161609362Y-112454000D01*
X161654499Y-112458445D01*
G37*
G36*
X128821000Y-113581000D02*
G01*
X127719000Y-113581000D01*
X127719000Y-112479000D01*
X128821000Y-112479000D01*
X128821000Y-113581000D01*
G37*
G36*
X147684499Y-112063445D02*
G01*
X147721995Y-112074820D01*
X147756554Y-112093292D01*
X147786847Y-112118153D01*
X147811708Y-112148446D01*
X147830180Y-112183005D01*
X147841555Y-112220501D01*
X147846000Y-112265638D01*
X147846000Y-113004362D01*
X147841555Y-113049499D01*
X147830180Y-113086995D01*
X147811708Y-113121554D01*
X147786847Y-113151847D01*
X147756554Y-113176708D01*
X147721995Y-113195180D01*
X147684499Y-113206555D01*
X147639362Y-113211000D01*
X147000638Y-113211000D01*
X146955501Y-113206555D01*
X146918005Y-113195180D01*
X146883446Y-113176708D01*
X146853153Y-113151847D01*
X146828292Y-113121554D01*
X146809820Y-113086995D01*
X146798445Y-113049499D01*
X146794000Y-113004362D01*
X146794000Y-112265638D01*
X146798445Y-112220501D01*
X146809820Y-112183005D01*
X146828292Y-112148446D01*
X146853153Y-112118153D01*
X146883446Y-112093292D01*
X146918005Y-112074820D01*
X146955501Y-112063445D01*
X147000638Y-112059000D01*
X147639362Y-112059000D01*
X147684499Y-112063445D01*
G37*
G36*
X196535345Y-110843442D02*
G01*
X196625548Y-110852326D01*
X196799157Y-110904990D01*
X196959156Y-110990511D01*
X197002729Y-111026271D01*
X197099397Y-111105603D01*
X197175224Y-111198000D01*
X197214489Y-111245844D01*
X197300010Y-111405843D01*
X197352674Y-111579452D01*
X197370456Y-111760000D01*
X197352674Y-111940548D01*
X197300010Y-112114157D01*
X197214489Y-112274156D01*
X197178729Y-112317729D01*
X197099397Y-112414397D01*
X197009354Y-112488292D01*
X196959156Y-112529489D01*
X196799157Y-112615010D01*
X196625548Y-112667674D01*
X196535345Y-112676558D01*
X196490245Y-112681000D01*
X195939755Y-112681000D01*
X195894655Y-112676558D01*
X195804452Y-112667674D01*
X195630843Y-112615010D01*
X195470844Y-112529489D01*
X195420646Y-112488292D01*
X195330603Y-112414397D01*
X195251271Y-112317729D01*
X195215511Y-112274156D01*
X195129990Y-112114157D01*
X195077326Y-111940548D01*
X195059544Y-111760000D01*
X195077326Y-111579452D01*
X195129990Y-111405843D01*
X195215511Y-111245844D01*
X195254776Y-111198000D01*
X195330603Y-111105603D01*
X195427271Y-111026271D01*
X195470844Y-110990511D01*
X195630843Y-110904990D01*
X195804452Y-110852326D01*
X195894655Y-110843442D01*
X195939755Y-110839000D01*
X196490245Y-110839000D01*
X196535345Y-110843442D01*
G37*
G36*
X150620589Y-110998876D02*
G01*
X150719893Y-111018629D01*
X150860206Y-111076748D01*
X150986484Y-111161125D01*
X151093875Y-111268516D01*
X151178252Y-111394794D01*
X151236371Y-111535107D01*
X151266000Y-111684063D01*
X151266000Y-111835937D01*
X151236371Y-111984893D01*
X151178252Y-112125206D01*
X151093875Y-112251484D01*
X150986484Y-112358875D01*
X150860206Y-112443252D01*
X150719893Y-112501371D01*
X150620589Y-112521124D01*
X150570938Y-112531000D01*
X150419062Y-112531000D01*
X150369411Y-112521124D01*
X150270107Y-112501371D01*
X150129794Y-112443252D01*
X150003516Y-112358875D01*
X149896125Y-112251484D01*
X149811748Y-112125206D01*
X149753629Y-111984893D01*
X149724000Y-111835937D01*
X149724000Y-111684063D01*
X149753629Y-111535107D01*
X149811748Y-111394794D01*
X149896125Y-111268516D01*
X150003516Y-111161125D01*
X150129794Y-111076748D01*
X150270107Y-111018629D01*
X150369411Y-110998876D01*
X150419062Y-110989000D01*
X150570938Y-110989000D01*
X150620589Y-110998876D01*
G37*
G36*
X112520589Y-110998876D02*
G01*
X112619893Y-111018629D01*
X112760206Y-111076748D01*
X112886484Y-111161125D01*
X112993875Y-111268516D01*
X113078252Y-111394794D01*
X113136371Y-111535107D01*
X113166000Y-111684063D01*
X113166000Y-111835937D01*
X113136371Y-111984893D01*
X113078252Y-112125206D01*
X112993875Y-112251484D01*
X112886484Y-112358875D01*
X112760206Y-112443252D01*
X112619893Y-112501371D01*
X112520589Y-112521124D01*
X112470938Y-112531000D01*
X112319062Y-112531000D01*
X112269411Y-112521124D01*
X112170107Y-112501371D01*
X112029794Y-112443252D01*
X111903516Y-112358875D01*
X111796125Y-112251484D01*
X111711748Y-112125206D01*
X111653629Y-111984893D01*
X111624000Y-111835937D01*
X111624000Y-111684063D01*
X111653629Y-111535107D01*
X111711748Y-111394794D01*
X111796125Y-111268516D01*
X111903516Y-111161125D01*
X112029794Y-111076748D01*
X112170107Y-111018629D01*
X112269411Y-110998876D01*
X112319062Y-110989000D01*
X112470938Y-110989000D01*
X112520589Y-110998876D01*
G37*
G36*
X155700589Y-110998876D02*
G01*
X155799893Y-111018629D01*
X155940206Y-111076748D01*
X156066484Y-111161125D01*
X156173875Y-111268516D01*
X156258252Y-111394794D01*
X156316371Y-111535107D01*
X156346000Y-111684063D01*
X156346000Y-111835937D01*
X156316371Y-111984893D01*
X156258252Y-112125206D01*
X156173875Y-112251484D01*
X156066484Y-112358875D01*
X155940206Y-112443252D01*
X155799893Y-112501371D01*
X155700589Y-112521124D01*
X155650938Y-112531000D01*
X155499062Y-112531000D01*
X155449411Y-112521124D01*
X155350107Y-112501371D01*
X155209794Y-112443252D01*
X155083516Y-112358875D01*
X154976125Y-112251484D01*
X154891748Y-112125206D01*
X154833629Y-111984893D01*
X154804000Y-111835937D01*
X154804000Y-111684063D01*
X154833629Y-111535107D01*
X154891748Y-111394794D01*
X154976125Y-111268516D01*
X155083516Y-111161125D01*
X155209794Y-111076748D01*
X155350107Y-111018629D01*
X155449411Y-110998876D01*
X155499062Y-110989000D01*
X155650938Y-110989000D01*
X155700589Y-110998876D01*
G37*
G36*
X143776778Y-110245547D02*
G01*
X143943224Y-110314491D01*
X144093022Y-110414583D01*
X144220417Y-110541978D01*
X144320509Y-110691776D01*
X144389453Y-110858222D01*
X144424600Y-111034918D01*
X144424600Y-111215082D01*
X144389453Y-111391778D01*
X144320509Y-111558224D01*
X144220417Y-111708022D01*
X144093022Y-111835417D01*
X143943224Y-111935509D01*
X143776778Y-112004453D01*
X143600082Y-112039600D01*
X143419918Y-112039600D01*
X143243222Y-112004453D01*
X143076776Y-111935509D01*
X142926978Y-111835417D01*
X142799583Y-111708022D01*
X142699491Y-111558224D01*
X142630547Y-111391778D01*
X142595400Y-111215082D01*
X142595400Y-111034918D01*
X142630547Y-110858222D01*
X142699491Y-110691776D01*
X142799583Y-110541978D01*
X142926978Y-110414583D01*
X143076776Y-110314491D01*
X143243222Y-110245547D01*
X143419918Y-110210400D01*
X143600082Y-110210400D01*
X143776778Y-110245547D01*
G37*
G36*
X141236778Y-110245547D02*
G01*
X141403224Y-110314491D01*
X141553022Y-110414583D01*
X141680417Y-110541978D01*
X141780509Y-110691776D01*
X141849453Y-110858222D01*
X141884600Y-111034918D01*
X141884600Y-111215082D01*
X141849453Y-111391778D01*
X141780509Y-111558224D01*
X141680417Y-111708022D01*
X141553022Y-111835417D01*
X141403224Y-111935509D01*
X141236778Y-112004453D01*
X141060082Y-112039600D01*
X140879918Y-112039600D01*
X140703222Y-112004453D01*
X140536776Y-111935509D01*
X140386978Y-111835417D01*
X140259583Y-111708022D01*
X140159491Y-111558224D01*
X140090547Y-111391778D01*
X140055400Y-111215082D01*
X140055400Y-111034918D01*
X140090547Y-110858222D01*
X140159491Y-110691776D01*
X140259583Y-110541978D01*
X140386978Y-110414583D01*
X140536776Y-110314491D01*
X140703222Y-110245547D01*
X140879918Y-110210400D01*
X141060082Y-110210400D01*
X141236778Y-110245547D01*
G37*
G36*
X147684499Y-110313445D02*
G01*
X147721995Y-110324820D01*
X147756554Y-110343292D01*
X147786847Y-110368153D01*
X147811708Y-110398446D01*
X147830180Y-110433005D01*
X147841555Y-110470501D01*
X147846000Y-110515638D01*
X147846000Y-111254362D01*
X147841555Y-111299499D01*
X147830180Y-111336995D01*
X147811708Y-111371554D01*
X147786847Y-111401847D01*
X147756554Y-111426708D01*
X147721995Y-111445180D01*
X147684499Y-111456555D01*
X147639362Y-111461000D01*
X147000638Y-111461000D01*
X146955501Y-111456555D01*
X146918005Y-111445180D01*
X146883446Y-111426708D01*
X146853153Y-111401847D01*
X146828292Y-111371554D01*
X146809820Y-111336995D01*
X146798445Y-111299499D01*
X146794000Y-111254362D01*
X146794000Y-110515638D01*
X146798445Y-110470501D01*
X146809820Y-110433005D01*
X146828292Y-110398446D01*
X146853153Y-110368153D01*
X146883446Y-110343292D01*
X146918005Y-110324820D01*
X146955501Y-110313445D01*
X147000638Y-110309000D01*
X147639362Y-110309000D01*
X147684499Y-110313445D01*
G37*
G36*
X128821000Y-111081000D02*
G01*
X127719000Y-111081000D01*
X127719000Y-109979000D01*
X128821000Y-109979000D01*
X128821000Y-111081000D01*
G37*
G36*
X196535345Y-108303442D02*
G01*
X196625548Y-108312326D01*
X196799157Y-108364990D01*
X196959156Y-108450511D01*
X197002729Y-108486271D01*
X197099397Y-108565603D01*
X197178729Y-108662271D01*
X197214489Y-108705844D01*
X197300010Y-108865843D01*
X197352674Y-109039452D01*
X197370456Y-109220000D01*
X197352674Y-109400548D01*
X197300010Y-109574157D01*
X197214489Y-109734156D01*
X197178729Y-109777729D01*
X197099397Y-109874397D01*
X197002729Y-109953729D01*
X196959156Y-109989489D01*
X196799157Y-110075010D01*
X196625548Y-110127674D01*
X196535345Y-110136558D01*
X196490245Y-110141000D01*
X195939755Y-110141000D01*
X195894655Y-110136558D01*
X195804452Y-110127674D01*
X195630843Y-110075010D01*
X195470844Y-109989489D01*
X195427271Y-109953729D01*
X195330603Y-109874397D01*
X195251271Y-109777729D01*
X195215511Y-109734156D01*
X195129990Y-109574157D01*
X195077326Y-109400548D01*
X195059544Y-109220000D01*
X195077326Y-109039452D01*
X195129990Y-108865843D01*
X195215511Y-108705844D01*
X195251271Y-108662271D01*
X195330603Y-108565603D01*
X195427271Y-108486271D01*
X195470844Y-108450511D01*
X195630843Y-108364990D01*
X195804452Y-108312326D01*
X195894655Y-108303442D01*
X195939755Y-108299000D01*
X196490245Y-108299000D01*
X196535345Y-108303442D01*
G37*
G36*
X143776778Y-107705547D02*
G01*
X143943224Y-107774491D01*
X144093022Y-107874583D01*
X144220417Y-108001978D01*
X144320509Y-108151776D01*
X144389453Y-108318222D01*
X144424600Y-108494918D01*
X144424600Y-108675082D01*
X144389453Y-108851778D01*
X144320509Y-109018224D01*
X144220417Y-109168022D01*
X144093022Y-109295417D01*
X143943224Y-109395509D01*
X143776778Y-109464453D01*
X143600082Y-109499600D01*
X143419918Y-109499600D01*
X143243222Y-109464453D01*
X143076776Y-109395509D01*
X142926978Y-109295417D01*
X142799583Y-109168022D01*
X142699491Y-109018224D01*
X142630547Y-108851778D01*
X142595400Y-108675082D01*
X142595400Y-108494918D01*
X142630547Y-108318222D01*
X142699491Y-108151776D01*
X142799583Y-108001978D01*
X142926978Y-107874583D01*
X143076776Y-107774491D01*
X143243222Y-107705547D01*
X143419918Y-107670400D01*
X143600082Y-107670400D01*
X143776778Y-107705547D01*
G37*
G36*
X141884600Y-109499600D02*
G01*
X140055400Y-109499600D01*
X140055400Y-107670400D01*
X141884600Y-107670400D01*
X141884600Y-109499600D01*
G37*
G36*
X129321000Y-109001000D02*
G01*
X127219000Y-109001000D01*
X127219000Y-106899000D01*
X129321000Y-106899000D01*
X129321000Y-109001000D01*
G37*
G36*
X196535345Y-105763442D02*
G01*
X196625548Y-105772326D01*
X196799157Y-105824990D01*
X196959156Y-105910511D01*
X197002729Y-105946271D01*
X197099397Y-106025603D01*
X197178729Y-106122271D01*
X197214489Y-106165844D01*
X197300010Y-106325843D01*
X197352674Y-106499452D01*
X197370456Y-106680000D01*
X197352674Y-106860548D01*
X197300010Y-107034157D01*
X197214489Y-107194156D01*
X197178729Y-107237729D01*
X197099397Y-107334397D01*
X197002729Y-107413729D01*
X196959156Y-107449489D01*
X196799157Y-107535010D01*
X196625548Y-107587674D01*
X196535345Y-107596558D01*
X196490245Y-107601000D01*
X195939755Y-107601000D01*
X195894655Y-107596558D01*
X195804452Y-107587674D01*
X195630843Y-107535010D01*
X195470844Y-107449489D01*
X195427271Y-107413729D01*
X195330603Y-107334397D01*
X195251271Y-107237729D01*
X195215511Y-107194156D01*
X195129990Y-107034157D01*
X195077326Y-106860548D01*
X195059544Y-106680000D01*
X195077326Y-106499452D01*
X195129990Y-106325843D01*
X195215511Y-106165844D01*
X195251271Y-106122271D01*
X195330603Y-106025603D01*
X195427271Y-105946271D01*
X195470844Y-105910511D01*
X195630843Y-105824990D01*
X195804452Y-105772326D01*
X195894655Y-105763442D01*
X195939755Y-105759000D01*
X196490245Y-105759000D01*
X196535345Y-105763442D01*
G37*
G36*
X197224561Y-103222966D02*
G01*
X197257383Y-103232923D01*
X197287632Y-103249092D01*
X197314148Y-103270852D01*
X197335908Y-103297368D01*
X197352077Y-103327617D01*
X197362034Y-103360439D01*
X197366000Y-103400713D01*
X197366000Y-104879287D01*
X197362034Y-104919561D01*
X197352077Y-104952383D01*
X197335908Y-104982632D01*
X197314148Y-105009148D01*
X197287632Y-105030908D01*
X197257383Y-105047077D01*
X197224561Y-105057034D01*
X197184287Y-105061000D01*
X195245713Y-105061000D01*
X195205439Y-105057034D01*
X195172617Y-105047077D01*
X195142368Y-105030908D01*
X195115852Y-105009148D01*
X195094092Y-104982632D01*
X195077923Y-104952383D01*
X195067966Y-104919561D01*
X195064000Y-104879287D01*
X195064000Y-103400713D01*
X195067966Y-103360439D01*
X195077923Y-103327617D01*
X195094092Y-103297368D01*
X195115852Y-103270852D01*
X195142368Y-103249092D01*
X195172617Y-103232923D01*
X195205439Y-103222966D01*
X195245713Y-103219000D01*
X197184287Y-103219000D01*
X197224561Y-103222966D01*
G37*
G36*
X156878642Y-103369781D02*
G01*
X157024414Y-103430162D01*
X157024416Y-103430163D01*
X157155608Y-103517822D01*
X157267178Y-103629392D01*
X157354837Y-103760584D01*
X157354838Y-103760586D01*
X157415219Y-103906358D01*
X157446000Y-104061107D01*
X157446000Y-104218893D01*
X157415219Y-104373642D01*
X157354838Y-104519414D01*
X157354837Y-104519416D01*
X157267178Y-104650608D01*
X157155608Y-104762178D01*
X157024416Y-104849837D01*
X157024415Y-104849838D01*
X157024414Y-104849838D01*
X156878642Y-104910219D01*
X156723893Y-104941000D01*
X156566107Y-104941000D01*
X156411358Y-104910219D01*
X156265586Y-104849838D01*
X156265585Y-104849838D01*
X156265584Y-104849837D01*
X156134392Y-104762178D01*
X156022822Y-104650608D01*
X155935163Y-104519416D01*
X155935162Y-104519414D01*
X155874781Y-104373642D01*
X155844000Y-104218893D01*
X155844000Y-104061107D01*
X155874781Y-103906358D01*
X155935162Y-103760586D01*
X155935163Y-103760584D01*
X156022822Y-103629392D01*
X156134392Y-103517822D01*
X156265584Y-103430163D01*
X156265586Y-103430162D01*
X156411358Y-103369781D01*
X156566107Y-103339000D01*
X156723893Y-103339000D01*
X156878642Y-103369781D01*
G37*
G36*
X151998642Y-103369781D02*
G01*
X152144414Y-103430162D01*
X152144416Y-103430163D01*
X152275608Y-103517822D01*
X152387178Y-103629392D01*
X152474837Y-103760584D01*
X152474838Y-103760586D01*
X152535219Y-103906358D01*
X152566000Y-104061107D01*
X152566000Y-104218893D01*
X152535219Y-104373642D01*
X152474838Y-104519414D01*
X152474837Y-104519416D01*
X152387178Y-104650608D01*
X152275608Y-104762178D01*
X152144416Y-104849837D01*
X152144415Y-104849838D01*
X152144414Y-104849838D01*
X151998642Y-104910219D01*
X151843893Y-104941000D01*
X151686107Y-104941000D01*
X151531358Y-104910219D01*
X151385586Y-104849838D01*
X151385585Y-104849838D01*
X151385584Y-104849837D01*
X151254392Y-104762178D01*
X151142822Y-104650608D01*
X151055163Y-104519416D01*
X151055162Y-104519414D01*
X150994781Y-104373642D01*
X150964000Y-104218893D01*
X150964000Y-104061107D01*
X150994781Y-103906358D01*
X151055162Y-103760586D01*
X151055163Y-103760584D01*
X151142822Y-103629392D01*
X151254392Y-103517822D01*
X151385584Y-103430163D01*
X151385586Y-103430162D01*
X151531358Y-103369781D01*
X151686107Y-103339000D01*
X151843893Y-103339000D01*
X151998642Y-103369781D01*
G37*
G36*
X105149561Y-102587966D02*
G01*
X105182383Y-102597923D01*
X105212632Y-102614092D01*
X105239148Y-102635852D01*
X105260908Y-102662368D01*
X105277077Y-102692617D01*
X105287034Y-102725439D01*
X105291000Y-102765713D01*
X105291000Y-104244287D01*
X105287034Y-104284561D01*
X105277077Y-104317383D01*
X105260908Y-104347632D01*
X105239148Y-104374148D01*
X105212632Y-104395908D01*
X105182383Y-104412077D01*
X105149561Y-104422034D01*
X105109287Y-104426000D01*
X103170713Y-104426000D01*
X103130439Y-104422034D01*
X103097617Y-104412077D01*
X103067368Y-104395908D01*
X103040852Y-104374148D01*
X103019092Y-104347632D01*
X103002923Y-104317383D01*
X102992966Y-104284561D01*
X102989000Y-104244287D01*
X102989000Y-102765713D01*
X102992966Y-102725439D01*
X103002923Y-102692617D01*
X103019092Y-102662368D01*
X103040852Y-102635852D01*
X103067368Y-102614092D01*
X103097617Y-102597923D01*
X103130439Y-102587966D01*
X103170713Y-102584000D01*
X105109287Y-102584000D01*
X105149561Y-102587966D01*
G37*
G36*
X152129499Y-101663445D02*
G01*
X152166995Y-101674820D01*
X152201554Y-101693292D01*
X152231847Y-101718153D01*
X152256708Y-101748446D01*
X152275180Y-101783005D01*
X152286555Y-101820501D01*
X152291000Y-101865638D01*
X152291000Y-102604362D01*
X152286555Y-102649499D01*
X152275180Y-102686995D01*
X152256708Y-102721554D01*
X152231847Y-102751847D01*
X152201554Y-102776708D01*
X152166995Y-102795180D01*
X152129499Y-102806555D01*
X152084362Y-102811000D01*
X151445638Y-102811000D01*
X151400501Y-102806555D01*
X151363005Y-102795180D01*
X151328446Y-102776708D01*
X151298153Y-102751847D01*
X151273292Y-102721554D01*
X151254820Y-102686995D01*
X151243445Y-102649499D01*
X151239000Y-102604362D01*
X151239000Y-101865638D01*
X151243445Y-101820501D01*
X151254820Y-101783005D01*
X151273292Y-101748446D01*
X151298153Y-101718153D01*
X151328446Y-101693292D01*
X151363005Y-101674820D01*
X151400501Y-101663445D01*
X151445638Y-101659000D01*
X152084362Y-101659000D01*
X152129499Y-101663445D01*
G37*
G36*
X157209499Y-101663445D02*
G01*
X157246995Y-101674820D01*
X157281554Y-101693292D01*
X157311847Y-101718153D01*
X157336708Y-101748446D01*
X157355180Y-101783005D01*
X157366555Y-101820501D01*
X157371000Y-101865638D01*
X157371000Y-102604362D01*
X157366555Y-102649499D01*
X157355180Y-102686995D01*
X157336708Y-102721554D01*
X157311847Y-102751847D01*
X157281554Y-102776708D01*
X157246995Y-102795180D01*
X157209499Y-102806555D01*
X157164362Y-102811000D01*
X156525638Y-102811000D01*
X156480501Y-102806555D01*
X156443005Y-102795180D01*
X156408446Y-102776708D01*
X156378153Y-102751847D01*
X156353292Y-102721554D01*
X156334820Y-102686995D01*
X156323445Y-102649499D01*
X156319000Y-102604362D01*
X156319000Y-101865638D01*
X156323445Y-101820501D01*
X156334820Y-101783005D01*
X156353292Y-101748446D01*
X156378153Y-101718153D01*
X156408446Y-101693292D01*
X156443005Y-101674820D01*
X156480501Y-101663445D01*
X156525638Y-101659000D01*
X157164362Y-101659000D01*
X157209499Y-101663445D01*
G37*
G36*
X104460345Y-100048442D02*
G01*
X104550548Y-100057326D01*
X104724157Y-100109990D01*
X104884156Y-100195511D01*
X104927729Y-100231271D01*
X105024397Y-100310603D01*
X105103729Y-100407271D01*
X105139489Y-100450844D01*
X105225010Y-100610843D01*
X105277674Y-100784452D01*
X105295456Y-100965000D01*
X105277674Y-101145548D01*
X105225010Y-101319157D01*
X105139489Y-101479156D01*
X105103729Y-101522729D01*
X105024397Y-101619397D01*
X104951745Y-101679020D01*
X104884156Y-101734489D01*
X104724157Y-101820010D01*
X104550548Y-101872674D01*
X104460345Y-101881558D01*
X104415245Y-101886000D01*
X103864755Y-101886000D01*
X103819655Y-101881558D01*
X103729452Y-101872674D01*
X103555843Y-101820010D01*
X103395844Y-101734489D01*
X103328255Y-101679020D01*
X103255603Y-101619397D01*
X103176271Y-101522729D01*
X103140511Y-101479156D01*
X103054990Y-101319157D01*
X103002326Y-101145548D01*
X102984544Y-100965000D01*
X103002326Y-100784452D01*
X103054990Y-100610843D01*
X103140511Y-100450844D01*
X103176271Y-100407271D01*
X103255603Y-100310603D01*
X103352271Y-100231271D01*
X103395844Y-100195511D01*
X103555843Y-100109990D01*
X103729452Y-100057326D01*
X103819655Y-100048442D01*
X103864755Y-100044000D01*
X104415245Y-100044000D01*
X104460345Y-100048442D01*
G37*
G36*
X157209499Y-99913445D02*
G01*
X157246995Y-99924820D01*
X157281554Y-99943292D01*
X157311847Y-99968153D01*
X157336708Y-99998446D01*
X157355180Y-100033005D01*
X157366555Y-100070501D01*
X157371000Y-100115638D01*
X157371000Y-100854362D01*
X157366555Y-100899499D01*
X157355180Y-100936995D01*
X157336708Y-100971554D01*
X157311847Y-101001847D01*
X157281554Y-101026708D01*
X157246995Y-101045180D01*
X157209499Y-101056555D01*
X157164362Y-101061000D01*
X156525638Y-101061000D01*
X156480501Y-101056555D01*
X156443005Y-101045180D01*
X156408446Y-101026708D01*
X156378153Y-101001847D01*
X156353292Y-100971554D01*
X156334820Y-100936995D01*
X156323445Y-100899499D01*
X156319000Y-100854362D01*
X156319000Y-100115638D01*
X156323445Y-100070501D01*
X156334820Y-100033005D01*
X156353292Y-99998446D01*
X156378153Y-99968153D01*
X156408446Y-99943292D01*
X156443005Y-99924820D01*
X156480501Y-99913445D01*
X156525638Y-99909000D01*
X157164362Y-99909000D01*
X157209499Y-99913445D01*
G37*
G36*
X152129499Y-99913445D02*
G01*
X152166995Y-99924820D01*
X152201554Y-99943292D01*
X152231847Y-99968153D01*
X152256708Y-99998446D01*
X152275180Y-100033005D01*
X152286555Y-100070501D01*
X152291000Y-100115638D01*
X152291000Y-100854362D01*
X152286555Y-100899499D01*
X152275180Y-100936995D01*
X152256708Y-100971554D01*
X152231847Y-101001847D01*
X152201554Y-101026708D01*
X152166995Y-101045180D01*
X152129499Y-101056555D01*
X152084362Y-101061000D01*
X151445638Y-101061000D01*
X151400501Y-101056555D01*
X151363005Y-101045180D01*
X151328446Y-101026708D01*
X151298153Y-101001847D01*
X151273292Y-100971554D01*
X151254820Y-100936995D01*
X151243445Y-100899499D01*
X151239000Y-100854362D01*
X151239000Y-100115638D01*
X151243445Y-100070501D01*
X151254820Y-100033005D01*
X151273292Y-99998446D01*
X151298153Y-99968153D01*
X151328446Y-99943292D01*
X151363005Y-99924820D01*
X151400501Y-99913445D01*
X151445638Y-99909000D01*
X152084362Y-99909000D01*
X152129499Y-99913445D01*
G37*
G36*
X196535345Y-98143442D02*
G01*
X196625548Y-98152326D01*
X196799157Y-98204990D01*
X196959156Y-98290511D01*
X197002729Y-98326271D01*
X197099397Y-98405603D01*
X197178729Y-98502271D01*
X197214489Y-98545844D01*
X197300010Y-98705843D01*
X197352674Y-98879452D01*
X197370456Y-99060000D01*
X197352674Y-99240548D01*
X197300010Y-99414157D01*
X197214489Y-99574156D01*
X197178729Y-99617729D01*
X197099397Y-99714397D01*
X197002729Y-99793729D01*
X196959156Y-99829489D01*
X196817456Y-99905229D01*
X196800948Y-99914053D01*
X196799157Y-99915010D01*
X196625548Y-99967674D01*
X196535345Y-99976558D01*
X196490245Y-99981000D01*
X195939755Y-99981000D01*
X195894655Y-99976558D01*
X195804452Y-99967674D01*
X195630843Y-99915010D01*
X195629053Y-99914053D01*
X195612544Y-99905229D01*
X195470844Y-99829489D01*
X195427271Y-99793729D01*
X195330603Y-99714397D01*
X195251271Y-99617729D01*
X195215511Y-99574156D01*
X195129990Y-99414157D01*
X195077326Y-99240548D01*
X195059544Y-99060000D01*
X195077326Y-98879452D01*
X195129990Y-98705843D01*
X195215511Y-98545844D01*
X195251271Y-98502271D01*
X195330603Y-98405603D01*
X195427271Y-98326271D01*
X195470844Y-98290511D01*
X195630843Y-98204990D01*
X195804452Y-98152326D01*
X195894655Y-98143442D01*
X195939755Y-98139000D01*
X196490245Y-98139000D01*
X196535345Y-98143442D01*
G37*
G36*
X187645345Y-98143442D02*
G01*
X187735548Y-98152326D01*
X187909157Y-98204990D01*
X188069156Y-98290511D01*
X188112729Y-98326271D01*
X188209397Y-98405603D01*
X188288729Y-98502271D01*
X188324489Y-98545844D01*
X188410010Y-98705843D01*
X188462674Y-98879452D01*
X188480456Y-99060000D01*
X188462674Y-99240548D01*
X188410010Y-99414157D01*
X188324489Y-99574156D01*
X188288729Y-99617729D01*
X188209397Y-99714397D01*
X188112729Y-99793729D01*
X188069156Y-99829489D01*
X187927456Y-99905229D01*
X187910948Y-99914053D01*
X187909157Y-99915010D01*
X187735548Y-99967674D01*
X187645345Y-99976558D01*
X187600245Y-99981000D01*
X187049755Y-99981000D01*
X187004655Y-99976558D01*
X186914452Y-99967674D01*
X186740843Y-99915010D01*
X186739053Y-99914053D01*
X186722544Y-99905229D01*
X186580844Y-99829489D01*
X186537271Y-99793729D01*
X186440603Y-99714397D01*
X186361271Y-99617729D01*
X186325511Y-99574156D01*
X186239990Y-99414157D01*
X186187326Y-99240548D01*
X186169544Y-99060000D01*
X186187326Y-98879452D01*
X186239990Y-98705843D01*
X186325511Y-98545844D01*
X186361271Y-98502271D01*
X186440603Y-98405603D01*
X186537271Y-98326271D01*
X186580844Y-98290511D01*
X186740843Y-98204990D01*
X186914452Y-98152326D01*
X187004655Y-98143442D01*
X187049755Y-98139000D01*
X187600245Y-98139000D01*
X187645345Y-98143442D01*
G37*
G36*
X104460345Y-97508442D02*
G01*
X104550548Y-97517326D01*
X104724157Y-97569990D01*
X104884156Y-97655511D01*
X104921896Y-97686484D01*
X105024397Y-97770603D01*
X105103729Y-97867271D01*
X105139489Y-97910844D01*
X105225010Y-98070843D01*
X105277674Y-98244452D01*
X105295456Y-98425000D01*
X105277674Y-98605548D01*
X105225010Y-98779157D01*
X105139489Y-98939156D01*
X105103729Y-98982729D01*
X105024397Y-99079397D01*
X104927729Y-99158729D01*
X104884156Y-99194489D01*
X104724157Y-99280010D01*
X104550548Y-99332674D01*
X104460345Y-99341558D01*
X104415245Y-99346000D01*
X103864755Y-99346000D01*
X103819655Y-99341558D01*
X103729452Y-99332674D01*
X103555843Y-99280010D01*
X103395844Y-99194489D01*
X103352271Y-99158729D01*
X103255603Y-99079397D01*
X103176271Y-98982729D01*
X103140511Y-98939156D01*
X103054990Y-98779157D01*
X103002326Y-98605548D01*
X102984544Y-98425000D01*
X103002326Y-98244452D01*
X103054990Y-98070843D01*
X103140511Y-97910844D01*
X103176271Y-97867271D01*
X103255603Y-97770603D01*
X103358104Y-97686484D01*
X103395844Y-97655511D01*
X103555843Y-97569990D01*
X103729452Y-97517326D01*
X103819655Y-97508442D01*
X103864755Y-97504000D01*
X104415245Y-97504000D01*
X104460345Y-97508442D01*
G37*
G36*
X139221564Y-96779389D02*
G01*
X139412833Y-96858615D01*
X139412835Y-96858616D01*
X139584973Y-96973635D01*
X139731365Y-97120027D01*
X139846385Y-97292167D01*
X139925611Y-97483436D01*
X139966000Y-97686484D01*
X139966000Y-97893516D01*
X139925611Y-98096564D01*
X139880699Y-98204991D01*
X139846384Y-98287835D01*
X139731365Y-98459973D01*
X139584973Y-98606365D01*
X139412835Y-98721384D01*
X139412834Y-98721385D01*
X139412833Y-98721385D01*
X139221564Y-98800611D01*
X139018516Y-98841000D01*
X138811484Y-98841000D01*
X138608436Y-98800611D01*
X138417167Y-98721385D01*
X138417166Y-98721385D01*
X138417165Y-98721384D01*
X138245027Y-98606365D01*
X138098635Y-98459973D01*
X137983616Y-98287835D01*
X137949301Y-98204991D01*
X137904389Y-98096564D01*
X137864000Y-97893516D01*
X137864000Y-97686484D01*
X137904389Y-97483436D01*
X137983615Y-97292167D01*
X138098635Y-97120027D01*
X138245027Y-96973635D01*
X138417165Y-96858616D01*
X138417167Y-96858615D01*
X138608436Y-96779389D01*
X138811484Y-96739000D01*
X139018516Y-96739000D01*
X139221564Y-96779389D01*
G37*
G36*
X145721564Y-96779389D02*
G01*
X145912833Y-96858615D01*
X145912835Y-96858616D01*
X146084973Y-96973635D01*
X146231365Y-97120027D01*
X146346385Y-97292167D01*
X146425611Y-97483436D01*
X146466000Y-97686484D01*
X146466000Y-97893516D01*
X146425611Y-98096564D01*
X146380699Y-98204991D01*
X146346384Y-98287835D01*
X146231365Y-98459973D01*
X146084973Y-98606365D01*
X145912835Y-98721384D01*
X145912834Y-98721385D01*
X145912833Y-98721385D01*
X145721564Y-98800611D01*
X145518516Y-98841000D01*
X145311484Y-98841000D01*
X145108436Y-98800611D01*
X144917167Y-98721385D01*
X144917166Y-98721385D01*
X144917165Y-98721384D01*
X144745027Y-98606365D01*
X144598635Y-98459973D01*
X144483616Y-98287835D01*
X144449301Y-98204991D01*
X144404389Y-98096564D01*
X144364000Y-97893516D01*
X144364000Y-97686484D01*
X144404389Y-97483436D01*
X144483615Y-97292167D01*
X144598635Y-97120027D01*
X144745027Y-96973635D01*
X144917165Y-96858616D01*
X144917167Y-96858615D01*
X145108436Y-96779389D01*
X145311484Y-96739000D01*
X145518516Y-96739000D01*
X145721564Y-96779389D01*
G37*
G36*
X196535345Y-95603442D02*
G01*
X196625548Y-95612326D01*
X196799157Y-95664990D01*
X196959156Y-95750511D01*
X197002729Y-95786271D01*
X197099397Y-95865603D01*
X197178729Y-95962271D01*
X197214489Y-96005844D01*
X197300010Y-96165843D01*
X197352674Y-96339452D01*
X197370456Y-96520000D01*
X197352674Y-96700548D01*
X197300010Y-96874157D01*
X197214489Y-97034156D01*
X197178729Y-97077729D01*
X197099397Y-97174397D01*
X197002729Y-97253729D01*
X196959156Y-97289489D01*
X196799157Y-97375010D01*
X196625548Y-97427674D01*
X196535345Y-97436558D01*
X196490245Y-97441000D01*
X195939755Y-97441000D01*
X195894655Y-97436558D01*
X195804452Y-97427674D01*
X195630843Y-97375010D01*
X195470844Y-97289489D01*
X195427271Y-97253729D01*
X195330603Y-97174397D01*
X195251271Y-97077729D01*
X195215511Y-97034156D01*
X195129990Y-96874157D01*
X195077326Y-96700548D01*
X195059544Y-96520000D01*
X195077326Y-96339452D01*
X195129990Y-96165843D01*
X195215511Y-96005844D01*
X195251271Y-95962271D01*
X195330603Y-95865603D01*
X195427271Y-95786271D01*
X195470844Y-95750511D01*
X195630843Y-95664990D01*
X195804452Y-95612326D01*
X195894655Y-95603442D01*
X195939755Y-95599000D01*
X196490245Y-95599000D01*
X196535345Y-95603442D01*
G37*
G36*
X187645345Y-95603442D02*
G01*
X187735548Y-95612326D01*
X187909157Y-95664990D01*
X188069156Y-95750511D01*
X188112729Y-95786271D01*
X188209397Y-95865603D01*
X188288729Y-95962271D01*
X188324489Y-96005844D01*
X188410010Y-96165843D01*
X188462674Y-96339452D01*
X188480456Y-96520000D01*
X188462674Y-96700548D01*
X188410010Y-96874157D01*
X188324489Y-97034156D01*
X188288729Y-97077729D01*
X188209397Y-97174397D01*
X188112729Y-97253729D01*
X188069156Y-97289489D01*
X187909157Y-97375010D01*
X187735548Y-97427674D01*
X187645345Y-97436558D01*
X187600245Y-97441000D01*
X187049755Y-97441000D01*
X187004655Y-97436558D01*
X186914452Y-97427674D01*
X186740843Y-97375010D01*
X186580844Y-97289489D01*
X186537271Y-97253729D01*
X186440603Y-97174397D01*
X186361271Y-97077729D01*
X186325511Y-97034156D01*
X186239990Y-96874157D01*
X186187326Y-96700548D01*
X186169544Y-96520000D01*
X186187326Y-96339452D01*
X186239990Y-96165843D01*
X186325511Y-96005844D01*
X186361271Y-95962271D01*
X186440603Y-95865603D01*
X186537271Y-95786271D01*
X186580844Y-95750511D01*
X186740843Y-95664990D01*
X186914452Y-95612326D01*
X187004655Y-95603442D01*
X187049755Y-95599000D01*
X187600245Y-95599000D01*
X187645345Y-95603442D01*
G37*
G36*
X104460345Y-94968442D02*
G01*
X104550548Y-94977326D01*
X104724157Y-95029990D01*
X104884156Y-95115511D01*
X104927729Y-95151271D01*
X105024397Y-95230603D01*
X105103729Y-95327271D01*
X105139489Y-95370844D01*
X105225010Y-95530843D01*
X105277674Y-95704452D01*
X105295456Y-95885000D01*
X105277674Y-96065548D01*
X105225010Y-96239157D01*
X105139489Y-96399156D01*
X105103729Y-96442729D01*
X105024397Y-96539397D01*
X104927729Y-96618729D01*
X104884156Y-96654489D01*
X104724157Y-96740010D01*
X104550548Y-96792674D01*
X104460345Y-96801558D01*
X104415245Y-96806000D01*
X103864755Y-96806000D01*
X103819655Y-96801558D01*
X103729452Y-96792674D01*
X103555843Y-96740010D01*
X103395844Y-96654489D01*
X103352271Y-96618729D01*
X103255603Y-96539397D01*
X103176271Y-96442729D01*
X103140511Y-96399156D01*
X103054990Y-96239157D01*
X103002326Y-96065548D01*
X102984544Y-95885000D01*
X103002326Y-95704452D01*
X103054990Y-95530843D01*
X103140511Y-95370844D01*
X103176271Y-95327271D01*
X103255603Y-95230603D01*
X103352271Y-95151271D01*
X103395844Y-95115511D01*
X103555843Y-95029990D01*
X103729452Y-94977326D01*
X103819655Y-94968442D01*
X103864755Y-94964000D01*
X104415245Y-94964000D01*
X104460345Y-94968442D01*
G37*
G36*
X187645345Y-93063442D02*
G01*
X187735548Y-93072326D01*
X187909157Y-93124990D01*
X188069156Y-93210511D01*
X188112729Y-93246271D01*
X188209397Y-93325603D01*
X188288729Y-93422271D01*
X188324489Y-93465844D01*
X188410010Y-93625843D01*
X188462674Y-93799452D01*
X188480456Y-93980000D01*
X188462674Y-94160548D01*
X188410010Y-94334157D01*
X188324489Y-94494156D01*
X188291453Y-94534410D01*
X188209397Y-94634397D01*
X188112729Y-94713729D01*
X188069156Y-94749489D01*
X187909157Y-94835010D01*
X187735548Y-94887674D01*
X187645345Y-94896558D01*
X187600245Y-94901000D01*
X187049755Y-94901000D01*
X187004655Y-94896558D01*
X186914452Y-94887674D01*
X186740843Y-94835010D01*
X186580844Y-94749489D01*
X186537271Y-94713729D01*
X186440603Y-94634397D01*
X186358547Y-94534410D01*
X186325511Y-94494156D01*
X186239990Y-94334157D01*
X186187326Y-94160548D01*
X186169544Y-93980000D01*
X186187326Y-93799452D01*
X186239990Y-93625843D01*
X186325511Y-93465844D01*
X186361271Y-93422271D01*
X186440603Y-93325603D01*
X186537271Y-93246271D01*
X186580844Y-93210511D01*
X186740843Y-93124990D01*
X186914452Y-93072326D01*
X187004655Y-93063442D01*
X187049755Y-93059000D01*
X187600245Y-93059000D01*
X187645345Y-93063442D01*
G37*
G36*
X196535345Y-93063442D02*
G01*
X196625548Y-93072326D01*
X196799157Y-93124990D01*
X196959156Y-93210511D01*
X197002729Y-93246271D01*
X197099397Y-93325603D01*
X197178729Y-93422271D01*
X197214489Y-93465844D01*
X197300010Y-93625843D01*
X197352674Y-93799452D01*
X197370456Y-93980000D01*
X197352674Y-94160548D01*
X197300010Y-94334157D01*
X197214489Y-94494156D01*
X197181453Y-94534410D01*
X197099397Y-94634397D01*
X197002729Y-94713729D01*
X196959156Y-94749489D01*
X196799157Y-94835010D01*
X196625548Y-94887674D01*
X196535345Y-94896558D01*
X196490245Y-94901000D01*
X195939755Y-94901000D01*
X195894655Y-94896558D01*
X195804452Y-94887674D01*
X195630843Y-94835010D01*
X195470844Y-94749489D01*
X195427271Y-94713729D01*
X195330603Y-94634397D01*
X195248547Y-94534410D01*
X195215511Y-94494156D01*
X195129990Y-94334157D01*
X195077326Y-94160548D01*
X195059544Y-93980000D01*
X195077326Y-93799452D01*
X195129990Y-93625843D01*
X195215511Y-93465844D01*
X195251271Y-93422271D01*
X195330603Y-93325603D01*
X195427271Y-93246271D01*
X195470844Y-93210511D01*
X195630843Y-93124990D01*
X195804452Y-93072326D01*
X195894655Y-93063442D01*
X195939755Y-93059000D01*
X196490245Y-93059000D01*
X196535345Y-93063442D01*
G37*
G36*
X114457022Y-92155590D02*
G01*
X114557681Y-92186125D01*
X114608012Y-92201392D01*
X114747164Y-92275771D01*
X114869133Y-92375867D01*
X114949369Y-92473635D01*
X114969229Y-92497835D01*
X115043608Y-92636987D01*
X115058875Y-92687318D01*
X115089410Y-92787977D01*
X115093632Y-92830844D01*
X115101000Y-92905654D01*
X115101000Y-93784346D01*
X115100656Y-93787835D01*
X115089410Y-93902023D01*
X115071831Y-93959973D01*
X115043608Y-94053013D01*
X114969229Y-94192165D01*
X114869133Y-94314133D01*
X114747165Y-94414229D01*
X114608013Y-94488608D01*
X114589723Y-94494156D01*
X114457023Y-94534410D01*
X114300000Y-94549875D01*
X114142978Y-94534410D01*
X114010278Y-94494156D01*
X113991988Y-94488608D01*
X113852836Y-94414229D01*
X113730868Y-94314133D01*
X113630772Y-94192165D01*
X113556393Y-94053013D01*
X113528170Y-93959973D01*
X113510591Y-93902023D01*
X113499000Y-93784345D01*
X113499000Y-92905656D01*
X113510590Y-92787978D01*
X113556392Y-92636989D01*
X113556392Y-92636988D01*
X113630771Y-92497836D01*
X113691366Y-92424000D01*
X113730867Y-92375867D01*
X113852835Y-92275771D01*
X113991987Y-92201392D01*
X114042318Y-92186125D01*
X114142977Y-92155590D01*
X114300000Y-92140125D01*
X114457022Y-92155590D01*
G37*
G36*
X116997022Y-92155590D02*
G01*
X117097681Y-92186125D01*
X117148012Y-92201392D01*
X117287164Y-92275771D01*
X117409133Y-92375867D01*
X117489369Y-92473635D01*
X117509229Y-92497835D01*
X117583608Y-92636987D01*
X117598875Y-92687318D01*
X117629410Y-92787977D01*
X117633632Y-92830844D01*
X117641000Y-92905654D01*
X117641000Y-93784346D01*
X117640656Y-93787835D01*
X117629410Y-93902023D01*
X117611831Y-93959973D01*
X117583608Y-94053013D01*
X117509229Y-94192165D01*
X117409133Y-94314133D01*
X117287165Y-94414229D01*
X117148013Y-94488608D01*
X117129723Y-94494156D01*
X116997023Y-94534410D01*
X116840000Y-94549875D01*
X116682978Y-94534410D01*
X116550278Y-94494156D01*
X116531988Y-94488608D01*
X116392836Y-94414229D01*
X116270868Y-94314133D01*
X116170772Y-94192165D01*
X116096393Y-94053013D01*
X116068170Y-93959973D01*
X116050591Y-93902023D01*
X116039000Y-93784345D01*
X116039000Y-92905656D01*
X116050590Y-92787978D01*
X116096392Y-92636989D01*
X116096392Y-92636988D01*
X116170771Y-92497836D01*
X116231366Y-92424000D01*
X116270867Y-92375867D01*
X116392835Y-92275771D01*
X116531987Y-92201392D01*
X116582318Y-92186125D01*
X116682977Y-92155590D01*
X116840000Y-92140125D01*
X116997022Y-92155590D01*
G37*
G36*
X112561000Y-94546000D02*
G01*
X110959000Y-94546000D01*
X110959000Y-92144000D01*
X112561000Y-92144000D01*
X112561000Y-94546000D01*
G37*
G36*
X139221564Y-92279389D02*
G01*
X139409016Y-92357034D01*
X139412835Y-92358616D01*
X139584973Y-92473635D01*
X139731365Y-92620027D01*
X139843588Y-92787980D01*
X139846385Y-92792167D01*
X139925611Y-92983436D01*
X139966000Y-93186484D01*
X139966000Y-93393516D01*
X139925611Y-93596564D01*
X139883115Y-93699159D01*
X139846384Y-93787835D01*
X139731365Y-93959973D01*
X139584973Y-94106365D01*
X139412835Y-94221384D01*
X139412834Y-94221385D01*
X139412833Y-94221385D01*
X139221564Y-94300611D01*
X139018516Y-94341000D01*
X138811484Y-94341000D01*
X138608436Y-94300611D01*
X138417167Y-94221385D01*
X138417166Y-94221385D01*
X138417165Y-94221384D01*
X138245027Y-94106365D01*
X138098635Y-93959973D01*
X137983616Y-93787835D01*
X137946885Y-93699159D01*
X137904389Y-93596564D01*
X137864000Y-93393516D01*
X137864000Y-93186484D01*
X137904389Y-92983436D01*
X137983615Y-92792167D01*
X137986413Y-92787980D01*
X138098635Y-92620027D01*
X138245027Y-92473635D01*
X138417165Y-92358616D01*
X138420984Y-92357034D01*
X138608436Y-92279389D01*
X138811484Y-92239000D01*
X139018516Y-92239000D01*
X139221564Y-92279389D01*
G37*
G36*
X145721564Y-92279389D02*
G01*
X145909016Y-92357034D01*
X145912835Y-92358616D01*
X146084973Y-92473635D01*
X146231365Y-92620027D01*
X146343588Y-92787980D01*
X146346385Y-92792167D01*
X146425611Y-92983436D01*
X146466000Y-93186484D01*
X146466000Y-93393516D01*
X146425611Y-93596564D01*
X146383115Y-93699159D01*
X146346384Y-93787835D01*
X146231365Y-93959973D01*
X146084973Y-94106365D01*
X145912835Y-94221384D01*
X145912834Y-94221385D01*
X145912833Y-94221385D01*
X145721564Y-94300611D01*
X145518516Y-94341000D01*
X145311484Y-94341000D01*
X145108436Y-94300611D01*
X144917167Y-94221385D01*
X144917166Y-94221385D01*
X144917165Y-94221384D01*
X144745027Y-94106365D01*
X144598635Y-93959973D01*
X144483616Y-93787835D01*
X144446885Y-93699159D01*
X144404389Y-93596564D01*
X144364000Y-93393516D01*
X144364000Y-93186484D01*
X144404389Y-92983436D01*
X144483615Y-92792167D01*
X144486413Y-92787980D01*
X144598635Y-92620027D01*
X144745027Y-92473635D01*
X144917165Y-92358616D01*
X144920984Y-92357034D01*
X145108436Y-92279389D01*
X145311484Y-92239000D01*
X145518516Y-92239000D01*
X145721564Y-92279389D01*
G37*
G36*
X104460345Y-92428442D02*
G01*
X104550548Y-92437326D01*
X104724157Y-92489990D01*
X104884156Y-92575511D01*
X104927729Y-92611271D01*
X105024397Y-92690603D01*
X105103729Y-92787271D01*
X105139489Y-92830844D01*
X105225010Y-92990843D01*
X105277674Y-93164452D01*
X105295456Y-93345000D01*
X105277674Y-93525548D01*
X105225010Y-93699157D01*
X105139489Y-93859156D01*
X105104310Y-93902021D01*
X105024397Y-93999397D01*
X104927729Y-94078729D01*
X104884156Y-94114489D01*
X104724157Y-94200010D01*
X104550548Y-94252674D01*
X104460345Y-94261558D01*
X104415245Y-94266000D01*
X103864755Y-94266000D01*
X103819655Y-94261558D01*
X103729452Y-94252674D01*
X103555843Y-94200010D01*
X103395844Y-94114489D01*
X103352271Y-94078729D01*
X103255603Y-93999397D01*
X103175690Y-93902021D01*
X103140511Y-93859156D01*
X103054990Y-93699157D01*
X103002326Y-93525548D01*
X102984544Y-93345000D01*
X103002326Y-93164452D01*
X103054990Y-92990843D01*
X103140511Y-92830844D01*
X103176271Y-92787271D01*
X103255603Y-92690603D01*
X103352271Y-92611271D01*
X103395844Y-92575511D01*
X103555843Y-92489990D01*
X103729452Y-92437326D01*
X103819655Y-92428442D01*
X103864755Y-92424000D01*
X104415245Y-92424000D01*
X104460345Y-92428442D01*
G37*
G36*
X197224561Y-90522966D02*
G01*
X197257383Y-90532923D01*
X197287632Y-90549092D01*
X197314148Y-90570852D01*
X197335908Y-90597368D01*
X197352077Y-90627617D01*
X197362034Y-90660439D01*
X197366000Y-90700713D01*
X197366000Y-92179287D01*
X197362034Y-92219561D01*
X197352077Y-92252383D01*
X197335908Y-92282632D01*
X197314148Y-92309148D01*
X197287632Y-92330908D01*
X197257383Y-92347077D01*
X197224561Y-92357034D01*
X197184287Y-92361000D01*
X195245713Y-92361000D01*
X195205439Y-92357034D01*
X195172617Y-92347077D01*
X195142368Y-92330908D01*
X195115852Y-92309148D01*
X195094092Y-92282632D01*
X195077923Y-92252383D01*
X195067966Y-92219561D01*
X195064000Y-92179287D01*
X195064000Y-90700713D01*
X195067966Y-90660439D01*
X195077923Y-90627617D01*
X195094092Y-90597368D01*
X195115852Y-90570852D01*
X195142368Y-90549092D01*
X195172617Y-90532923D01*
X195205439Y-90522966D01*
X195245713Y-90519000D01*
X197184287Y-90519000D01*
X197224561Y-90522966D01*
G37*
G36*
X188334561Y-90522966D02*
G01*
X188367383Y-90532923D01*
X188397632Y-90549092D01*
X188424148Y-90570852D01*
X188445908Y-90597368D01*
X188462077Y-90627617D01*
X188472034Y-90660439D01*
X188476000Y-90700713D01*
X188476000Y-92179287D01*
X188472034Y-92219561D01*
X188462077Y-92252383D01*
X188445908Y-92282632D01*
X188424148Y-92309148D01*
X188397632Y-92330908D01*
X188367383Y-92347077D01*
X188334561Y-92357034D01*
X188294287Y-92361000D01*
X186355713Y-92361000D01*
X186315439Y-92357034D01*
X186282617Y-92347077D01*
X186252368Y-92330908D01*
X186225852Y-92309148D01*
X186204092Y-92282632D01*
X186187923Y-92252383D01*
X186177966Y-92219561D01*
X186174000Y-92179287D01*
X186174000Y-90700713D01*
X186177966Y-90660439D01*
X186187923Y-90627617D01*
X186204092Y-90597368D01*
X186225852Y-90570852D01*
X186252368Y-90549092D01*
X186282617Y-90532923D01*
X186315439Y-90522966D01*
X186355713Y-90519000D01*
X188294287Y-90519000D01*
X188334561Y-90522966D01*
G37*
G36*
X104460345Y-89888442D02*
G01*
X104550548Y-89897326D01*
X104724157Y-89949990D01*
X104884156Y-90035511D01*
X104927729Y-90071271D01*
X105024397Y-90150603D01*
X105103729Y-90247271D01*
X105139489Y-90290844D01*
X105225010Y-90450843D01*
X105277674Y-90624452D01*
X105295456Y-90805000D01*
X105277674Y-90985548D01*
X105225010Y-91159157D01*
X105139489Y-91319156D01*
X105103729Y-91362729D01*
X105024397Y-91459397D01*
X104927729Y-91538729D01*
X104884156Y-91574489D01*
X104724157Y-91660010D01*
X104550548Y-91712674D01*
X104460345Y-91721558D01*
X104415245Y-91726000D01*
X103864755Y-91726000D01*
X103819655Y-91721558D01*
X103729452Y-91712674D01*
X103555843Y-91660010D01*
X103395844Y-91574489D01*
X103352271Y-91538729D01*
X103255603Y-91459397D01*
X103176271Y-91362729D01*
X103140511Y-91319156D01*
X103054990Y-91159157D01*
X103002326Y-90985548D01*
X102984544Y-90805000D01*
X103002326Y-90624452D01*
X103054990Y-90450843D01*
X103140511Y-90290844D01*
X103176271Y-90247271D01*
X103255603Y-90150603D01*
X103352271Y-90071271D01*
X103395844Y-90035511D01*
X103555843Y-89949990D01*
X103729452Y-89897326D01*
X103819655Y-89888442D01*
X103864755Y-89884000D01*
X104415245Y-89884000D01*
X104460345Y-89888442D01*
G37*
G36*
X181389499Y-88378445D02*
G01*
X181426995Y-88389820D01*
X181461554Y-88408292D01*
X181491847Y-88433153D01*
X181516708Y-88463446D01*
X181535180Y-88498005D01*
X181546555Y-88535501D01*
X181551000Y-88580638D01*
X181551000Y-89219362D01*
X181546555Y-89264499D01*
X181535180Y-89301995D01*
X181516708Y-89336554D01*
X181491847Y-89366847D01*
X181461554Y-89391708D01*
X181426995Y-89410180D01*
X181389499Y-89421555D01*
X181344362Y-89426000D01*
X180605638Y-89426000D01*
X180560501Y-89421555D01*
X180523005Y-89410180D01*
X180488446Y-89391708D01*
X180458153Y-89366847D01*
X180433292Y-89336554D01*
X180414820Y-89301995D01*
X180403445Y-89264499D01*
X180399000Y-89219362D01*
X180399000Y-88580638D01*
X180403445Y-88535501D01*
X180414820Y-88498005D01*
X180433292Y-88463446D01*
X180458153Y-88433153D01*
X180488446Y-88408292D01*
X180523005Y-88389820D01*
X180560501Y-88378445D01*
X180605638Y-88374000D01*
X181344362Y-88374000D01*
X181389499Y-88378445D01*
G37*
G36*
X183139499Y-88378445D02*
G01*
X183176995Y-88389820D01*
X183211554Y-88408292D01*
X183241847Y-88433153D01*
X183266708Y-88463446D01*
X183285180Y-88498005D01*
X183296555Y-88535501D01*
X183301000Y-88580638D01*
X183301000Y-89219362D01*
X183296555Y-89264499D01*
X183285180Y-89301995D01*
X183266708Y-89336554D01*
X183241847Y-89366847D01*
X183211554Y-89391708D01*
X183176995Y-89410180D01*
X183139499Y-89421555D01*
X183094362Y-89426000D01*
X182355638Y-89426000D01*
X182310501Y-89421555D01*
X182273005Y-89410180D01*
X182238446Y-89391708D01*
X182208153Y-89366847D01*
X182183292Y-89336554D01*
X182164820Y-89301995D01*
X182153445Y-89264499D01*
X182149000Y-89219362D01*
X182149000Y-88580638D01*
X182153445Y-88535501D01*
X182164820Y-88498005D01*
X182183292Y-88463446D01*
X182208153Y-88433153D01*
X182238446Y-88408292D01*
X182273005Y-88389820D01*
X182310501Y-88378445D01*
X182355638Y-88374000D01*
X183094362Y-88374000D01*
X183139499Y-88378445D01*
G37*
G36*
X104460345Y-87348442D02*
G01*
X104550548Y-87357326D01*
X104724157Y-87409990D01*
X104884156Y-87495511D01*
X104909057Y-87515947D01*
X105024397Y-87610603D01*
X105103729Y-87707271D01*
X105139489Y-87750844D01*
X105225010Y-87910843D01*
X105277674Y-88084452D01*
X105295456Y-88265000D01*
X105277674Y-88445548D01*
X105225010Y-88619157D01*
X105139489Y-88779156D01*
X105103729Y-88822729D01*
X105024397Y-88919397D01*
X104927729Y-88998729D01*
X104884156Y-89034489D01*
X104724157Y-89120010D01*
X104550548Y-89172674D01*
X104460345Y-89181558D01*
X104415245Y-89186000D01*
X103864755Y-89186000D01*
X103819655Y-89181558D01*
X103729452Y-89172674D01*
X103555843Y-89120010D01*
X103395844Y-89034489D01*
X103352271Y-88998729D01*
X103255603Y-88919397D01*
X103176271Y-88822729D01*
X103140511Y-88779156D01*
X103054990Y-88619157D01*
X103002326Y-88445548D01*
X102984544Y-88265000D01*
X103002326Y-88084452D01*
X103054990Y-87910843D01*
X103140511Y-87750844D01*
X103176271Y-87707271D01*
X103255603Y-87610603D01*
X103370943Y-87515947D01*
X103395844Y-87495511D01*
X103555843Y-87409990D01*
X103729452Y-87357326D01*
X103819655Y-87348442D01*
X103864755Y-87344000D01*
X104415245Y-87344000D01*
X104460345Y-87348442D01*
G37*
G36*
X171081000Y-88531000D02*
G01*
X169279000Y-88531000D01*
X169279000Y-86729000D01*
X171081000Y-86729000D01*
X171081000Y-88531000D01*
G37*
G36*
X183139499Y-86473445D02*
G01*
X183176995Y-86484820D01*
X183211554Y-86503292D01*
X183241847Y-86528153D01*
X183266708Y-86558446D01*
X183285180Y-86593005D01*
X183296555Y-86630501D01*
X183301000Y-86675638D01*
X183301000Y-87314362D01*
X183296555Y-87359499D01*
X183285180Y-87396995D01*
X183266708Y-87431554D01*
X183241847Y-87461847D01*
X183211554Y-87486708D01*
X183176995Y-87505180D01*
X183139499Y-87516555D01*
X183094362Y-87521000D01*
X182355638Y-87521000D01*
X182310501Y-87516555D01*
X182273005Y-87505180D01*
X182238446Y-87486708D01*
X182208153Y-87461847D01*
X182183292Y-87431554D01*
X182164820Y-87396995D01*
X182153445Y-87359499D01*
X182149000Y-87314362D01*
X182149000Y-86675638D01*
X182153445Y-86630501D01*
X182164820Y-86593005D01*
X182183292Y-86558446D01*
X182208153Y-86528153D01*
X182238446Y-86503292D01*
X182273005Y-86484820D01*
X182310501Y-86473445D01*
X182355638Y-86469000D01*
X183094362Y-86469000D01*
X183139499Y-86473445D01*
G37*
G36*
X181389499Y-86473445D02*
G01*
X181426995Y-86484820D01*
X181461554Y-86503292D01*
X181491847Y-86528153D01*
X181516708Y-86558446D01*
X181535180Y-86593005D01*
X181546555Y-86630501D01*
X181551000Y-86675638D01*
X181551000Y-87314362D01*
X181546555Y-87359499D01*
X181535180Y-87396995D01*
X181516708Y-87431554D01*
X181491847Y-87461847D01*
X181461554Y-87486708D01*
X181426995Y-87505180D01*
X181389499Y-87516555D01*
X181344362Y-87521000D01*
X180605638Y-87521000D01*
X180560501Y-87516555D01*
X180523005Y-87505180D01*
X180488446Y-87486708D01*
X180458153Y-87461847D01*
X180433292Y-87431554D01*
X180414820Y-87396995D01*
X180403445Y-87359499D01*
X180399000Y-87314362D01*
X180399000Y-86675638D01*
X180403445Y-86630501D01*
X180414820Y-86593005D01*
X180433292Y-86558446D01*
X180458153Y-86528153D01*
X180488446Y-86503292D01*
X180523005Y-86484820D01*
X180560501Y-86473445D01*
X180605638Y-86469000D01*
X181344362Y-86469000D01*
X181389499Y-86473445D01*
G37*
G36*
X196535345Y-85443442D02*
G01*
X196625548Y-85452326D01*
X196799157Y-85504990D01*
X196959156Y-85590511D01*
X196984057Y-85610947D01*
X197099397Y-85705603D01*
X197168537Y-85789852D01*
X197214489Y-85845844D01*
X197300010Y-86005843D01*
X197352674Y-86179452D01*
X197370456Y-86360000D01*
X197352674Y-86540548D01*
X197300010Y-86714157D01*
X197214489Y-86874156D01*
X197178729Y-86917729D01*
X197099397Y-87014397D01*
X197002729Y-87093729D01*
X196959156Y-87129489D01*
X196799157Y-87215010D01*
X196625548Y-87267674D01*
X196535345Y-87276558D01*
X196490245Y-87281000D01*
X195939755Y-87281000D01*
X195894655Y-87276558D01*
X195804452Y-87267674D01*
X195630843Y-87215010D01*
X195470844Y-87129489D01*
X195427271Y-87093729D01*
X195330603Y-87014397D01*
X195251271Y-86917729D01*
X195215511Y-86874156D01*
X195129990Y-86714157D01*
X195077326Y-86540548D01*
X195059544Y-86360000D01*
X195077326Y-86179452D01*
X195129990Y-86005843D01*
X195215511Y-85845844D01*
X195261463Y-85789852D01*
X195330603Y-85705603D01*
X195445943Y-85610947D01*
X195470844Y-85590511D01*
X195630843Y-85504990D01*
X195804452Y-85452326D01*
X195894655Y-85443442D01*
X195939755Y-85439000D01*
X196490245Y-85439000D01*
X196535345Y-85443442D01*
G37*
G36*
X187645345Y-85443442D02*
G01*
X187735548Y-85452326D01*
X187909157Y-85504990D01*
X188069156Y-85590511D01*
X188094057Y-85610947D01*
X188209397Y-85705603D01*
X188278537Y-85789852D01*
X188324489Y-85845844D01*
X188410010Y-86005843D01*
X188462674Y-86179452D01*
X188480456Y-86360000D01*
X188462674Y-86540548D01*
X188410010Y-86714157D01*
X188324489Y-86874156D01*
X188288729Y-86917729D01*
X188209397Y-87014397D01*
X188112729Y-87093729D01*
X188069156Y-87129489D01*
X187909157Y-87215010D01*
X187735548Y-87267674D01*
X187645345Y-87276558D01*
X187600245Y-87281000D01*
X187049755Y-87281000D01*
X187004655Y-87276558D01*
X186914452Y-87267674D01*
X186740843Y-87215010D01*
X186580844Y-87129489D01*
X186537271Y-87093729D01*
X186440603Y-87014397D01*
X186361271Y-86917729D01*
X186325511Y-86874156D01*
X186239990Y-86714157D01*
X186187326Y-86540548D01*
X186169544Y-86360000D01*
X186187326Y-86179452D01*
X186239990Y-86005843D01*
X186325511Y-85845844D01*
X186371463Y-85789852D01*
X186440603Y-85705603D01*
X186555943Y-85610947D01*
X186580844Y-85590511D01*
X186740843Y-85504990D01*
X186914452Y-85452326D01*
X187004655Y-85443442D01*
X187049755Y-85439000D01*
X187600245Y-85439000D01*
X187645345Y-85443442D01*
G37*
G36*
X104460345Y-84808442D02*
G01*
X104550548Y-84817326D01*
X104724157Y-84869990D01*
X104884156Y-84955511D01*
X104927729Y-84991271D01*
X105024397Y-85070603D01*
X105103729Y-85167271D01*
X105139489Y-85210844D01*
X105225010Y-85370843D01*
X105277674Y-85544452D01*
X105295456Y-85725000D01*
X105277674Y-85905548D01*
X105225010Y-86079157D01*
X105139489Y-86239156D01*
X105103729Y-86282729D01*
X105024397Y-86379397D01*
X104927729Y-86458729D01*
X104884156Y-86494489D01*
X104724157Y-86580010D01*
X104550548Y-86632674D01*
X104460345Y-86641558D01*
X104415245Y-86646000D01*
X103864755Y-86646000D01*
X103819655Y-86641558D01*
X103729452Y-86632674D01*
X103555843Y-86580010D01*
X103395844Y-86494489D01*
X103352271Y-86458729D01*
X103255603Y-86379397D01*
X103176271Y-86282729D01*
X103140511Y-86239156D01*
X103054990Y-86079157D01*
X103002326Y-85905548D01*
X102984544Y-85725000D01*
X103002326Y-85544452D01*
X103054990Y-85370843D01*
X103140511Y-85210844D01*
X103176271Y-85167271D01*
X103255603Y-85070603D01*
X103352271Y-84991271D01*
X103395844Y-84955511D01*
X103555843Y-84869990D01*
X103729452Y-84817326D01*
X103819655Y-84808442D01*
X103864755Y-84804000D01*
X104415245Y-84804000D01*
X104460345Y-84808442D01*
G37*
G36*
X170293512Y-84193927D02*
G01*
X170442812Y-84223624D01*
X170606784Y-84291544D01*
X170754354Y-84390147D01*
X170879853Y-84515646D01*
X170978456Y-84663216D01*
X171046376Y-84827188D01*
X171081000Y-85001259D01*
X171081000Y-85178741D01*
X171046376Y-85352812D01*
X170978456Y-85516784D01*
X170879853Y-85664354D01*
X170754354Y-85789853D01*
X170606784Y-85888456D01*
X170442812Y-85956376D01*
X170293512Y-85986073D01*
X170268742Y-85991000D01*
X170091258Y-85991000D01*
X170066488Y-85986073D01*
X169917188Y-85956376D01*
X169753216Y-85888456D01*
X169605646Y-85789853D01*
X169480147Y-85664354D01*
X169381544Y-85516784D01*
X169313624Y-85352812D01*
X169279000Y-85178741D01*
X169279000Y-85001259D01*
X169313624Y-84827188D01*
X169381544Y-84663216D01*
X169480147Y-84515646D01*
X169605646Y-84390147D01*
X169753216Y-84291544D01*
X169917188Y-84223624D01*
X170066488Y-84193927D01*
X170091258Y-84189000D01*
X170268742Y-84189000D01*
X170293512Y-84193927D01*
G37*
G36*
X157019499Y-84568445D02*
G01*
X157056995Y-84579820D01*
X157091554Y-84598292D01*
X157121847Y-84623153D01*
X157146708Y-84653446D01*
X157165180Y-84688005D01*
X157176555Y-84725501D01*
X157181000Y-84770638D01*
X157181000Y-85409362D01*
X157176555Y-85454499D01*
X157165180Y-85491995D01*
X157146708Y-85526554D01*
X157121847Y-85556847D01*
X157091554Y-85581708D01*
X157056995Y-85600180D01*
X157019499Y-85611555D01*
X156974362Y-85616000D01*
X156235638Y-85616000D01*
X156190501Y-85611555D01*
X156153005Y-85600180D01*
X156118446Y-85581708D01*
X156088153Y-85556847D01*
X156063292Y-85526554D01*
X156044820Y-85491995D01*
X156033445Y-85454499D01*
X156029000Y-85409362D01*
X156029000Y-84770638D01*
X156033445Y-84725501D01*
X156044820Y-84688005D01*
X156063292Y-84653446D01*
X156088153Y-84623153D01*
X156118446Y-84598292D01*
X156153005Y-84579820D01*
X156190501Y-84568445D01*
X156235638Y-84564000D01*
X156974362Y-84564000D01*
X157019499Y-84568445D01*
G37*
G36*
X158769499Y-84568445D02*
G01*
X158806995Y-84579820D01*
X158841554Y-84598292D01*
X158871847Y-84623153D01*
X158896708Y-84653446D01*
X158915180Y-84688005D01*
X158926555Y-84725501D01*
X158931000Y-84770638D01*
X158931000Y-85409362D01*
X158926555Y-85454499D01*
X158915180Y-85491995D01*
X158896708Y-85526554D01*
X158871847Y-85556847D01*
X158841554Y-85581708D01*
X158806995Y-85600180D01*
X158769499Y-85611555D01*
X158724362Y-85616000D01*
X157985638Y-85616000D01*
X157940501Y-85611555D01*
X157903005Y-85600180D01*
X157868446Y-85581708D01*
X157838153Y-85556847D01*
X157813292Y-85526554D01*
X157794820Y-85491995D01*
X157783445Y-85454499D01*
X157779000Y-85409362D01*
X157779000Y-84770638D01*
X157783445Y-84725501D01*
X157794820Y-84688005D01*
X157813292Y-84653446D01*
X157838153Y-84623153D01*
X157868446Y-84598292D01*
X157903005Y-84579820D01*
X157940501Y-84568445D01*
X157985638Y-84564000D01*
X158724362Y-84564000D01*
X158769499Y-84568445D01*
G37*
G36*
X187645345Y-82903442D02*
G01*
X187735548Y-82912326D01*
X187909157Y-82964990D01*
X188069156Y-83050511D01*
X188112729Y-83086271D01*
X188209397Y-83165603D01*
X188278537Y-83249852D01*
X188324489Y-83305844D01*
X188410010Y-83465843D01*
X188462674Y-83639452D01*
X188480456Y-83820000D01*
X188462674Y-84000548D01*
X188410010Y-84174157D01*
X188324489Y-84334156D01*
X188288729Y-84377729D01*
X188209397Y-84474397D01*
X188112729Y-84553729D01*
X188069156Y-84589489D01*
X187909157Y-84675010D01*
X187735548Y-84727674D01*
X187645345Y-84736558D01*
X187600245Y-84741000D01*
X187049755Y-84741000D01*
X187004655Y-84736558D01*
X186914452Y-84727674D01*
X186740843Y-84675010D01*
X186580844Y-84589489D01*
X186537271Y-84553729D01*
X186440603Y-84474397D01*
X186361271Y-84377729D01*
X186325511Y-84334156D01*
X186239990Y-84174157D01*
X186187326Y-84000548D01*
X186169544Y-83820000D01*
X186187326Y-83639452D01*
X186239990Y-83465843D01*
X186325511Y-83305844D01*
X186371463Y-83249852D01*
X186440603Y-83165603D01*
X186537271Y-83086271D01*
X186580844Y-83050511D01*
X186740843Y-82964990D01*
X186914452Y-82912326D01*
X187004655Y-82903442D01*
X187049755Y-82899000D01*
X187600245Y-82899000D01*
X187645345Y-82903442D01*
G37*
G36*
X196535345Y-82903442D02*
G01*
X196625548Y-82912326D01*
X196799157Y-82964990D01*
X196959156Y-83050511D01*
X197002729Y-83086271D01*
X197099397Y-83165603D01*
X197168537Y-83249852D01*
X197214489Y-83305844D01*
X197300010Y-83465843D01*
X197352674Y-83639452D01*
X197370456Y-83820000D01*
X197352674Y-84000548D01*
X197300010Y-84174157D01*
X197214489Y-84334156D01*
X197178729Y-84377729D01*
X197099397Y-84474397D01*
X197002729Y-84553729D01*
X196959156Y-84589489D01*
X196799157Y-84675010D01*
X196625548Y-84727674D01*
X196535345Y-84736558D01*
X196490245Y-84741000D01*
X195939755Y-84741000D01*
X195894655Y-84736558D01*
X195804452Y-84727674D01*
X195630843Y-84675010D01*
X195470844Y-84589489D01*
X195427271Y-84553729D01*
X195330603Y-84474397D01*
X195251271Y-84377729D01*
X195215511Y-84334156D01*
X195129990Y-84174157D01*
X195077326Y-84000548D01*
X195059544Y-83820000D01*
X195077326Y-83639452D01*
X195129990Y-83465843D01*
X195215511Y-83305844D01*
X195261463Y-83249852D01*
X195330603Y-83165603D01*
X195427271Y-83086271D01*
X195470844Y-83050511D01*
X195630843Y-82964990D01*
X195804452Y-82912326D01*
X195894655Y-82903442D01*
X195939755Y-82899000D01*
X196490245Y-82899000D01*
X196535345Y-82903442D01*
G37*
G36*
X170293512Y-81653927D02*
G01*
X170442812Y-81683624D01*
X170606784Y-81751544D01*
X170754354Y-81850147D01*
X170879853Y-81975646D01*
X170978456Y-82123216D01*
X171046376Y-82287188D01*
X171081000Y-82461259D01*
X171081000Y-82638741D01*
X171046376Y-82812812D01*
X170978456Y-82976784D01*
X170879853Y-83124354D01*
X170754354Y-83249853D01*
X170606784Y-83348456D01*
X170442812Y-83416376D01*
X170293512Y-83446073D01*
X170268742Y-83451000D01*
X170091258Y-83451000D01*
X170066488Y-83446073D01*
X169917188Y-83416376D01*
X169753216Y-83348456D01*
X169605646Y-83249853D01*
X169480147Y-83124354D01*
X169381544Y-82976784D01*
X169313624Y-82812812D01*
X169279000Y-82638741D01*
X169279000Y-82461259D01*
X169313624Y-82287188D01*
X169381544Y-82123216D01*
X169480147Y-81975646D01*
X169605646Y-81850147D01*
X169753216Y-81751544D01*
X169917188Y-81683624D01*
X170066488Y-81653927D01*
X170091258Y-81649000D01*
X170268742Y-81649000D01*
X170293512Y-81653927D01*
G37*
G36*
X196535345Y-80363442D02*
G01*
X196625548Y-80372326D01*
X196799157Y-80424990D01*
X196799159Y-80424991D01*
X196814152Y-80433005D01*
X196959156Y-80510511D01*
X196971560Y-80520691D01*
X197099397Y-80625603D01*
X197168537Y-80709852D01*
X197214489Y-80765844D01*
X197300010Y-80925843D01*
X197352674Y-81099452D01*
X197370456Y-81280000D01*
X197352674Y-81460548D01*
X197300010Y-81634157D01*
X197214489Y-81794156D01*
X197182610Y-81833000D01*
X197099397Y-81934397D01*
X197011472Y-82006554D01*
X196959156Y-82049489D01*
X196799157Y-82135010D01*
X196625548Y-82187674D01*
X196535345Y-82196558D01*
X196490245Y-82201000D01*
X195939755Y-82201000D01*
X195894655Y-82196558D01*
X195804452Y-82187674D01*
X195630843Y-82135010D01*
X195470844Y-82049489D01*
X195418528Y-82006554D01*
X195330603Y-81934397D01*
X195247390Y-81833000D01*
X195215511Y-81794156D01*
X195129990Y-81634157D01*
X195077326Y-81460548D01*
X195059544Y-81280000D01*
X195077326Y-81099452D01*
X195129990Y-80925843D01*
X195215511Y-80765844D01*
X195261463Y-80709852D01*
X195330603Y-80625603D01*
X195458440Y-80520691D01*
X195470844Y-80510511D01*
X195615848Y-80433005D01*
X195630841Y-80424991D01*
X195630843Y-80424990D01*
X195804452Y-80372326D01*
X195894655Y-80363442D01*
X195939755Y-80359000D01*
X196490245Y-80359000D01*
X196535345Y-80363442D01*
G37*
G36*
X187645345Y-80363442D02*
G01*
X187735548Y-80372326D01*
X187909157Y-80424990D01*
X187909159Y-80424991D01*
X187924152Y-80433005D01*
X188069156Y-80510511D01*
X188081560Y-80520691D01*
X188209397Y-80625603D01*
X188278537Y-80709852D01*
X188324489Y-80765844D01*
X188410010Y-80925843D01*
X188462674Y-81099452D01*
X188480456Y-81280000D01*
X188462674Y-81460548D01*
X188410010Y-81634157D01*
X188324489Y-81794156D01*
X188292610Y-81833000D01*
X188209397Y-81934397D01*
X188121472Y-82006554D01*
X188069156Y-82049489D01*
X187909157Y-82135010D01*
X187735548Y-82187674D01*
X187645345Y-82196558D01*
X187600245Y-82201000D01*
X187049755Y-82201000D01*
X187004655Y-82196558D01*
X186914452Y-82187674D01*
X186740843Y-82135010D01*
X186580844Y-82049489D01*
X186528528Y-82006554D01*
X186440603Y-81934397D01*
X186357390Y-81833000D01*
X186325511Y-81794156D01*
X186239990Y-81634157D01*
X186187326Y-81460548D01*
X186169544Y-81280000D01*
X186187326Y-81099452D01*
X186239990Y-80925843D01*
X186325511Y-80765844D01*
X186371463Y-80709852D01*
X186440603Y-80625603D01*
X186568440Y-80520691D01*
X186580844Y-80510511D01*
X186725848Y-80433005D01*
X186740841Y-80424991D01*
X186740843Y-80424990D01*
X186914452Y-80372326D01*
X187004655Y-80363442D01*
X187049755Y-80359000D01*
X187600245Y-80359000D01*
X187645345Y-80363442D01*
G37*
G36*
X161019499Y-80948445D02*
G01*
X161056995Y-80959820D01*
X161091554Y-80978292D01*
X161121847Y-81003153D01*
X161146708Y-81033446D01*
X161165180Y-81068005D01*
X161176555Y-81105501D01*
X161181000Y-81150638D01*
X161181000Y-81889362D01*
X161176555Y-81934499D01*
X161165180Y-81971995D01*
X161146708Y-82006554D01*
X161121847Y-82036847D01*
X161091554Y-82061708D01*
X161056995Y-82080180D01*
X161019499Y-82091555D01*
X160974362Y-82096000D01*
X160335638Y-82096000D01*
X160290501Y-82091555D01*
X160253005Y-82080180D01*
X160218446Y-82061708D01*
X160188153Y-82036847D01*
X160163292Y-82006554D01*
X160144820Y-81971995D01*
X160133445Y-81934499D01*
X160129000Y-81889362D01*
X160129000Y-81150638D01*
X160133445Y-81105501D01*
X160144820Y-81068005D01*
X160163292Y-81033446D01*
X160188153Y-81003153D01*
X160218446Y-80978292D01*
X160253005Y-80959820D01*
X160290501Y-80948445D01*
X160335638Y-80944000D01*
X160974362Y-80944000D01*
X161019499Y-80948445D01*
G37*
G36*
X105149561Y-79727966D02*
G01*
X105182383Y-79737923D01*
X105212632Y-79754092D01*
X105239148Y-79775852D01*
X105260908Y-79802368D01*
X105277077Y-79832617D01*
X105287034Y-79865439D01*
X105291000Y-79905713D01*
X105291000Y-81384287D01*
X105287034Y-81424561D01*
X105277077Y-81457383D01*
X105260908Y-81487632D01*
X105239148Y-81514148D01*
X105212632Y-81535908D01*
X105182383Y-81552077D01*
X105149561Y-81562034D01*
X105109287Y-81566000D01*
X103170713Y-81566000D01*
X103130439Y-81562034D01*
X103097617Y-81552077D01*
X103067368Y-81535908D01*
X103040852Y-81514148D01*
X103019092Y-81487632D01*
X103002923Y-81457383D01*
X102992966Y-81424561D01*
X102989000Y-81384287D01*
X102989000Y-79905713D01*
X102992966Y-79865439D01*
X103002923Y-79832617D01*
X103019092Y-79802368D01*
X103040852Y-79775852D01*
X103067368Y-79754092D01*
X103097617Y-79737923D01*
X103130439Y-79727966D01*
X103170713Y-79724000D01*
X105109287Y-79724000D01*
X105149561Y-79727966D01*
G37*
G36*
X168004499Y-80313445D02*
G01*
X168041995Y-80324820D01*
X168076554Y-80343292D01*
X168106847Y-80368153D01*
X168131708Y-80398446D01*
X168150180Y-80433005D01*
X168161555Y-80470501D01*
X168166000Y-80515638D01*
X168166000Y-81254362D01*
X168161555Y-81299499D01*
X168150180Y-81336995D01*
X168131708Y-81371554D01*
X168106847Y-81401847D01*
X168076554Y-81426708D01*
X168041995Y-81445180D01*
X168004499Y-81456555D01*
X167959362Y-81461000D01*
X167320638Y-81461000D01*
X167275501Y-81456555D01*
X167238005Y-81445180D01*
X167203446Y-81426708D01*
X167173153Y-81401847D01*
X167148292Y-81371554D01*
X167129820Y-81336995D01*
X167118445Y-81299499D01*
X167114000Y-81254362D01*
X167114000Y-80515638D01*
X167118445Y-80470501D01*
X167129820Y-80433005D01*
X167148292Y-80398446D01*
X167173153Y-80368153D01*
X167203446Y-80343292D01*
X167238005Y-80324820D01*
X167275501Y-80313445D01*
X167320638Y-80309000D01*
X167959362Y-80309000D01*
X168004499Y-80313445D01*
G37*
G36*
X157699280Y-78880068D02*
G01*
X157815734Y-78903232D01*
X157951854Y-78959615D01*
X158010728Y-78984001D01*
X158025203Y-78989997D01*
X158213720Y-79115960D01*
X158374040Y-79276280D01*
X158500003Y-79464797D01*
X158586768Y-79674266D01*
X158631000Y-79896636D01*
X158631000Y-80123364D01*
X158586768Y-80345734D01*
X158500003Y-80555203D01*
X158374040Y-80743720D01*
X158213720Y-80904040D01*
X158025203Y-81030003D01*
X157815734Y-81116768D01*
X157704549Y-81138884D01*
X157593365Y-81161000D01*
X157366635Y-81161000D01*
X157255451Y-81138884D01*
X157144266Y-81116768D01*
X156934797Y-81030003D01*
X156746280Y-80904040D01*
X156585960Y-80743720D01*
X156459997Y-80555203D01*
X156373232Y-80345734D01*
X156329000Y-80123364D01*
X156329000Y-79896636D01*
X156373232Y-79674266D01*
X156459997Y-79464797D01*
X156585960Y-79276280D01*
X156746280Y-79115960D01*
X156934797Y-78989997D01*
X156949273Y-78984001D01*
X157008146Y-78959615D01*
X157144266Y-78903232D01*
X157260720Y-78880068D01*
X157366635Y-78859000D01*
X157593365Y-78859000D01*
X157699280Y-78880068D01*
G37*
G36*
X170293512Y-79113927D02*
G01*
X170442812Y-79143624D01*
X170606784Y-79211544D01*
X170754354Y-79310147D01*
X170879853Y-79435646D01*
X170978456Y-79583216D01*
X171046376Y-79747188D01*
X171081000Y-79921259D01*
X171081000Y-80098741D01*
X171046376Y-80272812D01*
X170978456Y-80436784D01*
X170879853Y-80584354D01*
X170754354Y-80709853D01*
X170606784Y-80808456D01*
X170442812Y-80876376D01*
X170303732Y-80904040D01*
X170268742Y-80911000D01*
X170091258Y-80911000D01*
X170056268Y-80904040D01*
X169917188Y-80876376D01*
X169753216Y-80808456D01*
X169605646Y-80709853D01*
X169480147Y-80584354D01*
X169381544Y-80436784D01*
X169313624Y-80272812D01*
X169279000Y-80098741D01*
X169279000Y-79921259D01*
X169313624Y-79747188D01*
X169381544Y-79583216D01*
X169480147Y-79435646D01*
X169605646Y-79310147D01*
X169753216Y-79211544D01*
X169917188Y-79143624D01*
X170066488Y-79113927D01*
X170091258Y-79109000D01*
X170268742Y-79109000D01*
X170293512Y-79113927D01*
G37*
G36*
X128383512Y-77113927D02*
G01*
X128532812Y-77143624D01*
X128696784Y-77211544D01*
X128844354Y-77310147D01*
X128969853Y-77435646D01*
X129068456Y-77583216D01*
X129136376Y-77747188D01*
X129171000Y-77921259D01*
X129171000Y-78098741D01*
X129136376Y-78272812D01*
X129068456Y-78436784D01*
X128969853Y-78584354D01*
X128844354Y-78709853D01*
X128696784Y-78808456D01*
X128551771Y-78868523D01*
X128530171Y-78880068D01*
X128511229Y-78895613D01*
X128495684Y-78914555D01*
X128484133Y-78936166D01*
X128477020Y-78959615D01*
X128474618Y-78984001D01*
X128477020Y-79008387D01*
X128484133Y-79031836D01*
X128495684Y-79053447D01*
X128511229Y-79072389D01*
X128530171Y-79087934D01*
X128551782Y-79099485D01*
X128575231Y-79106598D01*
X128599617Y-79109000D01*
X129171000Y-79109000D01*
X129171000Y-80911000D01*
X127369000Y-80911000D01*
X127369000Y-79109000D01*
X127940383Y-79109000D01*
X127964769Y-79106598D01*
X127988218Y-79099485D01*
X128009829Y-79087934D01*
X128028771Y-79072389D01*
X128044316Y-79053447D01*
X128055867Y-79031836D01*
X128062980Y-79008387D01*
X128065382Y-78984001D01*
X128062980Y-78959615D01*
X128055867Y-78936166D01*
X128044316Y-78914555D01*
X128028771Y-78895613D01*
X128009829Y-78880068D01*
X127988229Y-78868523D01*
X127843216Y-78808456D01*
X127695646Y-78709853D01*
X127570147Y-78584354D01*
X127471544Y-78436784D01*
X127403624Y-78272812D01*
X127369000Y-78098741D01*
X127369000Y-77921259D01*
X127403624Y-77747188D01*
X127471544Y-77583216D01*
X127570147Y-77435646D01*
X127695646Y-77310147D01*
X127843216Y-77211544D01*
X128007188Y-77143624D01*
X128156488Y-77113927D01*
X128181258Y-77109000D01*
X128358742Y-77109000D01*
X128383512Y-77113927D01*
G37*
G36*
X130883512Y-77113927D02*
G01*
X131032812Y-77143624D01*
X131196784Y-77211544D01*
X131344354Y-77310147D01*
X131469853Y-77435646D01*
X131568456Y-77583216D01*
X131636376Y-77747188D01*
X131671000Y-77921259D01*
X131671000Y-78098741D01*
X131636376Y-78272812D01*
X131568456Y-78436784D01*
X131469853Y-78584354D01*
X131344354Y-78709853D01*
X131196784Y-78808456D01*
X131032812Y-78876376D01*
X130977362Y-78887405D01*
X130953922Y-78894516D01*
X130932311Y-78906067D01*
X130913369Y-78921613D01*
X130897824Y-78940555D01*
X130886273Y-78962165D01*
X130879160Y-78985614D01*
X130876758Y-79010000D01*
X130879160Y-79034387D01*
X130886273Y-79057835D01*
X130897824Y-79079446D01*
X130913370Y-79098388D01*
X130932312Y-79113933D01*
X130953922Y-79125484D01*
X130977362Y-79132595D01*
X131032812Y-79143624D01*
X131196784Y-79211544D01*
X131344354Y-79310147D01*
X131469853Y-79435646D01*
X131568456Y-79583216D01*
X131636376Y-79747188D01*
X131671000Y-79921259D01*
X131671000Y-80098741D01*
X131636376Y-80272812D01*
X131568456Y-80436784D01*
X131469853Y-80584354D01*
X131344354Y-80709853D01*
X131196784Y-80808456D01*
X131032812Y-80876376D01*
X130893732Y-80904040D01*
X130858742Y-80911000D01*
X130681258Y-80911000D01*
X130646268Y-80904040D01*
X130507188Y-80876376D01*
X130343216Y-80808456D01*
X130195646Y-80709853D01*
X130070147Y-80584354D01*
X129971544Y-80436784D01*
X129903624Y-80272812D01*
X129869000Y-80098741D01*
X129869000Y-79921259D01*
X129903624Y-79747188D01*
X129971544Y-79583216D01*
X130070147Y-79435646D01*
X130195646Y-79310147D01*
X130343216Y-79211544D01*
X130507188Y-79143624D01*
X130562638Y-79132595D01*
X130586078Y-79125484D01*
X130607689Y-79113933D01*
X130626631Y-79098387D01*
X130642176Y-79079445D01*
X130653727Y-79057835D01*
X130660840Y-79034386D01*
X130663242Y-79010000D01*
X130660840Y-78985613D01*
X130653727Y-78962165D01*
X130642176Y-78940554D01*
X130626630Y-78921612D01*
X130607688Y-78906067D01*
X130586078Y-78894516D01*
X130562638Y-78887405D01*
X130507188Y-78876376D01*
X130343216Y-78808456D01*
X130195646Y-78709853D01*
X130070147Y-78584354D01*
X129971544Y-78436784D01*
X129903624Y-78272812D01*
X129869000Y-78098741D01*
X129869000Y-77921259D01*
X129903624Y-77747188D01*
X129971544Y-77583216D01*
X130070147Y-77435646D01*
X130195646Y-77310147D01*
X130343216Y-77211544D01*
X130507188Y-77143624D01*
X130656488Y-77113927D01*
X130681258Y-77109000D01*
X130858742Y-77109000D01*
X130883512Y-77113927D01*
G37*
G36*
X161019499Y-79198445D02*
G01*
X161056995Y-79209820D01*
X161091554Y-79228292D01*
X161121847Y-79253153D01*
X161146708Y-79283446D01*
X161165180Y-79318005D01*
X161176555Y-79355501D01*
X161181000Y-79400638D01*
X161181000Y-80139362D01*
X161176555Y-80184499D01*
X161165180Y-80221995D01*
X161146708Y-80256554D01*
X161121847Y-80286847D01*
X161091554Y-80311708D01*
X161056995Y-80330180D01*
X161019499Y-80341555D01*
X160974362Y-80346000D01*
X160335638Y-80346000D01*
X160290501Y-80341555D01*
X160253005Y-80330180D01*
X160218446Y-80311708D01*
X160188153Y-80286847D01*
X160163292Y-80256554D01*
X160144820Y-80221995D01*
X160133445Y-80184499D01*
X160129000Y-80139362D01*
X160129000Y-79400638D01*
X160133445Y-79355501D01*
X160144820Y-79318005D01*
X160163292Y-79283446D01*
X160188153Y-79253153D01*
X160218446Y-79228292D01*
X160253005Y-79209820D01*
X160290501Y-79198445D01*
X160335638Y-79194000D01*
X160974362Y-79194000D01*
X161019499Y-79198445D01*
G37*
G36*
X168004499Y-78563445D02*
G01*
X168041995Y-78574820D01*
X168076554Y-78593292D01*
X168106847Y-78618153D01*
X168131708Y-78648446D01*
X168150180Y-78683005D01*
X168161555Y-78720501D01*
X168166000Y-78765638D01*
X168166000Y-79504362D01*
X168161555Y-79549499D01*
X168150180Y-79586995D01*
X168131708Y-79621554D01*
X168106847Y-79651847D01*
X168076554Y-79676708D01*
X168041995Y-79695180D01*
X168004499Y-79706555D01*
X167959362Y-79711000D01*
X167320638Y-79711000D01*
X167275501Y-79706555D01*
X167238005Y-79695180D01*
X167203446Y-79676708D01*
X167173153Y-79651847D01*
X167148292Y-79621554D01*
X167129820Y-79586995D01*
X167118445Y-79549499D01*
X167114000Y-79504362D01*
X167114000Y-78765638D01*
X167118445Y-78720501D01*
X167129820Y-78683005D01*
X167148292Y-78648446D01*
X167173153Y-78618153D01*
X167203446Y-78593292D01*
X167238005Y-78574820D01*
X167275501Y-78563445D01*
X167320638Y-78559000D01*
X167959362Y-78559000D01*
X168004499Y-78563445D01*
G37*
G36*
X116551000Y-79691000D02*
G01*
X112049000Y-79691000D01*
X112049000Y-77789000D01*
X116551000Y-77789000D01*
X116551000Y-79691000D01*
G37*
G36*
X188334561Y-77822966D02*
G01*
X188367383Y-77832923D01*
X188397632Y-77849092D01*
X188424148Y-77870852D01*
X188445908Y-77897368D01*
X188462077Y-77927617D01*
X188472034Y-77960439D01*
X188476000Y-78000713D01*
X188476000Y-79479287D01*
X188472034Y-79519561D01*
X188462077Y-79552383D01*
X188445908Y-79582632D01*
X188424148Y-79609148D01*
X188397632Y-79630908D01*
X188367383Y-79647077D01*
X188334561Y-79657034D01*
X188294287Y-79661000D01*
X186355713Y-79661000D01*
X186315439Y-79657034D01*
X186282617Y-79647077D01*
X186252368Y-79630908D01*
X186225852Y-79609148D01*
X186204092Y-79582632D01*
X186187923Y-79552383D01*
X186177966Y-79519561D01*
X186174000Y-79479287D01*
X186174000Y-78000713D01*
X186177966Y-77960439D01*
X186187923Y-77927617D01*
X186204092Y-77897368D01*
X186225852Y-77870852D01*
X186252368Y-77849092D01*
X186282617Y-77832923D01*
X186315439Y-77822966D01*
X186355713Y-77819000D01*
X188294287Y-77819000D01*
X188334561Y-77822966D01*
G37*
G36*
X197224561Y-77822966D02*
G01*
X197257383Y-77832923D01*
X197287632Y-77849092D01*
X197314148Y-77870852D01*
X197335908Y-77897368D01*
X197352077Y-77927617D01*
X197362034Y-77960439D01*
X197366000Y-78000713D01*
X197366000Y-79479287D01*
X197362034Y-79519561D01*
X197352077Y-79552383D01*
X197335908Y-79582632D01*
X197314148Y-79609148D01*
X197287632Y-79630908D01*
X197257383Y-79647077D01*
X197224561Y-79657034D01*
X197184287Y-79661000D01*
X195245713Y-79661000D01*
X195205439Y-79657034D01*
X195172617Y-79647077D01*
X195142368Y-79630908D01*
X195115852Y-79609148D01*
X195094092Y-79582632D01*
X195077923Y-79552383D01*
X195067966Y-79519561D01*
X195064000Y-79479287D01*
X195064000Y-78000713D01*
X195067966Y-77960439D01*
X195077923Y-77927617D01*
X195094092Y-77897368D01*
X195115852Y-77870852D01*
X195142368Y-77849092D01*
X195172617Y-77832923D01*
X195205439Y-77822966D01*
X195245713Y-77819000D01*
X197184287Y-77819000D01*
X197224561Y-77822966D01*
G37*
G36*
X104460345Y-77188442D02*
G01*
X104550548Y-77197326D01*
X104724157Y-77249990D01*
X104884156Y-77335511D01*
X104927281Y-77370903D01*
X105024397Y-77450603D01*
X105103729Y-77547271D01*
X105139489Y-77590844D01*
X105225010Y-77750843D01*
X105277674Y-77924452D01*
X105295456Y-78105000D01*
X105277674Y-78285548D01*
X105225010Y-78459157D01*
X105139489Y-78619156D01*
X105115451Y-78648446D01*
X105024397Y-78759397D01*
X104927729Y-78838729D01*
X104884156Y-78874489D01*
X104724157Y-78960010D01*
X104550548Y-79012674D01*
X104460345Y-79021558D01*
X104415245Y-79026000D01*
X103864755Y-79026000D01*
X103819655Y-79021558D01*
X103729452Y-79012674D01*
X103555843Y-78960010D01*
X103395844Y-78874489D01*
X103352271Y-78838729D01*
X103255603Y-78759397D01*
X103164549Y-78648446D01*
X103140511Y-78619156D01*
X103054990Y-78459157D01*
X103002326Y-78285548D01*
X102984544Y-78105000D01*
X103002326Y-77924452D01*
X103054990Y-77750843D01*
X103140511Y-77590844D01*
X103176271Y-77547271D01*
X103255603Y-77450603D01*
X103352719Y-77370903D01*
X103395844Y-77335511D01*
X103555843Y-77249990D01*
X103729452Y-77197326D01*
X103819655Y-77188442D01*
X103864755Y-77184000D01*
X104415245Y-77184000D01*
X104460345Y-77188442D01*
G37*
G36*
X170293512Y-76573927D02*
G01*
X170442812Y-76603624D01*
X170606784Y-76671544D01*
X170754354Y-76770147D01*
X170879853Y-76895646D01*
X170978456Y-77043216D01*
X171046376Y-77207188D01*
X171081000Y-77381259D01*
X171081000Y-77558741D01*
X171046376Y-77732812D01*
X170978456Y-77896784D01*
X170879853Y-78044354D01*
X170754354Y-78169853D01*
X170606784Y-78268456D01*
X170442812Y-78336376D01*
X170293512Y-78366073D01*
X170268742Y-78371000D01*
X170091258Y-78371000D01*
X170066488Y-78366073D01*
X169917188Y-78336376D01*
X169753216Y-78268456D01*
X169605646Y-78169853D01*
X169480147Y-78044354D01*
X169381544Y-77896784D01*
X169313624Y-77732812D01*
X169279000Y-77558741D01*
X169279000Y-77381259D01*
X169313624Y-77207188D01*
X169381544Y-77043216D01*
X169480147Y-76895646D01*
X169605646Y-76770147D01*
X169753216Y-76671544D01*
X169917188Y-76603624D01*
X170066488Y-76573927D01*
X170091258Y-76569000D01*
X170268742Y-76569000D01*
X170293512Y-76573927D01*
G37*
G36*
X109686425Y-73702760D02*
G01*
X109686428Y-73702761D01*
X109686429Y-73702761D01*
X109865693Y-73757140D01*
X109865696Y-73757142D01*
X109865697Y-73757142D01*
X110030903Y-73845446D01*
X110175712Y-73964288D01*
X110294554Y-74109097D01*
X110382858Y-74274303D01*
X110382860Y-74274307D01*
X110435218Y-74446908D01*
X110437240Y-74453575D01*
X110451000Y-74593282D01*
X110451000Y-76886718D01*
X110437240Y-77026425D01*
X110437239Y-77026428D01*
X110437239Y-77026429D01*
X110382860Y-77205693D01*
X110382858Y-77205696D01*
X110382858Y-77205697D01*
X110294554Y-77370903D01*
X110175712Y-77515712D01*
X110030903Y-77634554D01*
X109865696Y-77722858D01*
X109865692Y-77722860D01*
X109686428Y-77777239D01*
X109686427Y-77777239D01*
X109686424Y-77777240D01*
X109500000Y-77795601D01*
X109313575Y-77777240D01*
X109313572Y-77777239D01*
X109313571Y-77777239D01*
X109134307Y-77722860D01*
X109134303Y-77722858D01*
X108969097Y-77634554D01*
X108824288Y-77515712D01*
X108705446Y-77370903D01*
X108617142Y-77205696D01*
X108617141Y-77205693D01*
X108617140Y-77205692D01*
X108562761Y-77026428D01*
X108562761Y-77026427D01*
X108562760Y-77026424D01*
X108549000Y-76886717D01*
X108549001Y-74593282D01*
X108562761Y-74453575D01*
X108564783Y-74446908D01*
X108617141Y-74274307D01*
X108617143Y-74274303D01*
X108705447Y-74109097D01*
X108824289Y-73964288D01*
X108969098Y-73845446D01*
X109134304Y-73757142D01*
X109134305Y-73757142D01*
X109134308Y-73757140D01*
X109313572Y-73702761D01*
X109313573Y-73702761D01*
X109313576Y-73702760D01*
X109500000Y-73684399D01*
X109686425Y-73702760D01*
G37*
G36*
X136065331Y-73568211D02*
G01*
X136393092Y-73703974D01*
X136688070Y-73901072D01*
X136938928Y-74151930D01*
X137136026Y-74446908D01*
X137271789Y-74774669D01*
X137341000Y-75122616D01*
X137341000Y-75477384D01*
X137271789Y-75825331D01*
X137136026Y-76153092D01*
X136938928Y-76448070D01*
X136688070Y-76698928D01*
X136393092Y-76896026D01*
X136065331Y-77031789D01*
X135717384Y-77101000D01*
X135362616Y-77101000D01*
X135014669Y-77031789D01*
X134686908Y-76896026D01*
X134391930Y-76698928D01*
X134141072Y-76448070D01*
X133943974Y-76153092D01*
X133808211Y-75825331D01*
X133739000Y-75477384D01*
X133739000Y-75122616D01*
X133808211Y-74774669D01*
X133943974Y-74446908D01*
X134141072Y-74151930D01*
X134391930Y-73901072D01*
X134686908Y-73703974D01*
X135014669Y-73568211D01*
X135362616Y-73499000D01*
X135717384Y-73499000D01*
X136065331Y-73568211D01*
G37*
G36*
X124025331Y-73568211D02*
G01*
X124353092Y-73703974D01*
X124648070Y-73901072D01*
X124898928Y-74151930D01*
X125096026Y-74446908D01*
X125231789Y-74774669D01*
X125301000Y-75122616D01*
X125301000Y-75477384D01*
X125231789Y-75825331D01*
X125096026Y-76153092D01*
X124898928Y-76448070D01*
X124648070Y-76698928D01*
X124353092Y-76896026D01*
X124025331Y-77031789D01*
X123677384Y-77101000D01*
X123322616Y-77101000D01*
X122974669Y-77031789D01*
X122646908Y-76896026D01*
X122351930Y-76698928D01*
X122101072Y-76448070D01*
X121903974Y-76153092D01*
X121768211Y-75825331D01*
X121699000Y-75477384D01*
X121699000Y-75122616D01*
X121768211Y-74774669D01*
X121903974Y-74446908D01*
X122101072Y-74151930D01*
X122351930Y-73901072D01*
X122646908Y-73703974D01*
X122974669Y-73568211D01*
X123322616Y-73499000D01*
X123677384Y-73499000D01*
X124025331Y-73568211D01*
G37*
G36*
X170293512Y-74033927D02*
G01*
X170442812Y-74063624D01*
X170606784Y-74131544D01*
X170754354Y-74230147D01*
X170879853Y-74355646D01*
X170978456Y-74503216D01*
X171046376Y-74667188D01*
X171081000Y-74841259D01*
X171081000Y-75018741D01*
X171046376Y-75192812D01*
X170978456Y-75356784D01*
X170879853Y-75504354D01*
X170754354Y-75629853D01*
X170606784Y-75728456D01*
X170442812Y-75796376D01*
X170297242Y-75825331D01*
X170268742Y-75831000D01*
X170091258Y-75831000D01*
X170062758Y-75825331D01*
X169917188Y-75796376D01*
X169753216Y-75728456D01*
X169605646Y-75629853D01*
X169480147Y-75504354D01*
X169381544Y-75356784D01*
X169313624Y-75192812D01*
X169279000Y-75018741D01*
X169279000Y-74841259D01*
X169313624Y-74667188D01*
X169381544Y-74503216D01*
X169480147Y-74355646D01*
X169605646Y-74230147D01*
X169753216Y-74131544D01*
X169917188Y-74063624D01*
X170066488Y-74033927D01*
X170091258Y-74029000D01*
X170268742Y-74029000D01*
X170293512Y-74033927D01*
G37*
G36*
X115586425Y-72002760D02*
G01*
X115586428Y-72002761D01*
X115586429Y-72002761D01*
X115765693Y-72057140D01*
X115765696Y-72057142D01*
X115765697Y-72057142D01*
X115930903Y-72145446D01*
X116075712Y-72264288D01*
X116194554Y-72409097D01*
X116282858Y-72574303D01*
X116282860Y-72574307D01*
X116306674Y-72652812D01*
X116337240Y-72753575D01*
X116355601Y-72940000D01*
X116337240Y-73126425D01*
X116337239Y-73126428D01*
X116337239Y-73126429D01*
X116282860Y-73305693D01*
X116282858Y-73305696D01*
X116282858Y-73305697D01*
X116194554Y-73470903D01*
X116075712Y-73615712D01*
X115930903Y-73734554D01*
X115765697Y-73822858D01*
X115765693Y-73822860D01*
X115586429Y-73877239D01*
X115586428Y-73877239D01*
X115586425Y-73877240D01*
X115446718Y-73891000D01*
X113153282Y-73891000D01*
X113013575Y-73877240D01*
X113013572Y-73877239D01*
X113013571Y-73877239D01*
X112834307Y-73822860D01*
X112834303Y-73822858D01*
X112669097Y-73734554D01*
X112524288Y-73615712D01*
X112405446Y-73470903D01*
X112317142Y-73305697D01*
X112317142Y-73305696D01*
X112317140Y-73305693D01*
X112262761Y-73126429D01*
X112262761Y-73126428D01*
X112262760Y-73126425D01*
X112244399Y-72940000D01*
X112262760Y-72753575D01*
X112293326Y-72652812D01*
X112317140Y-72574307D01*
X112317142Y-72574303D01*
X112405446Y-72409097D01*
X112524288Y-72264288D01*
X112669097Y-72145446D01*
X112834303Y-72057142D01*
X112834304Y-72057142D01*
X112834307Y-72057140D01*
X113013571Y-72002761D01*
X113013572Y-72002761D01*
X113013575Y-72002760D01*
X113153282Y-71989000D01*
X115446718Y-71989000D01*
X115586425Y-72002760D01*
G37*
G36*
X102724549Y-71371116D02*
G01*
X102835734Y-71393232D01*
X103045203Y-71479997D01*
X103233720Y-71605960D01*
X103394040Y-71766280D01*
X103520003Y-71954797D01*
X103606768Y-72164266D01*
X103651000Y-72386636D01*
X103651000Y-72613364D01*
X103606768Y-72835734D01*
X103520003Y-73045203D01*
X103394040Y-73233720D01*
X103233720Y-73394040D01*
X103045203Y-73520003D01*
X102835734Y-73606768D01*
X102790769Y-73615712D01*
X102613365Y-73651000D01*
X102386635Y-73651000D01*
X102209231Y-73615712D01*
X102164266Y-73606768D01*
X101954797Y-73520003D01*
X101766280Y-73394040D01*
X101605960Y-73233720D01*
X101479997Y-73045203D01*
X101393232Y-72835734D01*
X101349000Y-72613364D01*
X101349000Y-72386636D01*
X101393232Y-72164266D01*
X101479997Y-71954797D01*
X101605960Y-71766280D01*
X101766280Y-71605960D01*
X101954797Y-71479997D01*
X102164266Y-71393232D01*
X102275451Y-71371116D01*
X102386635Y-71349000D01*
X102613365Y-71349000D01*
X102724549Y-71371116D01*
G37*
G36*
X197724549Y-71371116D02*
G01*
X197835734Y-71393232D01*
X198045203Y-71479997D01*
X198233720Y-71605960D01*
X198394040Y-71766280D01*
X198520003Y-71954797D01*
X198606768Y-72164266D01*
X198651000Y-72386636D01*
X198651000Y-72613364D01*
X198606768Y-72835734D01*
X198520003Y-73045203D01*
X198394040Y-73233720D01*
X198233720Y-73394040D01*
X198045203Y-73520003D01*
X197835734Y-73606768D01*
X197790769Y-73615712D01*
X197613365Y-73651000D01*
X197386635Y-73651000D01*
X197209231Y-73615712D01*
X197164266Y-73606768D01*
X196954797Y-73520003D01*
X196766280Y-73394040D01*
X196605960Y-73233720D01*
X196479997Y-73045203D01*
X196393232Y-72835734D01*
X196349000Y-72613364D01*
X196349000Y-72386636D01*
X196393232Y-72164266D01*
X196479997Y-71954797D01*
X196605960Y-71766280D01*
X196766280Y-71605960D01*
X196954797Y-71479997D01*
X197164266Y-71393232D01*
X197275451Y-71371116D01*
X197386635Y-71349000D01*
X197613365Y-71349000D01*
X197724549Y-71371116D01*
G37*
G36*
X170293512Y-71493927D02*
G01*
X170442812Y-71523624D01*
X170606784Y-71591544D01*
X170754354Y-71690147D01*
X170879853Y-71815646D01*
X170978456Y-71963216D01*
X171046376Y-72127188D01*
X171081000Y-72301259D01*
X171081000Y-72478741D01*
X171046376Y-72652812D01*
X170978456Y-72816784D01*
X170879853Y-72964354D01*
X170754354Y-73089853D01*
X170606784Y-73188456D01*
X170442812Y-73256376D01*
X170293512Y-73286073D01*
X170268742Y-73291000D01*
X170091258Y-73291000D01*
X170066488Y-73286073D01*
X169917188Y-73256376D01*
X169753216Y-73188456D01*
X169605646Y-73089853D01*
X169480147Y-72964354D01*
X169381544Y-72816784D01*
X169313624Y-72652812D01*
X169279000Y-72478741D01*
X169279000Y-72301259D01*
X169313624Y-72127188D01*
X169381544Y-71963216D01*
X169480147Y-71815646D01*
X169605646Y-71690147D01*
X169753216Y-71591544D01*
X169917188Y-71523624D01*
X170066488Y-71493927D01*
X170091258Y-71489000D01*
X170268742Y-71489000D01*
X170293512Y-71493927D01*
G37*
M02*
