%TF.GenerationSoftware,KiCad,Pcbnew,(5.1.5)-3*%
%TF.CreationDate,2020-02-15T17:24:23+00:00*%
%TF.ProjectId,Feedback-Box,46656564-6261-4636-9b2d-426f782e6b69,8A*%
%TF.SameCoordinates,Original*%
%TF.FileFunction,Soldermask,Top*%
%TF.FilePolarity,Negative*%
%FSLAX46Y46*%
G04 Gerber Fmt 4.6, Leading zero omitted, Abs format (unit mm)*
G04 Created by KiCad (PCBNEW (5.1.5)-3) date 2020-02-15 17:24:23*
%MOMM*%
%LPD*%
G04 APERTURE LIST*
%ADD10C,0.160000*%
%ADD11C,0.100000*%
G04 APERTURE END LIST*
D10*
X135612142Y-86050476D02*
X135659761Y-86098095D01*
X135707380Y-86240952D01*
X135707380Y-86336190D01*
X135659761Y-86479047D01*
X135564523Y-86574285D01*
X135469285Y-86621904D01*
X135278809Y-86669523D01*
X135135952Y-86669523D01*
X134945476Y-86621904D01*
X134850238Y-86574285D01*
X134755000Y-86479047D01*
X134707380Y-86336190D01*
X134707380Y-86240952D01*
X134755000Y-86098095D01*
X134802619Y-86050476D01*
X134802619Y-92995714D02*
X134755000Y-92948095D01*
X134707380Y-92852857D01*
X134707380Y-92614761D01*
X134755000Y-92519523D01*
X134802619Y-92471904D01*
X134897857Y-92424285D01*
X134993095Y-92424285D01*
X135135952Y-92471904D01*
X135707380Y-93043333D01*
X135707380Y-92424285D01*
D11*
G36*
X197700664Y-116366365D02*
G01*
X197835734Y-116393232D01*
X198045203Y-116479997D01*
X198233720Y-116605960D01*
X198394040Y-116766280D01*
X198494038Y-116915938D01*
X198520004Y-116954799D01*
X198606768Y-117164267D01*
X198640030Y-117331483D01*
X198651000Y-117386636D01*
X198651000Y-117613364D01*
X198606768Y-117835734D01*
X198520003Y-118045203D01*
X198394040Y-118233720D01*
X198233720Y-118394040D01*
X198045203Y-118520003D01*
X197835734Y-118606768D01*
X197724549Y-118628884D01*
X197613365Y-118651000D01*
X197386635Y-118651000D01*
X197275451Y-118628884D01*
X197164266Y-118606768D01*
X196954797Y-118520003D01*
X196766280Y-118394040D01*
X196605960Y-118233720D01*
X196479997Y-118045203D01*
X196393232Y-117835734D01*
X196349000Y-117613364D01*
X196349000Y-117386636D01*
X196359971Y-117331483D01*
X196393232Y-117164267D01*
X196479996Y-116954799D01*
X196505962Y-116915938D01*
X196605960Y-116766280D01*
X196766280Y-116605960D01*
X196954797Y-116479997D01*
X197164266Y-116393232D01*
X197299336Y-116366365D01*
X197386635Y-116349000D01*
X197613365Y-116349000D01*
X197700664Y-116366365D01*
G37*
G36*
X102700664Y-116366365D02*
G01*
X102835734Y-116393232D01*
X103045203Y-116479997D01*
X103233720Y-116605960D01*
X103394040Y-116766280D01*
X103494038Y-116915938D01*
X103520004Y-116954799D01*
X103606768Y-117164267D01*
X103640030Y-117331483D01*
X103651000Y-117386636D01*
X103651000Y-117613364D01*
X103606768Y-117835734D01*
X103520003Y-118045203D01*
X103394040Y-118233720D01*
X103233720Y-118394040D01*
X103045203Y-118520003D01*
X102835734Y-118606768D01*
X102724549Y-118628884D01*
X102613365Y-118651000D01*
X102386635Y-118651000D01*
X102275451Y-118628884D01*
X102164266Y-118606768D01*
X101954797Y-118520003D01*
X101766280Y-118394040D01*
X101605960Y-118233720D01*
X101479997Y-118045203D01*
X101393232Y-117835734D01*
X101349000Y-117613364D01*
X101349000Y-117386636D01*
X101359971Y-117331483D01*
X101393232Y-117164267D01*
X101479996Y-116954799D01*
X101505962Y-116915938D01*
X101605960Y-116766280D01*
X101766280Y-116605960D01*
X101954797Y-116479997D01*
X102164266Y-116393232D01*
X102299336Y-116366365D01*
X102386635Y-116349000D01*
X102613365Y-116349000D01*
X102700664Y-116366365D01*
G37*
G36*
X115060589Y-116078876D02*
G01*
X115159893Y-116098629D01*
X115300206Y-116156748D01*
X115426484Y-116241125D01*
X115533875Y-116348516D01*
X115618252Y-116474794D01*
X115676371Y-116615107D01*
X115706000Y-116764063D01*
X115706000Y-116915937D01*
X115676371Y-117064893D01*
X115618252Y-117205206D01*
X115533875Y-117331484D01*
X115426484Y-117438875D01*
X115300206Y-117523252D01*
X115159893Y-117581371D01*
X115060589Y-117601124D01*
X115010938Y-117611000D01*
X114859062Y-117611000D01*
X114809411Y-117601124D01*
X114710107Y-117581371D01*
X114569794Y-117523252D01*
X114443516Y-117438875D01*
X114336125Y-117331484D01*
X114251748Y-117205206D01*
X114193629Y-117064893D01*
X114164000Y-116915937D01*
X114164000Y-116764063D01*
X114193629Y-116615107D01*
X114251748Y-116474794D01*
X114336125Y-116348516D01*
X114443516Y-116241125D01*
X114569794Y-116156748D01*
X114710107Y-116098629D01*
X114809411Y-116078876D01*
X114859062Y-116069000D01*
X115010938Y-116069000D01*
X115060589Y-116078876D01*
G37*
G36*
X153160589Y-116078876D02*
G01*
X153259893Y-116098629D01*
X153400206Y-116156748D01*
X153526484Y-116241125D01*
X153633875Y-116348516D01*
X153718252Y-116474794D01*
X153776371Y-116615107D01*
X153806000Y-116764063D01*
X153806000Y-116915937D01*
X153776371Y-117064893D01*
X153718252Y-117205206D01*
X153633875Y-117331484D01*
X153526484Y-117438875D01*
X153400206Y-117523252D01*
X153259893Y-117581371D01*
X153160589Y-117601124D01*
X153110938Y-117611000D01*
X152959062Y-117611000D01*
X152909411Y-117601124D01*
X152810107Y-117581371D01*
X152669794Y-117523252D01*
X152543516Y-117438875D01*
X152436125Y-117331484D01*
X152351748Y-117205206D01*
X152293629Y-117064893D01*
X152264000Y-116915937D01*
X152264000Y-116764063D01*
X152293629Y-116615107D01*
X152351748Y-116474794D01*
X152436125Y-116348516D01*
X152543516Y-116241125D01*
X152669794Y-116156748D01*
X152810107Y-116098629D01*
X152909411Y-116078876D01*
X152959062Y-116069000D01*
X153110938Y-116069000D01*
X153160589Y-116078876D01*
G37*
G36*
X109980589Y-116078876D02*
G01*
X110079893Y-116098629D01*
X110220206Y-116156748D01*
X110346484Y-116241125D01*
X110453875Y-116348516D01*
X110538252Y-116474794D01*
X110596371Y-116615107D01*
X110626000Y-116764063D01*
X110626000Y-116915937D01*
X110596371Y-117064893D01*
X110538252Y-117205206D01*
X110453875Y-117331484D01*
X110346484Y-117438875D01*
X110220206Y-117523252D01*
X110079893Y-117581371D01*
X109980589Y-117601124D01*
X109930938Y-117611000D01*
X109779062Y-117611000D01*
X109729411Y-117601124D01*
X109630107Y-117581371D01*
X109489794Y-117523252D01*
X109363516Y-117438875D01*
X109256125Y-117331484D01*
X109171748Y-117205206D01*
X109113629Y-117064893D01*
X109084000Y-116915937D01*
X109084000Y-116764063D01*
X109113629Y-116615107D01*
X109171748Y-116474794D01*
X109256125Y-116348516D01*
X109363516Y-116241125D01*
X109489794Y-116156748D01*
X109630107Y-116098629D01*
X109729411Y-116078876D01*
X109779062Y-116069000D01*
X109930938Y-116069000D01*
X109980589Y-116078876D01*
G37*
G36*
X128576564Y-114539389D02*
G01*
X128767833Y-114618615D01*
X128767835Y-114618616D01*
X128822886Y-114655400D01*
X128939973Y-114733635D01*
X129086365Y-114880027D01*
X129201385Y-115052167D01*
X129280611Y-115243436D01*
X129321000Y-115446484D01*
X129321000Y-115653516D01*
X129280611Y-115856564D01*
X129219862Y-116003225D01*
X129201384Y-116047835D01*
X129086365Y-116219973D01*
X128939973Y-116366365D01*
X128767835Y-116481384D01*
X128767834Y-116481385D01*
X128767833Y-116481385D01*
X128576564Y-116560611D01*
X128373516Y-116601000D01*
X128166484Y-116601000D01*
X127963436Y-116560611D01*
X127772167Y-116481385D01*
X127772166Y-116481385D01*
X127772165Y-116481384D01*
X127600027Y-116366365D01*
X127453635Y-116219973D01*
X127338616Y-116047835D01*
X127320138Y-116003225D01*
X127259389Y-115856564D01*
X127219000Y-115653516D01*
X127219000Y-115446484D01*
X127259389Y-115243436D01*
X127338615Y-115052167D01*
X127453635Y-114880027D01*
X127600027Y-114733635D01*
X127717114Y-114655400D01*
X127772165Y-114618616D01*
X127772167Y-114618615D01*
X127963436Y-114539389D01*
X128166484Y-114499000D01*
X128373516Y-114499000D01*
X128576564Y-114539389D01*
G37*
G36*
X181876778Y-114690547D02*
G01*
X182043224Y-114759491D01*
X182193022Y-114859583D01*
X182320417Y-114986978D01*
X182420509Y-115136776D01*
X182489453Y-115303222D01*
X182524600Y-115479918D01*
X182524600Y-115660082D01*
X182489453Y-115836778D01*
X182420509Y-116003224D01*
X182320417Y-116153022D01*
X182193022Y-116280417D01*
X182043224Y-116380509D01*
X181876778Y-116449453D01*
X181700082Y-116484600D01*
X181519918Y-116484600D01*
X181343222Y-116449453D01*
X181176776Y-116380509D01*
X181026978Y-116280417D01*
X180899583Y-116153022D01*
X180799491Y-116003224D01*
X180730547Y-115836778D01*
X180695400Y-115660082D01*
X180695400Y-115479918D01*
X180730547Y-115303222D01*
X180799491Y-115136776D01*
X180899583Y-114986978D01*
X181026978Y-114859583D01*
X181176776Y-114759491D01*
X181343222Y-114690547D01*
X181519918Y-114655400D01*
X181700082Y-114655400D01*
X181876778Y-114690547D01*
G37*
G36*
X184416778Y-114690547D02*
G01*
X184583224Y-114759491D01*
X184733022Y-114859583D01*
X184860417Y-114986978D01*
X184960509Y-115136776D01*
X185029453Y-115303222D01*
X185064600Y-115479918D01*
X185064600Y-115660082D01*
X185029453Y-115836778D01*
X184960509Y-116003224D01*
X184860417Y-116153022D01*
X184733022Y-116280417D01*
X184583224Y-116380509D01*
X184416778Y-116449453D01*
X184240082Y-116484600D01*
X184059918Y-116484600D01*
X183883222Y-116449453D01*
X183716776Y-116380509D01*
X183566978Y-116280417D01*
X183439583Y-116153022D01*
X183339491Y-116003224D01*
X183270547Y-115836778D01*
X183235400Y-115660082D01*
X183235400Y-115479918D01*
X183270547Y-115303222D01*
X183339491Y-115136776D01*
X183439583Y-114986978D01*
X183566978Y-114859583D01*
X183716776Y-114759491D01*
X183883222Y-114690547D01*
X184059918Y-114655400D01*
X184240082Y-114655400D01*
X184416778Y-114690547D01*
G37*
G36*
X179336778Y-114690547D02*
G01*
X179503224Y-114759491D01*
X179653022Y-114859583D01*
X179780417Y-114986978D01*
X179880509Y-115136776D01*
X179949453Y-115303222D01*
X179984600Y-115479918D01*
X179984600Y-115660082D01*
X179949453Y-115836778D01*
X179880509Y-116003224D01*
X179780417Y-116153022D01*
X179653022Y-116280417D01*
X179503224Y-116380509D01*
X179336778Y-116449453D01*
X179160082Y-116484600D01*
X178979918Y-116484600D01*
X178803222Y-116449453D01*
X178636776Y-116380509D01*
X178486978Y-116280417D01*
X178359583Y-116153022D01*
X178259491Y-116003224D01*
X178190547Y-115836778D01*
X178155400Y-115660082D01*
X178155400Y-115479918D01*
X178190547Y-115303222D01*
X178259491Y-115136776D01*
X178359583Y-114986978D01*
X178486978Y-114859583D01*
X178636776Y-114759491D01*
X178803222Y-114690547D01*
X178979918Y-114655400D01*
X179160082Y-114655400D01*
X179336778Y-114690547D01*
G37*
G36*
X176796778Y-114690547D02*
G01*
X176963224Y-114759491D01*
X177113022Y-114859583D01*
X177240417Y-114986978D01*
X177340509Y-115136776D01*
X177409453Y-115303222D01*
X177444600Y-115479918D01*
X177444600Y-115660082D01*
X177409453Y-115836778D01*
X177340509Y-116003224D01*
X177240417Y-116153022D01*
X177113022Y-116280417D01*
X176963224Y-116380509D01*
X176796778Y-116449453D01*
X176620082Y-116484600D01*
X176439918Y-116484600D01*
X176263222Y-116449453D01*
X176096776Y-116380509D01*
X175946978Y-116280417D01*
X175819583Y-116153022D01*
X175719491Y-116003224D01*
X175650547Y-115836778D01*
X175615400Y-115660082D01*
X175615400Y-115479918D01*
X175650547Y-115303222D01*
X175719491Y-115136776D01*
X175819583Y-114986978D01*
X175946978Y-114859583D01*
X176096776Y-114759491D01*
X176263222Y-114690547D01*
X176439918Y-114655400D01*
X176620082Y-114655400D01*
X176796778Y-114690547D01*
G37*
G36*
X174256778Y-114690547D02*
G01*
X174423224Y-114759491D01*
X174573022Y-114859583D01*
X174700417Y-114986978D01*
X174800509Y-115136776D01*
X174869453Y-115303222D01*
X174904600Y-115479918D01*
X174904600Y-115660082D01*
X174869453Y-115836778D01*
X174800509Y-116003224D01*
X174700417Y-116153022D01*
X174573022Y-116280417D01*
X174423224Y-116380509D01*
X174256778Y-116449453D01*
X174080082Y-116484600D01*
X173899918Y-116484600D01*
X173723222Y-116449453D01*
X173556776Y-116380509D01*
X173406978Y-116280417D01*
X173279583Y-116153022D01*
X173179491Y-116003224D01*
X173110547Y-115836778D01*
X173075400Y-115660082D01*
X173075400Y-115479918D01*
X173110547Y-115303222D01*
X173179491Y-115136776D01*
X173279583Y-114986978D01*
X173406978Y-114859583D01*
X173556776Y-114759491D01*
X173723222Y-114690547D01*
X173899918Y-114655400D01*
X174080082Y-114655400D01*
X174256778Y-114690547D01*
G37*
G36*
X171716778Y-114690547D02*
G01*
X171883224Y-114759491D01*
X172033022Y-114859583D01*
X172160417Y-114986978D01*
X172260509Y-115136776D01*
X172329453Y-115303222D01*
X172364600Y-115479918D01*
X172364600Y-115660082D01*
X172329453Y-115836778D01*
X172260509Y-116003224D01*
X172160417Y-116153022D01*
X172033022Y-116280417D01*
X171883224Y-116380509D01*
X171716778Y-116449453D01*
X171540082Y-116484600D01*
X171359918Y-116484600D01*
X171183222Y-116449453D01*
X171016776Y-116380509D01*
X170866978Y-116280417D01*
X170739583Y-116153022D01*
X170639491Y-116003224D01*
X170570547Y-115836778D01*
X170535400Y-115660082D01*
X170535400Y-115479918D01*
X170570547Y-115303222D01*
X170639491Y-115136776D01*
X170739583Y-114986978D01*
X170866978Y-114859583D01*
X171016776Y-114759491D01*
X171183222Y-114690547D01*
X171359918Y-114655400D01*
X171540082Y-114655400D01*
X171716778Y-114690547D01*
G37*
G36*
X186956778Y-114690547D02*
G01*
X187123224Y-114759491D01*
X187273022Y-114859583D01*
X187400417Y-114986978D01*
X187500509Y-115136776D01*
X187569453Y-115303222D01*
X187604600Y-115479918D01*
X187604600Y-115660082D01*
X187569453Y-115836778D01*
X187500509Y-116003224D01*
X187400417Y-116153022D01*
X187273022Y-116280417D01*
X187123224Y-116380509D01*
X186956778Y-116449453D01*
X186780082Y-116484600D01*
X186599918Y-116484600D01*
X186423222Y-116449453D01*
X186256776Y-116380509D01*
X186106978Y-116280417D01*
X185979583Y-116153022D01*
X185879491Y-116003224D01*
X185810547Y-115836778D01*
X185775400Y-115660082D01*
X185775400Y-115479918D01*
X185810547Y-115303222D01*
X185879491Y-115136776D01*
X185979583Y-114986978D01*
X186106978Y-114859583D01*
X186256776Y-114759491D01*
X186423222Y-114690547D01*
X186599918Y-114655400D01*
X186780082Y-114655400D01*
X186956778Y-114690547D01*
G37*
G36*
X164744600Y-116484600D02*
G01*
X162915400Y-116484600D01*
X162915400Y-114655400D01*
X164744600Y-114655400D01*
X164744600Y-116484600D01*
G37*
G36*
X169176778Y-114690547D02*
G01*
X169343224Y-114759491D01*
X169493022Y-114859583D01*
X169620417Y-114986978D01*
X169720509Y-115136776D01*
X169789453Y-115303222D01*
X169824600Y-115479918D01*
X169824600Y-115660082D01*
X169789453Y-115836778D01*
X169720509Y-116003224D01*
X169620417Y-116153022D01*
X169493022Y-116280417D01*
X169343224Y-116380509D01*
X169176778Y-116449453D01*
X169000082Y-116484600D01*
X168819918Y-116484600D01*
X168643222Y-116449453D01*
X168476776Y-116380509D01*
X168326978Y-116280417D01*
X168199583Y-116153022D01*
X168099491Y-116003224D01*
X168030547Y-115836778D01*
X167995400Y-115660082D01*
X167995400Y-115479918D01*
X168030547Y-115303222D01*
X168099491Y-115136776D01*
X168199583Y-114986978D01*
X168326978Y-114859583D01*
X168476776Y-114759491D01*
X168643222Y-114690547D01*
X168819918Y-114655400D01*
X169000082Y-114655400D01*
X169176778Y-114690547D01*
G37*
G36*
X166636778Y-114690547D02*
G01*
X166803224Y-114759491D01*
X166953022Y-114859583D01*
X167080417Y-114986978D01*
X167180509Y-115136776D01*
X167249453Y-115303222D01*
X167284600Y-115479918D01*
X167284600Y-115660082D01*
X167249453Y-115836778D01*
X167180509Y-116003224D01*
X167080417Y-116153022D01*
X166953022Y-116280417D01*
X166803224Y-116380509D01*
X166636778Y-116449453D01*
X166460082Y-116484600D01*
X166279918Y-116484600D01*
X166103222Y-116449453D01*
X165936776Y-116380509D01*
X165786978Y-116280417D01*
X165659583Y-116153022D01*
X165559491Y-116003224D01*
X165490547Y-115836778D01*
X165455400Y-115660082D01*
X165455400Y-115479918D01*
X165490547Y-115303222D01*
X165559491Y-115136776D01*
X165659583Y-114986978D01*
X165786978Y-114859583D01*
X165936776Y-114759491D01*
X166103222Y-114690547D01*
X166279918Y-114655400D01*
X166460082Y-114655400D01*
X166636778Y-114690547D01*
G37*
G36*
X143776778Y-112785547D02*
G01*
X143943224Y-112854491D01*
X144093022Y-112954583D01*
X144220417Y-113081978D01*
X144320509Y-113231776D01*
X144389453Y-113398222D01*
X144424600Y-113574918D01*
X144424600Y-113755082D01*
X144389453Y-113931778D01*
X144320509Y-114098224D01*
X144220417Y-114248022D01*
X144093022Y-114375417D01*
X143943224Y-114475509D01*
X143776778Y-114544453D01*
X143600082Y-114579600D01*
X143419918Y-114579600D01*
X143243222Y-114544453D01*
X143076776Y-114475509D01*
X142926978Y-114375417D01*
X142799583Y-114248022D01*
X142699491Y-114098224D01*
X142630547Y-113931778D01*
X142595400Y-113755082D01*
X142595400Y-113574918D01*
X142630547Y-113398222D01*
X142699491Y-113231776D01*
X142799583Y-113081978D01*
X142926978Y-112954583D01*
X143076776Y-112854491D01*
X143243222Y-112785547D01*
X143419918Y-112750400D01*
X143600082Y-112750400D01*
X143776778Y-112785547D01*
G37*
G36*
X141236778Y-112785547D02*
G01*
X141403224Y-112854491D01*
X141553022Y-112954583D01*
X141680417Y-113081978D01*
X141780509Y-113231776D01*
X141849453Y-113398222D01*
X141884600Y-113574918D01*
X141884600Y-113755082D01*
X141849453Y-113931778D01*
X141780509Y-114098224D01*
X141680417Y-114248022D01*
X141553022Y-114375417D01*
X141403224Y-114475509D01*
X141236778Y-114544453D01*
X141060082Y-114579600D01*
X140879918Y-114579600D01*
X140703222Y-114544453D01*
X140536776Y-114475509D01*
X140386978Y-114375417D01*
X140259583Y-114248022D01*
X140159491Y-114098224D01*
X140090547Y-113931778D01*
X140055400Y-113755082D01*
X140055400Y-113574918D01*
X140090547Y-113398222D01*
X140159491Y-113231776D01*
X140259583Y-113081978D01*
X140386978Y-112954583D01*
X140536776Y-112854491D01*
X140703222Y-112785547D01*
X140879918Y-112750400D01*
X141060082Y-112750400D01*
X141236778Y-112785547D01*
G37*
G36*
X179336778Y-112150547D02*
G01*
X179503224Y-112219491D01*
X179653022Y-112319583D01*
X179780417Y-112446978D01*
X179880509Y-112596776D01*
X179949453Y-112763222D01*
X179984600Y-112939918D01*
X179984600Y-113120082D01*
X179949453Y-113296778D01*
X179880509Y-113463224D01*
X179780417Y-113613022D01*
X179653022Y-113740417D01*
X179503224Y-113840509D01*
X179336778Y-113909453D01*
X179160082Y-113944600D01*
X178979918Y-113944600D01*
X178803222Y-113909453D01*
X178636776Y-113840509D01*
X178486978Y-113740417D01*
X178359583Y-113613022D01*
X178259491Y-113463224D01*
X178190547Y-113296778D01*
X178155400Y-113120082D01*
X178155400Y-112939918D01*
X178190547Y-112763222D01*
X178259491Y-112596776D01*
X178359583Y-112446978D01*
X178486978Y-112319583D01*
X178636776Y-112219491D01*
X178803222Y-112150547D01*
X178979918Y-112115400D01*
X179160082Y-112115400D01*
X179336778Y-112150547D01*
G37*
G36*
X164096778Y-112150547D02*
G01*
X164263224Y-112219491D01*
X164413022Y-112319583D01*
X164540417Y-112446978D01*
X164640509Y-112596776D01*
X164709453Y-112763222D01*
X164744600Y-112939918D01*
X164744600Y-113120082D01*
X164709453Y-113296778D01*
X164640509Y-113463224D01*
X164540417Y-113613022D01*
X164413022Y-113740417D01*
X164263224Y-113840509D01*
X164096778Y-113909453D01*
X163920082Y-113944600D01*
X163739918Y-113944600D01*
X163563222Y-113909453D01*
X163396776Y-113840509D01*
X163246978Y-113740417D01*
X163119583Y-113613022D01*
X163019491Y-113463224D01*
X162950547Y-113296778D01*
X162915400Y-113120082D01*
X162915400Y-112939918D01*
X162950547Y-112763222D01*
X163019491Y-112596776D01*
X163119583Y-112446978D01*
X163246978Y-112319583D01*
X163396776Y-112219491D01*
X163563222Y-112150547D01*
X163739918Y-112115400D01*
X163920082Y-112115400D01*
X164096778Y-112150547D01*
G37*
G36*
X166636778Y-112150547D02*
G01*
X166803224Y-112219491D01*
X166953022Y-112319583D01*
X167080417Y-112446978D01*
X167180509Y-112596776D01*
X167249453Y-112763222D01*
X167284600Y-112939918D01*
X167284600Y-113120082D01*
X167249453Y-113296778D01*
X167180509Y-113463224D01*
X167080417Y-113613022D01*
X166953022Y-113740417D01*
X166803224Y-113840509D01*
X166636778Y-113909453D01*
X166460082Y-113944600D01*
X166279918Y-113944600D01*
X166103222Y-113909453D01*
X165936776Y-113840509D01*
X165786978Y-113740417D01*
X165659583Y-113613022D01*
X165559491Y-113463224D01*
X165490547Y-113296778D01*
X165455400Y-113120082D01*
X165455400Y-112939918D01*
X165490547Y-112763222D01*
X165559491Y-112596776D01*
X165659583Y-112446978D01*
X165786978Y-112319583D01*
X165936776Y-112219491D01*
X166103222Y-112150547D01*
X166279918Y-112115400D01*
X166460082Y-112115400D01*
X166636778Y-112150547D01*
G37*
G36*
X169176778Y-112150547D02*
G01*
X169343224Y-112219491D01*
X169493022Y-112319583D01*
X169620417Y-112446978D01*
X169720509Y-112596776D01*
X169789453Y-112763222D01*
X169824600Y-112939918D01*
X169824600Y-113120082D01*
X169789453Y-113296778D01*
X169720509Y-113463224D01*
X169620417Y-113613022D01*
X169493022Y-113740417D01*
X169343224Y-113840509D01*
X169176778Y-113909453D01*
X169000082Y-113944600D01*
X168819918Y-113944600D01*
X168643222Y-113909453D01*
X168476776Y-113840509D01*
X168326978Y-113740417D01*
X168199583Y-113613022D01*
X168099491Y-113463224D01*
X168030547Y-113296778D01*
X167995400Y-113120082D01*
X167995400Y-112939918D01*
X168030547Y-112763222D01*
X168099491Y-112596776D01*
X168199583Y-112446978D01*
X168326978Y-112319583D01*
X168476776Y-112219491D01*
X168643222Y-112150547D01*
X168819918Y-112115400D01*
X169000082Y-112115400D01*
X169176778Y-112150547D01*
G37*
G36*
X186956778Y-112150547D02*
G01*
X187123224Y-112219491D01*
X187273022Y-112319583D01*
X187400417Y-112446978D01*
X187500509Y-112596776D01*
X187569453Y-112763222D01*
X187604600Y-112939918D01*
X187604600Y-113120082D01*
X187569453Y-113296778D01*
X187500509Y-113463224D01*
X187400417Y-113613022D01*
X187273022Y-113740417D01*
X187123224Y-113840509D01*
X186956778Y-113909453D01*
X186780082Y-113944600D01*
X186599918Y-113944600D01*
X186423222Y-113909453D01*
X186256776Y-113840509D01*
X186106978Y-113740417D01*
X185979583Y-113613022D01*
X185879491Y-113463224D01*
X185810547Y-113296778D01*
X185775400Y-113120082D01*
X185775400Y-112939918D01*
X185810547Y-112763222D01*
X185879491Y-112596776D01*
X185979583Y-112446978D01*
X186106978Y-112319583D01*
X186256776Y-112219491D01*
X186423222Y-112150547D01*
X186599918Y-112115400D01*
X186780082Y-112115400D01*
X186956778Y-112150547D01*
G37*
G36*
X171716778Y-112150547D02*
G01*
X171883224Y-112219491D01*
X172033022Y-112319583D01*
X172160417Y-112446978D01*
X172260509Y-112596776D01*
X172329453Y-112763222D01*
X172364600Y-112939918D01*
X172364600Y-113120082D01*
X172329453Y-113296778D01*
X172260509Y-113463224D01*
X172160417Y-113613022D01*
X172033022Y-113740417D01*
X171883224Y-113840509D01*
X171716778Y-113909453D01*
X171540082Y-113944600D01*
X171359918Y-113944600D01*
X171183222Y-113909453D01*
X171016776Y-113840509D01*
X170866978Y-113740417D01*
X170739583Y-113613022D01*
X170639491Y-113463224D01*
X170570547Y-113296778D01*
X170535400Y-113120082D01*
X170535400Y-112939918D01*
X170570547Y-112763222D01*
X170639491Y-112596776D01*
X170739583Y-112446978D01*
X170866978Y-112319583D01*
X171016776Y-112219491D01*
X171183222Y-112150547D01*
X171359918Y-112115400D01*
X171540082Y-112115400D01*
X171716778Y-112150547D01*
G37*
G36*
X184416778Y-112150547D02*
G01*
X184583224Y-112219491D01*
X184733022Y-112319583D01*
X184860417Y-112446978D01*
X184960509Y-112596776D01*
X185029453Y-112763222D01*
X185064600Y-112939918D01*
X185064600Y-113120082D01*
X185029453Y-113296778D01*
X184960509Y-113463224D01*
X184860417Y-113613022D01*
X184733022Y-113740417D01*
X184583224Y-113840509D01*
X184416778Y-113909453D01*
X184240082Y-113944600D01*
X184059918Y-113944600D01*
X183883222Y-113909453D01*
X183716776Y-113840509D01*
X183566978Y-113740417D01*
X183439583Y-113613022D01*
X183339491Y-113463224D01*
X183270547Y-113296778D01*
X183235400Y-113120082D01*
X183235400Y-112939918D01*
X183270547Y-112763222D01*
X183339491Y-112596776D01*
X183439583Y-112446978D01*
X183566978Y-112319583D01*
X183716776Y-112219491D01*
X183883222Y-112150547D01*
X184059918Y-112115400D01*
X184240082Y-112115400D01*
X184416778Y-112150547D01*
G37*
G36*
X174256778Y-112150547D02*
G01*
X174423224Y-112219491D01*
X174573022Y-112319583D01*
X174700417Y-112446978D01*
X174800509Y-112596776D01*
X174869453Y-112763222D01*
X174904600Y-112939918D01*
X174904600Y-113120082D01*
X174869453Y-113296778D01*
X174800509Y-113463224D01*
X174700417Y-113613022D01*
X174573022Y-113740417D01*
X174423224Y-113840509D01*
X174256778Y-113909453D01*
X174080082Y-113944600D01*
X173899918Y-113944600D01*
X173723222Y-113909453D01*
X173556776Y-113840509D01*
X173406978Y-113740417D01*
X173279583Y-113613022D01*
X173179491Y-113463224D01*
X173110547Y-113296778D01*
X173075400Y-113120082D01*
X173075400Y-112939918D01*
X173110547Y-112763222D01*
X173179491Y-112596776D01*
X173279583Y-112446978D01*
X173406978Y-112319583D01*
X173556776Y-112219491D01*
X173723222Y-112150547D01*
X173899918Y-112115400D01*
X174080082Y-112115400D01*
X174256778Y-112150547D01*
G37*
G36*
X181876778Y-112150547D02*
G01*
X182043224Y-112219491D01*
X182193022Y-112319583D01*
X182320417Y-112446978D01*
X182420509Y-112596776D01*
X182489453Y-112763222D01*
X182524600Y-112939918D01*
X182524600Y-113120082D01*
X182489453Y-113296778D01*
X182420509Y-113463224D01*
X182320417Y-113613022D01*
X182193022Y-113740417D01*
X182043224Y-113840509D01*
X181876778Y-113909453D01*
X181700082Y-113944600D01*
X181519918Y-113944600D01*
X181343222Y-113909453D01*
X181176776Y-113840509D01*
X181026978Y-113740417D01*
X180899583Y-113613022D01*
X180799491Y-113463224D01*
X180730547Y-113296778D01*
X180695400Y-113120082D01*
X180695400Y-112939918D01*
X180730547Y-112763222D01*
X180799491Y-112596776D01*
X180899583Y-112446978D01*
X181026978Y-112319583D01*
X181176776Y-112219491D01*
X181343222Y-112150547D01*
X181519918Y-112115400D01*
X181700082Y-112115400D01*
X181876778Y-112150547D01*
G37*
G36*
X176796778Y-112150547D02*
G01*
X176963224Y-112219491D01*
X177113022Y-112319583D01*
X177240417Y-112446978D01*
X177340509Y-112596776D01*
X177409453Y-112763222D01*
X177444600Y-112939918D01*
X177444600Y-113120082D01*
X177409453Y-113296778D01*
X177340509Y-113463224D01*
X177240417Y-113613022D01*
X177113022Y-113740417D01*
X176963224Y-113840509D01*
X176796778Y-113909453D01*
X176620082Y-113944600D01*
X176439918Y-113944600D01*
X176263222Y-113909453D01*
X176096776Y-113840509D01*
X175946978Y-113740417D01*
X175819583Y-113613022D01*
X175719491Y-113463224D01*
X175650547Y-113296778D01*
X175615400Y-113120082D01*
X175615400Y-112939918D01*
X175650547Y-112763222D01*
X175719491Y-112596776D01*
X175819583Y-112446978D01*
X175946978Y-112319583D01*
X176096776Y-112219491D01*
X176263222Y-112150547D01*
X176439918Y-112115400D01*
X176620082Y-112115400D01*
X176796778Y-112150547D01*
G37*
G36*
X196535345Y-110843442D02*
G01*
X196625548Y-110852326D01*
X196799157Y-110904990D01*
X196959156Y-110990511D01*
X197002729Y-111026271D01*
X197099397Y-111105603D01*
X197178729Y-111202271D01*
X197214489Y-111245844D01*
X197300010Y-111405843D01*
X197352674Y-111579452D01*
X197370456Y-111760000D01*
X197352674Y-111940548D01*
X197300010Y-112114157D01*
X197214489Y-112274156D01*
X197178729Y-112317729D01*
X197099397Y-112414397D01*
X197002729Y-112493729D01*
X196959156Y-112529489D01*
X196799157Y-112615010D01*
X196625548Y-112667674D01*
X196535345Y-112676558D01*
X196490245Y-112681000D01*
X195939755Y-112681000D01*
X195894655Y-112676558D01*
X195804452Y-112667674D01*
X195630843Y-112615010D01*
X195470844Y-112529489D01*
X195427271Y-112493729D01*
X195330603Y-112414397D01*
X195251271Y-112317729D01*
X195215511Y-112274156D01*
X195129990Y-112114157D01*
X195077326Y-111940548D01*
X195059544Y-111760000D01*
X195077326Y-111579452D01*
X195129990Y-111405843D01*
X195215511Y-111245844D01*
X195251271Y-111202271D01*
X195330603Y-111105603D01*
X195427271Y-111026271D01*
X195470844Y-110990511D01*
X195630843Y-110904990D01*
X195804452Y-110852326D01*
X195894655Y-110843442D01*
X195939755Y-110839000D01*
X196490245Y-110839000D01*
X196535345Y-110843442D01*
G37*
G36*
X150620589Y-110998876D02*
G01*
X150719893Y-111018629D01*
X150860206Y-111076748D01*
X150986484Y-111161125D01*
X151093875Y-111268516D01*
X151178252Y-111394794D01*
X151236371Y-111535107D01*
X151266000Y-111684063D01*
X151266000Y-111835937D01*
X151236371Y-111984893D01*
X151178252Y-112125206D01*
X151093875Y-112251484D01*
X150986484Y-112358875D01*
X150860206Y-112443252D01*
X150719893Y-112501371D01*
X150620589Y-112521124D01*
X150570938Y-112531000D01*
X150419062Y-112531000D01*
X150369411Y-112521124D01*
X150270107Y-112501371D01*
X150129794Y-112443252D01*
X150003516Y-112358875D01*
X149896125Y-112251484D01*
X149811748Y-112125206D01*
X149753629Y-111984893D01*
X149724000Y-111835937D01*
X149724000Y-111684063D01*
X149753629Y-111535107D01*
X149811748Y-111394794D01*
X149896125Y-111268516D01*
X150003516Y-111161125D01*
X150129794Y-111076748D01*
X150270107Y-111018629D01*
X150369411Y-110998876D01*
X150419062Y-110989000D01*
X150570938Y-110989000D01*
X150620589Y-110998876D01*
G37*
G36*
X112520589Y-110998876D02*
G01*
X112619893Y-111018629D01*
X112760206Y-111076748D01*
X112886484Y-111161125D01*
X112993875Y-111268516D01*
X113078252Y-111394794D01*
X113136371Y-111535107D01*
X113166000Y-111684063D01*
X113166000Y-111835937D01*
X113136371Y-111984893D01*
X113078252Y-112125206D01*
X112993875Y-112251484D01*
X112886484Y-112358875D01*
X112760206Y-112443252D01*
X112619893Y-112501371D01*
X112520589Y-112521124D01*
X112470938Y-112531000D01*
X112319062Y-112531000D01*
X112269411Y-112521124D01*
X112170107Y-112501371D01*
X112029794Y-112443252D01*
X111903516Y-112358875D01*
X111796125Y-112251484D01*
X111711748Y-112125206D01*
X111653629Y-111984893D01*
X111624000Y-111835937D01*
X111624000Y-111684063D01*
X111653629Y-111535107D01*
X111711748Y-111394794D01*
X111796125Y-111268516D01*
X111903516Y-111161125D01*
X112029794Y-111076748D01*
X112170107Y-111018629D01*
X112269411Y-110998876D01*
X112319062Y-110989000D01*
X112470938Y-110989000D01*
X112520589Y-110998876D01*
G37*
G36*
X155700589Y-110998876D02*
G01*
X155799893Y-111018629D01*
X155940206Y-111076748D01*
X156066484Y-111161125D01*
X156173875Y-111268516D01*
X156258252Y-111394794D01*
X156316371Y-111535107D01*
X156346000Y-111684063D01*
X156346000Y-111835937D01*
X156316371Y-111984893D01*
X156258252Y-112125206D01*
X156173875Y-112251484D01*
X156066484Y-112358875D01*
X155940206Y-112443252D01*
X155799893Y-112501371D01*
X155700589Y-112521124D01*
X155650938Y-112531000D01*
X155499062Y-112531000D01*
X155449411Y-112521124D01*
X155350107Y-112501371D01*
X155209794Y-112443252D01*
X155083516Y-112358875D01*
X154976125Y-112251484D01*
X154891748Y-112125206D01*
X154833629Y-111984893D01*
X154804000Y-111835937D01*
X154804000Y-111684063D01*
X154833629Y-111535107D01*
X154891748Y-111394794D01*
X154976125Y-111268516D01*
X155083516Y-111161125D01*
X155209794Y-111076748D01*
X155350107Y-111018629D01*
X155449411Y-110998876D01*
X155499062Y-110989000D01*
X155650938Y-110989000D01*
X155700589Y-110998876D01*
G37*
G36*
X141236778Y-110245547D02*
G01*
X141403224Y-110314491D01*
X141553022Y-110414583D01*
X141680417Y-110541978D01*
X141780509Y-110691776D01*
X141849453Y-110858222D01*
X141884600Y-111034918D01*
X141884600Y-111215082D01*
X141849453Y-111391778D01*
X141780509Y-111558224D01*
X141680417Y-111708022D01*
X141553022Y-111835417D01*
X141403224Y-111935509D01*
X141236778Y-112004453D01*
X141060082Y-112039600D01*
X140879918Y-112039600D01*
X140703222Y-112004453D01*
X140536776Y-111935509D01*
X140386978Y-111835417D01*
X140259583Y-111708022D01*
X140159491Y-111558224D01*
X140090547Y-111391778D01*
X140055400Y-111215082D01*
X140055400Y-111034918D01*
X140090547Y-110858222D01*
X140159491Y-110691776D01*
X140259583Y-110541978D01*
X140386978Y-110414583D01*
X140536776Y-110314491D01*
X140703222Y-110245547D01*
X140879918Y-110210400D01*
X141060082Y-110210400D01*
X141236778Y-110245547D01*
G37*
G36*
X143776778Y-110245547D02*
G01*
X143943224Y-110314491D01*
X144093022Y-110414583D01*
X144220417Y-110541978D01*
X144320509Y-110691776D01*
X144389453Y-110858222D01*
X144424600Y-111034918D01*
X144424600Y-111215082D01*
X144389453Y-111391778D01*
X144320509Y-111558224D01*
X144220417Y-111708022D01*
X144093022Y-111835417D01*
X143943224Y-111935509D01*
X143776778Y-112004453D01*
X143600082Y-112039600D01*
X143419918Y-112039600D01*
X143243222Y-112004453D01*
X143076776Y-111935509D01*
X142926978Y-111835417D01*
X142799583Y-111708022D01*
X142699491Y-111558224D01*
X142630547Y-111391778D01*
X142595400Y-111215082D01*
X142595400Y-111034918D01*
X142630547Y-110858222D01*
X142699491Y-110691776D01*
X142799583Y-110541978D01*
X142926978Y-110414583D01*
X143076776Y-110314491D01*
X143243222Y-110245547D01*
X143419918Y-110210400D01*
X143600082Y-110210400D01*
X143776778Y-110245547D01*
G37*
G36*
X196535345Y-108303442D02*
G01*
X196625548Y-108312326D01*
X196799157Y-108364990D01*
X196959156Y-108450511D01*
X196984057Y-108470947D01*
X197099397Y-108565603D01*
X197178729Y-108662271D01*
X197214489Y-108705844D01*
X197300010Y-108865843D01*
X197352674Y-109039452D01*
X197370456Y-109220000D01*
X197352674Y-109400548D01*
X197300010Y-109574157D01*
X197214489Y-109734156D01*
X197178729Y-109777729D01*
X197099397Y-109874397D01*
X197002729Y-109953729D01*
X196959156Y-109989489D01*
X196799157Y-110075010D01*
X196625548Y-110127674D01*
X196535345Y-110136558D01*
X196490245Y-110141000D01*
X195939755Y-110141000D01*
X195894655Y-110136558D01*
X195804452Y-110127674D01*
X195630843Y-110075010D01*
X195470844Y-109989489D01*
X195427271Y-109953729D01*
X195330603Y-109874397D01*
X195251271Y-109777729D01*
X195215511Y-109734156D01*
X195129990Y-109574157D01*
X195077326Y-109400548D01*
X195059544Y-109220000D01*
X195077326Y-109039452D01*
X195129990Y-108865843D01*
X195215511Y-108705844D01*
X195251271Y-108662271D01*
X195330603Y-108565603D01*
X195445943Y-108470947D01*
X195470844Y-108450511D01*
X195630843Y-108364990D01*
X195804452Y-108312326D01*
X195894655Y-108303442D01*
X195939755Y-108299000D01*
X196490245Y-108299000D01*
X196535345Y-108303442D01*
G37*
G36*
X143776778Y-107705547D02*
G01*
X143943224Y-107774491D01*
X144093022Y-107874583D01*
X144220417Y-108001978D01*
X144320509Y-108151776D01*
X144389453Y-108318222D01*
X144424600Y-108494918D01*
X144424600Y-108675082D01*
X144389453Y-108851778D01*
X144320509Y-109018224D01*
X144220417Y-109168022D01*
X144093022Y-109295417D01*
X143943224Y-109395509D01*
X143776778Y-109464453D01*
X143600082Y-109499600D01*
X143419918Y-109499600D01*
X143243222Y-109464453D01*
X143076776Y-109395509D01*
X142926978Y-109295417D01*
X142799583Y-109168022D01*
X142699491Y-109018224D01*
X142630547Y-108851778D01*
X142595400Y-108675082D01*
X142595400Y-108494918D01*
X142630547Y-108318222D01*
X142699491Y-108151776D01*
X142799583Y-108001978D01*
X142926978Y-107874583D01*
X143076776Y-107774491D01*
X143243222Y-107705547D01*
X143419918Y-107670400D01*
X143600082Y-107670400D01*
X143776778Y-107705547D01*
G37*
G36*
X141884600Y-109499600D02*
G01*
X140055400Y-109499600D01*
X140055400Y-107670400D01*
X141884600Y-107670400D01*
X141884600Y-109499600D01*
G37*
G36*
X129321000Y-109001000D02*
G01*
X127219000Y-109001000D01*
X127219000Y-106899000D01*
X129321000Y-106899000D01*
X129321000Y-109001000D01*
G37*
G36*
X117436000Y-108716000D02*
G01*
X115434000Y-108716000D01*
X115434000Y-107814000D01*
X117436000Y-107814000D01*
X117436000Y-108716000D01*
G37*
G36*
X190279499Y-107428445D02*
G01*
X190316995Y-107439820D01*
X190351554Y-107458292D01*
X190381847Y-107483153D01*
X190406708Y-107513446D01*
X190425180Y-107548005D01*
X190436555Y-107585501D01*
X190441000Y-107630638D01*
X190441000Y-108269362D01*
X190436555Y-108314499D01*
X190425180Y-108351995D01*
X190406708Y-108386554D01*
X190381847Y-108416847D01*
X190351554Y-108441708D01*
X190316995Y-108460180D01*
X190279499Y-108471555D01*
X190234362Y-108476000D01*
X189495638Y-108476000D01*
X189450501Y-108471555D01*
X189413005Y-108460180D01*
X189378446Y-108441708D01*
X189348153Y-108416847D01*
X189323292Y-108386554D01*
X189304820Y-108351995D01*
X189293445Y-108314499D01*
X189289000Y-108269362D01*
X189289000Y-107630638D01*
X189293445Y-107585501D01*
X189304820Y-107548005D01*
X189323292Y-107513446D01*
X189348153Y-107483153D01*
X189378446Y-107458292D01*
X189413005Y-107439820D01*
X189450501Y-107428445D01*
X189495638Y-107424000D01*
X190234362Y-107424000D01*
X190279499Y-107428445D01*
G37*
G36*
X181544499Y-107428445D02*
G01*
X181581995Y-107439820D01*
X181616554Y-107458292D01*
X181646847Y-107483153D01*
X181671708Y-107513446D01*
X181690180Y-107548005D01*
X181701555Y-107585501D01*
X181706000Y-107630638D01*
X181706000Y-108269362D01*
X181701555Y-108314499D01*
X181690180Y-108351995D01*
X181671708Y-108386554D01*
X181646847Y-108416847D01*
X181616554Y-108441708D01*
X181581995Y-108460180D01*
X181544499Y-108471555D01*
X181499362Y-108476000D01*
X180760638Y-108476000D01*
X180715501Y-108471555D01*
X180678005Y-108460180D01*
X180643446Y-108441708D01*
X180613153Y-108416847D01*
X180588292Y-108386554D01*
X180569820Y-108351995D01*
X180558445Y-108314499D01*
X180554000Y-108269362D01*
X180554000Y-107630638D01*
X180558445Y-107585501D01*
X180569820Y-107548005D01*
X180588292Y-107513446D01*
X180613153Y-107483153D01*
X180643446Y-107458292D01*
X180678005Y-107439820D01*
X180715501Y-107428445D01*
X180760638Y-107424000D01*
X181499362Y-107424000D01*
X181544499Y-107428445D01*
G37*
G36*
X183294499Y-107428445D02*
G01*
X183331995Y-107439820D01*
X183366554Y-107458292D01*
X183396847Y-107483153D01*
X183421708Y-107513446D01*
X183440180Y-107548005D01*
X183451555Y-107585501D01*
X183456000Y-107630638D01*
X183456000Y-108269362D01*
X183451555Y-108314499D01*
X183440180Y-108351995D01*
X183421708Y-108386554D01*
X183396847Y-108416847D01*
X183366554Y-108441708D01*
X183331995Y-108460180D01*
X183294499Y-108471555D01*
X183249362Y-108476000D01*
X182510638Y-108476000D01*
X182465501Y-108471555D01*
X182428005Y-108460180D01*
X182393446Y-108441708D01*
X182363153Y-108416847D01*
X182338292Y-108386554D01*
X182319820Y-108351995D01*
X182308445Y-108314499D01*
X182304000Y-108269362D01*
X182304000Y-107630638D01*
X182308445Y-107585501D01*
X182319820Y-107548005D01*
X182338292Y-107513446D01*
X182363153Y-107483153D01*
X182393446Y-107458292D01*
X182428005Y-107439820D01*
X182465501Y-107428445D01*
X182510638Y-107424000D01*
X183249362Y-107424000D01*
X183294499Y-107428445D01*
G37*
G36*
X188529499Y-107428445D02*
G01*
X188566995Y-107439820D01*
X188601554Y-107458292D01*
X188631847Y-107483153D01*
X188656708Y-107513446D01*
X188675180Y-107548005D01*
X188686555Y-107585501D01*
X188691000Y-107630638D01*
X188691000Y-108269362D01*
X188686555Y-108314499D01*
X188675180Y-108351995D01*
X188656708Y-108386554D01*
X188631847Y-108416847D01*
X188601554Y-108441708D01*
X188566995Y-108460180D01*
X188529499Y-108471555D01*
X188484362Y-108476000D01*
X187745638Y-108476000D01*
X187700501Y-108471555D01*
X187663005Y-108460180D01*
X187628446Y-108441708D01*
X187598153Y-108416847D01*
X187573292Y-108386554D01*
X187554820Y-108351995D01*
X187543445Y-108314499D01*
X187539000Y-108269362D01*
X187539000Y-107630638D01*
X187543445Y-107585501D01*
X187554820Y-107548005D01*
X187573292Y-107513446D01*
X187598153Y-107483153D01*
X187628446Y-107458292D01*
X187663005Y-107439820D01*
X187700501Y-107428445D01*
X187745638Y-107424000D01*
X188484362Y-107424000D01*
X188529499Y-107428445D01*
G37*
G36*
X176789499Y-107428445D02*
G01*
X176826995Y-107439820D01*
X176861554Y-107458292D01*
X176891847Y-107483153D01*
X176916708Y-107513446D01*
X176935180Y-107548005D01*
X176946555Y-107585501D01*
X176951000Y-107630638D01*
X176951000Y-108269362D01*
X176946555Y-108314499D01*
X176935180Y-108351995D01*
X176916708Y-108386554D01*
X176891847Y-108416847D01*
X176861554Y-108441708D01*
X176826995Y-108460180D01*
X176789499Y-108471555D01*
X176744362Y-108476000D01*
X176005638Y-108476000D01*
X175960501Y-108471555D01*
X175923005Y-108460180D01*
X175888446Y-108441708D01*
X175858153Y-108416847D01*
X175833292Y-108386554D01*
X175814820Y-108351995D01*
X175803445Y-108314499D01*
X175799000Y-108269362D01*
X175799000Y-107630638D01*
X175803445Y-107585501D01*
X175814820Y-107548005D01*
X175833292Y-107513446D01*
X175858153Y-107483153D01*
X175888446Y-107458292D01*
X175923005Y-107439820D01*
X175960501Y-107428445D01*
X176005638Y-107424000D01*
X176744362Y-107424000D01*
X176789499Y-107428445D01*
G37*
G36*
X175039499Y-107428445D02*
G01*
X175076995Y-107439820D01*
X175111554Y-107458292D01*
X175141847Y-107483153D01*
X175166708Y-107513446D01*
X175185180Y-107548005D01*
X175196555Y-107585501D01*
X175201000Y-107630638D01*
X175201000Y-108269362D01*
X175196555Y-108314499D01*
X175185180Y-108351995D01*
X175166708Y-108386554D01*
X175141847Y-108416847D01*
X175111554Y-108441708D01*
X175076995Y-108460180D01*
X175039499Y-108471555D01*
X174994362Y-108476000D01*
X174255638Y-108476000D01*
X174210501Y-108471555D01*
X174173005Y-108460180D01*
X174138446Y-108441708D01*
X174108153Y-108416847D01*
X174083292Y-108386554D01*
X174064820Y-108351995D01*
X174053445Y-108314499D01*
X174049000Y-108269362D01*
X174049000Y-107630638D01*
X174053445Y-107585501D01*
X174064820Y-107548005D01*
X174083292Y-107513446D01*
X174108153Y-107483153D01*
X174138446Y-107458292D01*
X174173005Y-107439820D01*
X174210501Y-107428445D01*
X174255638Y-107424000D01*
X174994362Y-107424000D01*
X175039499Y-107428445D01*
G37*
G36*
X114436000Y-107766000D02*
G01*
X112434000Y-107766000D01*
X112434000Y-106864000D01*
X114436000Y-106864000D01*
X114436000Y-107766000D01*
G37*
G36*
X196535345Y-105763442D02*
G01*
X196625548Y-105772326D01*
X196799157Y-105824990D01*
X196959156Y-105910511D01*
X197002729Y-105946271D01*
X197099397Y-106025603D01*
X197178729Y-106122271D01*
X197214489Y-106165844D01*
X197300010Y-106325843D01*
X197352674Y-106499452D01*
X197370456Y-106680000D01*
X197352674Y-106860548D01*
X197300010Y-107034157D01*
X197214489Y-107194156D01*
X197178729Y-107237729D01*
X197099397Y-107334397D01*
X197002729Y-107413729D01*
X196959156Y-107449489D01*
X196799157Y-107535010D01*
X196625548Y-107587674D01*
X196535345Y-107596558D01*
X196490245Y-107601000D01*
X195939755Y-107601000D01*
X195894655Y-107596558D01*
X195804452Y-107587674D01*
X195630843Y-107535010D01*
X195470844Y-107449489D01*
X195427271Y-107413729D01*
X195330603Y-107334397D01*
X195251271Y-107237729D01*
X195215511Y-107194156D01*
X195129990Y-107034157D01*
X195077326Y-106860548D01*
X195059544Y-106680000D01*
X195077326Y-106499452D01*
X195129990Y-106325843D01*
X195215511Y-106165844D01*
X195251271Y-106122271D01*
X195330603Y-106025603D01*
X195427271Y-105946271D01*
X195470844Y-105910511D01*
X195630843Y-105824990D01*
X195804452Y-105772326D01*
X195894655Y-105763442D01*
X195939755Y-105759000D01*
X196490245Y-105759000D01*
X196535345Y-105763442D01*
G37*
G36*
X181746000Y-106871000D02*
G01*
X180844000Y-106871000D01*
X180844000Y-104869000D01*
X181746000Y-104869000D01*
X181746000Y-106871000D01*
G37*
G36*
X174126000Y-106871000D02*
G01*
X173224000Y-106871000D01*
X173224000Y-104869000D01*
X174126000Y-104869000D01*
X174126000Y-106871000D01*
G37*
G36*
X189366000Y-106871000D02*
G01*
X188464000Y-106871000D01*
X188464000Y-104869000D01*
X189366000Y-104869000D01*
X189366000Y-106871000D01*
G37*
G36*
X117436000Y-106816000D02*
G01*
X115434000Y-106816000D01*
X115434000Y-105914000D01*
X117436000Y-105914000D01*
X117436000Y-106816000D01*
G37*
G36*
X197224561Y-103222966D02*
G01*
X197257383Y-103232923D01*
X197287632Y-103249092D01*
X197314148Y-103270852D01*
X197335908Y-103297368D01*
X197352077Y-103327617D01*
X197362034Y-103360439D01*
X197366000Y-103400713D01*
X197366000Y-104879287D01*
X197362034Y-104919561D01*
X197352077Y-104952383D01*
X197335908Y-104982632D01*
X197314148Y-105009148D01*
X197287632Y-105030908D01*
X197257383Y-105047077D01*
X197224561Y-105057034D01*
X197184287Y-105061000D01*
X195245713Y-105061000D01*
X195205439Y-105057034D01*
X195172617Y-105047077D01*
X195142368Y-105030908D01*
X195115852Y-105009148D01*
X195094092Y-104982632D01*
X195077923Y-104952383D01*
X195067966Y-104919561D01*
X195064000Y-104879287D01*
X195064000Y-103400713D01*
X195067966Y-103360439D01*
X195077923Y-103327617D01*
X195094092Y-103297368D01*
X195115852Y-103270852D01*
X195142368Y-103249092D01*
X195172617Y-103232923D01*
X195205439Y-103222966D01*
X195245713Y-103219000D01*
X197184287Y-103219000D01*
X197224561Y-103222966D01*
G37*
G36*
X156878642Y-103369781D02*
G01*
X157011517Y-103424820D01*
X157024416Y-103430163D01*
X157155608Y-103517822D01*
X157267178Y-103629392D01*
X157354837Y-103760584D01*
X157354838Y-103760586D01*
X157415219Y-103906358D01*
X157446000Y-104061107D01*
X157446000Y-104218893D01*
X157415219Y-104373642D01*
X157355972Y-104516677D01*
X157354837Y-104519416D01*
X157267178Y-104650608D01*
X157155608Y-104762178D01*
X157024416Y-104849837D01*
X157024415Y-104849838D01*
X157024414Y-104849838D01*
X156878642Y-104910219D01*
X156723893Y-104941000D01*
X156566107Y-104941000D01*
X156411358Y-104910219D01*
X156265586Y-104849838D01*
X156265585Y-104849838D01*
X156265584Y-104849837D01*
X156134392Y-104762178D01*
X156022822Y-104650608D01*
X155935163Y-104519416D01*
X155934028Y-104516677D01*
X155874781Y-104373642D01*
X155844000Y-104218893D01*
X155844000Y-104061107D01*
X155874781Y-103906358D01*
X155935162Y-103760586D01*
X155935163Y-103760584D01*
X156022822Y-103629392D01*
X156134392Y-103517822D01*
X156265584Y-103430163D01*
X156278483Y-103424820D01*
X156411358Y-103369781D01*
X156566107Y-103339000D01*
X156723893Y-103339000D01*
X156878642Y-103369781D01*
G37*
G36*
X151998642Y-103369781D02*
G01*
X152131517Y-103424820D01*
X152144416Y-103430163D01*
X152275608Y-103517822D01*
X152387178Y-103629392D01*
X152474837Y-103760584D01*
X152474838Y-103760586D01*
X152535219Y-103906358D01*
X152566000Y-104061107D01*
X152566000Y-104218893D01*
X152535219Y-104373642D01*
X152475972Y-104516677D01*
X152474837Y-104519416D01*
X152387178Y-104650608D01*
X152275608Y-104762178D01*
X152144416Y-104849837D01*
X152144415Y-104849838D01*
X152144414Y-104849838D01*
X151998642Y-104910219D01*
X151843893Y-104941000D01*
X151686107Y-104941000D01*
X151531358Y-104910219D01*
X151385586Y-104849838D01*
X151385585Y-104849838D01*
X151385584Y-104849837D01*
X151254392Y-104762178D01*
X151142822Y-104650608D01*
X151055163Y-104519416D01*
X151054028Y-104516677D01*
X150994781Y-104373642D01*
X150964000Y-104218893D01*
X150964000Y-104061107D01*
X150994781Y-103906358D01*
X151055162Y-103760586D01*
X151055163Y-103760584D01*
X151142822Y-103629392D01*
X151254392Y-103517822D01*
X151385584Y-103430163D01*
X151398483Y-103424820D01*
X151531358Y-103369781D01*
X151686107Y-103339000D01*
X151843893Y-103339000D01*
X151998642Y-103369781D01*
G37*
G36*
X186419499Y-103413445D02*
G01*
X186456995Y-103424820D01*
X186491554Y-103443292D01*
X186521847Y-103468153D01*
X186546708Y-103498446D01*
X186565180Y-103533005D01*
X186576555Y-103570501D01*
X186581000Y-103615638D01*
X186581000Y-104354362D01*
X186576555Y-104399499D01*
X186565180Y-104436995D01*
X186546708Y-104471554D01*
X186521847Y-104501847D01*
X186491554Y-104526708D01*
X186456995Y-104545180D01*
X186419499Y-104556555D01*
X186374362Y-104561000D01*
X185735638Y-104561000D01*
X185690501Y-104556555D01*
X185653005Y-104545180D01*
X185618446Y-104526708D01*
X185588153Y-104501847D01*
X185563292Y-104471554D01*
X185544820Y-104436995D01*
X185533445Y-104399499D01*
X185529000Y-104354362D01*
X185529000Y-103615638D01*
X185533445Y-103570501D01*
X185544820Y-103533005D01*
X185563292Y-103498446D01*
X185588153Y-103468153D01*
X185618446Y-103443292D01*
X185653005Y-103424820D01*
X185690501Y-103413445D01*
X185735638Y-103409000D01*
X186374362Y-103409000D01*
X186419499Y-103413445D01*
G37*
G36*
X178799499Y-103413445D02*
G01*
X178836995Y-103424820D01*
X178871554Y-103443292D01*
X178901847Y-103468153D01*
X178926708Y-103498446D01*
X178945180Y-103533005D01*
X178956555Y-103570501D01*
X178961000Y-103615638D01*
X178961000Y-104354362D01*
X178956555Y-104399499D01*
X178945180Y-104436995D01*
X178926708Y-104471554D01*
X178901847Y-104501847D01*
X178871554Y-104526708D01*
X178836995Y-104545180D01*
X178799499Y-104556555D01*
X178754362Y-104561000D01*
X178115638Y-104561000D01*
X178070501Y-104556555D01*
X178033005Y-104545180D01*
X177998446Y-104526708D01*
X177968153Y-104501847D01*
X177943292Y-104471554D01*
X177924820Y-104436995D01*
X177913445Y-104399499D01*
X177909000Y-104354362D01*
X177909000Y-103615638D01*
X177913445Y-103570501D01*
X177924820Y-103533005D01*
X177943292Y-103498446D01*
X177968153Y-103468153D01*
X177998446Y-103443292D01*
X178033005Y-103424820D01*
X178070501Y-103413445D01*
X178115638Y-103409000D01*
X178754362Y-103409000D01*
X178799499Y-103413445D01*
G37*
G36*
X171179499Y-103413445D02*
G01*
X171216995Y-103424820D01*
X171251554Y-103443292D01*
X171281847Y-103468153D01*
X171306708Y-103498446D01*
X171325180Y-103533005D01*
X171336555Y-103570501D01*
X171341000Y-103615638D01*
X171341000Y-104354362D01*
X171336555Y-104399499D01*
X171325180Y-104436995D01*
X171306708Y-104471554D01*
X171281847Y-104501847D01*
X171251554Y-104526708D01*
X171216995Y-104545180D01*
X171179499Y-104556555D01*
X171134362Y-104561000D01*
X170495638Y-104561000D01*
X170450501Y-104556555D01*
X170413005Y-104545180D01*
X170378446Y-104526708D01*
X170348153Y-104501847D01*
X170323292Y-104471554D01*
X170304820Y-104436995D01*
X170293445Y-104399499D01*
X170289000Y-104354362D01*
X170289000Y-103615638D01*
X170293445Y-103570501D01*
X170304820Y-103533005D01*
X170323292Y-103498446D01*
X170348153Y-103468153D01*
X170378446Y-103443292D01*
X170413005Y-103424820D01*
X170450501Y-103413445D01*
X170495638Y-103409000D01*
X171134362Y-103409000D01*
X171179499Y-103413445D01*
G37*
G36*
X105149561Y-102587966D02*
G01*
X105182383Y-102597923D01*
X105212632Y-102614092D01*
X105239148Y-102635852D01*
X105260908Y-102662368D01*
X105277077Y-102692617D01*
X105287034Y-102725439D01*
X105291000Y-102765713D01*
X105291000Y-104244287D01*
X105287034Y-104284561D01*
X105277077Y-104317383D01*
X105260908Y-104347632D01*
X105239148Y-104374148D01*
X105212632Y-104395908D01*
X105182383Y-104412077D01*
X105149561Y-104422034D01*
X105109287Y-104426000D01*
X103170713Y-104426000D01*
X103130439Y-104422034D01*
X103097617Y-104412077D01*
X103067368Y-104395908D01*
X103040852Y-104374148D01*
X103019092Y-104347632D01*
X103002923Y-104317383D01*
X102992966Y-104284561D01*
X102989000Y-104244287D01*
X102989000Y-102765713D01*
X102992966Y-102725439D01*
X103002923Y-102692617D01*
X103019092Y-102662368D01*
X103040852Y-102635852D01*
X103067368Y-102614092D01*
X103097617Y-102597923D01*
X103130439Y-102587966D01*
X103170713Y-102584000D01*
X105109287Y-102584000D01*
X105149561Y-102587966D01*
G37*
G36*
X180796000Y-103871000D02*
G01*
X179894000Y-103871000D01*
X179894000Y-101869000D01*
X180796000Y-101869000D01*
X180796000Y-103871000D01*
G37*
G36*
X173176000Y-103871000D02*
G01*
X172274000Y-103871000D01*
X172274000Y-101869000D01*
X173176000Y-101869000D01*
X173176000Y-103871000D01*
G37*
G36*
X190316000Y-103871000D02*
G01*
X189414000Y-103871000D01*
X189414000Y-101869000D01*
X190316000Y-101869000D01*
X190316000Y-103871000D01*
G37*
G36*
X182696000Y-103871000D02*
G01*
X181794000Y-103871000D01*
X181794000Y-101869000D01*
X182696000Y-101869000D01*
X182696000Y-103871000D01*
G37*
G36*
X188416000Y-103871000D02*
G01*
X187514000Y-103871000D01*
X187514000Y-101869000D01*
X188416000Y-101869000D01*
X188416000Y-103871000D01*
G37*
G36*
X175076000Y-103871000D02*
G01*
X174174000Y-103871000D01*
X174174000Y-101869000D01*
X175076000Y-101869000D01*
X175076000Y-103871000D01*
G37*
G36*
X135514499Y-102348445D02*
G01*
X135551995Y-102359820D01*
X135586554Y-102378292D01*
X135616847Y-102403153D01*
X135641708Y-102433446D01*
X135660180Y-102468005D01*
X135671555Y-102505501D01*
X135676000Y-102550638D01*
X135676000Y-103189362D01*
X135671555Y-103234499D01*
X135660180Y-103271995D01*
X135641708Y-103306554D01*
X135616847Y-103336847D01*
X135586554Y-103361708D01*
X135551995Y-103380180D01*
X135514499Y-103391555D01*
X135469362Y-103396000D01*
X134730638Y-103396000D01*
X134685501Y-103391555D01*
X134648005Y-103380180D01*
X134613446Y-103361708D01*
X134583153Y-103336847D01*
X134558292Y-103306554D01*
X134539820Y-103271995D01*
X134528445Y-103234499D01*
X134524000Y-103189362D01*
X134524000Y-102550638D01*
X134528445Y-102505501D01*
X134539820Y-102468005D01*
X134558292Y-102433446D01*
X134583153Y-102403153D01*
X134613446Y-102378292D01*
X134648005Y-102359820D01*
X134685501Y-102348445D01*
X134730638Y-102344000D01*
X135469362Y-102344000D01*
X135514499Y-102348445D01*
G37*
G36*
X133764499Y-102348445D02*
G01*
X133801995Y-102359820D01*
X133836554Y-102378292D01*
X133866847Y-102403153D01*
X133891708Y-102433446D01*
X133910180Y-102468005D01*
X133921555Y-102505501D01*
X133926000Y-102550638D01*
X133926000Y-103189362D01*
X133921555Y-103234499D01*
X133910180Y-103271995D01*
X133891708Y-103306554D01*
X133866847Y-103336847D01*
X133836554Y-103361708D01*
X133801995Y-103380180D01*
X133764499Y-103391555D01*
X133719362Y-103396000D01*
X132980638Y-103396000D01*
X132935501Y-103391555D01*
X132898005Y-103380180D01*
X132863446Y-103361708D01*
X132833153Y-103336847D01*
X132808292Y-103306554D01*
X132789820Y-103271995D01*
X132778445Y-103234499D01*
X132774000Y-103189362D01*
X132774000Y-102550638D01*
X132778445Y-102505501D01*
X132789820Y-102468005D01*
X132808292Y-102433446D01*
X132833153Y-102403153D01*
X132863446Y-102378292D01*
X132898005Y-102359820D01*
X132935501Y-102348445D01*
X132980638Y-102344000D01*
X133719362Y-102344000D01*
X133764499Y-102348445D01*
G37*
G36*
X118305562Y-101313181D02*
G01*
X118340481Y-101323774D01*
X118372663Y-101340976D01*
X118400873Y-101364127D01*
X118424024Y-101392337D01*
X118441226Y-101424519D01*
X118451819Y-101459438D01*
X118456000Y-101501895D01*
X118456000Y-102968105D01*
X118451819Y-103010562D01*
X118441226Y-103045481D01*
X118424024Y-103077663D01*
X118400873Y-103105873D01*
X118372663Y-103129024D01*
X118340481Y-103146226D01*
X118305562Y-103156819D01*
X118263105Y-103161000D01*
X117121895Y-103161000D01*
X117079438Y-103156819D01*
X117044519Y-103146226D01*
X117012337Y-103129024D01*
X116984127Y-103105873D01*
X116960976Y-103077663D01*
X116943774Y-103045481D01*
X116933181Y-103010562D01*
X116929000Y-102968105D01*
X116929000Y-101501895D01*
X116933181Y-101459438D01*
X116943774Y-101424519D01*
X116960976Y-101392337D01*
X116984127Y-101364127D01*
X117012337Y-101340976D01*
X117044519Y-101323774D01*
X117079438Y-101313181D01*
X117121895Y-101309000D01*
X118263105Y-101309000D01*
X118305562Y-101313181D01*
G37*
G36*
X109833062Y-101313181D02*
G01*
X109867981Y-101323774D01*
X109900163Y-101340976D01*
X109928373Y-101364127D01*
X109951524Y-101392337D01*
X109968726Y-101424519D01*
X109979319Y-101459438D01*
X109983500Y-101501895D01*
X109983500Y-102968105D01*
X109979319Y-103010562D01*
X109968726Y-103045481D01*
X109951524Y-103077663D01*
X109928373Y-103105873D01*
X109900163Y-103129024D01*
X109867981Y-103146226D01*
X109833062Y-103156819D01*
X109790605Y-103161000D01*
X108649395Y-103161000D01*
X108606938Y-103156819D01*
X108572019Y-103146226D01*
X108539837Y-103129024D01*
X108511627Y-103105873D01*
X108488476Y-103077663D01*
X108471274Y-103045481D01*
X108460681Y-103010562D01*
X108456500Y-102968105D01*
X108456500Y-101501895D01*
X108460681Y-101459438D01*
X108471274Y-101424519D01*
X108488476Y-101392337D01*
X108511627Y-101364127D01*
X108539837Y-101340976D01*
X108572019Y-101323774D01*
X108606938Y-101313181D01*
X108649395Y-101309000D01*
X109790605Y-101309000D01*
X109833062Y-101313181D01*
G37*
G36*
X112808062Y-101313181D02*
G01*
X112842981Y-101323774D01*
X112875163Y-101340976D01*
X112903373Y-101364127D01*
X112926524Y-101392337D01*
X112943726Y-101424519D01*
X112954319Y-101459438D01*
X112958500Y-101501895D01*
X112958500Y-102968105D01*
X112954319Y-103010562D01*
X112943726Y-103045481D01*
X112926524Y-103077663D01*
X112903373Y-103105873D01*
X112875163Y-103129024D01*
X112842981Y-103146226D01*
X112808062Y-103156819D01*
X112765605Y-103161000D01*
X111624395Y-103161000D01*
X111581938Y-103156819D01*
X111547019Y-103146226D01*
X111514837Y-103129024D01*
X111486627Y-103105873D01*
X111463476Y-103077663D01*
X111446274Y-103045481D01*
X111435681Y-103010562D01*
X111431500Y-102968105D01*
X111431500Y-101501895D01*
X111435681Y-101459438D01*
X111446274Y-101424519D01*
X111463476Y-101392337D01*
X111486627Y-101364127D01*
X111514837Y-101340976D01*
X111547019Y-101323774D01*
X111581938Y-101313181D01*
X111624395Y-101309000D01*
X112765605Y-101309000D01*
X112808062Y-101313181D01*
G37*
G36*
X115330562Y-101313181D02*
G01*
X115365481Y-101323774D01*
X115397663Y-101340976D01*
X115425873Y-101364127D01*
X115449024Y-101392337D01*
X115466226Y-101424519D01*
X115476819Y-101459438D01*
X115481000Y-101501895D01*
X115481000Y-102968105D01*
X115476819Y-103010562D01*
X115466226Y-103045481D01*
X115449024Y-103077663D01*
X115425873Y-103105873D01*
X115397663Y-103129024D01*
X115365481Y-103146226D01*
X115330562Y-103156819D01*
X115288105Y-103161000D01*
X114146895Y-103161000D01*
X114104438Y-103156819D01*
X114069519Y-103146226D01*
X114037337Y-103129024D01*
X114009127Y-103105873D01*
X113985976Y-103077663D01*
X113968774Y-103045481D01*
X113958181Y-103010562D01*
X113954000Y-102968105D01*
X113954000Y-101501895D01*
X113958181Y-101459438D01*
X113968774Y-101424519D01*
X113985976Y-101392337D01*
X114009127Y-101364127D01*
X114037337Y-101340976D01*
X114069519Y-101323774D01*
X114104438Y-101313181D01*
X114146895Y-101309000D01*
X115288105Y-101309000D01*
X115330562Y-101313181D01*
G37*
G36*
X186419499Y-101663445D02*
G01*
X186456995Y-101674820D01*
X186491554Y-101693292D01*
X186521847Y-101718153D01*
X186546708Y-101748446D01*
X186565180Y-101783005D01*
X186576555Y-101820501D01*
X186581000Y-101865638D01*
X186581000Y-102604362D01*
X186576555Y-102649499D01*
X186565180Y-102686995D01*
X186546708Y-102721554D01*
X186521847Y-102751847D01*
X186491554Y-102776708D01*
X186456995Y-102795180D01*
X186419499Y-102806555D01*
X186374362Y-102811000D01*
X185735638Y-102811000D01*
X185690501Y-102806555D01*
X185653005Y-102795180D01*
X185618446Y-102776708D01*
X185588153Y-102751847D01*
X185563292Y-102721554D01*
X185544820Y-102686995D01*
X185533445Y-102649499D01*
X185529000Y-102604362D01*
X185529000Y-101865638D01*
X185533445Y-101820501D01*
X185544820Y-101783005D01*
X185563292Y-101748446D01*
X185588153Y-101718153D01*
X185618446Y-101693292D01*
X185653005Y-101674820D01*
X185690501Y-101663445D01*
X185735638Y-101659000D01*
X186374362Y-101659000D01*
X186419499Y-101663445D01*
G37*
G36*
X178799499Y-101663445D02*
G01*
X178836995Y-101674820D01*
X178871554Y-101693292D01*
X178901847Y-101718153D01*
X178926708Y-101748446D01*
X178945180Y-101783005D01*
X178956555Y-101820501D01*
X178961000Y-101865638D01*
X178961000Y-102604362D01*
X178956555Y-102649499D01*
X178945180Y-102686995D01*
X178926708Y-102721554D01*
X178901847Y-102751847D01*
X178871554Y-102776708D01*
X178836995Y-102795180D01*
X178799499Y-102806555D01*
X178754362Y-102811000D01*
X178115638Y-102811000D01*
X178070501Y-102806555D01*
X178033005Y-102795180D01*
X177998446Y-102776708D01*
X177968153Y-102751847D01*
X177943292Y-102721554D01*
X177924820Y-102686995D01*
X177913445Y-102649499D01*
X177909000Y-102604362D01*
X177909000Y-101865638D01*
X177913445Y-101820501D01*
X177924820Y-101783005D01*
X177943292Y-101748446D01*
X177968153Y-101718153D01*
X177998446Y-101693292D01*
X178033005Y-101674820D01*
X178070501Y-101663445D01*
X178115638Y-101659000D01*
X178754362Y-101659000D01*
X178799499Y-101663445D01*
G37*
G36*
X171179499Y-101663445D02*
G01*
X171216995Y-101674820D01*
X171251554Y-101693292D01*
X171281847Y-101718153D01*
X171306708Y-101748446D01*
X171325180Y-101783005D01*
X171336555Y-101820501D01*
X171341000Y-101865638D01*
X171341000Y-102604362D01*
X171336555Y-102649499D01*
X171325180Y-102686995D01*
X171306708Y-102721554D01*
X171281847Y-102751847D01*
X171251554Y-102776708D01*
X171216995Y-102795180D01*
X171179499Y-102806555D01*
X171134362Y-102811000D01*
X170495638Y-102811000D01*
X170450501Y-102806555D01*
X170413005Y-102795180D01*
X170378446Y-102776708D01*
X170348153Y-102751847D01*
X170323292Y-102721554D01*
X170304820Y-102686995D01*
X170293445Y-102649499D01*
X170289000Y-102604362D01*
X170289000Y-101865638D01*
X170293445Y-101820501D01*
X170304820Y-101783005D01*
X170323292Y-101748446D01*
X170348153Y-101718153D01*
X170378446Y-101693292D01*
X170413005Y-101674820D01*
X170450501Y-101663445D01*
X170495638Y-101659000D01*
X171134362Y-101659000D01*
X171179499Y-101663445D01*
G37*
G36*
X122969499Y-101713445D02*
G01*
X123006995Y-101724820D01*
X123041554Y-101743292D01*
X123071847Y-101768153D01*
X123096708Y-101798446D01*
X123115180Y-101833005D01*
X123126555Y-101870501D01*
X123131000Y-101915638D01*
X123131000Y-102554362D01*
X123126555Y-102599499D01*
X123115180Y-102636995D01*
X123096708Y-102671554D01*
X123071847Y-102701847D01*
X123041554Y-102726708D01*
X123006995Y-102745180D01*
X122969499Y-102756555D01*
X122924362Y-102761000D01*
X122185638Y-102761000D01*
X122140501Y-102756555D01*
X122103005Y-102745180D01*
X122068446Y-102726708D01*
X122038153Y-102701847D01*
X122013292Y-102671554D01*
X121994820Y-102636995D01*
X121983445Y-102599499D01*
X121979000Y-102554362D01*
X121979000Y-101915638D01*
X121983445Y-101870501D01*
X121994820Y-101833005D01*
X122013292Y-101798446D01*
X122038153Y-101768153D01*
X122068446Y-101743292D01*
X122103005Y-101724820D01*
X122140501Y-101713445D01*
X122185638Y-101709000D01*
X122924362Y-101709000D01*
X122969499Y-101713445D01*
G37*
G36*
X124719499Y-101713445D02*
G01*
X124756995Y-101724820D01*
X124791554Y-101743292D01*
X124821847Y-101768153D01*
X124846708Y-101798446D01*
X124865180Y-101833005D01*
X124876555Y-101870501D01*
X124881000Y-101915638D01*
X124881000Y-102554362D01*
X124876555Y-102599499D01*
X124865180Y-102636995D01*
X124846708Y-102671554D01*
X124821847Y-102701847D01*
X124791554Y-102726708D01*
X124756995Y-102745180D01*
X124719499Y-102756555D01*
X124674362Y-102761000D01*
X123935638Y-102761000D01*
X123890501Y-102756555D01*
X123853005Y-102745180D01*
X123818446Y-102726708D01*
X123788153Y-102701847D01*
X123763292Y-102671554D01*
X123744820Y-102636995D01*
X123733445Y-102599499D01*
X123729000Y-102554362D01*
X123729000Y-101915638D01*
X123733445Y-101870501D01*
X123744820Y-101833005D01*
X123763292Y-101798446D01*
X123788153Y-101768153D01*
X123818446Y-101743292D01*
X123853005Y-101724820D01*
X123890501Y-101713445D01*
X123935638Y-101709000D01*
X124674362Y-101709000D01*
X124719499Y-101713445D01*
G37*
G36*
X120379499Y-101508445D02*
G01*
X120416995Y-101519820D01*
X120451554Y-101538292D01*
X120481847Y-101563153D01*
X120506708Y-101593446D01*
X120525180Y-101628005D01*
X120536555Y-101665501D01*
X120541000Y-101710638D01*
X120541000Y-102449362D01*
X120536555Y-102494499D01*
X120525180Y-102531995D01*
X120506708Y-102566554D01*
X120481847Y-102596847D01*
X120451554Y-102621708D01*
X120416995Y-102640180D01*
X120379499Y-102651555D01*
X120334362Y-102656000D01*
X119695638Y-102656000D01*
X119650501Y-102651555D01*
X119613005Y-102640180D01*
X119578446Y-102621708D01*
X119548153Y-102596847D01*
X119523292Y-102566554D01*
X119504820Y-102531995D01*
X119493445Y-102494499D01*
X119489000Y-102449362D01*
X119489000Y-101710638D01*
X119493445Y-101665501D01*
X119504820Y-101628005D01*
X119523292Y-101593446D01*
X119548153Y-101563153D01*
X119578446Y-101538292D01*
X119613005Y-101519820D01*
X119650501Y-101508445D01*
X119695638Y-101504000D01*
X120334362Y-101504000D01*
X120379499Y-101508445D01*
G37*
G36*
X104460345Y-100048442D02*
G01*
X104550548Y-100057326D01*
X104724157Y-100109990D01*
X104884156Y-100195511D01*
X104927729Y-100231271D01*
X105024397Y-100310603D01*
X105103729Y-100407271D01*
X105139489Y-100450844D01*
X105225010Y-100610843D01*
X105277674Y-100784452D01*
X105295456Y-100965000D01*
X105277674Y-101145548D01*
X105225010Y-101319157D01*
X105139489Y-101479156D01*
X105120827Y-101501895D01*
X105024397Y-101619397D01*
X104951745Y-101679020D01*
X104884156Y-101734489D01*
X104724157Y-101820010D01*
X104550548Y-101872674D01*
X104460345Y-101881558D01*
X104415245Y-101886000D01*
X103864755Y-101886000D01*
X103819655Y-101881558D01*
X103729452Y-101872674D01*
X103555843Y-101820010D01*
X103395844Y-101734489D01*
X103328255Y-101679020D01*
X103255603Y-101619397D01*
X103159173Y-101501895D01*
X103140511Y-101479156D01*
X103054990Y-101319157D01*
X103002326Y-101145548D01*
X102984544Y-100965000D01*
X103002326Y-100784452D01*
X103054990Y-100610843D01*
X103140511Y-100450844D01*
X103176271Y-100407271D01*
X103255603Y-100310603D01*
X103352271Y-100231271D01*
X103395844Y-100195511D01*
X103555843Y-100109990D01*
X103729452Y-100057326D01*
X103819655Y-100048442D01*
X103864755Y-100044000D01*
X104415245Y-100044000D01*
X104460345Y-100048442D01*
G37*
G36*
X120379499Y-99758445D02*
G01*
X120416995Y-99769820D01*
X120451554Y-99788292D01*
X120481847Y-99813153D01*
X120506708Y-99843446D01*
X120525180Y-99878005D01*
X120536555Y-99915501D01*
X120541000Y-99960638D01*
X120541000Y-100699362D01*
X120536555Y-100744499D01*
X120525180Y-100781995D01*
X120506708Y-100816554D01*
X120481847Y-100846847D01*
X120451554Y-100871708D01*
X120416995Y-100890180D01*
X120379499Y-100901555D01*
X120334362Y-100906000D01*
X119695638Y-100906000D01*
X119650501Y-100901555D01*
X119613005Y-100890180D01*
X119578446Y-100871708D01*
X119548153Y-100846847D01*
X119523292Y-100816554D01*
X119504820Y-100781995D01*
X119493445Y-100744499D01*
X119489000Y-100699362D01*
X119489000Y-99960638D01*
X119493445Y-99915501D01*
X119504820Y-99878005D01*
X119523292Y-99843446D01*
X119548153Y-99813153D01*
X119578446Y-99788292D01*
X119613005Y-99769820D01*
X119650501Y-99758445D01*
X119695638Y-99754000D01*
X120334362Y-99754000D01*
X120379499Y-99758445D01*
G37*
G36*
X132339499Y-99808445D02*
G01*
X132376995Y-99819820D01*
X132411554Y-99838292D01*
X132441847Y-99863153D01*
X132466708Y-99893446D01*
X132485180Y-99928005D01*
X132496555Y-99965501D01*
X132501000Y-100010638D01*
X132501000Y-100649362D01*
X132496555Y-100694499D01*
X132485180Y-100731995D01*
X132466708Y-100766554D01*
X132441847Y-100796847D01*
X132411554Y-100821708D01*
X132376995Y-100840180D01*
X132339499Y-100851555D01*
X132294362Y-100856000D01*
X131555638Y-100856000D01*
X131510501Y-100851555D01*
X131473005Y-100840180D01*
X131438446Y-100821708D01*
X131408153Y-100796847D01*
X131383292Y-100766554D01*
X131364820Y-100731995D01*
X131353445Y-100694499D01*
X131349000Y-100649362D01*
X131349000Y-100010638D01*
X131353445Y-99965501D01*
X131364820Y-99928005D01*
X131383292Y-99893446D01*
X131408153Y-99863153D01*
X131438446Y-99838292D01*
X131473005Y-99819820D01*
X131510501Y-99808445D01*
X131555638Y-99804000D01*
X132294362Y-99804000D01*
X132339499Y-99808445D01*
G37*
G36*
X130589499Y-99808445D02*
G01*
X130626995Y-99819820D01*
X130661554Y-99838292D01*
X130691847Y-99863153D01*
X130716708Y-99893446D01*
X130735180Y-99928005D01*
X130746555Y-99965501D01*
X130751000Y-100010638D01*
X130751000Y-100649362D01*
X130746555Y-100694499D01*
X130735180Y-100731995D01*
X130716708Y-100766554D01*
X130691847Y-100796847D01*
X130661554Y-100821708D01*
X130626995Y-100840180D01*
X130589499Y-100851555D01*
X130544362Y-100856000D01*
X129805638Y-100856000D01*
X129760501Y-100851555D01*
X129723005Y-100840180D01*
X129688446Y-100821708D01*
X129658153Y-100796847D01*
X129633292Y-100766554D01*
X129614820Y-100731995D01*
X129603445Y-100694499D01*
X129599000Y-100649362D01*
X129599000Y-100010638D01*
X129603445Y-99965501D01*
X129614820Y-99928005D01*
X129633292Y-99893446D01*
X129658153Y-99863153D01*
X129688446Y-99838292D01*
X129723005Y-99819820D01*
X129760501Y-99808445D01*
X129805638Y-99804000D01*
X130544362Y-99804000D01*
X130589499Y-99808445D01*
G37*
G36*
X128504928Y-99981764D02*
G01*
X128526009Y-99988160D01*
X128545445Y-99998548D01*
X128562476Y-100012524D01*
X128576452Y-100029555D01*
X128586840Y-100048991D01*
X128593236Y-100070072D01*
X128596000Y-100098140D01*
X128596000Y-100561860D01*
X128593236Y-100589928D01*
X128586840Y-100611009D01*
X128576452Y-100630445D01*
X128562476Y-100647476D01*
X128545445Y-100661452D01*
X128526009Y-100671840D01*
X128504928Y-100678236D01*
X128476860Y-100681000D01*
X126663140Y-100681000D01*
X126635072Y-100678236D01*
X126613991Y-100671840D01*
X126594555Y-100661452D01*
X126577524Y-100647476D01*
X126563548Y-100630445D01*
X126553160Y-100611009D01*
X126546764Y-100589928D01*
X126544000Y-100561860D01*
X126544000Y-100098140D01*
X126546764Y-100070072D01*
X126553160Y-100048991D01*
X126563548Y-100029555D01*
X126577524Y-100012524D01*
X126594555Y-99998548D01*
X126613991Y-99988160D01*
X126635072Y-99981764D01*
X126663140Y-99979000D01*
X128476860Y-99979000D01*
X128504928Y-99981764D01*
G37*
G36*
X123554928Y-99981764D02*
G01*
X123576009Y-99988160D01*
X123595445Y-99998548D01*
X123612476Y-100012524D01*
X123626452Y-100029555D01*
X123636840Y-100048991D01*
X123643236Y-100070072D01*
X123646000Y-100098140D01*
X123646000Y-100561860D01*
X123643236Y-100589928D01*
X123636840Y-100611009D01*
X123626452Y-100630445D01*
X123612476Y-100647476D01*
X123595445Y-100661452D01*
X123576009Y-100671840D01*
X123554928Y-100678236D01*
X123526860Y-100681000D01*
X121713140Y-100681000D01*
X121685072Y-100678236D01*
X121663991Y-100671840D01*
X121644555Y-100661452D01*
X121627524Y-100647476D01*
X121613548Y-100630445D01*
X121603160Y-100611009D01*
X121596764Y-100589928D01*
X121594000Y-100561860D01*
X121594000Y-100098140D01*
X121596764Y-100070072D01*
X121603160Y-100048991D01*
X121613548Y-100029555D01*
X121627524Y-100012524D01*
X121644555Y-99998548D01*
X121663991Y-99988160D01*
X121685072Y-99981764D01*
X121713140Y-99979000D01*
X123526860Y-99979000D01*
X123554928Y-99981764D01*
G37*
G36*
X114176000Y-100426000D02*
G01*
X111874000Y-100426000D01*
X111874000Y-96424000D01*
X114176000Y-96424000D01*
X114176000Y-100426000D01*
G37*
G36*
X110376000Y-100426000D02*
G01*
X108074000Y-100426000D01*
X108074000Y-96424000D01*
X110376000Y-96424000D01*
X110376000Y-100426000D01*
G37*
G36*
X150133499Y-99046445D02*
G01*
X150170995Y-99057820D01*
X150205554Y-99076292D01*
X150235847Y-99101153D01*
X150260708Y-99131446D01*
X150279180Y-99166005D01*
X150290555Y-99203501D01*
X150295000Y-99248638D01*
X150295000Y-99887362D01*
X150290555Y-99932499D01*
X150279180Y-99969995D01*
X150260708Y-100004554D01*
X150235847Y-100034847D01*
X150205554Y-100059708D01*
X150170995Y-100078180D01*
X150133499Y-100089555D01*
X150088362Y-100094000D01*
X149349638Y-100094000D01*
X149304501Y-100089555D01*
X149267005Y-100078180D01*
X149232446Y-100059708D01*
X149202153Y-100034847D01*
X149177292Y-100004554D01*
X149158820Y-99969995D01*
X149147445Y-99932499D01*
X149143000Y-99887362D01*
X149143000Y-99248638D01*
X149147445Y-99203501D01*
X149158820Y-99166005D01*
X149177292Y-99131446D01*
X149202153Y-99101153D01*
X149232446Y-99076292D01*
X149267005Y-99057820D01*
X149304501Y-99046445D01*
X149349638Y-99042000D01*
X150088362Y-99042000D01*
X150133499Y-99046445D01*
G37*
G36*
X148383499Y-99046445D02*
G01*
X148420995Y-99057820D01*
X148455554Y-99076292D01*
X148485847Y-99101153D01*
X148510708Y-99131446D01*
X148529180Y-99166005D01*
X148540555Y-99203501D01*
X148545000Y-99248638D01*
X148545000Y-99887362D01*
X148540555Y-99932499D01*
X148529180Y-99969995D01*
X148510708Y-100004554D01*
X148485847Y-100034847D01*
X148455554Y-100059708D01*
X148420995Y-100078180D01*
X148383499Y-100089555D01*
X148338362Y-100094000D01*
X147599638Y-100094000D01*
X147554501Y-100089555D01*
X147517005Y-100078180D01*
X147482446Y-100059708D01*
X147452153Y-100034847D01*
X147427292Y-100004554D01*
X147408820Y-99969995D01*
X147397445Y-99932499D01*
X147393000Y-99887362D01*
X147393000Y-99248638D01*
X147397445Y-99203501D01*
X147408820Y-99166005D01*
X147427292Y-99131446D01*
X147452153Y-99101153D01*
X147482446Y-99076292D01*
X147517005Y-99057820D01*
X147554501Y-99046445D01*
X147599638Y-99042000D01*
X148338362Y-99042000D01*
X148383499Y-99046445D01*
G37*
G36*
X187620551Y-98141000D02*
G01*
X187735548Y-98152326D01*
X187909157Y-98204990D01*
X188069156Y-98290511D01*
X188094057Y-98310947D01*
X188209397Y-98405603D01*
X188288729Y-98502271D01*
X188324489Y-98545844D01*
X188410010Y-98705843D01*
X188462674Y-98879452D01*
X188480456Y-99060000D01*
X188462674Y-99240548D01*
X188410010Y-99414157D01*
X188324489Y-99574156D01*
X188288729Y-99617729D01*
X188209397Y-99714397D01*
X188136745Y-99774020D01*
X188069156Y-99829489D01*
X187909157Y-99915010D01*
X187735548Y-99967674D01*
X187645345Y-99976558D01*
X187600245Y-99981000D01*
X187049755Y-99981000D01*
X187004655Y-99976558D01*
X186914452Y-99967674D01*
X186740843Y-99915010D01*
X186580844Y-99829489D01*
X186513255Y-99774020D01*
X186440603Y-99714397D01*
X186361271Y-99617729D01*
X186325511Y-99574156D01*
X186239990Y-99414157D01*
X186187326Y-99240548D01*
X186169544Y-99060000D01*
X186187326Y-98879452D01*
X186239990Y-98705843D01*
X186325511Y-98545844D01*
X186361271Y-98502271D01*
X186440603Y-98405603D01*
X186555943Y-98310947D01*
X186580844Y-98290511D01*
X186740843Y-98204990D01*
X186914452Y-98152326D01*
X187029449Y-98141000D01*
X187049755Y-98139000D01*
X187600245Y-98139000D01*
X187620551Y-98141000D01*
G37*
G36*
X196510551Y-98141000D02*
G01*
X196625548Y-98152326D01*
X196799157Y-98204990D01*
X196959156Y-98290511D01*
X196984057Y-98310947D01*
X197099397Y-98405603D01*
X197178729Y-98502271D01*
X197214489Y-98545844D01*
X197300010Y-98705843D01*
X197352674Y-98879452D01*
X197370456Y-99060000D01*
X197352674Y-99240548D01*
X197300010Y-99414157D01*
X197214489Y-99574156D01*
X197178729Y-99617729D01*
X197099397Y-99714397D01*
X197026745Y-99774020D01*
X196959156Y-99829489D01*
X196799157Y-99915010D01*
X196625548Y-99967674D01*
X196535345Y-99976558D01*
X196490245Y-99981000D01*
X195939755Y-99981000D01*
X195894655Y-99976558D01*
X195804452Y-99967674D01*
X195630843Y-99915010D01*
X195470844Y-99829489D01*
X195403255Y-99774020D01*
X195330603Y-99714397D01*
X195251271Y-99617729D01*
X195215511Y-99574156D01*
X195129990Y-99414157D01*
X195077326Y-99240548D01*
X195059544Y-99060000D01*
X195077326Y-98879452D01*
X195129990Y-98705843D01*
X195215511Y-98545844D01*
X195251271Y-98502271D01*
X195330603Y-98405603D01*
X195445943Y-98310947D01*
X195470844Y-98290511D01*
X195630843Y-98204990D01*
X195804452Y-98152326D01*
X195919449Y-98141000D01*
X195939755Y-98139000D01*
X196490245Y-98139000D01*
X196510551Y-98141000D01*
G37*
G36*
X163781000Y-99716000D02*
G01*
X157529000Y-99716000D01*
X157529000Y-98014000D01*
X163781000Y-98014000D01*
X163781000Y-99716000D01*
G37*
G36*
X128504928Y-98711764D02*
G01*
X128526009Y-98718160D01*
X128545445Y-98728548D01*
X128562476Y-98742524D01*
X128576452Y-98759555D01*
X128586840Y-98778991D01*
X128593236Y-98800072D01*
X128596000Y-98828140D01*
X128596000Y-99291860D01*
X128593236Y-99319928D01*
X128586840Y-99341009D01*
X128576452Y-99360445D01*
X128562476Y-99377476D01*
X128545445Y-99391452D01*
X128526009Y-99401840D01*
X128504928Y-99408236D01*
X128476860Y-99411000D01*
X126663140Y-99411000D01*
X126635072Y-99408236D01*
X126613991Y-99401840D01*
X126594555Y-99391452D01*
X126577524Y-99377476D01*
X126563548Y-99360445D01*
X126553160Y-99341009D01*
X126546764Y-99319928D01*
X126544000Y-99291860D01*
X126544000Y-98828140D01*
X126546764Y-98800072D01*
X126553160Y-98778991D01*
X126563548Y-98759555D01*
X126577524Y-98742524D01*
X126594555Y-98728548D01*
X126613991Y-98718160D01*
X126635072Y-98711764D01*
X126663140Y-98709000D01*
X128476860Y-98709000D01*
X128504928Y-98711764D01*
G37*
G36*
X123554928Y-98711764D02*
G01*
X123576009Y-98718160D01*
X123595445Y-98728548D01*
X123612476Y-98742524D01*
X123626452Y-98759555D01*
X123636840Y-98778991D01*
X123643236Y-98800072D01*
X123646000Y-98828140D01*
X123646000Y-99291860D01*
X123643236Y-99319928D01*
X123636840Y-99341009D01*
X123626452Y-99360445D01*
X123612476Y-99377476D01*
X123595445Y-99391452D01*
X123576009Y-99401840D01*
X123554928Y-99408236D01*
X123526860Y-99411000D01*
X121713140Y-99411000D01*
X121685072Y-99408236D01*
X121663991Y-99401840D01*
X121644555Y-99391452D01*
X121627524Y-99377476D01*
X121613548Y-99360445D01*
X121603160Y-99341009D01*
X121596764Y-99319928D01*
X121594000Y-99291860D01*
X121594000Y-98828140D01*
X121596764Y-98800072D01*
X121603160Y-98778991D01*
X121613548Y-98759555D01*
X121627524Y-98742524D01*
X121644555Y-98728548D01*
X121663991Y-98718160D01*
X121685072Y-98711764D01*
X121713140Y-98709000D01*
X123526860Y-98709000D01*
X123554928Y-98711764D01*
G37*
G36*
X104460345Y-97508442D02*
G01*
X104550548Y-97517326D01*
X104724157Y-97569990D01*
X104884156Y-97655511D01*
X104921896Y-97686484D01*
X105024397Y-97770603D01*
X105103729Y-97867271D01*
X105139489Y-97910844D01*
X105225010Y-98070843D01*
X105277674Y-98244452D01*
X105295456Y-98425000D01*
X105277674Y-98605548D01*
X105225010Y-98779157D01*
X105139489Y-98939156D01*
X105103729Y-98982729D01*
X105024397Y-99079397D01*
X104927729Y-99158729D01*
X104884156Y-99194489D01*
X104724157Y-99280010D01*
X104550548Y-99332674D01*
X104460345Y-99341558D01*
X104415245Y-99346000D01*
X103864755Y-99346000D01*
X103819655Y-99341558D01*
X103729452Y-99332674D01*
X103555843Y-99280010D01*
X103395844Y-99194489D01*
X103352271Y-99158729D01*
X103255603Y-99079397D01*
X103176271Y-98982729D01*
X103140511Y-98939156D01*
X103054990Y-98779157D01*
X103002326Y-98605548D01*
X102984544Y-98425000D01*
X103002326Y-98244452D01*
X103054990Y-98070843D01*
X103140511Y-97910844D01*
X103176271Y-97867271D01*
X103255603Y-97770603D01*
X103358104Y-97686484D01*
X103395844Y-97655511D01*
X103555843Y-97569990D01*
X103729452Y-97517326D01*
X103819655Y-97508442D01*
X103864755Y-97504000D01*
X104415245Y-97504000D01*
X104460345Y-97508442D01*
G37*
G36*
X118679499Y-97903445D02*
G01*
X118716995Y-97914820D01*
X118751554Y-97933292D01*
X118781847Y-97958153D01*
X118806708Y-97988446D01*
X118825180Y-98023005D01*
X118836555Y-98060501D01*
X118841000Y-98105638D01*
X118841000Y-98744362D01*
X118836555Y-98789499D01*
X118825180Y-98826995D01*
X118806708Y-98861554D01*
X118781847Y-98891847D01*
X118751554Y-98916708D01*
X118716995Y-98935180D01*
X118679499Y-98946555D01*
X118634362Y-98951000D01*
X117895638Y-98951000D01*
X117850501Y-98946555D01*
X117813005Y-98935180D01*
X117778446Y-98916708D01*
X117748153Y-98891847D01*
X117723292Y-98861554D01*
X117704820Y-98826995D01*
X117693445Y-98789499D01*
X117689000Y-98744362D01*
X117689000Y-98105638D01*
X117693445Y-98060501D01*
X117704820Y-98023005D01*
X117723292Y-97988446D01*
X117748153Y-97958153D01*
X117778446Y-97933292D01*
X117813005Y-97914820D01*
X117850501Y-97903445D01*
X117895638Y-97899000D01*
X118634362Y-97899000D01*
X118679499Y-97903445D01*
G37*
G36*
X120429499Y-97903445D02*
G01*
X120466995Y-97914820D01*
X120501554Y-97933292D01*
X120531847Y-97958153D01*
X120556708Y-97988446D01*
X120575180Y-98023005D01*
X120586555Y-98060501D01*
X120591000Y-98105638D01*
X120591000Y-98744362D01*
X120586555Y-98789499D01*
X120575180Y-98826995D01*
X120556708Y-98861554D01*
X120531847Y-98891847D01*
X120501554Y-98916708D01*
X120466995Y-98935180D01*
X120429499Y-98946555D01*
X120384362Y-98951000D01*
X119645638Y-98951000D01*
X119600501Y-98946555D01*
X119563005Y-98935180D01*
X119528446Y-98916708D01*
X119498153Y-98891847D01*
X119473292Y-98861554D01*
X119454820Y-98826995D01*
X119443445Y-98789499D01*
X119439000Y-98744362D01*
X119439000Y-98105638D01*
X119443445Y-98060501D01*
X119454820Y-98023005D01*
X119473292Y-97988446D01*
X119498153Y-97958153D01*
X119528446Y-97933292D01*
X119563005Y-97914820D01*
X119600501Y-97903445D01*
X119645638Y-97899000D01*
X120384362Y-97899000D01*
X120429499Y-97903445D01*
G37*
G36*
X130589499Y-97903445D02*
G01*
X130626995Y-97914820D01*
X130661554Y-97933292D01*
X130691847Y-97958153D01*
X130716708Y-97988446D01*
X130735180Y-98023005D01*
X130746555Y-98060501D01*
X130751000Y-98105638D01*
X130751000Y-98744362D01*
X130746555Y-98789499D01*
X130735180Y-98826995D01*
X130716708Y-98861554D01*
X130691847Y-98891847D01*
X130661554Y-98916708D01*
X130626995Y-98935180D01*
X130589499Y-98946555D01*
X130544362Y-98951000D01*
X129805638Y-98951000D01*
X129760501Y-98946555D01*
X129723005Y-98935180D01*
X129688446Y-98916708D01*
X129658153Y-98891847D01*
X129633292Y-98861554D01*
X129614820Y-98826995D01*
X129603445Y-98789499D01*
X129599000Y-98744362D01*
X129599000Y-98105638D01*
X129603445Y-98060501D01*
X129614820Y-98023005D01*
X129633292Y-97988446D01*
X129658153Y-97958153D01*
X129688446Y-97933292D01*
X129723005Y-97914820D01*
X129760501Y-97903445D01*
X129805638Y-97899000D01*
X130544362Y-97899000D01*
X130589499Y-97903445D01*
G37*
G36*
X132339499Y-97903445D02*
G01*
X132376995Y-97914820D01*
X132411554Y-97933292D01*
X132441847Y-97958153D01*
X132466708Y-97988446D01*
X132485180Y-98023005D01*
X132496555Y-98060501D01*
X132501000Y-98105638D01*
X132501000Y-98744362D01*
X132496555Y-98789499D01*
X132485180Y-98826995D01*
X132466708Y-98861554D01*
X132441847Y-98891847D01*
X132411554Y-98916708D01*
X132376995Y-98935180D01*
X132339499Y-98946555D01*
X132294362Y-98951000D01*
X131555638Y-98951000D01*
X131510501Y-98946555D01*
X131473005Y-98935180D01*
X131438446Y-98916708D01*
X131408153Y-98891847D01*
X131383292Y-98861554D01*
X131364820Y-98826995D01*
X131353445Y-98789499D01*
X131349000Y-98744362D01*
X131349000Y-98105638D01*
X131353445Y-98060501D01*
X131364820Y-98023005D01*
X131383292Y-97988446D01*
X131408153Y-97958153D01*
X131438446Y-97933292D01*
X131473005Y-97914820D01*
X131510501Y-97903445D01*
X131555638Y-97899000D01*
X132294362Y-97899000D01*
X132339499Y-97903445D01*
G37*
G36*
X145721564Y-96779389D02*
G01*
X145912833Y-96858615D01*
X145912835Y-96858616D01*
X146084973Y-96973635D01*
X146231365Y-97120027D01*
X146340942Y-97284020D01*
X146346385Y-97292167D01*
X146425611Y-97483436D01*
X146466000Y-97686484D01*
X146466000Y-97893516D01*
X146425611Y-98096564D01*
X146366625Y-98238969D01*
X146346384Y-98287835D01*
X146231365Y-98459973D01*
X146084973Y-98606365D01*
X145912835Y-98721384D01*
X145912834Y-98721385D01*
X145912833Y-98721385D01*
X145721564Y-98800611D01*
X145518516Y-98841000D01*
X145311484Y-98841000D01*
X145108436Y-98800611D01*
X144917167Y-98721385D01*
X144917166Y-98721385D01*
X144917165Y-98721384D01*
X144745027Y-98606365D01*
X144598635Y-98459973D01*
X144483616Y-98287835D01*
X144463375Y-98238969D01*
X144404389Y-98096564D01*
X144364000Y-97893516D01*
X144364000Y-97686484D01*
X144404389Y-97483436D01*
X144483615Y-97292167D01*
X144489059Y-97284020D01*
X144598635Y-97120027D01*
X144745027Y-96973635D01*
X144917165Y-96858616D01*
X144917167Y-96858615D01*
X145108436Y-96779389D01*
X145311484Y-96739000D01*
X145518516Y-96739000D01*
X145721564Y-96779389D01*
G37*
G36*
X139221564Y-96779389D02*
G01*
X139412833Y-96858615D01*
X139412835Y-96858616D01*
X139584973Y-96973635D01*
X139731365Y-97120027D01*
X139840942Y-97284020D01*
X139846385Y-97292167D01*
X139925611Y-97483436D01*
X139966000Y-97686484D01*
X139966000Y-97893516D01*
X139925611Y-98096564D01*
X139866625Y-98238969D01*
X139846384Y-98287835D01*
X139731365Y-98459973D01*
X139584973Y-98606365D01*
X139412835Y-98721384D01*
X139412834Y-98721385D01*
X139412833Y-98721385D01*
X139221564Y-98800611D01*
X139018516Y-98841000D01*
X138811484Y-98841000D01*
X138608436Y-98800611D01*
X138417167Y-98721385D01*
X138417166Y-98721385D01*
X138417165Y-98721384D01*
X138245027Y-98606365D01*
X138098635Y-98459973D01*
X137983616Y-98287835D01*
X137963375Y-98238969D01*
X137904389Y-98096564D01*
X137864000Y-97893516D01*
X137864000Y-97686484D01*
X137904389Y-97483436D01*
X137983615Y-97292167D01*
X137989059Y-97284020D01*
X138098635Y-97120027D01*
X138245027Y-96973635D01*
X138417165Y-96858616D01*
X138417167Y-96858615D01*
X138608436Y-96779389D01*
X138811484Y-96739000D01*
X139018516Y-96739000D01*
X139221564Y-96779389D01*
G37*
G36*
X148369499Y-97268445D02*
G01*
X148406995Y-97279820D01*
X148441554Y-97298292D01*
X148471847Y-97323153D01*
X148496708Y-97353446D01*
X148515180Y-97388005D01*
X148526555Y-97425501D01*
X148531000Y-97470638D01*
X148531000Y-98109362D01*
X148526555Y-98154499D01*
X148515180Y-98191995D01*
X148496708Y-98226554D01*
X148471847Y-98256847D01*
X148441554Y-98281708D01*
X148406995Y-98300180D01*
X148369499Y-98311555D01*
X148324362Y-98316000D01*
X147585638Y-98316000D01*
X147540501Y-98311555D01*
X147503005Y-98300180D01*
X147468446Y-98281708D01*
X147438153Y-98256847D01*
X147413292Y-98226554D01*
X147394820Y-98191995D01*
X147383445Y-98154499D01*
X147379000Y-98109362D01*
X147379000Y-97470638D01*
X147383445Y-97425501D01*
X147394820Y-97388005D01*
X147413292Y-97353446D01*
X147438153Y-97323153D01*
X147468446Y-97298292D01*
X147503005Y-97279820D01*
X147540501Y-97268445D01*
X147585638Y-97264000D01*
X148324362Y-97264000D01*
X148369499Y-97268445D01*
G37*
G36*
X150119499Y-97268445D02*
G01*
X150156995Y-97279820D01*
X150191554Y-97298292D01*
X150221847Y-97323153D01*
X150246708Y-97353446D01*
X150265180Y-97388005D01*
X150276555Y-97425501D01*
X150281000Y-97470638D01*
X150281000Y-98109362D01*
X150276555Y-98154499D01*
X150265180Y-98191995D01*
X150246708Y-98226554D01*
X150221847Y-98256847D01*
X150191554Y-98281708D01*
X150156995Y-98300180D01*
X150119499Y-98311555D01*
X150074362Y-98316000D01*
X149335638Y-98316000D01*
X149290501Y-98311555D01*
X149253005Y-98300180D01*
X149218446Y-98281708D01*
X149188153Y-98256847D01*
X149163292Y-98226554D01*
X149144820Y-98191995D01*
X149133445Y-98154499D01*
X149129000Y-98109362D01*
X149129000Y-97470638D01*
X149133445Y-97425501D01*
X149144820Y-97388005D01*
X149163292Y-97353446D01*
X149188153Y-97323153D01*
X149218446Y-97298292D01*
X149253005Y-97279820D01*
X149290501Y-97268445D01*
X149335638Y-97264000D01*
X150074362Y-97264000D01*
X150119499Y-97268445D01*
G37*
G36*
X123554928Y-97441764D02*
G01*
X123576009Y-97448160D01*
X123595445Y-97458548D01*
X123612476Y-97472524D01*
X123626452Y-97489555D01*
X123636840Y-97508991D01*
X123643236Y-97530072D01*
X123646000Y-97558140D01*
X123646000Y-98021860D01*
X123643236Y-98049928D01*
X123636840Y-98071009D01*
X123626452Y-98090445D01*
X123612476Y-98107476D01*
X123595445Y-98121452D01*
X123576009Y-98131840D01*
X123554928Y-98138236D01*
X123526860Y-98141000D01*
X121713140Y-98141000D01*
X121685072Y-98138236D01*
X121663991Y-98131840D01*
X121644555Y-98121452D01*
X121627524Y-98107476D01*
X121613548Y-98090445D01*
X121603160Y-98071009D01*
X121596764Y-98049928D01*
X121594000Y-98021860D01*
X121594000Y-97558140D01*
X121596764Y-97530072D01*
X121603160Y-97508991D01*
X121613548Y-97489555D01*
X121627524Y-97472524D01*
X121644555Y-97458548D01*
X121663991Y-97448160D01*
X121685072Y-97441764D01*
X121713140Y-97439000D01*
X123526860Y-97439000D01*
X123554928Y-97441764D01*
G37*
G36*
X128504928Y-97441764D02*
G01*
X128526009Y-97448160D01*
X128545445Y-97458548D01*
X128562476Y-97472524D01*
X128576452Y-97489555D01*
X128586840Y-97508991D01*
X128593236Y-97530072D01*
X128596000Y-97558140D01*
X128596000Y-98021860D01*
X128593236Y-98049928D01*
X128586840Y-98071009D01*
X128576452Y-98090445D01*
X128562476Y-98107476D01*
X128545445Y-98121452D01*
X128526009Y-98131840D01*
X128504928Y-98138236D01*
X128476860Y-98141000D01*
X126663140Y-98141000D01*
X126635072Y-98138236D01*
X126613991Y-98131840D01*
X126594555Y-98121452D01*
X126577524Y-98107476D01*
X126563548Y-98090445D01*
X126553160Y-98071009D01*
X126546764Y-98049928D01*
X126544000Y-98021860D01*
X126544000Y-97558140D01*
X126546764Y-97530072D01*
X126553160Y-97508991D01*
X126563548Y-97489555D01*
X126577524Y-97472524D01*
X126594555Y-97458548D01*
X126613991Y-97448160D01*
X126635072Y-97441764D01*
X126663140Y-97439000D01*
X128476860Y-97439000D01*
X128504928Y-97441764D01*
G37*
G36*
X165756000Y-97741000D02*
G01*
X164054000Y-97741000D01*
X164054000Y-91489000D01*
X165756000Y-91489000D01*
X165756000Y-97741000D01*
G37*
G36*
X157256000Y-97741000D02*
G01*
X155554000Y-97741000D01*
X155554000Y-91489000D01*
X157256000Y-91489000D01*
X157256000Y-97741000D01*
G37*
G36*
X196529690Y-95602885D02*
G01*
X196625548Y-95612326D01*
X196799157Y-95664990D01*
X196959156Y-95750511D01*
X197002729Y-95786271D01*
X197099397Y-95865603D01*
X197178729Y-95962271D01*
X197214489Y-96005844D01*
X197300010Y-96165843D01*
X197352674Y-96339452D01*
X197370456Y-96520000D01*
X197352674Y-96700548D01*
X197300010Y-96874157D01*
X197214489Y-97034156D01*
X197178729Y-97077729D01*
X197099397Y-97174397D01*
X197002729Y-97253729D01*
X196959156Y-97289489D01*
X196799157Y-97375010D01*
X196625548Y-97427674D01*
X196535345Y-97436558D01*
X196490245Y-97441000D01*
X195939755Y-97441000D01*
X195894655Y-97436558D01*
X195804452Y-97427674D01*
X195630843Y-97375010D01*
X195470844Y-97289489D01*
X195427271Y-97253729D01*
X195330603Y-97174397D01*
X195251271Y-97077729D01*
X195215511Y-97034156D01*
X195129990Y-96874157D01*
X195077326Y-96700548D01*
X195059544Y-96520000D01*
X195077326Y-96339452D01*
X195129990Y-96165843D01*
X195215511Y-96005844D01*
X195251271Y-95962271D01*
X195330603Y-95865603D01*
X195427271Y-95786271D01*
X195470844Y-95750511D01*
X195630843Y-95664990D01*
X195804452Y-95612326D01*
X195900310Y-95602885D01*
X195939755Y-95599000D01*
X196490245Y-95599000D01*
X196529690Y-95602885D01*
G37*
G36*
X187639690Y-95602885D02*
G01*
X187735548Y-95612326D01*
X187909157Y-95664990D01*
X188069156Y-95750511D01*
X188112729Y-95786271D01*
X188209397Y-95865603D01*
X188288729Y-95962271D01*
X188324489Y-96005844D01*
X188410010Y-96165843D01*
X188462674Y-96339452D01*
X188480456Y-96520000D01*
X188462674Y-96700548D01*
X188410010Y-96874157D01*
X188324489Y-97034156D01*
X188288729Y-97077729D01*
X188209397Y-97174397D01*
X188112729Y-97253729D01*
X188069156Y-97289489D01*
X187909157Y-97375010D01*
X187735548Y-97427674D01*
X187645345Y-97436558D01*
X187600245Y-97441000D01*
X187049755Y-97441000D01*
X187004655Y-97436558D01*
X186914452Y-97427674D01*
X186740843Y-97375010D01*
X186580844Y-97289489D01*
X186537271Y-97253729D01*
X186440603Y-97174397D01*
X186361271Y-97077729D01*
X186325511Y-97034156D01*
X186239990Y-96874157D01*
X186187326Y-96700548D01*
X186169544Y-96520000D01*
X186187326Y-96339452D01*
X186239990Y-96165843D01*
X186325511Y-96005844D01*
X186361271Y-95962271D01*
X186440603Y-95865603D01*
X186537271Y-95786271D01*
X186580844Y-95750511D01*
X186740843Y-95664990D01*
X186914452Y-95612326D01*
X187010310Y-95602885D01*
X187049755Y-95599000D01*
X187600245Y-95599000D01*
X187639690Y-95602885D01*
G37*
G36*
X130589499Y-95998445D02*
G01*
X130626995Y-96009820D01*
X130661554Y-96028292D01*
X130691847Y-96053153D01*
X130716708Y-96083446D01*
X130735180Y-96118005D01*
X130746555Y-96155501D01*
X130751000Y-96200638D01*
X130751000Y-96839362D01*
X130746555Y-96884499D01*
X130735180Y-96921995D01*
X130716708Y-96956554D01*
X130691847Y-96986847D01*
X130661554Y-97011708D01*
X130626995Y-97030180D01*
X130589499Y-97041555D01*
X130544362Y-97046000D01*
X129805638Y-97046000D01*
X129760501Y-97041555D01*
X129723005Y-97030180D01*
X129688446Y-97011708D01*
X129658153Y-96986847D01*
X129633292Y-96956554D01*
X129614820Y-96921995D01*
X129603445Y-96884499D01*
X129599000Y-96839362D01*
X129599000Y-96200638D01*
X129603445Y-96155501D01*
X129614820Y-96118005D01*
X129633292Y-96083446D01*
X129658153Y-96053153D01*
X129688446Y-96028292D01*
X129723005Y-96009820D01*
X129760501Y-95998445D01*
X129805638Y-95994000D01*
X130544362Y-95994000D01*
X130589499Y-95998445D01*
G37*
G36*
X118679499Y-95998445D02*
G01*
X118716995Y-96009820D01*
X118751554Y-96028292D01*
X118781847Y-96053153D01*
X118806708Y-96083446D01*
X118825180Y-96118005D01*
X118836555Y-96155501D01*
X118841000Y-96200638D01*
X118841000Y-96839362D01*
X118836555Y-96884499D01*
X118825180Y-96921995D01*
X118806708Y-96956554D01*
X118781847Y-96986847D01*
X118751554Y-97011708D01*
X118716995Y-97030180D01*
X118679499Y-97041555D01*
X118634362Y-97046000D01*
X117895638Y-97046000D01*
X117850501Y-97041555D01*
X117813005Y-97030180D01*
X117778446Y-97011708D01*
X117748153Y-96986847D01*
X117723292Y-96956554D01*
X117704820Y-96921995D01*
X117693445Y-96884499D01*
X117689000Y-96839362D01*
X117689000Y-96200638D01*
X117693445Y-96155501D01*
X117704820Y-96118005D01*
X117723292Y-96083446D01*
X117748153Y-96053153D01*
X117778446Y-96028292D01*
X117813005Y-96009820D01*
X117850501Y-95998445D01*
X117895638Y-95994000D01*
X118634362Y-95994000D01*
X118679499Y-95998445D01*
G37*
G36*
X120429499Y-95998445D02*
G01*
X120466995Y-96009820D01*
X120501554Y-96028292D01*
X120531847Y-96053153D01*
X120556708Y-96083446D01*
X120575180Y-96118005D01*
X120586555Y-96155501D01*
X120591000Y-96200638D01*
X120591000Y-96839362D01*
X120586555Y-96884499D01*
X120575180Y-96921995D01*
X120556708Y-96956554D01*
X120531847Y-96986847D01*
X120501554Y-97011708D01*
X120466995Y-97030180D01*
X120429499Y-97041555D01*
X120384362Y-97046000D01*
X119645638Y-97046000D01*
X119600501Y-97041555D01*
X119563005Y-97030180D01*
X119528446Y-97011708D01*
X119498153Y-96986847D01*
X119473292Y-96956554D01*
X119454820Y-96921995D01*
X119443445Y-96884499D01*
X119439000Y-96839362D01*
X119439000Y-96200638D01*
X119443445Y-96155501D01*
X119454820Y-96118005D01*
X119473292Y-96083446D01*
X119498153Y-96053153D01*
X119528446Y-96028292D01*
X119563005Y-96009820D01*
X119600501Y-95998445D01*
X119645638Y-95994000D01*
X120384362Y-95994000D01*
X120429499Y-95998445D01*
G37*
G36*
X132339499Y-95998445D02*
G01*
X132376995Y-96009820D01*
X132411554Y-96028292D01*
X132441847Y-96053153D01*
X132466708Y-96083446D01*
X132485180Y-96118005D01*
X132496555Y-96155501D01*
X132501000Y-96200638D01*
X132501000Y-96839362D01*
X132496555Y-96884499D01*
X132485180Y-96921995D01*
X132466708Y-96956554D01*
X132441847Y-96986847D01*
X132411554Y-97011708D01*
X132376995Y-97030180D01*
X132339499Y-97041555D01*
X132294362Y-97046000D01*
X131555638Y-97046000D01*
X131510501Y-97041555D01*
X131473005Y-97030180D01*
X131438446Y-97011708D01*
X131408153Y-96986847D01*
X131383292Y-96956554D01*
X131364820Y-96921995D01*
X131353445Y-96884499D01*
X131349000Y-96839362D01*
X131349000Y-96200638D01*
X131353445Y-96155501D01*
X131364820Y-96118005D01*
X131383292Y-96083446D01*
X131408153Y-96053153D01*
X131438446Y-96028292D01*
X131473005Y-96009820D01*
X131510501Y-95998445D01*
X131555638Y-95994000D01*
X132294362Y-95994000D01*
X132339499Y-95998445D01*
G37*
G36*
X123554928Y-96171764D02*
G01*
X123576009Y-96178160D01*
X123595445Y-96188548D01*
X123612476Y-96202524D01*
X123626452Y-96219555D01*
X123636840Y-96238991D01*
X123643236Y-96260072D01*
X123646000Y-96288140D01*
X123646000Y-96751860D01*
X123643236Y-96779928D01*
X123636840Y-96801009D01*
X123626452Y-96820445D01*
X123612476Y-96837476D01*
X123595445Y-96851452D01*
X123576009Y-96861840D01*
X123554928Y-96868236D01*
X123526860Y-96871000D01*
X121713140Y-96871000D01*
X121685072Y-96868236D01*
X121663991Y-96861840D01*
X121644555Y-96851452D01*
X121627524Y-96837476D01*
X121613548Y-96820445D01*
X121603160Y-96801009D01*
X121596764Y-96779928D01*
X121594000Y-96751860D01*
X121594000Y-96288140D01*
X121596764Y-96260072D01*
X121603160Y-96238991D01*
X121613548Y-96219555D01*
X121627524Y-96202524D01*
X121644555Y-96188548D01*
X121663991Y-96178160D01*
X121685072Y-96171764D01*
X121713140Y-96169000D01*
X123526860Y-96169000D01*
X123554928Y-96171764D01*
G37*
G36*
X128504928Y-96171764D02*
G01*
X128526009Y-96178160D01*
X128545445Y-96188548D01*
X128562476Y-96202524D01*
X128576452Y-96219555D01*
X128586840Y-96238991D01*
X128593236Y-96260072D01*
X128596000Y-96288140D01*
X128596000Y-96751860D01*
X128593236Y-96779928D01*
X128586840Y-96801009D01*
X128576452Y-96820445D01*
X128562476Y-96837476D01*
X128545445Y-96851452D01*
X128526009Y-96861840D01*
X128504928Y-96868236D01*
X128476860Y-96871000D01*
X126663140Y-96871000D01*
X126635072Y-96868236D01*
X126613991Y-96861840D01*
X126594555Y-96851452D01*
X126577524Y-96837476D01*
X126563548Y-96820445D01*
X126553160Y-96801009D01*
X126546764Y-96779928D01*
X126544000Y-96751860D01*
X126544000Y-96288140D01*
X126546764Y-96260072D01*
X126553160Y-96238991D01*
X126563548Y-96219555D01*
X126577524Y-96202524D01*
X126594555Y-96188548D01*
X126613991Y-96178160D01*
X126635072Y-96171764D01*
X126663140Y-96169000D01*
X128476860Y-96169000D01*
X128504928Y-96171764D01*
G37*
G36*
X104460345Y-94968442D02*
G01*
X104550548Y-94977326D01*
X104724157Y-95029990D01*
X104884156Y-95115511D01*
X104927729Y-95151271D01*
X105024397Y-95230603D01*
X105094070Y-95315501D01*
X105139489Y-95370844D01*
X105225010Y-95530843D01*
X105277674Y-95704452D01*
X105295456Y-95885000D01*
X105277674Y-96065548D01*
X105225010Y-96239157D01*
X105139489Y-96399156D01*
X105119100Y-96424000D01*
X105024397Y-96539397D01*
X104927729Y-96618729D01*
X104884156Y-96654489D01*
X104724157Y-96740010D01*
X104550548Y-96792674D01*
X104460345Y-96801558D01*
X104415245Y-96806000D01*
X103864755Y-96806000D01*
X103819655Y-96801558D01*
X103729452Y-96792674D01*
X103555843Y-96740010D01*
X103395844Y-96654489D01*
X103352271Y-96618729D01*
X103255603Y-96539397D01*
X103160900Y-96424000D01*
X103140511Y-96399156D01*
X103054990Y-96239157D01*
X103002326Y-96065548D01*
X102984544Y-95885000D01*
X103002326Y-95704452D01*
X103054990Y-95530843D01*
X103140511Y-95370844D01*
X103185930Y-95315501D01*
X103255603Y-95230603D01*
X103352271Y-95151271D01*
X103395844Y-95115511D01*
X103555843Y-95029990D01*
X103729452Y-94977326D01*
X103819655Y-94968442D01*
X103864755Y-94964000D01*
X104415245Y-94964000D01*
X104460345Y-94968442D01*
G37*
G36*
X148369499Y-95490445D02*
G01*
X148406995Y-95501820D01*
X148441554Y-95520292D01*
X148471847Y-95545153D01*
X148496708Y-95575446D01*
X148515180Y-95610005D01*
X148526555Y-95647501D01*
X148531000Y-95692638D01*
X148531000Y-96331362D01*
X148526555Y-96376499D01*
X148515180Y-96413995D01*
X148496708Y-96448554D01*
X148471847Y-96478847D01*
X148441554Y-96503708D01*
X148406995Y-96522180D01*
X148369499Y-96533555D01*
X148324362Y-96538000D01*
X147585638Y-96538000D01*
X147540501Y-96533555D01*
X147503005Y-96522180D01*
X147468446Y-96503708D01*
X147438153Y-96478847D01*
X147413292Y-96448554D01*
X147394820Y-96413995D01*
X147383445Y-96376499D01*
X147379000Y-96331362D01*
X147379000Y-95692638D01*
X147383445Y-95647501D01*
X147394820Y-95610005D01*
X147413292Y-95575446D01*
X147438153Y-95545153D01*
X147468446Y-95520292D01*
X147503005Y-95501820D01*
X147540501Y-95490445D01*
X147585638Y-95486000D01*
X148324362Y-95486000D01*
X148369499Y-95490445D01*
G37*
G36*
X150119499Y-95490445D02*
G01*
X150156995Y-95501820D01*
X150191554Y-95520292D01*
X150221847Y-95545153D01*
X150246708Y-95575446D01*
X150265180Y-95610005D01*
X150276555Y-95647501D01*
X150281000Y-95692638D01*
X150281000Y-96331362D01*
X150276555Y-96376499D01*
X150265180Y-96413995D01*
X150246708Y-96448554D01*
X150221847Y-96478847D01*
X150191554Y-96503708D01*
X150156995Y-96522180D01*
X150119499Y-96533555D01*
X150074362Y-96538000D01*
X149335638Y-96538000D01*
X149290501Y-96533555D01*
X149253005Y-96522180D01*
X149218446Y-96503708D01*
X149188153Y-96478847D01*
X149163292Y-96448554D01*
X149144820Y-96413995D01*
X149133445Y-96376499D01*
X149129000Y-96331362D01*
X149129000Y-95692638D01*
X149133445Y-95647501D01*
X149144820Y-95610005D01*
X149163292Y-95575446D01*
X149188153Y-95545153D01*
X149218446Y-95520292D01*
X149253005Y-95501820D01*
X149290501Y-95490445D01*
X149335638Y-95486000D01*
X150074362Y-95486000D01*
X150119499Y-95490445D01*
G37*
G36*
X169909499Y-95313445D02*
G01*
X169946995Y-95324820D01*
X169981554Y-95343292D01*
X170011847Y-95368153D01*
X170036708Y-95398446D01*
X170055180Y-95433005D01*
X170066555Y-95470501D01*
X170071000Y-95515638D01*
X170071000Y-96254362D01*
X170066555Y-96299499D01*
X170055180Y-96336995D01*
X170036708Y-96371554D01*
X170011847Y-96401847D01*
X169981554Y-96426708D01*
X169946995Y-96445180D01*
X169909499Y-96456555D01*
X169864362Y-96461000D01*
X169225638Y-96461000D01*
X169180501Y-96456555D01*
X169143005Y-96445180D01*
X169108446Y-96426708D01*
X169078153Y-96401847D01*
X169053292Y-96371554D01*
X169034820Y-96336995D01*
X169023445Y-96299499D01*
X169019000Y-96254362D01*
X169019000Y-95515638D01*
X169023445Y-95470501D01*
X169034820Y-95433005D01*
X169053292Y-95398446D01*
X169078153Y-95368153D01*
X169108446Y-95343292D01*
X169143005Y-95324820D01*
X169180501Y-95313445D01*
X169225638Y-95309000D01*
X169864362Y-95309000D01*
X169909499Y-95313445D01*
G37*
G36*
X168004499Y-95313445D02*
G01*
X168041995Y-95324820D01*
X168076554Y-95343292D01*
X168106847Y-95368153D01*
X168131708Y-95398446D01*
X168150180Y-95433005D01*
X168161555Y-95470501D01*
X168166000Y-95515638D01*
X168166000Y-96254362D01*
X168161555Y-96299499D01*
X168150180Y-96336995D01*
X168131708Y-96371554D01*
X168106847Y-96401847D01*
X168076554Y-96426708D01*
X168041995Y-96445180D01*
X168004499Y-96456555D01*
X167959362Y-96461000D01*
X167320638Y-96461000D01*
X167275501Y-96456555D01*
X167238005Y-96445180D01*
X167203446Y-96426708D01*
X167173153Y-96401847D01*
X167148292Y-96371554D01*
X167129820Y-96336995D01*
X167118445Y-96299499D01*
X167114000Y-96254362D01*
X167114000Y-95515638D01*
X167118445Y-95470501D01*
X167129820Y-95433005D01*
X167148292Y-95398446D01*
X167173153Y-95368153D01*
X167203446Y-95343292D01*
X167238005Y-95324820D01*
X167275501Y-95313445D01*
X167320638Y-95309000D01*
X167959362Y-95309000D01*
X168004499Y-95313445D01*
G37*
G36*
X176259499Y-95158445D02*
G01*
X176296995Y-95169820D01*
X176331554Y-95188292D01*
X176361847Y-95213153D01*
X176386708Y-95243446D01*
X176405180Y-95278005D01*
X176416555Y-95315501D01*
X176421000Y-95360638D01*
X176421000Y-96099362D01*
X176416555Y-96144499D01*
X176405180Y-96181995D01*
X176386708Y-96216554D01*
X176361847Y-96246847D01*
X176331554Y-96271708D01*
X176296995Y-96290180D01*
X176259499Y-96301555D01*
X176214362Y-96306000D01*
X175575638Y-96306000D01*
X175530501Y-96301555D01*
X175493005Y-96290180D01*
X175458446Y-96271708D01*
X175428153Y-96246847D01*
X175403292Y-96216554D01*
X175384820Y-96181995D01*
X175373445Y-96144499D01*
X175369000Y-96099362D01*
X175369000Y-95360638D01*
X175373445Y-95315501D01*
X175384820Y-95278005D01*
X175403292Y-95243446D01*
X175428153Y-95213153D01*
X175458446Y-95188292D01*
X175493005Y-95169820D01*
X175530501Y-95158445D01*
X175575638Y-95154000D01*
X176214362Y-95154000D01*
X176259499Y-95158445D01*
G37*
G36*
X174354499Y-95158445D02*
G01*
X174391995Y-95169820D01*
X174426554Y-95188292D01*
X174456847Y-95213153D01*
X174481708Y-95243446D01*
X174500180Y-95278005D01*
X174511555Y-95315501D01*
X174516000Y-95360638D01*
X174516000Y-96099362D01*
X174511555Y-96144499D01*
X174500180Y-96181995D01*
X174481708Y-96216554D01*
X174456847Y-96246847D01*
X174426554Y-96271708D01*
X174391995Y-96290180D01*
X174354499Y-96301555D01*
X174309362Y-96306000D01*
X173670638Y-96306000D01*
X173625501Y-96301555D01*
X173588005Y-96290180D01*
X173553446Y-96271708D01*
X173523153Y-96246847D01*
X173498292Y-96216554D01*
X173479820Y-96181995D01*
X173468445Y-96144499D01*
X173464000Y-96099362D01*
X173464000Y-95360638D01*
X173468445Y-95315501D01*
X173479820Y-95278005D01*
X173498292Y-95243446D01*
X173523153Y-95213153D01*
X173553446Y-95188292D01*
X173588005Y-95169820D01*
X173625501Y-95158445D01*
X173670638Y-95154000D01*
X174309362Y-95154000D01*
X174354499Y-95158445D01*
G37*
G36*
X178164499Y-95158445D02*
G01*
X178201995Y-95169820D01*
X178236554Y-95188292D01*
X178266847Y-95213153D01*
X178291708Y-95243446D01*
X178310180Y-95278005D01*
X178321555Y-95315501D01*
X178326000Y-95360638D01*
X178326000Y-96099362D01*
X178321555Y-96144499D01*
X178310180Y-96181995D01*
X178291708Y-96216554D01*
X178266847Y-96246847D01*
X178236554Y-96271708D01*
X178201995Y-96290180D01*
X178164499Y-96301555D01*
X178119362Y-96306000D01*
X177480638Y-96306000D01*
X177435501Y-96301555D01*
X177398005Y-96290180D01*
X177363446Y-96271708D01*
X177333153Y-96246847D01*
X177308292Y-96216554D01*
X177289820Y-96181995D01*
X177278445Y-96144499D01*
X177274000Y-96099362D01*
X177274000Y-95360638D01*
X177278445Y-95315501D01*
X177289820Y-95278005D01*
X177308292Y-95243446D01*
X177333153Y-95213153D01*
X177363446Y-95188292D01*
X177398005Y-95169820D01*
X177435501Y-95158445D01*
X177480638Y-95154000D01*
X178119362Y-95154000D01*
X178164499Y-95158445D01*
G37*
G36*
X180069499Y-95158445D02*
G01*
X180106995Y-95169820D01*
X180141554Y-95188292D01*
X180171847Y-95213153D01*
X180196708Y-95243446D01*
X180215180Y-95278005D01*
X180226555Y-95315501D01*
X180231000Y-95360638D01*
X180231000Y-96099362D01*
X180226555Y-96144499D01*
X180215180Y-96181995D01*
X180196708Y-96216554D01*
X180171847Y-96246847D01*
X180141554Y-96271708D01*
X180106995Y-96290180D01*
X180069499Y-96301555D01*
X180024362Y-96306000D01*
X179385638Y-96306000D01*
X179340501Y-96301555D01*
X179303005Y-96290180D01*
X179268446Y-96271708D01*
X179238153Y-96246847D01*
X179213292Y-96216554D01*
X179194820Y-96181995D01*
X179183445Y-96144499D01*
X179179000Y-96099362D01*
X179179000Y-95360638D01*
X179183445Y-95315501D01*
X179194820Y-95278005D01*
X179213292Y-95243446D01*
X179238153Y-95213153D01*
X179268446Y-95188292D01*
X179303005Y-95169820D01*
X179340501Y-95158445D01*
X179385638Y-95154000D01*
X180024362Y-95154000D01*
X180069499Y-95158445D01*
G37*
G36*
X152764499Y-94283445D02*
G01*
X152801995Y-94294820D01*
X152836554Y-94313292D01*
X152866847Y-94338153D01*
X152891708Y-94368446D01*
X152910180Y-94403005D01*
X152921555Y-94440501D01*
X152926000Y-94485638D01*
X152926000Y-95224362D01*
X152921555Y-95269499D01*
X152910180Y-95306995D01*
X152891708Y-95341554D01*
X152866847Y-95371847D01*
X152836554Y-95396708D01*
X152801995Y-95415180D01*
X152764499Y-95426555D01*
X152719362Y-95431000D01*
X152080638Y-95431000D01*
X152035501Y-95426555D01*
X151998005Y-95415180D01*
X151963446Y-95396708D01*
X151933153Y-95371847D01*
X151908292Y-95341554D01*
X151889820Y-95306995D01*
X151878445Y-95269499D01*
X151874000Y-95224362D01*
X151874000Y-94485638D01*
X151878445Y-94440501D01*
X151889820Y-94403005D01*
X151908292Y-94368446D01*
X151933153Y-94338153D01*
X151963446Y-94313292D01*
X151998005Y-94294820D01*
X152035501Y-94283445D01*
X152080638Y-94279000D01*
X152719362Y-94279000D01*
X152764499Y-94283445D01*
G37*
G36*
X196535345Y-93063442D02*
G01*
X196625548Y-93072326D01*
X196799157Y-93124990D01*
X196959156Y-93210511D01*
X197002729Y-93246271D01*
X197099397Y-93325603D01*
X197175224Y-93418000D01*
X197214489Y-93465844D01*
X197300010Y-93625843D01*
X197352674Y-93799452D01*
X197370456Y-93980000D01*
X197352674Y-94160548D01*
X197300010Y-94334157D01*
X197214489Y-94494156D01*
X197191877Y-94521708D01*
X197099397Y-94634397D01*
X197012212Y-94705947D01*
X196959156Y-94749489D01*
X196799157Y-94835010D01*
X196625548Y-94887674D01*
X196535345Y-94896558D01*
X196490245Y-94901000D01*
X195939755Y-94901000D01*
X195894655Y-94896558D01*
X195804452Y-94887674D01*
X195630843Y-94835010D01*
X195470844Y-94749489D01*
X195417788Y-94705947D01*
X195330603Y-94634397D01*
X195238123Y-94521708D01*
X195215511Y-94494156D01*
X195129990Y-94334157D01*
X195077326Y-94160548D01*
X195059544Y-93980000D01*
X195077326Y-93799452D01*
X195129990Y-93625843D01*
X195215511Y-93465844D01*
X195254776Y-93418000D01*
X195330603Y-93325603D01*
X195427271Y-93246271D01*
X195470844Y-93210511D01*
X195630843Y-93124990D01*
X195804452Y-93072326D01*
X195894655Y-93063442D01*
X195939755Y-93059000D01*
X196490245Y-93059000D01*
X196535345Y-93063442D01*
G37*
G36*
X187645345Y-93063442D02*
G01*
X187735548Y-93072326D01*
X187909157Y-93124990D01*
X188069156Y-93210511D01*
X188112729Y-93246271D01*
X188209397Y-93325603D01*
X188285224Y-93418000D01*
X188324489Y-93465844D01*
X188410010Y-93625843D01*
X188462674Y-93799452D01*
X188480456Y-93980000D01*
X188462674Y-94160548D01*
X188410010Y-94334157D01*
X188324489Y-94494156D01*
X188301877Y-94521708D01*
X188209397Y-94634397D01*
X188122212Y-94705947D01*
X188069156Y-94749489D01*
X187909157Y-94835010D01*
X187735548Y-94887674D01*
X187645345Y-94896558D01*
X187600245Y-94901000D01*
X187049755Y-94901000D01*
X187004655Y-94896558D01*
X186914452Y-94887674D01*
X186740843Y-94835010D01*
X186580844Y-94749489D01*
X186527788Y-94705947D01*
X186440603Y-94634397D01*
X186348123Y-94521708D01*
X186325511Y-94494156D01*
X186239990Y-94334157D01*
X186187326Y-94160548D01*
X186169544Y-93980000D01*
X186187326Y-93799452D01*
X186239990Y-93625843D01*
X186325511Y-93465844D01*
X186364776Y-93418000D01*
X186440603Y-93325603D01*
X186537271Y-93246271D01*
X186580844Y-93210511D01*
X186740843Y-93124990D01*
X186914452Y-93072326D01*
X187004655Y-93063442D01*
X187049755Y-93059000D01*
X187600245Y-93059000D01*
X187645345Y-93063442D01*
G37*
G36*
X169909499Y-93563445D02*
G01*
X169946995Y-93574820D01*
X169981554Y-93593292D01*
X170011847Y-93618153D01*
X170036708Y-93648446D01*
X170055180Y-93683005D01*
X170066555Y-93720501D01*
X170071000Y-93765638D01*
X170071000Y-94504362D01*
X170066555Y-94549499D01*
X170055180Y-94586995D01*
X170036708Y-94621554D01*
X170011847Y-94651847D01*
X169981554Y-94676708D01*
X169946995Y-94695180D01*
X169909499Y-94706555D01*
X169864362Y-94711000D01*
X169225638Y-94711000D01*
X169180501Y-94706555D01*
X169143005Y-94695180D01*
X169108446Y-94676708D01*
X169078153Y-94651847D01*
X169053292Y-94621554D01*
X169034820Y-94586995D01*
X169023445Y-94549499D01*
X169019000Y-94504362D01*
X169019000Y-93765638D01*
X169023445Y-93720501D01*
X169034820Y-93683005D01*
X169053292Y-93648446D01*
X169078153Y-93618153D01*
X169108446Y-93593292D01*
X169143005Y-93574820D01*
X169180501Y-93563445D01*
X169225638Y-93559000D01*
X169864362Y-93559000D01*
X169909499Y-93563445D01*
G37*
G36*
X168004499Y-93563445D02*
G01*
X168041995Y-93574820D01*
X168076554Y-93593292D01*
X168106847Y-93618153D01*
X168131708Y-93648446D01*
X168150180Y-93683005D01*
X168161555Y-93720501D01*
X168166000Y-93765638D01*
X168166000Y-94504362D01*
X168161555Y-94549499D01*
X168150180Y-94586995D01*
X168131708Y-94621554D01*
X168106847Y-94651847D01*
X168076554Y-94676708D01*
X168041995Y-94695180D01*
X168004499Y-94706555D01*
X167959362Y-94711000D01*
X167320638Y-94711000D01*
X167275501Y-94706555D01*
X167238005Y-94695180D01*
X167203446Y-94676708D01*
X167173153Y-94651847D01*
X167148292Y-94621554D01*
X167129820Y-94586995D01*
X167118445Y-94549499D01*
X167114000Y-94504362D01*
X167114000Y-93765638D01*
X167118445Y-93720501D01*
X167129820Y-93683005D01*
X167148292Y-93648446D01*
X167173153Y-93618153D01*
X167203446Y-93593292D01*
X167238005Y-93574820D01*
X167275501Y-93563445D01*
X167320638Y-93559000D01*
X167959362Y-93559000D01*
X168004499Y-93563445D01*
G37*
G36*
X178164499Y-93408445D02*
G01*
X178201995Y-93419820D01*
X178236554Y-93438292D01*
X178266847Y-93463153D01*
X178291708Y-93493446D01*
X178310180Y-93528005D01*
X178321555Y-93565501D01*
X178326000Y-93610638D01*
X178326000Y-94349362D01*
X178321555Y-94394499D01*
X178310180Y-94431995D01*
X178291708Y-94466554D01*
X178266847Y-94496847D01*
X178236554Y-94521708D01*
X178201995Y-94540180D01*
X178164499Y-94551555D01*
X178119362Y-94556000D01*
X177480638Y-94556000D01*
X177435501Y-94551555D01*
X177398005Y-94540180D01*
X177363446Y-94521708D01*
X177333153Y-94496847D01*
X177308292Y-94466554D01*
X177289820Y-94431995D01*
X177278445Y-94394499D01*
X177274000Y-94349362D01*
X177274000Y-93610638D01*
X177278445Y-93565501D01*
X177289820Y-93528005D01*
X177308292Y-93493446D01*
X177333153Y-93463153D01*
X177363446Y-93438292D01*
X177398005Y-93419820D01*
X177435501Y-93408445D01*
X177480638Y-93404000D01*
X178119362Y-93404000D01*
X178164499Y-93408445D01*
G37*
G36*
X180069499Y-93408445D02*
G01*
X180106995Y-93419820D01*
X180141554Y-93438292D01*
X180171847Y-93463153D01*
X180196708Y-93493446D01*
X180215180Y-93528005D01*
X180226555Y-93565501D01*
X180231000Y-93610638D01*
X180231000Y-94349362D01*
X180226555Y-94394499D01*
X180215180Y-94431995D01*
X180196708Y-94466554D01*
X180171847Y-94496847D01*
X180141554Y-94521708D01*
X180106995Y-94540180D01*
X180069499Y-94551555D01*
X180024362Y-94556000D01*
X179385638Y-94556000D01*
X179340501Y-94551555D01*
X179303005Y-94540180D01*
X179268446Y-94521708D01*
X179238153Y-94496847D01*
X179213292Y-94466554D01*
X179194820Y-94431995D01*
X179183445Y-94394499D01*
X179179000Y-94349362D01*
X179179000Y-93610638D01*
X179183445Y-93565501D01*
X179194820Y-93528005D01*
X179213292Y-93493446D01*
X179238153Y-93463153D01*
X179268446Y-93438292D01*
X179303005Y-93419820D01*
X179340501Y-93408445D01*
X179385638Y-93404000D01*
X180024362Y-93404000D01*
X180069499Y-93408445D01*
G37*
G36*
X176259499Y-93408445D02*
G01*
X176296995Y-93419820D01*
X176331554Y-93438292D01*
X176361847Y-93463153D01*
X176386708Y-93493446D01*
X176405180Y-93528005D01*
X176416555Y-93565501D01*
X176421000Y-93610638D01*
X176421000Y-94349362D01*
X176416555Y-94394499D01*
X176405180Y-94431995D01*
X176386708Y-94466554D01*
X176361847Y-94496847D01*
X176331554Y-94521708D01*
X176296995Y-94540180D01*
X176259499Y-94551555D01*
X176214362Y-94556000D01*
X175575638Y-94556000D01*
X175530501Y-94551555D01*
X175493005Y-94540180D01*
X175458446Y-94521708D01*
X175428153Y-94496847D01*
X175403292Y-94466554D01*
X175384820Y-94431995D01*
X175373445Y-94394499D01*
X175369000Y-94349362D01*
X175369000Y-93610638D01*
X175373445Y-93565501D01*
X175384820Y-93528005D01*
X175403292Y-93493446D01*
X175428153Y-93463153D01*
X175458446Y-93438292D01*
X175493005Y-93419820D01*
X175530501Y-93408445D01*
X175575638Y-93404000D01*
X176214362Y-93404000D01*
X176259499Y-93408445D01*
G37*
G36*
X174354499Y-93408445D02*
G01*
X174391995Y-93419820D01*
X174426554Y-93438292D01*
X174456847Y-93463153D01*
X174481708Y-93493446D01*
X174500180Y-93528005D01*
X174511555Y-93565501D01*
X174516000Y-93610638D01*
X174516000Y-94349362D01*
X174511555Y-94394499D01*
X174500180Y-94431995D01*
X174481708Y-94466554D01*
X174456847Y-94496847D01*
X174426554Y-94521708D01*
X174391995Y-94540180D01*
X174354499Y-94551555D01*
X174309362Y-94556000D01*
X173670638Y-94556000D01*
X173625501Y-94551555D01*
X173588005Y-94540180D01*
X173553446Y-94521708D01*
X173523153Y-94496847D01*
X173498292Y-94466554D01*
X173479820Y-94431995D01*
X173468445Y-94394499D01*
X173464000Y-94349362D01*
X173464000Y-93610638D01*
X173468445Y-93565501D01*
X173479820Y-93528005D01*
X173498292Y-93493446D01*
X173523153Y-93463153D01*
X173553446Y-93438292D01*
X173588005Y-93419820D01*
X173625501Y-93408445D01*
X173670638Y-93404000D01*
X174309362Y-93404000D01*
X174354499Y-93408445D01*
G37*
G36*
X114457022Y-92155590D02*
G01*
X114557681Y-92186125D01*
X114608012Y-92201392D01*
X114747164Y-92275771D01*
X114869133Y-92375867D01*
X114949369Y-92473635D01*
X114969229Y-92497835D01*
X115043608Y-92636987D01*
X115046307Y-92645885D01*
X115089410Y-92787977D01*
X115093632Y-92830844D01*
X115101000Y-92905654D01*
X115101000Y-93784346D01*
X115100656Y-93787835D01*
X115089410Y-93902023D01*
X115071831Y-93959973D01*
X115043608Y-94053013D01*
X114969229Y-94192165D01*
X114869133Y-94314133D01*
X114747165Y-94414229D01*
X114608013Y-94488608D01*
X114589723Y-94494156D01*
X114457023Y-94534410D01*
X114300000Y-94549875D01*
X114142978Y-94534410D01*
X114010278Y-94494156D01*
X113991988Y-94488608D01*
X113852836Y-94414229D01*
X113730868Y-94314133D01*
X113630772Y-94192165D01*
X113556393Y-94053013D01*
X113528170Y-93959973D01*
X113510591Y-93902023D01*
X113499000Y-93784345D01*
X113499000Y-92905656D01*
X113510590Y-92787978D01*
X113541125Y-92687319D01*
X113556392Y-92636988D01*
X113630771Y-92497836D01*
X113691366Y-92424000D01*
X113730867Y-92375867D01*
X113852835Y-92275771D01*
X113991987Y-92201392D01*
X114042318Y-92186125D01*
X114142977Y-92155590D01*
X114300000Y-92140125D01*
X114457022Y-92155590D01*
G37*
G36*
X116997022Y-92155590D02*
G01*
X117097681Y-92186125D01*
X117148012Y-92201392D01*
X117287164Y-92275771D01*
X117409133Y-92375867D01*
X117489369Y-92473635D01*
X117509229Y-92497835D01*
X117583608Y-92636987D01*
X117586307Y-92645885D01*
X117629410Y-92787977D01*
X117633632Y-92830844D01*
X117641000Y-92905654D01*
X117641000Y-93784346D01*
X117640656Y-93787835D01*
X117629410Y-93902023D01*
X117611831Y-93959973D01*
X117583608Y-94053013D01*
X117509229Y-94192165D01*
X117409133Y-94314133D01*
X117287165Y-94414229D01*
X117148013Y-94488608D01*
X117129723Y-94494156D01*
X116997023Y-94534410D01*
X116840000Y-94549875D01*
X116682978Y-94534410D01*
X116550278Y-94494156D01*
X116531988Y-94488608D01*
X116392836Y-94414229D01*
X116270868Y-94314133D01*
X116170772Y-94192165D01*
X116096393Y-94053013D01*
X116068170Y-93959973D01*
X116050591Y-93902023D01*
X116039000Y-93784345D01*
X116039000Y-92905656D01*
X116050590Y-92787978D01*
X116081125Y-92687319D01*
X116096392Y-92636988D01*
X116170771Y-92497836D01*
X116231366Y-92424000D01*
X116270867Y-92375867D01*
X116392835Y-92275771D01*
X116531987Y-92201392D01*
X116582318Y-92186125D01*
X116682977Y-92155590D01*
X116840000Y-92140125D01*
X116997022Y-92155590D01*
G37*
G36*
X112561000Y-94546000D02*
G01*
X110959000Y-94546000D01*
X110959000Y-92144000D01*
X112561000Y-92144000D01*
X112561000Y-94546000D01*
G37*
G36*
X145721564Y-92279389D02*
G01*
X145909016Y-92357034D01*
X145912835Y-92358616D01*
X146084973Y-92473635D01*
X146231365Y-92620027D01*
X146346274Y-92792000D01*
X146346385Y-92792167D01*
X146425611Y-92983436D01*
X146466000Y-93186484D01*
X146466000Y-93393516D01*
X146425611Y-93596564D01*
X146373921Y-93721354D01*
X146346384Y-93787835D01*
X146231365Y-93959973D01*
X146084973Y-94106365D01*
X145912835Y-94221384D01*
X145912834Y-94221385D01*
X145912833Y-94221385D01*
X145721564Y-94300611D01*
X145518516Y-94341000D01*
X145311484Y-94341000D01*
X145108436Y-94300611D01*
X144917167Y-94221385D01*
X144917166Y-94221385D01*
X144917165Y-94221384D01*
X144745027Y-94106365D01*
X144598635Y-93959973D01*
X144483616Y-93787835D01*
X144456079Y-93721354D01*
X144404389Y-93596564D01*
X144364000Y-93393516D01*
X144364000Y-93186484D01*
X144404389Y-92983436D01*
X144483615Y-92792167D01*
X144483727Y-92792000D01*
X144598635Y-92620027D01*
X144745027Y-92473635D01*
X144917165Y-92358616D01*
X144920984Y-92357034D01*
X145108436Y-92279389D01*
X145311484Y-92239000D01*
X145518516Y-92239000D01*
X145721564Y-92279389D01*
G37*
G36*
X139221564Y-92279389D02*
G01*
X139409016Y-92357034D01*
X139412835Y-92358616D01*
X139584973Y-92473635D01*
X139731365Y-92620027D01*
X139846274Y-92792000D01*
X139846385Y-92792167D01*
X139925611Y-92983436D01*
X139966000Y-93186484D01*
X139966000Y-93393516D01*
X139925611Y-93596564D01*
X139873921Y-93721354D01*
X139846384Y-93787835D01*
X139731365Y-93959973D01*
X139584973Y-94106365D01*
X139412835Y-94221384D01*
X139412834Y-94221385D01*
X139412833Y-94221385D01*
X139221564Y-94300611D01*
X139018516Y-94341000D01*
X138811484Y-94341000D01*
X138608436Y-94300611D01*
X138417167Y-94221385D01*
X138417166Y-94221385D01*
X138417165Y-94221384D01*
X138245027Y-94106365D01*
X138098635Y-93959973D01*
X137983616Y-93787835D01*
X137956079Y-93721354D01*
X137904389Y-93596564D01*
X137864000Y-93393516D01*
X137864000Y-93186484D01*
X137904389Y-92983436D01*
X137983615Y-92792167D01*
X137983727Y-92792000D01*
X138098635Y-92620027D01*
X138245027Y-92473635D01*
X138417165Y-92358616D01*
X138420984Y-92357034D01*
X138608436Y-92279389D01*
X138811484Y-92239000D01*
X139018516Y-92239000D01*
X139221564Y-92279389D01*
G37*
G36*
X104460345Y-92428442D02*
G01*
X104550548Y-92437326D01*
X104724157Y-92489990D01*
X104884156Y-92575511D01*
X104899560Y-92588153D01*
X105024397Y-92690603D01*
X105103729Y-92787271D01*
X105139489Y-92830844D01*
X105225010Y-92990843D01*
X105277674Y-93164452D01*
X105295456Y-93345000D01*
X105277674Y-93525548D01*
X105225010Y-93699157D01*
X105139489Y-93859156D01*
X105114996Y-93889000D01*
X105024397Y-93999397D01*
X104927729Y-94078729D01*
X104884156Y-94114489D01*
X104724157Y-94200010D01*
X104550548Y-94252674D01*
X104460345Y-94261558D01*
X104415245Y-94266000D01*
X103864755Y-94266000D01*
X103819655Y-94261558D01*
X103729452Y-94252674D01*
X103555843Y-94200010D01*
X103395844Y-94114489D01*
X103352271Y-94078729D01*
X103255603Y-93999397D01*
X103165004Y-93889000D01*
X103140511Y-93859156D01*
X103054990Y-93699157D01*
X103002326Y-93525548D01*
X102984544Y-93345000D01*
X103002326Y-93164452D01*
X103054990Y-92990843D01*
X103140511Y-92830844D01*
X103176271Y-92787271D01*
X103255603Y-92690603D01*
X103380440Y-92588153D01*
X103395844Y-92575511D01*
X103555843Y-92489990D01*
X103729452Y-92437326D01*
X103819655Y-92428442D01*
X103864755Y-92424000D01*
X104415245Y-92424000D01*
X104460345Y-92428442D01*
G37*
G36*
X152764499Y-92533445D02*
G01*
X152801995Y-92544820D01*
X152836554Y-92563292D01*
X152866847Y-92588153D01*
X152891708Y-92618446D01*
X152910180Y-92653005D01*
X152921555Y-92690501D01*
X152926000Y-92735638D01*
X152926000Y-93474362D01*
X152921555Y-93519499D01*
X152910180Y-93556995D01*
X152891708Y-93591554D01*
X152866847Y-93621847D01*
X152836554Y-93646708D01*
X152801995Y-93665180D01*
X152764499Y-93676555D01*
X152719362Y-93681000D01*
X152080638Y-93681000D01*
X152035501Y-93676555D01*
X151998005Y-93665180D01*
X151963446Y-93646708D01*
X151933153Y-93621847D01*
X151908292Y-93591554D01*
X151889820Y-93556995D01*
X151878445Y-93519499D01*
X151874000Y-93474362D01*
X151874000Y-92735638D01*
X151878445Y-92690501D01*
X151889820Y-92653005D01*
X151908292Y-92618446D01*
X151933153Y-92588153D01*
X151963446Y-92563292D01*
X151998005Y-92544820D01*
X152035501Y-92533445D01*
X152080638Y-92529000D01*
X152719362Y-92529000D01*
X152764499Y-92533445D01*
G37*
G36*
X128001000Y-92841000D02*
G01*
X125999000Y-92841000D01*
X125999000Y-91939000D01*
X128001000Y-91939000D01*
X128001000Y-92841000D01*
G37*
G36*
X188334561Y-90522966D02*
G01*
X188367383Y-90532923D01*
X188397632Y-90549092D01*
X188424148Y-90570852D01*
X188445908Y-90597368D01*
X188462077Y-90627617D01*
X188472034Y-90660439D01*
X188476000Y-90700713D01*
X188476000Y-92179287D01*
X188472034Y-92219561D01*
X188462077Y-92252383D01*
X188445908Y-92282632D01*
X188424148Y-92309148D01*
X188397632Y-92330908D01*
X188367383Y-92347077D01*
X188334561Y-92357034D01*
X188294287Y-92361000D01*
X186355713Y-92361000D01*
X186315439Y-92357034D01*
X186282617Y-92347077D01*
X186252368Y-92330908D01*
X186225852Y-92309148D01*
X186204092Y-92282632D01*
X186187923Y-92252383D01*
X186177966Y-92219561D01*
X186174000Y-92179287D01*
X186174000Y-90700713D01*
X186177966Y-90660439D01*
X186187923Y-90627617D01*
X186204092Y-90597368D01*
X186225852Y-90570852D01*
X186252368Y-90549092D01*
X186282617Y-90532923D01*
X186315439Y-90522966D01*
X186355713Y-90519000D01*
X188294287Y-90519000D01*
X188334561Y-90522966D01*
G37*
G36*
X197224561Y-90522966D02*
G01*
X197257383Y-90532923D01*
X197287632Y-90549092D01*
X197314148Y-90570852D01*
X197335908Y-90597368D01*
X197352077Y-90627617D01*
X197362034Y-90660439D01*
X197366000Y-90700713D01*
X197366000Y-92179287D01*
X197362034Y-92219561D01*
X197352077Y-92252383D01*
X197335908Y-92282632D01*
X197314148Y-92309148D01*
X197287632Y-92330908D01*
X197257383Y-92347077D01*
X197224561Y-92357034D01*
X197184287Y-92361000D01*
X195245713Y-92361000D01*
X195205439Y-92357034D01*
X195172617Y-92347077D01*
X195142368Y-92330908D01*
X195115852Y-92309148D01*
X195094092Y-92282632D01*
X195077923Y-92252383D01*
X195067966Y-92219561D01*
X195064000Y-92179287D01*
X195064000Y-90700713D01*
X195067966Y-90660439D01*
X195077923Y-90627617D01*
X195094092Y-90597368D01*
X195115852Y-90570852D01*
X195142368Y-90549092D01*
X195172617Y-90532923D01*
X195205439Y-90522966D01*
X195245713Y-90519000D01*
X197184287Y-90519000D01*
X197224561Y-90522966D01*
G37*
G36*
X125001000Y-91891000D02*
G01*
X122999000Y-91891000D01*
X122999000Y-90989000D01*
X125001000Y-90989000D01*
X125001000Y-91891000D01*
G37*
G36*
X104460345Y-89888442D02*
G01*
X104550548Y-89897326D01*
X104724157Y-89949990D01*
X104884156Y-90035511D01*
X104927729Y-90071271D01*
X105024397Y-90150603D01*
X105103729Y-90247271D01*
X105139489Y-90290844D01*
X105225010Y-90450843D01*
X105277674Y-90624452D01*
X105295456Y-90805000D01*
X105277674Y-90985548D01*
X105225010Y-91159157D01*
X105139489Y-91319156D01*
X105103729Y-91362729D01*
X105024397Y-91459397D01*
X104927729Y-91538729D01*
X104884156Y-91574489D01*
X104724157Y-91660010D01*
X104550548Y-91712674D01*
X104460345Y-91721558D01*
X104415245Y-91726000D01*
X103864755Y-91726000D01*
X103819655Y-91721558D01*
X103729452Y-91712674D01*
X103555843Y-91660010D01*
X103395844Y-91574489D01*
X103352271Y-91538729D01*
X103255603Y-91459397D01*
X103176271Y-91362729D01*
X103140511Y-91319156D01*
X103054990Y-91159157D01*
X103002326Y-90985548D01*
X102984544Y-90805000D01*
X103002326Y-90624452D01*
X103054990Y-90450843D01*
X103140511Y-90290844D01*
X103176271Y-90247271D01*
X103255603Y-90150603D01*
X103352271Y-90071271D01*
X103395844Y-90035511D01*
X103555843Y-89949990D01*
X103729452Y-89897326D01*
X103819655Y-89888442D01*
X103864755Y-89884000D01*
X104415245Y-89884000D01*
X104460345Y-89888442D01*
G37*
G36*
X179716000Y-91381000D02*
G01*
X174614000Y-91381000D01*
X174614000Y-89779000D01*
X179716000Y-89779000D01*
X179716000Y-91381000D01*
G37*
G36*
X163781000Y-91216000D02*
G01*
X157529000Y-91216000D01*
X157529000Y-89514000D01*
X163781000Y-89514000D01*
X163781000Y-91216000D01*
G37*
G36*
X128001000Y-90941000D02*
G01*
X125999000Y-90941000D01*
X125999000Y-90039000D01*
X128001000Y-90039000D01*
X128001000Y-90941000D01*
G37*
G36*
X139429928Y-89821764D02*
G01*
X139451009Y-89828160D01*
X139470445Y-89838548D01*
X139487476Y-89852524D01*
X139501452Y-89869555D01*
X139511840Y-89888991D01*
X139518236Y-89910072D01*
X139521000Y-89938140D01*
X139521000Y-90401860D01*
X139518236Y-90429928D01*
X139511840Y-90451009D01*
X139501452Y-90470445D01*
X139487476Y-90487476D01*
X139470445Y-90501452D01*
X139451009Y-90511840D01*
X139429928Y-90518236D01*
X139401860Y-90521000D01*
X137588140Y-90521000D01*
X137560072Y-90518236D01*
X137538991Y-90511840D01*
X137519555Y-90501452D01*
X137502524Y-90487476D01*
X137488548Y-90470445D01*
X137478160Y-90451009D01*
X137471764Y-90429928D01*
X137469000Y-90401860D01*
X137469000Y-89938140D01*
X137471764Y-89910072D01*
X137478160Y-89888991D01*
X137488548Y-89869555D01*
X137502524Y-89852524D01*
X137519555Y-89838548D01*
X137538991Y-89828160D01*
X137560072Y-89821764D01*
X137588140Y-89819000D01*
X139401860Y-89819000D01*
X139429928Y-89821764D01*
G37*
G36*
X144379928Y-89821764D02*
G01*
X144401009Y-89828160D01*
X144420445Y-89838548D01*
X144437476Y-89852524D01*
X144451452Y-89869555D01*
X144461840Y-89888991D01*
X144468236Y-89910072D01*
X144471000Y-89938140D01*
X144471000Y-90401860D01*
X144468236Y-90429928D01*
X144461840Y-90451009D01*
X144451452Y-90470445D01*
X144437476Y-90487476D01*
X144420445Y-90501452D01*
X144401009Y-90511840D01*
X144379928Y-90518236D01*
X144351860Y-90521000D01*
X142538140Y-90521000D01*
X142510072Y-90518236D01*
X142488991Y-90511840D01*
X142469555Y-90501452D01*
X142452524Y-90487476D01*
X142438548Y-90470445D01*
X142428160Y-90451009D01*
X142421764Y-90429928D01*
X142419000Y-90401860D01*
X142419000Y-89938140D01*
X142421764Y-89910072D01*
X142428160Y-89888991D01*
X142438548Y-89869555D01*
X142452524Y-89852524D01*
X142469555Y-89838548D01*
X142488991Y-89828160D01*
X142510072Y-89821764D01*
X142538140Y-89819000D01*
X144351860Y-89819000D01*
X144379928Y-89821764D01*
G37*
G36*
X144379928Y-88551764D02*
G01*
X144401009Y-88558160D01*
X144420445Y-88568548D01*
X144437476Y-88582524D01*
X144451452Y-88599555D01*
X144461840Y-88618991D01*
X144468236Y-88640072D01*
X144471000Y-88668140D01*
X144471000Y-89131860D01*
X144468236Y-89159928D01*
X144461840Y-89181009D01*
X144451452Y-89200445D01*
X144437476Y-89217476D01*
X144420445Y-89231452D01*
X144401009Y-89241840D01*
X144379928Y-89248236D01*
X144351860Y-89251000D01*
X142538140Y-89251000D01*
X142510072Y-89248236D01*
X142488991Y-89241840D01*
X142469555Y-89231452D01*
X142452524Y-89217476D01*
X142438548Y-89200445D01*
X142428160Y-89181009D01*
X142421764Y-89159928D01*
X142419000Y-89131860D01*
X142419000Y-88668140D01*
X142421764Y-88640072D01*
X142428160Y-88618991D01*
X142438548Y-88599555D01*
X142452524Y-88582524D01*
X142469555Y-88568548D01*
X142488991Y-88558160D01*
X142510072Y-88551764D01*
X142538140Y-88549000D01*
X144351860Y-88549000D01*
X144379928Y-88551764D01*
G37*
G36*
X139429928Y-88551764D02*
G01*
X139451009Y-88558160D01*
X139470445Y-88568548D01*
X139487476Y-88582524D01*
X139501452Y-88599555D01*
X139511840Y-88618991D01*
X139518236Y-88640072D01*
X139521000Y-88668140D01*
X139521000Y-89131860D01*
X139518236Y-89159928D01*
X139511840Y-89181009D01*
X139501452Y-89200445D01*
X139487476Y-89217476D01*
X139470445Y-89231452D01*
X139451009Y-89241840D01*
X139429928Y-89248236D01*
X139401860Y-89251000D01*
X137588140Y-89251000D01*
X137560072Y-89248236D01*
X137538991Y-89241840D01*
X137519555Y-89231452D01*
X137502524Y-89217476D01*
X137488548Y-89200445D01*
X137478160Y-89181009D01*
X137471764Y-89159928D01*
X137469000Y-89131860D01*
X137469000Y-88668140D01*
X137471764Y-88640072D01*
X137478160Y-88618991D01*
X137488548Y-88599555D01*
X137502524Y-88582524D01*
X137519555Y-88568548D01*
X137538991Y-88558160D01*
X137560072Y-88551764D01*
X137588140Y-88549000D01*
X139401860Y-88549000D01*
X139429928Y-88551764D01*
G37*
G36*
X127613062Y-87343181D02*
G01*
X127647981Y-87353774D01*
X127680163Y-87370976D01*
X127708373Y-87394127D01*
X127731524Y-87422337D01*
X127748726Y-87454519D01*
X127759319Y-87489438D01*
X127763500Y-87531895D01*
X127763500Y-88998105D01*
X127759319Y-89040562D01*
X127748726Y-89075481D01*
X127731524Y-89107663D01*
X127708373Y-89135873D01*
X127680163Y-89159024D01*
X127647981Y-89176226D01*
X127613062Y-89186819D01*
X127570605Y-89191000D01*
X126429395Y-89191000D01*
X126386938Y-89186819D01*
X126352019Y-89176226D01*
X126319837Y-89159024D01*
X126291627Y-89135873D01*
X126268476Y-89107663D01*
X126251274Y-89075481D01*
X126240681Y-89040562D01*
X126236500Y-88998105D01*
X126236500Y-87531895D01*
X126240681Y-87489438D01*
X126251274Y-87454519D01*
X126268476Y-87422337D01*
X126291627Y-87394127D01*
X126319837Y-87370976D01*
X126352019Y-87353774D01*
X126386938Y-87343181D01*
X126429395Y-87339000D01*
X127570605Y-87339000D01*
X127613062Y-87343181D01*
G37*
G36*
X130588062Y-87343181D02*
G01*
X130622981Y-87353774D01*
X130655163Y-87370976D01*
X130683373Y-87394127D01*
X130706524Y-87422337D01*
X130723726Y-87454519D01*
X130734319Y-87489438D01*
X130738500Y-87531895D01*
X130738500Y-88998105D01*
X130734319Y-89040562D01*
X130723726Y-89075481D01*
X130706524Y-89107663D01*
X130683373Y-89135873D01*
X130655163Y-89159024D01*
X130622981Y-89176226D01*
X130588062Y-89186819D01*
X130545605Y-89191000D01*
X129404395Y-89191000D01*
X129361938Y-89186819D01*
X129327019Y-89176226D01*
X129294837Y-89159024D01*
X129266627Y-89135873D01*
X129243476Y-89107663D01*
X129226274Y-89075481D01*
X129215681Y-89040562D01*
X129211500Y-88998105D01*
X129211500Y-87531895D01*
X129215681Y-87489438D01*
X129226274Y-87454519D01*
X129243476Y-87422337D01*
X129266627Y-87394127D01*
X129294837Y-87370976D01*
X129327019Y-87353774D01*
X129361938Y-87343181D01*
X129404395Y-87339000D01*
X130545605Y-87339000D01*
X130588062Y-87343181D01*
G37*
G36*
X122315562Y-87343181D02*
G01*
X122350481Y-87353774D01*
X122382663Y-87370976D01*
X122410873Y-87394127D01*
X122434024Y-87422337D01*
X122451226Y-87454519D01*
X122461819Y-87489438D01*
X122466000Y-87531895D01*
X122466000Y-88998105D01*
X122461819Y-89040562D01*
X122451226Y-89075481D01*
X122434024Y-89107663D01*
X122410873Y-89135873D01*
X122382663Y-89159024D01*
X122350481Y-89176226D01*
X122315562Y-89186819D01*
X122273105Y-89191000D01*
X121131895Y-89191000D01*
X121089438Y-89186819D01*
X121054519Y-89176226D01*
X121022337Y-89159024D01*
X120994127Y-89135873D01*
X120970976Y-89107663D01*
X120953774Y-89075481D01*
X120943181Y-89040562D01*
X120939000Y-88998105D01*
X120939000Y-87531895D01*
X120943181Y-87489438D01*
X120953774Y-87454519D01*
X120970976Y-87422337D01*
X120994127Y-87394127D01*
X121022337Y-87370976D01*
X121054519Y-87353774D01*
X121089438Y-87343181D01*
X121131895Y-87339000D01*
X122273105Y-87339000D01*
X122315562Y-87343181D01*
G37*
G36*
X125290562Y-87343181D02*
G01*
X125325481Y-87353774D01*
X125357663Y-87370976D01*
X125385873Y-87394127D01*
X125409024Y-87422337D01*
X125426226Y-87454519D01*
X125436819Y-87489438D01*
X125441000Y-87531895D01*
X125441000Y-88998105D01*
X125436819Y-89040562D01*
X125426226Y-89075481D01*
X125409024Y-89107663D01*
X125385873Y-89135873D01*
X125357663Y-89159024D01*
X125325481Y-89176226D01*
X125290562Y-89186819D01*
X125248105Y-89191000D01*
X124106895Y-89191000D01*
X124064438Y-89186819D01*
X124029519Y-89176226D01*
X123997337Y-89159024D01*
X123969127Y-89135873D01*
X123945976Y-89107663D01*
X123928774Y-89075481D01*
X123918181Y-89040562D01*
X123914000Y-88998105D01*
X123914000Y-87531895D01*
X123918181Y-87489438D01*
X123928774Y-87454519D01*
X123945976Y-87422337D01*
X123969127Y-87394127D01*
X123997337Y-87370976D01*
X124029519Y-87353774D01*
X124064438Y-87343181D01*
X124106895Y-87339000D01*
X125248105Y-87339000D01*
X125290562Y-87343181D01*
G37*
G36*
X104460345Y-87348442D02*
G01*
X104550548Y-87357326D01*
X104724157Y-87409990D01*
X104884156Y-87495511D01*
X104927729Y-87531271D01*
X105024397Y-87610603D01*
X105103729Y-87707271D01*
X105139489Y-87750844D01*
X105225010Y-87910843D01*
X105277674Y-88084452D01*
X105295456Y-88265000D01*
X105277674Y-88445548D01*
X105225010Y-88619157D01*
X105139489Y-88779156D01*
X105107610Y-88818000D01*
X105024397Y-88919397D01*
X104936472Y-88991554D01*
X104884156Y-89034489D01*
X104724157Y-89120010D01*
X104550548Y-89172674D01*
X104460345Y-89181558D01*
X104415245Y-89186000D01*
X103864755Y-89186000D01*
X103819655Y-89181558D01*
X103729452Y-89172674D01*
X103555843Y-89120010D01*
X103395844Y-89034489D01*
X103343528Y-88991554D01*
X103255603Y-88919397D01*
X103172390Y-88818000D01*
X103140511Y-88779156D01*
X103054990Y-88619157D01*
X103002326Y-88445548D01*
X102984544Y-88265000D01*
X103002326Y-88084452D01*
X103054990Y-87910843D01*
X103140511Y-87750844D01*
X103176271Y-87707271D01*
X103255603Y-87610603D01*
X103352271Y-87531271D01*
X103395844Y-87495511D01*
X103555843Y-87409990D01*
X103729452Y-87357326D01*
X103819655Y-87348442D01*
X103864755Y-87344000D01*
X104415245Y-87344000D01*
X104460345Y-87348442D01*
G37*
G36*
X148319499Y-87933445D02*
G01*
X148356995Y-87944820D01*
X148391554Y-87963292D01*
X148421847Y-87988153D01*
X148446708Y-88018446D01*
X148465180Y-88053005D01*
X148476555Y-88090501D01*
X148481000Y-88135638D01*
X148481000Y-88874362D01*
X148476555Y-88919499D01*
X148465180Y-88956995D01*
X148446708Y-88991554D01*
X148421847Y-89021847D01*
X148391554Y-89046708D01*
X148356995Y-89065180D01*
X148319499Y-89076555D01*
X148274362Y-89081000D01*
X147635638Y-89081000D01*
X147590501Y-89076555D01*
X147553005Y-89065180D01*
X147518446Y-89046708D01*
X147488153Y-89021847D01*
X147463292Y-88991554D01*
X147444820Y-88956995D01*
X147433445Y-88919499D01*
X147429000Y-88874362D01*
X147429000Y-88135638D01*
X147433445Y-88090501D01*
X147444820Y-88053005D01*
X147463292Y-88018446D01*
X147488153Y-87988153D01*
X147518446Y-87963292D01*
X147553005Y-87944820D01*
X147590501Y-87933445D01*
X147635638Y-87929000D01*
X148274362Y-87929000D01*
X148319499Y-87933445D01*
G37*
G36*
X171081000Y-88531000D02*
G01*
X169279000Y-88531000D01*
X169279000Y-86729000D01*
X171081000Y-86729000D01*
X171081000Y-88531000D01*
G37*
G36*
X144379928Y-87281764D02*
G01*
X144401009Y-87288160D01*
X144420445Y-87298548D01*
X144437476Y-87312524D01*
X144451452Y-87329555D01*
X144461840Y-87348991D01*
X144468236Y-87370072D01*
X144471000Y-87398140D01*
X144471000Y-87861860D01*
X144468236Y-87889928D01*
X144461840Y-87911009D01*
X144451452Y-87930445D01*
X144437476Y-87947476D01*
X144420445Y-87961452D01*
X144401009Y-87971840D01*
X144379928Y-87978236D01*
X144351860Y-87981000D01*
X142538140Y-87981000D01*
X142510072Y-87978236D01*
X142488991Y-87971840D01*
X142469555Y-87961452D01*
X142452524Y-87947476D01*
X142438548Y-87930445D01*
X142428160Y-87911009D01*
X142421764Y-87889928D01*
X142419000Y-87861860D01*
X142419000Y-87398140D01*
X142421764Y-87370072D01*
X142428160Y-87348991D01*
X142438548Y-87329555D01*
X142452524Y-87312524D01*
X142469555Y-87298548D01*
X142488991Y-87288160D01*
X142510072Y-87281764D01*
X142538140Y-87279000D01*
X144351860Y-87279000D01*
X144379928Y-87281764D01*
G37*
G36*
X139429928Y-87281764D02*
G01*
X139451009Y-87288160D01*
X139470445Y-87298548D01*
X139487476Y-87312524D01*
X139501452Y-87329555D01*
X139511840Y-87348991D01*
X139518236Y-87370072D01*
X139521000Y-87398140D01*
X139521000Y-87861860D01*
X139518236Y-87889928D01*
X139511840Y-87911009D01*
X139501452Y-87930445D01*
X139487476Y-87947476D01*
X139470445Y-87961452D01*
X139451009Y-87971840D01*
X139429928Y-87978236D01*
X139401860Y-87981000D01*
X137588140Y-87981000D01*
X137560072Y-87978236D01*
X137538991Y-87971840D01*
X137519555Y-87961452D01*
X137502524Y-87947476D01*
X137488548Y-87930445D01*
X137478160Y-87911009D01*
X137471764Y-87889928D01*
X137469000Y-87861860D01*
X137469000Y-87398140D01*
X137471764Y-87370072D01*
X137478160Y-87348991D01*
X137488548Y-87329555D01*
X137502524Y-87312524D01*
X137519555Y-87298548D01*
X137538991Y-87288160D01*
X137560072Y-87281764D01*
X137588140Y-87279000D01*
X139401860Y-87279000D01*
X139429928Y-87281764D01*
G37*
G36*
X148319499Y-86183445D02*
G01*
X148356995Y-86194820D01*
X148391554Y-86213292D01*
X148421847Y-86238153D01*
X148446708Y-86268446D01*
X148465180Y-86303005D01*
X148476555Y-86340501D01*
X148481000Y-86385638D01*
X148481000Y-87124362D01*
X148476555Y-87169499D01*
X148465180Y-87206995D01*
X148446708Y-87241554D01*
X148421847Y-87271847D01*
X148391554Y-87296708D01*
X148356995Y-87315180D01*
X148319499Y-87326555D01*
X148274362Y-87331000D01*
X147635638Y-87331000D01*
X147590501Y-87326555D01*
X147553005Y-87315180D01*
X147518446Y-87296708D01*
X147488153Y-87271847D01*
X147463292Y-87241554D01*
X147444820Y-87206995D01*
X147433445Y-87169499D01*
X147429000Y-87124362D01*
X147429000Y-86385638D01*
X147433445Y-86340501D01*
X147444820Y-86303005D01*
X147463292Y-86268446D01*
X147488153Y-86238153D01*
X147518446Y-86213292D01*
X147553005Y-86194820D01*
X147590501Y-86183445D01*
X147635638Y-86179000D01*
X148274362Y-86179000D01*
X148319499Y-86183445D01*
G37*
G36*
X196535345Y-85443442D02*
G01*
X196625548Y-85452326D01*
X196799157Y-85504990D01*
X196959156Y-85590511D01*
X197002729Y-85626271D01*
X197099397Y-85705603D01*
X197168537Y-85789852D01*
X197214489Y-85845844D01*
X197300010Y-86005843D01*
X197352674Y-86179452D01*
X197370456Y-86360000D01*
X197352674Y-86540548D01*
X197300010Y-86714157D01*
X197214489Y-86874156D01*
X197191877Y-86901708D01*
X197099397Y-87014397D01*
X197002729Y-87093729D01*
X196959156Y-87129489D01*
X196885898Y-87168646D01*
X196800832Y-87214115D01*
X196799157Y-87215010D01*
X196625548Y-87267674D01*
X196535345Y-87276558D01*
X196490245Y-87281000D01*
X195939755Y-87281000D01*
X195894655Y-87276558D01*
X195804452Y-87267674D01*
X195630843Y-87215010D01*
X195629169Y-87214115D01*
X195544102Y-87168646D01*
X195470844Y-87129489D01*
X195427271Y-87093729D01*
X195330603Y-87014397D01*
X195238123Y-86901708D01*
X195215511Y-86874156D01*
X195129990Y-86714157D01*
X195077326Y-86540548D01*
X195059544Y-86360000D01*
X195077326Y-86179452D01*
X195129990Y-86005843D01*
X195215511Y-85845844D01*
X195261463Y-85789852D01*
X195330603Y-85705603D01*
X195427271Y-85626271D01*
X195470844Y-85590511D01*
X195630843Y-85504990D01*
X195804452Y-85452326D01*
X195894655Y-85443442D01*
X195939755Y-85439000D01*
X196490245Y-85439000D01*
X196535345Y-85443442D01*
G37*
G36*
X187645345Y-85443442D02*
G01*
X187735548Y-85452326D01*
X187909157Y-85504990D01*
X188069156Y-85590511D01*
X188112729Y-85626271D01*
X188209397Y-85705603D01*
X188278537Y-85789852D01*
X188324489Y-85845844D01*
X188410010Y-86005843D01*
X188462674Y-86179452D01*
X188480456Y-86360000D01*
X188462674Y-86540548D01*
X188410010Y-86714157D01*
X188324489Y-86874156D01*
X188301877Y-86901708D01*
X188209397Y-87014397D01*
X188112729Y-87093729D01*
X188069156Y-87129489D01*
X187995898Y-87168646D01*
X187910832Y-87214115D01*
X187909157Y-87215010D01*
X187735548Y-87267674D01*
X187645345Y-87276558D01*
X187600245Y-87281000D01*
X187049755Y-87281000D01*
X187004655Y-87276558D01*
X186914452Y-87267674D01*
X186740843Y-87215010D01*
X186739169Y-87214115D01*
X186654102Y-87168646D01*
X186580844Y-87129489D01*
X186537271Y-87093729D01*
X186440603Y-87014397D01*
X186348123Y-86901708D01*
X186325511Y-86874156D01*
X186239990Y-86714157D01*
X186187326Y-86540548D01*
X186169544Y-86360000D01*
X186187326Y-86179452D01*
X186239990Y-86005843D01*
X186325511Y-85845844D01*
X186371463Y-85789852D01*
X186440603Y-85705603D01*
X186537271Y-85626271D01*
X186580844Y-85590511D01*
X186740843Y-85504990D01*
X186914452Y-85452326D01*
X187004655Y-85443442D01*
X187049755Y-85439000D01*
X187600245Y-85439000D01*
X187645345Y-85443442D01*
G37*
G36*
X173719499Y-85788445D02*
G01*
X173756995Y-85799820D01*
X173791554Y-85818292D01*
X173821847Y-85843153D01*
X173846708Y-85873446D01*
X173865180Y-85908005D01*
X173876555Y-85945501D01*
X173881000Y-85990638D01*
X173881000Y-86729362D01*
X173876555Y-86774499D01*
X173865180Y-86811995D01*
X173846708Y-86846554D01*
X173821847Y-86876847D01*
X173791554Y-86901708D01*
X173756995Y-86920180D01*
X173719499Y-86931555D01*
X173674362Y-86936000D01*
X173035638Y-86936000D01*
X172990501Y-86931555D01*
X172953005Y-86920180D01*
X172918446Y-86901708D01*
X172888153Y-86876847D01*
X172863292Y-86846554D01*
X172844820Y-86811995D01*
X172833445Y-86774499D01*
X172829000Y-86729362D01*
X172829000Y-85990638D01*
X172833445Y-85945501D01*
X172844820Y-85908005D01*
X172863292Y-85873446D01*
X172888153Y-85843153D01*
X172918446Y-85818292D01*
X172953005Y-85799820D01*
X172990501Y-85788445D01*
X173035638Y-85784000D01*
X173674362Y-85784000D01*
X173719499Y-85788445D01*
G37*
G36*
X144379928Y-86011764D02*
G01*
X144401009Y-86018160D01*
X144420445Y-86028548D01*
X144437476Y-86042524D01*
X144451452Y-86059555D01*
X144461840Y-86078991D01*
X144468236Y-86100072D01*
X144471000Y-86128140D01*
X144471000Y-86591860D01*
X144468236Y-86619928D01*
X144461840Y-86641009D01*
X144451452Y-86660445D01*
X144437476Y-86677476D01*
X144420445Y-86691452D01*
X144401009Y-86701840D01*
X144379928Y-86708236D01*
X144351860Y-86711000D01*
X142538140Y-86711000D01*
X142510072Y-86708236D01*
X142488991Y-86701840D01*
X142469555Y-86691452D01*
X142452524Y-86677476D01*
X142438548Y-86660445D01*
X142428160Y-86641009D01*
X142421764Y-86619928D01*
X142419000Y-86591860D01*
X142419000Y-86128140D01*
X142421764Y-86100072D01*
X142428160Y-86078991D01*
X142438548Y-86059555D01*
X142452524Y-86042524D01*
X142469555Y-86028548D01*
X142488991Y-86018160D01*
X142510072Y-86011764D01*
X142538140Y-86009000D01*
X144351860Y-86009000D01*
X144379928Y-86011764D01*
G37*
G36*
X139429928Y-86011764D02*
G01*
X139451009Y-86018160D01*
X139470445Y-86028548D01*
X139487476Y-86042524D01*
X139501452Y-86059555D01*
X139511840Y-86078991D01*
X139518236Y-86100072D01*
X139521000Y-86128140D01*
X139521000Y-86591860D01*
X139518236Y-86619928D01*
X139511840Y-86641009D01*
X139501452Y-86660445D01*
X139487476Y-86677476D01*
X139470445Y-86691452D01*
X139451009Y-86701840D01*
X139429928Y-86708236D01*
X139401860Y-86711000D01*
X137588140Y-86711000D01*
X137560072Y-86708236D01*
X137538991Y-86701840D01*
X137519555Y-86691452D01*
X137502524Y-86677476D01*
X137488548Y-86660445D01*
X137478160Y-86641009D01*
X137471764Y-86619928D01*
X137469000Y-86591860D01*
X137469000Y-86128140D01*
X137471764Y-86100072D01*
X137478160Y-86078991D01*
X137488548Y-86059555D01*
X137502524Y-86042524D01*
X137519555Y-86028548D01*
X137538991Y-86018160D01*
X137560072Y-86011764D01*
X137588140Y-86009000D01*
X139401860Y-86009000D01*
X139429928Y-86011764D01*
G37*
G36*
X104460345Y-84808442D02*
G01*
X104550548Y-84817326D01*
X104724157Y-84869990D01*
X104724159Y-84869991D01*
X104727085Y-84871555D01*
X104884156Y-84955511D01*
X104907061Y-84974309D01*
X105024397Y-85070603D01*
X105082725Y-85141677D01*
X105139489Y-85210844D01*
X105225010Y-85370843D01*
X105277674Y-85544452D01*
X105295456Y-85725000D01*
X105277674Y-85905548D01*
X105225010Y-86079157D01*
X105139489Y-86239156D01*
X105115451Y-86268446D01*
X105024397Y-86379397D01*
X104927729Y-86458729D01*
X104884156Y-86494489D01*
X104724157Y-86580010D01*
X104550548Y-86632674D01*
X104460345Y-86641558D01*
X104415245Y-86646000D01*
X103864755Y-86646000D01*
X103819655Y-86641558D01*
X103729452Y-86632674D01*
X103555843Y-86580010D01*
X103395844Y-86494489D01*
X103352271Y-86458729D01*
X103255603Y-86379397D01*
X103164549Y-86268446D01*
X103140511Y-86239156D01*
X103054990Y-86079157D01*
X103002326Y-85905548D01*
X102984544Y-85725000D01*
X103002326Y-85544452D01*
X103054990Y-85370843D01*
X103140511Y-85210844D01*
X103197275Y-85141677D01*
X103255603Y-85070603D01*
X103372939Y-84974309D01*
X103395844Y-84955511D01*
X103552915Y-84871555D01*
X103555841Y-84869991D01*
X103555843Y-84869990D01*
X103729452Y-84817326D01*
X103819655Y-84808442D01*
X103864755Y-84804000D01*
X104415245Y-84804000D01*
X104460345Y-84808442D01*
G37*
G36*
X126271000Y-86491000D02*
G01*
X124269000Y-86491000D01*
X124269000Y-85589000D01*
X126271000Y-85589000D01*
X126271000Y-86491000D01*
G37*
G36*
X170293512Y-84193927D02*
G01*
X170442812Y-84223624D01*
X170606784Y-84291544D01*
X170754354Y-84390147D01*
X170879853Y-84515646D01*
X170978456Y-84663216D01*
X171046376Y-84827188D01*
X171081000Y-85001259D01*
X171081000Y-85178741D01*
X171046376Y-85352812D01*
X170978456Y-85516784D01*
X170879853Y-85664354D01*
X170754354Y-85789853D01*
X170606784Y-85888456D01*
X170442812Y-85956376D01*
X170293512Y-85986073D01*
X170268742Y-85991000D01*
X170091258Y-85991000D01*
X170066488Y-85986073D01*
X169917188Y-85956376D01*
X169753216Y-85888456D01*
X169605646Y-85789853D01*
X169480147Y-85664354D01*
X169381544Y-85516784D01*
X169313624Y-85352812D01*
X169279000Y-85178741D01*
X169279000Y-85001259D01*
X169313624Y-84827188D01*
X169381544Y-84663216D01*
X169480147Y-84515646D01*
X169605646Y-84390147D01*
X169753216Y-84291544D01*
X169917188Y-84223624D01*
X170066488Y-84193927D01*
X170091258Y-84189000D01*
X170268742Y-84189000D01*
X170293512Y-84193927D01*
G37*
G36*
X112311000Y-85601000D02*
G01*
X111209000Y-85601000D01*
X111209000Y-84499000D01*
X112311000Y-84499000D01*
X112311000Y-85601000D01*
G37*
G36*
X129271000Y-85541000D02*
G01*
X127269000Y-85541000D01*
X127269000Y-84639000D01*
X129271000Y-84639000D01*
X129271000Y-85541000D01*
G37*
G36*
X179716000Y-85481000D02*
G01*
X174614000Y-85481000D01*
X174614000Y-83879000D01*
X179716000Y-83879000D01*
X179716000Y-85481000D01*
G37*
G36*
X173719499Y-84038445D02*
G01*
X173756995Y-84049820D01*
X173791554Y-84068292D01*
X173821847Y-84093153D01*
X173846708Y-84123446D01*
X173865180Y-84158005D01*
X173876555Y-84195501D01*
X173881000Y-84240638D01*
X173881000Y-84979362D01*
X173876555Y-85024499D01*
X173865180Y-85061995D01*
X173846708Y-85096554D01*
X173821847Y-85126847D01*
X173791554Y-85151708D01*
X173756995Y-85170180D01*
X173719499Y-85181555D01*
X173674362Y-85186000D01*
X173035638Y-85186000D01*
X172990501Y-85181555D01*
X172953005Y-85170180D01*
X172918446Y-85151708D01*
X172888153Y-85126847D01*
X172863292Y-85096554D01*
X172844820Y-85061995D01*
X172833445Y-85024499D01*
X172829000Y-84979362D01*
X172829000Y-84240638D01*
X172833445Y-84195501D01*
X172844820Y-84158005D01*
X172863292Y-84123446D01*
X172888153Y-84093153D01*
X172918446Y-84068292D01*
X172953005Y-84049820D01*
X172990501Y-84038445D01*
X173035638Y-84034000D01*
X173674362Y-84034000D01*
X173719499Y-84038445D01*
G37*
G36*
X115071000Y-84901000D02*
G01*
X113069000Y-84901000D01*
X113069000Y-83999000D01*
X115071000Y-83999000D01*
X115071000Y-84901000D01*
G37*
G36*
X110219499Y-83728445D02*
G01*
X110256995Y-83739820D01*
X110291554Y-83758292D01*
X110321847Y-83783153D01*
X110346708Y-83813446D01*
X110365180Y-83848005D01*
X110376555Y-83885501D01*
X110381000Y-83930638D01*
X110381000Y-84669362D01*
X110376555Y-84714499D01*
X110365180Y-84751995D01*
X110346708Y-84786554D01*
X110321847Y-84816847D01*
X110291554Y-84841708D01*
X110256995Y-84860180D01*
X110219499Y-84871555D01*
X110174362Y-84876000D01*
X109535638Y-84876000D01*
X109490501Y-84871555D01*
X109453005Y-84860180D01*
X109418446Y-84841708D01*
X109388153Y-84816847D01*
X109363292Y-84786554D01*
X109344820Y-84751995D01*
X109333445Y-84714499D01*
X109329000Y-84669362D01*
X109329000Y-83930638D01*
X109333445Y-83885501D01*
X109344820Y-83848005D01*
X109363292Y-83813446D01*
X109388153Y-83783153D01*
X109418446Y-83758292D01*
X109453005Y-83739820D01*
X109490501Y-83728445D01*
X109535638Y-83724000D01*
X110174362Y-83724000D01*
X110219499Y-83728445D01*
G37*
G36*
X196535345Y-82903442D02*
G01*
X196625548Y-82912326D01*
X196799157Y-82964990D01*
X196959156Y-83050511D01*
X197002729Y-83086271D01*
X197099397Y-83165603D01*
X197168537Y-83249852D01*
X197214489Y-83305844D01*
X197300010Y-83465843D01*
X197352674Y-83639452D01*
X197370456Y-83820000D01*
X197352674Y-84000548D01*
X197300010Y-84174157D01*
X197214489Y-84334156D01*
X197178729Y-84377729D01*
X197099397Y-84474397D01*
X197002729Y-84553729D01*
X196959156Y-84589489D01*
X196799157Y-84675010D01*
X196625548Y-84727674D01*
X196535345Y-84736558D01*
X196490245Y-84741000D01*
X195939755Y-84741000D01*
X195894655Y-84736558D01*
X195804452Y-84727674D01*
X195630843Y-84675010D01*
X195470844Y-84589489D01*
X195427271Y-84553729D01*
X195330603Y-84474397D01*
X195251271Y-84377729D01*
X195215511Y-84334156D01*
X195129990Y-84174157D01*
X195077326Y-84000548D01*
X195059544Y-83820000D01*
X195077326Y-83639452D01*
X195129990Y-83465843D01*
X195215511Y-83305844D01*
X195261463Y-83249852D01*
X195330603Y-83165603D01*
X195427271Y-83086271D01*
X195470844Y-83050511D01*
X195630843Y-82964990D01*
X195804452Y-82912326D01*
X195894655Y-82903442D01*
X195939755Y-82899000D01*
X196490245Y-82899000D01*
X196535345Y-82903442D01*
G37*
G36*
X187645345Y-82903442D02*
G01*
X187735548Y-82912326D01*
X187909157Y-82964990D01*
X188069156Y-83050511D01*
X188112729Y-83086271D01*
X188209397Y-83165603D01*
X188278537Y-83249852D01*
X188324489Y-83305844D01*
X188410010Y-83465843D01*
X188462674Y-83639452D01*
X188480456Y-83820000D01*
X188462674Y-84000548D01*
X188410010Y-84174157D01*
X188324489Y-84334156D01*
X188288729Y-84377729D01*
X188209397Y-84474397D01*
X188112729Y-84553729D01*
X188069156Y-84589489D01*
X187909157Y-84675010D01*
X187735548Y-84727674D01*
X187645345Y-84736558D01*
X187600245Y-84741000D01*
X187049755Y-84741000D01*
X187004655Y-84736558D01*
X186914452Y-84727674D01*
X186740843Y-84675010D01*
X186580844Y-84589489D01*
X186537271Y-84553729D01*
X186440603Y-84474397D01*
X186361271Y-84377729D01*
X186325511Y-84334156D01*
X186239990Y-84174157D01*
X186187326Y-84000548D01*
X186169544Y-83820000D01*
X186187326Y-83639452D01*
X186239990Y-83465843D01*
X186325511Y-83305844D01*
X186371463Y-83249852D01*
X186440603Y-83165603D01*
X186537271Y-83086271D01*
X186580844Y-83050511D01*
X186740843Y-82964990D01*
X186914452Y-82912326D01*
X187004655Y-82903442D01*
X187049755Y-82899000D01*
X187600245Y-82899000D01*
X187645345Y-82903442D01*
G37*
G36*
X126271000Y-84591000D02*
G01*
X124269000Y-84591000D01*
X124269000Y-83689000D01*
X126271000Y-83689000D01*
X126271000Y-84591000D01*
G37*
G36*
X118071000Y-83951000D02*
G01*
X116069000Y-83951000D01*
X116069000Y-83049000D01*
X118071000Y-83049000D01*
X118071000Y-83951000D01*
G37*
G36*
X170293512Y-81653927D02*
G01*
X170442812Y-81683624D01*
X170606784Y-81751544D01*
X170754354Y-81850147D01*
X170879853Y-81975646D01*
X170978456Y-82123216D01*
X171046376Y-82287188D01*
X171081000Y-82461259D01*
X171081000Y-82638741D01*
X171046376Y-82812812D01*
X170978456Y-82976784D01*
X170879853Y-83124354D01*
X170754354Y-83249853D01*
X170606784Y-83348456D01*
X170442812Y-83416376D01*
X170293512Y-83446073D01*
X170268742Y-83451000D01*
X170091258Y-83451000D01*
X170066488Y-83446073D01*
X169917188Y-83416376D01*
X169753216Y-83348456D01*
X169605646Y-83249853D01*
X169480147Y-83124354D01*
X169381544Y-82976784D01*
X169313624Y-82812812D01*
X169279000Y-82638741D01*
X169279000Y-82461259D01*
X169313624Y-82287188D01*
X169381544Y-82123216D01*
X169480147Y-81975646D01*
X169605646Y-81850147D01*
X169753216Y-81751544D01*
X169917188Y-81683624D01*
X170066488Y-81653927D01*
X170091258Y-81649000D01*
X170268742Y-81649000D01*
X170293512Y-81653927D01*
G37*
G36*
X110219499Y-81978445D02*
G01*
X110256995Y-81989820D01*
X110291554Y-82008292D01*
X110321847Y-82033153D01*
X110346708Y-82063446D01*
X110365180Y-82098005D01*
X110376555Y-82135501D01*
X110381000Y-82180638D01*
X110381000Y-82919362D01*
X110376555Y-82964499D01*
X110365180Y-83001995D01*
X110346708Y-83036554D01*
X110321847Y-83066847D01*
X110291554Y-83091708D01*
X110256995Y-83110180D01*
X110219499Y-83121555D01*
X110174362Y-83126000D01*
X109535638Y-83126000D01*
X109490501Y-83121555D01*
X109453005Y-83110180D01*
X109418446Y-83091708D01*
X109388153Y-83066847D01*
X109363292Y-83036554D01*
X109344820Y-83001995D01*
X109333445Y-82964499D01*
X109329000Y-82919362D01*
X109329000Y-82180638D01*
X109333445Y-82135501D01*
X109344820Y-82098005D01*
X109363292Y-82063446D01*
X109388153Y-82033153D01*
X109418446Y-82008292D01*
X109453005Y-81989820D01*
X109490501Y-81978445D01*
X109535638Y-81974000D01*
X110174362Y-81974000D01*
X110219499Y-81978445D01*
G37*
G36*
X112311000Y-83101000D02*
G01*
X111209000Y-83101000D01*
X111209000Y-81999000D01*
X112311000Y-81999000D01*
X112311000Y-83101000D01*
G37*
G36*
X148369499Y-82028445D02*
G01*
X148406995Y-82039820D01*
X148441554Y-82058292D01*
X148471847Y-82083153D01*
X148496708Y-82113446D01*
X148515180Y-82148005D01*
X148526555Y-82185501D01*
X148531000Y-82230638D01*
X148531000Y-82869362D01*
X148526555Y-82914499D01*
X148515180Y-82951995D01*
X148496708Y-82986554D01*
X148471847Y-83016847D01*
X148441554Y-83041708D01*
X148406995Y-83060180D01*
X148369499Y-83071555D01*
X148324362Y-83076000D01*
X147585638Y-83076000D01*
X147540501Y-83071555D01*
X147503005Y-83060180D01*
X147468446Y-83041708D01*
X147438153Y-83016847D01*
X147413292Y-82986554D01*
X147394820Y-82951995D01*
X147383445Y-82914499D01*
X147379000Y-82869362D01*
X147379000Y-82230638D01*
X147383445Y-82185501D01*
X147394820Y-82148005D01*
X147413292Y-82113446D01*
X147438153Y-82083153D01*
X147468446Y-82058292D01*
X147503005Y-82039820D01*
X147540501Y-82028445D01*
X147585638Y-82024000D01*
X148324362Y-82024000D01*
X148369499Y-82028445D01*
G37*
G36*
X150119499Y-82028445D02*
G01*
X150156995Y-82039820D01*
X150191554Y-82058292D01*
X150221847Y-82083153D01*
X150246708Y-82113446D01*
X150265180Y-82148005D01*
X150276555Y-82185501D01*
X150281000Y-82230638D01*
X150281000Y-82869362D01*
X150276555Y-82914499D01*
X150265180Y-82951995D01*
X150246708Y-82986554D01*
X150221847Y-83016847D01*
X150191554Y-83041708D01*
X150156995Y-83060180D01*
X150119499Y-83071555D01*
X150074362Y-83076000D01*
X149335638Y-83076000D01*
X149290501Y-83071555D01*
X149253005Y-83060180D01*
X149218446Y-83041708D01*
X149188153Y-83016847D01*
X149163292Y-82986554D01*
X149144820Y-82951995D01*
X149133445Y-82914499D01*
X149129000Y-82869362D01*
X149129000Y-82230638D01*
X149133445Y-82185501D01*
X149144820Y-82148005D01*
X149163292Y-82113446D01*
X149188153Y-82083153D01*
X149218446Y-82058292D01*
X149253005Y-82039820D01*
X149290501Y-82028445D01*
X149335638Y-82024000D01*
X150074362Y-82024000D01*
X150119499Y-82028445D01*
G37*
G36*
X115071000Y-83001000D02*
G01*
X113069000Y-83001000D01*
X113069000Y-82099000D01*
X115071000Y-82099000D01*
X115071000Y-83001000D01*
G37*
G36*
X142174499Y-81393445D02*
G01*
X142211995Y-81404820D01*
X142246554Y-81423292D01*
X142276847Y-81448153D01*
X142301708Y-81478446D01*
X142320180Y-81513005D01*
X142331555Y-81550501D01*
X142336000Y-81595638D01*
X142336000Y-82234362D01*
X142331555Y-82279499D01*
X142320180Y-82316995D01*
X142301708Y-82351554D01*
X142276847Y-82381847D01*
X142246554Y-82406708D01*
X142211995Y-82425180D01*
X142174499Y-82436555D01*
X142129362Y-82441000D01*
X141390638Y-82441000D01*
X141345501Y-82436555D01*
X141308005Y-82425180D01*
X141273446Y-82406708D01*
X141243153Y-82381847D01*
X141218292Y-82351554D01*
X141199820Y-82316995D01*
X141188445Y-82279499D01*
X141184000Y-82234362D01*
X141184000Y-81595638D01*
X141188445Y-81550501D01*
X141199820Y-81513005D01*
X141218292Y-81478446D01*
X141243153Y-81448153D01*
X141273446Y-81423292D01*
X141308005Y-81404820D01*
X141345501Y-81393445D01*
X141390638Y-81389000D01*
X142129362Y-81389000D01*
X142174499Y-81393445D01*
G37*
G36*
X143924499Y-81393445D02*
G01*
X143961995Y-81404820D01*
X143996554Y-81423292D01*
X144026847Y-81448153D01*
X144051708Y-81478446D01*
X144070180Y-81513005D01*
X144081555Y-81550501D01*
X144086000Y-81595638D01*
X144086000Y-82234362D01*
X144081555Y-82279499D01*
X144070180Y-82316995D01*
X144051708Y-82351554D01*
X144026847Y-82381847D01*
X143996554Y-82406708D01*
X143961995Y-82425180D01*
X143924499Y-82436555D01*
X143879362Y-82441000D01*
X143140638Y-82441000D01*
X143095501Y-82436555D01*
X143058005Y-82425180D01*
X143023446Y-82406708D01*
X142993153Y-82381847D01*
X142968292Y-82351554D01*
X142949820Y-82316995D01*
X142938445Y-82279499D01*
X142934000Y-82234362D01*
X142934000Y-81595638D01*
X142938445Y-81550501D01*
X142949820Y-81513005D01*
X142968292Y-81478446D01*
X142993153Y-81448153D01*
X143023446Y-81423292D01*
X143058005Y-81404820D01*
X143095501Y-81393445D01*
X143140638Y-81389000D01*
X143879362Y-81389000D01*
X143924499Y-81393445D01*
G37*
G36*
X187645345Y-80363442D02*
G01*
X187735548Y-80372326D01*
X187909157Y-80424990D01*
X188069156Y-80510511D01*
X188094057Y-80530947D01*
X188209397Y-80625603D01*
X188278537Y-80709852D01*
X188324489Y-80765844D01*
X188410010Y-80925843D01*
X188462674Y-81099452D01*
X188480456Y-81280000D01*
X188462674Y-81460548D01*
X188410010Y-81634157D01*
X188324489Y-81794156D01*
X188301877Y-81821708D01*
X188209397Y-81934397D01*
X188119354Y-82008292D01*
X188069156Y-82049489D01*
X187909157Y-82135010D01*
X187735548Y-82187674D01*
X187645345Y-82196558D01*
X187600245Y-82201000D01*
X187049755Y-82201000D01*
X187004655Y-82196558D01*
X186914452Y-82187674D01*
X186740843Y-82135010D01*
X186580844Y-82049489D01*
X186530646Y-82008292D01*
X186440603Y-81934397D01*
X186348123Y-81821708D01*
X186325511Y-81794156D01*
X186239990Y-81634157D01*
X186187326Y-81460548D01*
X186169544Y-81280000D01*
X186187326Y-81099452D01*
X186239990Y-80925843D01*
X186325511Y-80765844D01*
X186371463Y-80709852D01*
X186440603Y-80625603D01*
X186555943Y-80530947D01*
X186580844Y-80510511D01*
X186740843Y-80424990D01*
X186914452Y-80372326D01*
X187004655Y-80363442D01*
X187049755Y-80359000D01*
X187600245Y-80359000D01*
X187645345Y-80363442D01*
G37*
G36*
X196535345Y-80363442D02*
G01*
X196625548Y-80372326D01*
X196799157Y-80424990D01*
X196959156Y-80510511D01*
X196984057Y-80530947D01*
X197099397Y-80625603D01*
X197168537Y-80709852D01*
X197214489Y-80765844D01*
X197300010Y-80925843D01*
X197352674Y-81099452D01*
X197370456Y-81280000D01*
X197352674Y-81460548D01*
X197300010Y-81634157D01*
X197214489Y-81794156D01*
X197191877Y-81821708D01*
X197099397Y-81934397D01*
X197009354Y-82008292D01*
X196959156Y-82049489D01*
X196799157Y-82135010D01*
X196625548Y-82187674D01*
X196535345Y-82196558D01*
X196490245Y-82201000D01*
X195939755Y-82201000D01*
X195894655Y-82196558D01*
X195804452Y-82187674D01*
X195630843Y-82135010D01*
X195470844Y-82049489D01*
X195420646Y-82008292D01*
X195330603Y-81934397D01*
X195238123Y-81821708D01*
X195215511Y-81794156D01*
X195129990Y-81634157D01*
X195077326Y-81460548D01*
X195059544Y-81280000D01*
X195077326Y-81099452D01*
X195129990Y-80925843D01*
X195215511Y-80765844D01*
X195261463Y-80709852D01*
X195330603Y-80625603D01*
X195445943Y-80530947D01*
X195470844Y-80510511D01*
X195630843Y-80424990D01*
X195804452Y-80372326D01*
X195894655Y-80363442D01*
X195939755Y-80359000D01*
X196490245Y-80359000D01*
X196535345Y-80363442D01*
G37*
G36*
X178164499Y-80708445D02*
G01*
X178201995Y-80719820D01*
X178236554Y-80738292D01*
X178266847Y-80763153D01*
X178291708Y-80793446D01*
X178310180Y-80828005D01*
X178321555Y-80865501D01*
X178326000Y-80910638D01*
X178326000Y-81649362D01*
X178321555Y-81694499D01*
X178310180Y-81731995D01*
X178291708Y-81766554D01*
X178266847Y-81796847D01*
X178236554Y-81821708D01*
X178201995Y-81840180D01*
X178164499Y-81851555D01*
X178119362Y-81856000D01*
X177480638Y-81856000D01*
X177435501Y-81851555D01*
X177398005Y-81840180D01*
X177363446Y-81821708D01*
X177333153Y-81796847D01*
X177308292Y-81766554D01*
X177289820Y-81731995D01*
X177278445Y-81694499D01*
X177274000Y-81649362D01*
X177274000Y-80910638D01*
X177278445Y-80865501D01*
X177289820Y-80828005D01*
X177308292Y-80793446D01*
X177333153Y-80763153D01*
X177363446Y-80738292D01*
X177398005Y-80719820D01*
X177435501Y-80708445D01*
X177480638Y-80704000D01*
X178119362Y-80704000D01*
X178164499Y-80708445D01*
G37*
G36*
X180069499Y-80708445D02*
G01*
X180106995Y-80719820D01*
X180141554Y-80738292D01*
X180171847Y-80763153D01*
X180196708Y-80793446D01*
X180215180Y-80828005D01*
X180226555Y-80865501D01*
X180231000Y-80910638D01*
X180231000Y-81649362D01*
X180226555Y-81694499D01*
X180215180Y-81731995D01*
X180196708Y-81766554D01*
X180171847Y-81796847D01*
X180141554Y-81821708D01*
X180106995Y-81840180D01*
X180069499Y-81851555D01*
X180024362Y-81856000D01*
X179385638Y-81856000D01*
X179340501Y-81851555D01*
X179303005Y-81840180D01*
X179268446Y-81821708D01*
X179238153Y-81796847D01*
X179213292Y-81766554D01*
X179194820Y-81731995D01*
X179183445Y-81694499D01*
X179179000Y-81649362D01*
X179179000Y-80910638D01*
X179183445Y-80865501D01*
X179194820Y-80828005D01*
X179213292Y-80793446D01*
X179238153Y-80763153D01*
X179268446Y-80738292D01*
X179303005Y-80719820D01*
X179340501Y-80708445D01*
X179385638Y-80704000D01*
X180024362Y-80704000D01*
X180069499Y-80708445D01*
G37*
G36*
X174354499Y-80708445D02*
G01*
X174391995Y-80719820D01*
X174426554Y-80738292D01*
X174456847Y-80763153D01*
X174481708Y-80793446D01*
X174500180Y-80828005D01*
X174511555Y-80865501D01*
X174516000Y-80910638D01*
X174516000Y-81649362D01*
X174511555Y-81694499D01*
X174500180Y-81731995D01*
X174481708Y-81766554D01*
X174456847Y-81796847D01*
X174426554Y-81821708D01*
X174391995Y-81840180D01*
X174354499Y-81851555D01*
X174309362Y-81856000D01*
X173670638Y-81856000D01*
X173625501Y-81851555D01*
X173588005Y-81840180D01*
X173553446Y-81821708D01*
X173523153Y-81796847D01*
X173498292Y-81766554D01*
X173479820Y-81731995D01*
X173468445Y-81694499D01*
X173464000Y-81649362D01*
X173464000Y-80910638D01*
X173468445Y-80865501D01*
X173479820Y-80828005D01*
X173498292Y-80793446D01*
X173523153Y-80763153D01*
X173553446Y-80738292D01*
X173588005Y-80719820D01*
X173625501Y-80708445D01*
X173670638Y-80704000D01*
X174309362Y-80704000D01*
X174354499Y-80708445D01*
G37*
G36*
X176259499Y-80708445D02*
G01*
X176296995Y-80719820D01*
X176331554Y-80738292D01*
X176361847Y-80763153D01*
X176386708Y-80793446D01*
X176405180Y-80828005D01*
X176416555Y-80865501D01*
X176421000Y-80910638D01*
X176421000Y-81649362D01*
X176416555Y-81694499D01*
X176405180Y-81731995D01*
X176386708Y-81766554D01*
X176361847Y-81796847D01*
X176331554Y-81821708D01*
X176296995Y-81840180D01*
X176259499Y-81851555D01*
X176214362Y-81856000D01*
X175575638Y-81856000D01*
X175530501Y-81851555D01*
X175493005Y-81840180D01*
X175458446Y-81821708D01*
X175428153Y-81796847D01*
X175403292Y-81766554D01*
X175384820Y-81731995D01*
X175373445Y-81694499D01*
X175369000Y-81649362D01*
X175369000Y-80910638D01*
X175373445Y-80865501D01*
X175384820Y-80828005D01*
X175403292Y-80793446D01*
X175428153Y-80763153D01*
X175458446Y-80738292D01*
X175493005Y-80719820D01*
X175530501Y-80708445D01*
X175575638Y-80704000D01*
X176214362Y-80704000D01*
X176259499Y-80708445D01*
G37*
G36*
X105149561Y-79727966D02*
G01*
X105182383Y-79737923D01*
X105212632Y-79754092D01*
X105239148Y-79775852D01*
X105260908Y-79802368D01*
X105277077Y-79832617D01*
X105287034Y-79865439D01*
X105291000Y-79905713D01*
X105291000Y-81384287D01*
X105287034Y-81424561D01*
X105277077Y-81457383D01*
X105260908Y-81487632D01*
X105239148Y-81514148D01*
X105212632Y-81535908D01*
X105182383Y-81552077D01*
X105149561Y-81562034D01*
X105109287Y-81566000D01*
X103170713Y-81566000D01*
X103130439Y-81562034D01*
X103097617Y-81552077D01*
X103067368Y-81535908D01*
X103040852Y-81514148D01*
X103019092Y-81487632D01*
X103002923Y-81457383D01*
X102992966Y-81424561D01*
X102989000Y-81384287D01*
X102989000Y-79905713D01*
X102992966Y-79865439D01*
X103002923Y-79832617D01*
X103019092Y-79802368D01*
X103040852Y-79775852D01*
X103067368Y-79754092D01*
X103097617Y-79737923D01*
X103130439Y-79727966D01*
X103170713Y-79724000D01*
X105109287Y-79724000D01*
X105149561Y-79727966D01*
G37*
G36*
X157699280Y-78880068D02*
G01*
X157815734Y-78903232D01*
X157949030Y-78958445D01*
X158010728Y-78984001D01*
X158025203Y-78989997D01*
X158213720Y-79115960D01*
X158374040Y-79276280D01*
X158500003Y-79464797D01*
X158586768Y-79674266D01*
X158631000Y-79896636D01*
X158631000Y-80123364D01*
X158586768Y-80345734D01*
X158500003Y-80555203D01*
X158374040Y-80743720D01*
X158213720Y-80904040D01*
X158025203Y-81030003D01*
X157815734Y-81116768D01*
X157704549Y-81138884D01*
X157593365Y-81161000D01*
X157366635Y-81161000D01*
X157255451Y-81138884D01*
X157144266Y-81116768D01*
X156934797Y-81030003D01*
X156746280Y-80904040D01*
X156585960Y-80743720D01*
X156459997Y-80555203D01*
X156373232Y-80345734D01*
X156329000Y-80123364D01*
X156329000Y-79896636D01*
X156373232Y-79674266D01*
X156459997Y-79464797D01*
X156585960Y-79276280D01*
X156746280Y-79115960D01*
X156934797Y-78989997D01*
X156949273Y-78984001D01*
X157010970Y-78958445D01*
X157144266Y-78903232D01*
X157260720Y-78880068D01*
X157366635Y-78859000D01*
X157593365Y-78859000D01*
X157699280Y-78880068D01*
G37*
G36*
X128383512Y-77113927D02*
G01*
X128532812Y-77143624D01*
X128696784Y-77211544D01*
X128844354Y-77310147D01*
X128969853Y-77435646D01*
X129068456Y-77583216D01*
X129136376Y-77747188D01*
X129171000Y-77921259D01*
X129171000Y-78098741D01*
X129136376Y-78272812D01*
X129068456Y-78436784D01*
X128969853Y-78584354D01*
X128844354Y-78709853D01*
X128696784Y-78808456D01*
X128551771Y-78868523D01*
X128530171Y-78880068D01*
X128511229Y-78895613D01*
X128495684Y-78914555D01*
X128484133Y-78936166D01*
X128477020Y-78959615D01*
X128474618Y-78984001D01*
X128477020Y-79008387D01*
X128484133Y-79031836D01*
X128495684Y-79053447D01*
X128511229Y-79072389D01*
X128530171Y-79087934D01*
X128551782Y-79099485D01*
X128575231Y-79106598D01*
X128599617Y-79109000D01*
X129171000Y-79109000D01*
X129171000Y-80911000D01*
X127369000Y-80911000D01*
X127369000Y-79109000D01*
X127940383Y-79109000D01*
X127964769Y-79106598D01*
X127988218Y-79099485D01*
X128009829Y-79087934D01*
X128028771Y-79072389D01*
X128044316Y-79053447D01*
X128055867Y-79031836D01*
X128062980Y-79008387D01*
X128065382Y-78984001D01*
X128062980Y-78959615D01*
X128055867Y-78936166D01*
X128044316Y-78914555D01*
X128028771Y-78895613D01*
X128009829Y-78880068D01*
X127988229Y-78868523D01*
X127843216Y-78808456D01*
X127695646Y-78709853D01*
X127570147Y-78584354D01*
X127471544Y-78436784D01*
X127403624Y-78272812D01*
X127369000Y-78098741D01*
X127369000Y-77921259D01*
X127403624Y-77747188D01*
X127471544Y-77583216D01*
X127570147Y-77435646D01*
X127695646Y-77310147D01*
X127843216Y-77211544D01*
X128007188Y-77143624D01*
X128156488Y-77113927D01*
X128181258Y-77109000D01*
X128358742Y-77109000D01*
X128383512Y-77113927D01*
G37*
G36*
X170293512Y-79113927D02*
G01*
X170442812Y-79143624D01*
X170606784Y-79211544D01*
X170754354Y-79310147D01*
X170879853Y-79435646D01*
X170978456Y-79583216D01*
X171046376Y-79747188D01*
X171081000Y-79921259D01*
X171081000Y-80098741D01*
X171046376Y-80272812D01*
X170978456Y-80436784D01*
X170879853Y-80584354D01*
X170754354Y-80709853D01*
X170606784Y-80808456D01*
X170442812Y-80876376D01*
X170303732Y-80904040D01*
X170268742Y-80911000D01*
X170091258Y-80911000D01*
X170056268Y-80904040D01*
X169917188Y-80876376D01*
X169753216Y-80808456D01*
X169605646Y-80709853D01*
X169480147Y-80584354D01*
X169381544Y-80436784D01*
X169313624Y-80272812D01*
X169279000Y-80098741D01*
X169279000Y-79921259D01*
X169313624Y-79747188D01*
X169381544Y-79583216D01*
X169480147Y-79435646D01*
X169605646Y-79310147D01*
X169753216Y-79211544D01*
X169917188Y-79143624D01*
X170066488Y-79113927D01*
X170091258Y-79109000D01*
X170268742Y-79109000D01*
X170293512Y-79113927D01*
G37*
G36*
X130883512Y-77113927D02*
G01*
X131032812Y-77143624D01*
X131196784Y-77211544D01*
X131344354Y-77310147D01*
X131469853Y-77435646D01*
X131568456Y-77583216D01*
X131636376Y-77747188D01*
X131671000Y-77921259D01*
X131671000Y-78098741D01*
X131636376Y-78272812D01*
X131568456Y-78436784D01*
X131469853Y-78584354D01*
X131344354Y-78709853D01*
X131196784Y-78808456D01*
X131032812Y-78876376D01*
X130977362Y-78887405D01*
X130953922Y-78894516D01*
X130932311Y-78906067D01*
X130913369Y-78921613D01*
X130897824Y-78940555D01*
X130886273Y-78962165D01*
X130879160Y-78985614D01*
X130876758Y-79010000D01*
X130879160Y-79034387D01*
X130886273Y-79057835D01*
X130897824Y-79079446D01*
X130913370Y-79098388D01*
X130932312Y-79113933D01*
X130953922Y-79125484D01*
X130977362Y-79132595D01*
X131032812Y-79143624D01*
X131196784Y-79211544D01*
X131344354Y-79310147D01*
X131469853Y-79435646D01*
X131568456Y-79583216D01*
X131636376Y-79747188D01*
X131671000Y-79921259D01*
X131671000Y-80098741D01*
X131636376Y-80272812D01*
X131568456Y-80436784D01*
X131469853Y-80584354D01*
X131344354Y-80709853D01*
X131196784Y-80808456D01*
X131032812Y-80876376D01*
X130893732Y-80904040D01*
X130858742Y-80911000D01*
X130681258Y-80911000D01*
X130646268Y-80904040D01*
X130507188Y-80876376D01*
X130343216Y-80808456D01*
X130195646Y-80709853D01*
X130070147Y-80584354D01*
X129971544Y-80436784D01*
X129903624Y-80272812D01*
X129869000Y-80098741D01*
X129869000Y-79921259D01*
X129903624Y-79747188D01*
X129971544Y-79583216D01*
X130070147Y-79435646D01*
X130195646Y-79310147D01*
X130343216Y-79211544D01*
X130507188Y-79143624D01*
X130562638Y-79132595D01*
X130586078Y-79125484D01*
X130607689Y-79113933D01*
X130626631Y-79098387D01*
X130642176Y-79079445D01*
X130653727Y-79057835D01*
X130660840Y-79034386D01*
X130663242Y-79010000D01*
X130660840Y-78985613D01*
X130653727Y-78962165D01*
X130642176Y-78940554D01*
X130626630Y-78921612D01*
X130607688Y-78906067D01*
X130586078Y-78894516D01*
X130562638Y-78887405D01*
X130507188Y-78876376D01*
X130343216Y-78808456D01*
X130195646Y-78709853D01*
X130070147Y-78584354D01*
X129971544Y-78436784D01*
X129903624Y-78272812D01*
X129869000Y-78098741D01*
X129869000Y-77921259D01*
X129903624Y-77747188D01*
X129971544Y-77583216D01*
X130070147Y-77435646D01*
X130195646Y-77310147D01*
X130343216Y-77211544D01*
X130507188Y-77143624D01*
X130656488Y-77113927D01*
X130681258Y-77109000D01*
X130858742Y-77109000D01*
X130883512Y-77113927D01*
G37*
G36*
X146551000Y-80701000D02*
G01*
X144699000Y-80701000D01*
X144699000Y-71699000D01*
X146551000Y-71699000D01*
X146551000Y-80701000D01*
G37*
G36*
X153751000Y-80701000D02*
G01*
X151899000Y-80701000D01*
X151899000Y-71699000D01*
X153751000Y-71699000D01*
X153751000Y-80701000D01*
G37*
G36*
X142174499Y-79488445D02*
G01*
X142211995Y-79499820D01*
X142246554Y-79518292D01*
X142276847Y-79543153D01*
X142301708Y-79573446D01*
X142320180Y-79608005D01*
X142331555Y-79645501D01*
X142336000Y-79690638D01*
X142336000Y-80329362D01*
X142331555Y-80374499D01*
X142320180Y-80411995D01*
X142301708Y-80446554D01*
X142276847Y-80476847D01*
X142246554Y-80501708D01*
X142211995Y-80520180D01*
X142174499Y-80531555D01*
X142129362Y-80536000D01*
X141390638Y-80536000D01*
X141345501Y-80531555D01*
X141308005Y-80520180D01*
X141273446Y-80501708D01*
X141243153Y-80476847D01*
X141218292Y-80446554D01*
X141199820Y-80411995D01*
X141188445Y-80374499D01*
X141184000Y-80329362D01*
X141184000Y-79690638D01*
X141188445Y-79645501D01*
X141199820Y-79608005D01*
X141218292Y-79573446D01*
X141243153Y-79543153D01*
X141273446Y-79518292D01*
X141308005Y-79499820D01*
X141345501Y-79488445D01*
X141390638Y-79484000D01*
X142129362Y-79484000D01*
X142174499Y-79488445D01*
G37*
G36*
X143924499Y-79488445D02*
G01*
X143961995Y-79499820D01*
X143996554Y-79518292D01*
X144026847Y-79543153D01*
X144051708Y-79573446D01*
X144070180Y-79608005D01*
X144081555Y-79645501D01*
X144086000Y-79690638D01*
X144086000Y-80329362D01*
X144081555Y-80374499D01*
X144070180Y-80411995D01*
X144051708Y-80446554D01*
X144026847Y-80476847D01*
X143996554Y-80501708D01*
X143961995Y-80520180D01*
X143924499Y-80531555D01*
X143879362Y-80536000D01*
X143140638Y-80536000D01*
X143095501Y-80531555D01*
X143058005Y-80520180D01*
X143023446Y-80501708D01*
X142993153Y-80476847D01*
X142968292Y-80446554D01*
X142949820Y-80411995D01*
X142938445Y-80374499D01*
X142934000Y-80329362D01*
X142934000Y-79690638D01*
X142938445Y-79645501D01*
X142949820Y-79608005D01*
X142968292Y-79573446D01*
X142993153Y-79543153D01*
X143023446Y-79518292D01*
X143058005Y-79499820D01*
X143095501Y-79488445D01*
X143140638Y-79484000D01*
X143879362Y-79484000D01*
X143924499Y-79488445D01*
G37*
G36*
X176259499Y-78958445D02*
G01*
X176296995Y-78969820D01*
X176331554Y-78988292D01*
X176361847Y-79013153D01*
X176386708Y-79043446D01*
X176405180Y-79078005D01*
X176416555Y-79115501D01*
X176421000Y-79160638D01*
X176421000Y-79899362D01*
X176416555Y-79944499D01*
X176405180Y-79981995D01*
X176386708Y-80016554D01*
X176361847Y-80046847D01*
X176331554Y-80071708D01*
X176296995Y-80090180D01*
X176259499Y-80101555D01*
X176214362Y-80106000D01*
X175575638Y-80106000D01*
X175530501Y-80101555D01*
X175493005Y-80090180D01*
X175458446Y-80071708D01*
X175428153Y-80046847D01*
X175403292Y-80016554D01*
X175384820Y-79981995D01*
X175373445Y-79944499D01*
X175369000Y-79899362D01*
X175369000Y-79160638D01*
X175373445Y-79115501D01*
X175384820Y-79078005D01*
X175403292Y-79043446D01*
X175428153Y-79013153D01*
X175458446Y-78988292D01*
X175493005Y-78969820D01*
X175530501Y-78958445D01*
X175575638Y-78954000D01*
X176214362Y-78954000D01*
X176259499Y-78958445D01*
G37*
G36*
X180069499Y-78958445D02*
G01*
X180106995Y-78969820D01*
X180141554Y-78988292D01*
X180171847Y-79013153D01*
X180196708Y-79043446D01*
X180215180Y-79078005D01*
X180226555Y-79115501D01*
X180231000Y-79160638D01*
X180231000Y-79899362D01*
X180226555Y-79944499D01*
X180215180Y-79981995D01*
X180196708Y-80016554D01*
X180171847Y-80046847D01*
X180141554Y-80071708D01*
X180106995Y-80090180D01*
X180069499Y-80101555D01*
X180024362Y-80106000D01*
X179385638Y-80106000D01*
X179340501Y-80101555D01*
X179303005Y-80090180D01*
X179268446Y-80071708D01*
X179238153Y-80046847D01*
X179213292Y-80016554D01*
X179194820Y-79981995D01*
X179183445Y-79944499D01*
X179179000Y-79899362D01*
X179179000Y-79160638D01*
X179183445Y-79115501D01*
X179194820Y-79078005D01*
X179213292Y-79043446D01*
X179238153Y-79013153D01*
X179268446Y-78988292D01*
X179303005Y-78969820D01*
X179340501Y-78958445D01*
X179385638Y-78954000D01*
X180024362Y-78954000D01*
X180069499Y-78958445D01*
G37*
G36*
X178164499Y-78958445D02*
G01*
X178201995Y-78969820D01*
X178236554Y-78988292D01*
X178266847Y-79013153D01*
X178291708Y-79043446D01*
X178310180Y-79078005D01*
X178321555Y-79115501D01*
X178326000Y-79160638D01*
X178326000Y-79899362D01*
X178321555Y-79944499D01*
X178310180Y-79981995D01*
X178291708Y-80016554D01*
X178266847Y-80046847D01*
X178236554Y-80071708D01*
X178201995Y-80090180D01*
X178164499Y-80101555D01*
X178119362Y-80106000D01*
X177480638Y-80106000D01*
X177435501Y-80101555D01*
X177398005Y-80090180D01*
X177363446Y-80071708D01*
X177333153Y-80046847D01*
X177308292Y-80016554D01*
X177289820Y-79981995D01*
X177278445Y-79944499D01*
X177274000Y-79899362D01*
X177274000Y-79160638D01*
X177278445Y-79115501D01*
X177289820Y-79078005D01*
X177308292Y-79043446D01*
X177333153Y-79013153D01*
X177363446Y-78988292D01*
X177398005Y-78969820D01*
X177435501Y-78958445D01*
X177480638Y-78954000D01*
X178119362Y-78954000D01*
X178164499Y-78958445D01*
G37*
G36*
X174354499Y-78958445D02*
G01*
X174391995Y-78969820D01*
X174426554Y-78988292D01*
X174456847Y-79013153D01*
X174481708Y-79043446D01*
X174500180Y-79078005D01*
X174511555Y-79115501D01*
X174516000Y-79160638D01*
X174516000Y-79899362D01*
X174511555Y-79944499D01*
X174500180Y-79981995D01*
X174481708Y-80016554D01*
X174456847Y-80046847D01*
X174426554Y-80071708D01*
X174391995Y-80090180D01*
X174354499Y-80101555D01*
X174309362Y-80106000D01*
X173670638Y-80106000D01*
X173625501Y-80101555D01*
X173588005Y-80090180D01*
X173553446Y-80071708D01*
X173523153Y-80046847D01*
X173498292Y-80016554D01*
X173479820Y-79981995D01*
X173468445Y-79944499D01*
X173464000Y-79899362D01*
X173464000Y-79160638D01*
X173468445Y-79115501D01*
X173479820Y-79078005D01*
X173498292Y-79043446D01*
X173523153Y-79013153D01*
X173553446Y-78988292D01*
X173588005Y-78969820D01*
X173625501Y-78958445D01*
X173670638Y-78954000D01*
X174309362Y-78954000D01*
X174354499Y-78958445D01*
G37*
G36*
X116551000Y-79691000D02*
G01*
X112049000Y-79691000D01*
X112049000Y-77789000D01*
X116551000Y-77789000D01*
X116551000Y-79691000D01*
G37*
G36*
X197224561Y-77822966D02*
G01*
X197257383Y-77832923D01*
X197287632Y-77849092D01*
X197314148Y-77870852D01*
X197335908Y-77897368D01*
X197352077Y-77927617D01*
X197362034Y-77960439D01*
X197366000Y-78000713D01*
X197366000Y-79479287D01*
X197362034Y-79519561D01*
X197352077Y-79552383D01*
X197335908Y-79582632D01*
X197314148Y-79609148D01*
X197287632Y-79630908D01*
X197257383Y-79647077D01*
X197224561Y-79657034D01*
X197184287Y-79661000D01*
X195245713Y-79661000D01*
X195205439Y-79657034D01*
X195172617Y-79647077D01*
X195142368Y-79630908D01*
X195115852Y-79609148D01*
X195094092Y-79582632D01*
X195077923Y-79552383D01*
X195067966Y-79519561D01*
X195064000Y-79479287D01*
X195064000Y-78000713D01*
X195067966Y-77960439D01*
X195077923Y-77927617D01*
X195094092Y-77897368D01*
X195115852Y-77870852D01*
X195142368Y-77849092D01*
X195172617Y-77832923D01*
X195205439Y-77822966D01*
X195245713Y-77819000D01*
X197184287Y-77819000D01*
X197224561Y-77822966D01*
G37*
G36*
X188334561Y-77822966D02*
G01*
X188367383Y-77832923D01*
X188397632Y-77849092D01*
X188424148Y-77870852D01*
X188445908Y-77897368D01*
X188462077Y-77927617D01*
X188472034Y-77960439D01*
X188476000Y-78000713D01*
X188476000Y-79479287D01*
X188472034Y-79519561D01*
X188462077Y-79552383D01*
X188445908Y-79582632D01*
X188424148Y-79609148D01*
X188397632Y-79630908D01*
X188367383Y-79647077D01*
X188334561Y-79657034D01*
X188294287Y-79661000D01*
X186355713Y-79661000D01*
X186315439Y-79657034D01*
X186282617Y-79647077D01*
X186252368Y-79630908D01*
X186225852Y-79609148D01*
X186204092Y-79582632D01*
X186187923Y-79552383D01*
X186177966Y-79519561D01*
X186174000Y-79479287D01*
X186174000Y-78000713D01*
X186177966Y-77960439D01*
X186187923Y-77927617D01*
X186204092Y-77897368D01*
X186225852Y-77870852D01*
X186252368Y-77849092D01*
X186282617Y-77832923D01*
X186315439Y-77822966D01*
X186355713Y-77819000D01*
X188294287Y-77819000D01*
X188334561Y-77822966D01*
G37*
G36*
X104460345Y-77188442D02*
G01*
X104550548Y-77197326D01*
X104724157Y-77249990D01*
X104884156Y-77335511D01*
X104927281Y-77370903D01*
X105024397Y-77450603D01*
X105083004Y-77522017D01*
X105139489Y-77590844D01*
X105225010Y-77750843D01*
X105277674Y-77924452D01*
X105295456Y-78105000D01*
X105277674Y-78285548D01*
X105225010Y-78459157D01*
X105139489Y-78619156D01*
X105124906Y-78636925D01*
X105024397Y-78759397D01*
X104927729Y-78838729D01*
X104884156Y-78874489D01*
X104795993Y-78921613D01*
X104725948Y-78959053D01*
X104724157Y-78960010D01*
X104550548Y-79012674D01*
X104460345Y-79021558D01*
X104415245Y-79026000D01*
X103864755Y-79026000D01*
X103819655Y-79021558D01*
X103729452Y-79012674D01*
X103555843Y-78960010D01*
X103554053Y-78959053D01*
X103484007Y-78921613D01*
X103395844Y-78874489D01*
X103352271Y-78838729D01*
X103255603Y-78759397D01*
X103155094Y-78636925D01*
X103140511Y-78619156D01*
X103054990Y-78459157D01*
X103002326Y-78285548D01*
X102984544Y-78105000D01*
X103002326Y-77924452D01*
X103054990Y-77750843D01*
X103140511Y-77590844D01*
X103196996Y-77522017D01*
X103255603Y-77450603D01*
X103352719Y-77370903D01*
X103395844Y-77335511D01*
X103555843Y-77249990D01*
X103729452Y-77197326D01*
X103819655Y-77188442D01*
X103864755Y-77184000D01*
X104415245Y-77184000D01*
X104460345Y-77188442D01*
G37*
G36*
X143338674Y-77358465D02*
G01*
X143376367Y-77369899D01*
X143411103Y-77388466D01*
X143441548Y-77413452D01*
X143466534Y-77443897D01*
X143485101Y-77478633D01*
X143496535Y-77516326D01*
X143501000Y-77561661D01*
X143501000Y-78648339D01*
X143496535Y-78693674D01*
X143485101Y-78731367D01*
X143466534Y-78766103D01*
X143441548Y-78796548D01*
X143411103Y-78821534D01*
X143376367Y-78840101D01*
X143338674Y-78851535D01*
X143293339Y-78856000D01*
X142456661Y-78856000D01*
X142411326Y-78851535D01*
X142373633Y-78840101D01*
X142338897Y-78821534D01*
X142308452Y-78796548D01*
X142283466Y-78766103D01*
X142264899Y-78731367D01*
X142253465Y-78693674D01*
X142249000Y-78648339D01*
X142249000Y-77561661D01*
X142253465Y-77516326D01*
X142264899Y-77478633D01*
X142283466Y-77443897D01*
X142308452Y-77413452D01*
X142338897Y-77388466D01*
X142373633Y-77369899D01*
X142411326Y-77358465D01*
X142456661Y-77354000D01*
X143293339Y-77354000D01*
X143338674Y-77358465D01*
G37*
G36*
X141288674Y-77358465D02*
G01*
X141326367Y-77369899D01*
X141361103Y-77388466D01*
X141391548Y-77413452D01*
X141416534Y-77443897D01*
X141435101Y-77478633D01*
X141446535Y-77516326D01*
X141451000Y-77561661D01*
X141451000Y-78648339D01*
X141446535Y-78693674D01*
X141435101Y-78731367D01*
X141416534Y-78766103D01*
X141391548Y-78796548D01*
X141361103Y-78821534D01*
X141326367Y-78840101D01*
X141288674Y-78851535D01*
X141243339Y-78856000D01*
X140406661Y-78856000D01*
X140361326Y-78851535D01*
X140323633Y-78840101D01*
X140288897Y-78821534D01*
X140258452Y-78796548D01*
X140233466Y-78766103D01*
X140214899Y-78731367D01*
X140203465Y-78693674D01*
X140199000Y-78648339D01*
X140199000Y-77561661D01*
X140203465Y-77516326D01*
X140214899Y-77478633D01*
X140233466Y-77443897D01*
X140258452Y-77413452D01*
X140288897Y-77388466D01*
X140323633Y-77369899D01*
X140361326Y-77358465D01*
X140406661Y-77354000D01*
X141243339Y-77354000D01*
X141288674Y-77358465D01*
G37*
G36*
X170293512Y-76573927D02*
G01*
X170442812Y-76603624D01*
X170606784Y-76671544D01*
X170754354Y-76770147D01*
X170879853Y-76895646D01*
X170978456Y-77043216D01*
X171046376Y-77207188D01*
X171066855Y-77310147D01*
X171078741Y-77369899D01*
X171081000Y-77381259D01*
X171081000Y-77558741D01*
X171046376Y-77732812D01*
X170978456Y-77896784D01*
X170879853Y-78044354D01*
X170754354Y-78169853D01*
X170606784Y-78268456D01*
X170442812Y-78336376D01*
X170293512Y-78366073D01*
X170268742Y-78371000D01*
X170091258Y-78371000D01*
X170066488Y-78366073D01*
X169917188Y-78336376D01*
X169753216Y-78268456D01*
X169605646Y-78169853D01*
X169480147Y-78044354D01*
X169381544Y-77896784D01*
X169313624Y-77732812D01*
X169279000Y-77558741D01*
X169279000Y-77381259D01*
X169281260Y-77369899D01*
X169293145Y-77310147D01*
X169313624Y-77207188D01*
X169381544Y-77043216D01*
X169480147Y-76895646D01*
X169605646Y-76770147D01*
X169753216Y-76671544D01*
X169917188Y-76603624D01*
X170066488Y-76573927D01*
X170091258Y-76569000D01*
X170268742Y-76569000D01*
X170293512Y-76573927D01*
G37*
G36*
X109686425Y-73702760D02*
G01*
X109686428Y-73702761D01*
X109686429Y-73702761D01*
X109865693Y-73757140D01*
X109865696Y-73757142D01*
X109865697Y-73757142D01*
X110030903Y-73845446D01*
X110175712Y-73964288D01*
X110294554Y-74109097D01*
X110382858Y-74274303D01*
X110382860Y-74274307D01*
X110435218Y-74446908D01*
X110437240Y-74453575D01*
X110451000Y-74593282D01*
X110451000Y-76886718D01*
X110437240Y-77026425D01*
X110437239Y-77026428D01*
X110437239Y-77026429D01*
X110382860Y-77205693D01*
X110382858Y-77205696D01*
X110382858Y-77205697D01*
X110294554Y-77370903D01*
X110175712Y-77515712D01*
X110030903Y-77634554D01*
X109865696Y-77722858D01*
X109865692Y-77722860D01*
X109686428Y-77777239D01*
X109686427Y-77777239D01*
X109686424Y-77777240D01*
X109500000Y-77795601D01*
X109313575Y-77777240D01*
X109313572Y-77777239D01*
X109313571Y-77777239D01*
X109134307Y-77722860D01*
X109134303Y-77722858D01*
X108969097Y-77634554D01*
X108824288Y-77515712D01*
X108705446Y-77370903D01*
X108617142Y-77205696D01*
X108617141Y-77205693D01*
X108617140Y-77205692D01*
X108562761Y-77026428D01*
X108562761Y-77026427D01*
X108562760Y-77026424D01*
X108549000Y-76886717D01*
X108549001Y-74593282D01*
X108562761Y-74453575D01*
X108564783Y-74446908D01*
X108617141Y-74274307D01*
X108617143Y-74274303D01*
X108705447Y-74109097D01*
X108824289Y-73964288D01*
X108969098Y-73845446D01*
X109134304Y-73757142D01*
X109134305Y-73757142D01*
X109134308Y-73757140D01*
X109313572Y-73702761D01*
X109313573Y-73702761D01*
X109313576Y-73702760D01*
X109500000Y-73684399D01*
X109686425Y-73702760D01*
G37*
G36*
X136065331Y-73568211D02*
G01*
X136393092Y-73703974D01*
X136688070Y-73901072D01*
X136938928Y-74151930D01*
X137136026Y-74446908D01*
X137271789Y-74774669D01*
X137341000Y-75122616D01*
X137341000Y-75477384D01*
X137271789Y-75825331D01*
X137136026Y-76153092D01*
X136938928Y-76448070D01*
X136688070Y-76698928D01*
X136393092Y-76896026D01*
X136065331Y-77031789D01*
X135717384Y-77101000D01*
X135362616Y-77101000D01*
X135014669Y-77031789D01*
X134686908Y-76896026D01*
X134391930Y-76698928D01*
X134141072Y-76448070D01*
X133943974Y-76153092D01*
X133808211Y-75825331D01*
X133739000Y-75477384D01*
X133739000Y-75122616D01*
X133808211Y-74774669D01*
X133943974Y-74446908D01*
X134141072Y-74151930D01*
X134391930Y-73901072D01*
X134686908Y-73703974D01*
X135014669Y-73568211D01*
X135362616Y-73499000D01*
X135717384Y-73499000D01*
X136065331Y-73568211D01*
G37*
G36*
X124025331Y-73568211D02*
G01*
X124353092Y-73703974D01*
X124648070Y-73901072D01*
X124898928Y-74151930D01*
X125096026Y-74446908D01*
X125231789Y-74774669D01*
X125301000Y-75122616D01*
X125301000Y-75477384D01*
X125231789Y-75825331D01*
X125096026Y-76153092D01*
X124898928Y-76448070D01*
X124648070Y-76698928D01*
X124353092Y-76896026D01*
X124025331Y-77031789D01*
X123677384Y-77101000D01*
X123322616Y-77101000D01*
X122974669Y-77031789D01*
X122646908Y-76896026D01*
X122351930Y-76698928D01*
X122101072Y-76448070D01*
X121903974Y-76153092D01*
X121768211Y-75825331D01*
X121699000Y-75477384D01*
X121699000Y-75122616D01*
X121768211Y-74774669D01*
X121903974Y-74446908D01*
X122101072Y-74151930D01*
X122351930Y-73901072D01*
X122646908Y-73703974D01*
X122974669Y-73568211D01*
X123322616Y-73499000D01*
X123677384Y-73499000D01*
X124025331Y-73568211D01*
G37*
G36*
X143338674Y-75453465D02*
G01*
X143376367Y-75464899D01*
X143411103Y-75483466D01*
X143441548Y-75508452D01*
X143466534Y-75538897D01*
X143485101Y-75573633D01*
X143496535Y-75611326D01*
X143501000Y-75656661D01*
X143501000Y-76743339D01*
X143496535Y-76788674D01*
X143485101Y-76826367D01*
X143466534Y-76861103D01*
X143441548Y-76891548D01*
X143411103Y-76916534D01*
X143376367Y-76935101D01*
X143338674Y-76946535D01*
X143293339Y-76951000D01*
X142456661Y-76951000D01*
X142411326Y-76946535D01*
X142373633Y-76935101D01*
X142338897Y-76916534D01*
X142308452Y-76891548D01*
X142283466Y-76861103D01*
X142264899Y-76826367D01*
X142253465Y-76788674D01*
X142249000Y-76743339D01*
X142249000Y-75656661D01*
X142253465Y-75611326D01*
X142264899Y-75573633D01*
X142283466Y-75538897D01*
X142308452Y-75508452D01*
X142338897Y-75483466D01*
X142373633Y-75464899D01*
X142411326Y-75453465D01*
X142456661Y-75449000D01*
X143293339Y-75449000D01*
X143338674Y-75453465D01*
G37*
G36*
X141288674Y-75453465D02*
G01*
X141326367Y-75464899D01*
X141361103Y-75483466D01*
X141391548Y-75508452D01*
X141416534Y-75538897D01*
X141435101Y-75573633D01*
X141446535Y-75611326D01*
X141451000Y-75656661D01*
X141451000Y-76743339D01*
X141446535Y-76788674D01*
X141435101Y-76826367D01*
X141416534Y-76861103D01*
X141391548Y-76891548D01*
X141361103Y-76916534D01*
X141326367Y-76935101D01*
X141288674Y-76946535D01*
X141243339Y-76951000D01*
X140406661Y-76951000D01*
X140361326Y-76946535D01*
X140323633Y-76935101D01*
X140288897Y-76916534D01*
X140258452Y-76891548D01*
X140233466Y-76861103D01*
X140214899Y-76826367D01*
X140203465Y-76788674D01*
X140199000Y-76743339D01*
X140199000Y-75656661D01*
X140203465Y-75611326D01*
X140214899Y-75573633D01*
X140233466Y-75538897D01*
X140258452Y-75508452D01*
X140288897Y-75483466D01*
X140323633Y-75464899D01*
X140361326Y-75453465D01*
X140406661Y-75449000D01*
X141243339Y-75449000D01*
X141288674Y-75453465D01*
G37*
G36*
X170293512Y-74033927D02*
G01*
X170442812Y-74063624D01*
X170606784Y-74131544D01*
X170754354Y-74230147D01*
X170879853Y-74355646D01*
X170978456Y-74503216D01*
X171046376Y-74667188D01*
X171081000Y-74841259D01*
X171081000Y-75018741D01*
X171046376Y-75192812D01*
X170978456Y-75356784D01*
X170879853Y-75504354D01*
X170754354Y-75629853D01*
X170606784Y-75728456D01*
X170442812Y-75796376D01*
X170297242Y-75825331D01*
X170268742Y-75831000D01*
X170091258Y-75831000D01*
X170062758Y-75825331D01*
X169917188Y-75796376D01*
X169753216Y-75728456D01*
X169605646Y-75629853D01*
X169480147Y-75504354D01*
X169381544Y-75356784D01*
X169313624Y-75192812D01*
X169279000Y-75018741D01*
X169279000Y-74841259D01*
X169313624Y-74667188D01*
X169381544Y-74503216D01*
X169480147Y-74355646D01*
X169605646Y-74230147D01*
X169753216Y-74131544D01*
X169917188Y-74063624D01*
X170066488Y-74033927D01*
X170091258Y-74029000D01*
X170268742Y-74029000D01*
X170293512Y-74033927D01*
G37*
G36*
X141384499Y-73773445D02*
G01*
X141421995Y-73784820D01*
X141456554Y-73803292D01*
X141486847Y-73828153D01*
X141511708Y-73858446D01*
X141530180Y-73893005D01*
X141541555Y-73930501D01*
X141546000Y-73975638D01*
X141546000Y-74614362D01*
X141541555Y-74659499D01*
X141530180Y-74696995D01*
X141511708Y-74731554D01*
X141486847Y-74761847D01*
X141456554Y-74786708D01*
X141421995Y-74805180D01*
X141384499Y-74816555D01*
X141339362Y-74821000D01*
X140600638Y-74821000D01*
X140555501Y-74816555D01*
X140518005Y-74805180D01*
X140483446Y-74786708D01*
X140453153Y-74761847D01*
X140428292Y-74731554D01*
X140409820Y-74696995D01*
X140398445Y-74659499D01*
X140394000Y-74614362D01*
X140394000Y-73975638D01*
X140398445Y-73930501D01*
X140409820Y-73893005D01*
X140428292Y-73858446D01*
X140453153Y-73828153D01*
X140483446Y-73803292D01*
X140518005Y-73784820D01*
X140555501Y-73773445D01*
X140600638Y-73769000D01*
X141339362Y-73769000D01*
X141384499Y-73773445D01*
G37*
G36*
X143134499Y-73773445D02*
G01*
X143171995Y-73784820D01*
X143206554Y-73803292D01*
X143236847Y-73828153D01*
X143261708Y-73858446D01*
X143280180Y-73893005D01*
X143291555Y-73930501D01*
X143296000Y-73975638D01*
X143296000Y-74614362D01*
X143291555Y-74659499D01*
X143280180Y-74696995D01*
X143261708Y-74731554D01*
X143236847Y-74761847D01*
X143206554Y-74786708D01*
X143171995Y-74805180D01*
X143134499Y-74816555D01*
X143089362Y-74821000D01*
X142350638Y-74821000D01*
X142305501Y-74816555D01*
X142268005Y-74805180D01*
X142233446Y-74786708D01*
X142203153Y-74761847D01*
X142178292Y-74731554D01*
X142159820Y-74696995D01*
X142148445Y-74659499D01*
X142144000Y-74614362D01*
X142144000Y-73975638D01*
X142148445Y-73930501D01*
X142159820Y-73893005D01*
X142178292Y-73858446D01*
X142203153Y-73828153D01*
X142233446Y-73803292D01*
X142268005Y-73784820D01*
X142305501Y-73773445D01*
X142350638Y-73769000D01*
X143089362Y-73769000D01*
X143134499Y-73773445D01*
G37*
G36*
X115586425Y-72002760D02*
G01*
X115586428Y-72002761D01*
X115586429Y-72002761D01*
X115765693Y-72057140D01*
X115765696Y-72057142D01*
X115765697Y-72057142D01*
X115930903Y-72145446D01*
X116075712Y-72264288D01*
X116194554Y-72409097D01*
X116282858Y-72574303D01*
X116282860Y-72574307D01*
X116306674Y-72652812D01*
X116337240Y-72753575D01*
X116355601Y-72940000D01*
X116337240Y-73126425D01*
X116337239Y-73126428D01*
X116337239Y-73126429D01*
X116282860Y-73305693D01*
X116282858Y-73305696D01*
X116282858Y-73305697D01*
X116194554Y-73470903D01*
X116075712Y-73615712D01*
X115930903Y-73734554D01*
X115765697Y-73822858D01*
X115765693Y-73822860D01*
X115586429Y-73877239D01*
X115586428Y-73877239D01*
X115586425Y-73877240D01*
X115446718Y-73891000D01*
X113153282Y-73891000D01*
X113013575Y-73877240D01*
X113013572Y-73877239D01*
X113013571Y-73877239D01*
X112834307Y-73822860D01*
X112834303Y-73822858D01*
X112669097Y-73734554D01*
X112524288Y-73615712D01*
X112405446Y-73470903D01*
X112317142Y-73305697D01*
X112317142Y-73305696D01*
X112317140Y-73305693D01*
X112262761Y-73126429D01*
X112262761Y-73126428D01*
X112262760Y-73126425D01*
X112244399Y-72940000D01*
X112262760Y-72753575D01*
X112293326Y-72652812D01*
X112317140Y-72574307D01*
X112317142Y-72574303D01*
X112405446Y-72409097D01*
X112524288Y-72264288D01*
X112669097Y-72145446D01*
X112834303Y-72057142D01*
X112834304Y-72057142D01*
X112834307Y-72057140D01*
X113013571Y-72002761D01*
X113013572Y-72002761D01*
X113013575Y-72002760D01*
X113153282Y-71989000D01*
X115446718Y-71989000D01*
X115586425Y-72002760D01*
G37*
G36*
X197724549Y-71371116D02*
G01*
X197835734Y-71393232D01*
X198045203Y-71479997D01*
X198233720Y-71605960D01*
X198394040Y-71766280D01*
X198520003Y-71954797D01*
X198606768Y-72164266D01*
X198651000Y-72386636D01*
X198651000Y-72613364D01*
X198606768Y-72835734D01*
X198520003Y-73045203D01*
X198394040Y-73233720D01*
X198233720Y-73394040D01*
X198045203Y-73520003D01*
X197835734Y-73606768D01*
X197790769Y-73615712D01*
X197613365Y-73651000D01*
X197386635Y-73651000D01*
X197209231Y-73615712D01*
X197164266Y-73606768D01*
X196954797Y-73520003D01*
X196766280Y-73394040D01*
X196605960Y-73233720D01*
X196479997Y-73045203D01*
X196393232Y-72835734D01*
X196349000Y-72613364D01*
X196349000Y-72386636D01*
X196393232Y-72164266D01*
X196479997Y-71954797D01*
X196605960Y-71766280D01*
X196766280Y-71605960D01*
X196954797Y-71479997D01*
X197164266Y-71393232D01*
X197275451Y-71371116D01*
X197386635Y-71349000D01*
X197613365Y-71349000D01*
X197724549Y-71371116D01*
G37*
G36*
X102724549Y-71371116D02*
G01*
X102835734Y-71393232D01*
X103045203Y-71479997D01*
X103233720Y-71605960D01*
X103394040Y-71766280D01*
X103520003Y-71954797D01*
X103606768Y-72164266D01*
X103651000Y-72386636D01*
X103651000Y-72613364D01*
X103606768Y-72835734D01*
X103520003Y-73045203D01*
X103394040Y-73233720D01*
X103233720Y-73394040D01*
X103045203Y-73520003D01*
X102835734Y-73606768D01*
X102790769Y-73615712D01*
X102613365Y-73651000D01*
X102386635Y-73651000D01*
X102209231Y-73615712D01*
X102164266Y-73606768D01*
X101954797Y-73520003D01*
X101766280Y-73394040D01*
X101605960Y-73233720D01*
X101479997Y-73045203D01*
X101393232Y-72835734D01*
X101349000Y-72613364D01*
X101349000Y-72386636D01*
X101393232Y-72164266D01*
X101479997Y-71954797D01*
X101605960Y-71766280D01*
X101766280Y-71605960D01*
X101954797Y-71479997D01*
X102164266Y-71393232D01*
X102275451Y-71371116D01*
X102386635Y-71349000D01*
X102613365Y-71349000D01*
X102724549Y-71371116D01*
G37*
G36*
X170293512Y-71493927D02*
G01*
X170442812Y-71523624D01*
X170606784Y-71591544D01*
X170754354Y-71690147D01*
X170879853Y-71815646D01*
X170978456Y-71963216D01*
X171046376Y-72127188D01*
X171081000Y-72301259D01*
X171081000Y-72478741D01*
X171046376Y-72652812D01*
X170978456Y-72816784D01*
X170879853Y-72964354D01*
X170754354Y-73089853D01*
X170606784Y-73188456D01*
X170442812Y-73256376D01*
X170293512Y-73286073D01*
X170268742Y-73291000D01*
X170091258Y-73291000D01*
X170066488Y-73286073D01*
X169917188Y-73256376D01*
X169753216Y-73188456D01*
X169605646Y-73089853D01*
X169480147Y-72964354D01*
X169381544Y-72816784D01*
X169313624Y-72652812D01*
X169279000Y-72478741D01*
X169279000Y-72301259D01*
X169313624Y-72127188D01*
X169381544Y-71963216D01*
X169480147Y-71815646D01*
X169605646Y-71690147D01*
X169753216Y-71591544D01*
X169917188Y-71523624D01*
X170066488Y-71493927D01*
X170091258Y-71489000D01*
X170268742Y-71489000D01*
X170293512Y-71493927D01*
G37*
M02*
